<?xml version="1.0" encoding="UTF-8" standalone="no"?>
<svg width="116px" height="134px" viewBox="0 0 116 134" version="1.1" xmlns="http://www.w3.org/2000/svg" xmlns:xlink="http://www.w3.org/1999/xlink">
    <!-- Generator: Sketch 42 (36781) - http://www.bohemiancoding.com/sketch -->
    <title>intro-image-01</title>
    <desc>Created with Sketch.</desc>
    <defs></defs>
    <g id="Page-1" stroke="none" stroke-width="1" fill="none" fill-rule="evenodd">
        <g id="intro-1" transform="translate(-129.000000, -87.000000)" fill="#00A3DE">
            <g id="intro-image-01" transform="translate(129.000000, 87.000000)">
                <path d="M29.5603763,133.726034 L9.16996048e-05,109.524349 L16.9438862,92.8138151 C26.1885818,83.6600548 39.9792854,80.8703767 52.0497043,85.7131918 L72.9076964,85.7131918 C77.2308743,85.7131918 80.7351747,89.2205959 80.7351747,93.5476027 C80.7351747,97.8741507 77.2308743,101.382014 72.9076964,101.382014 L56.7557281,101.382014 C55.3256727,101.383849 54.1679652,102.545336 54.1693407,103.976658 C54.1711747,105.405685 55.3279652,106.563959 56.7557281,106.565795 L75.0598862,106.565795 C77.6944158,106.564877 80.203317,105.436432 81.953404,103.464979 L101.687617,80.9438014 C104.704534,77.6199589 109.842005,77.3739863 113.162447,80.3931164 C116.410447,83.3470822 116.727728,88.3486781 113.878163,91.6895 L89.2366451,120.400377 C85.5654514,124.611281 80.2537518,127.02787 74.6697043,127.027411 L36.2053881,127.027411 L29.5603763,133.726034 Z" id="Fill-1"></path>
                <path d="M82.2547747,49.4594 C74.6221581,49.4864753 68.4122609,55.7234411 68.4122609,63.3637356 C68.4122609,71.0306466 74.644166,77.2680712 82.3042925,77.2680712 C89.964419,77.2680712 96.1963241,71.0301877 96.1963241,63.3632767 C96.1963241,55.6963658 89.9639605,49.4589411 82.303834,49.4589411 L82.2547747,49.4594 Z M82.3042925,81.3982082 C72.3686403,81.3982082 64.2857787,73.3081877 64.2857787,63.3637356 C64.2857787,53.4541603 72.3397549,45.3641397 82.2405613,45.329263 L82.303834,45.3288041 C92.2394862,45.3288041 100.322806,53.4188247 100.322806,63.3632767 C100.322806,73.3077288 92.2394862,81.3982082 82.3042925,81.3982082 L82.3042925,81.3982082 Z" id="Fill-3"></path>
                <path d="M88.3739352,62.3005925 C85.5922277,58.866613 79.4561486,64.2628664 77.8197692,62.1372226 C77.0013502,61.1560856 77.5744727,59.84775 78.6377296,58.9482979 C80.5194055,57.3949075 81.8288759,58.3760445 82.6468364,57.6404212 C83.2195004,57.1498527 83.2195004,56.5775993 82.8921328,56.0870308 C82.0741723,55.1058938 80.0288126,55.5964623 78.3924332,56.4954555 L77.6560854,55.5143185 C77.165034,54.9420651 76.3470735,54.8603801 75.6923383,55.3509486 C75.1196743,55.8415171 75.0380617,56.6592842 75.5286545,57.3132226 L76.3470735,58.2943596 C75.1196743,59.9294349 74.6290814,62.0555377 76.0197059,63.8539829 C78.7198008,67.1245925 84.8558798,61.8917089 86.7375557,64.1811815 C87.3922909,64.9984897 87.146536,66.4701952 85.7559115,67.615161 C83.6284806,69.3319212 81.7468047,68.5141541 80.8467731,69.1685514 C80.4377929,69.4952911 80.3561802,70.1496884 80.7651605,70.7219418 C81.4194372,71.53925 83.7105518,71.4575651 85.9195953,70.1496884 L86.8196269,71.2125103 C87.3102198,71.7847637 88.1286387,71.8664486 88.7829154,71.3758801 C89.3555794,70.8853116 89.4376506,70.0680034 88.9465992,69.4136062 L88.0465676,68.3507842 C89.5192632,66.7157089 90.0919273,64.3445514 88.3739352,62.3005925" id="Fill-5"></path>
                <path d="M56.9946514,26.6827041 C54.7108727,26.6827041 52.5637265,27.5725192 50.9484379,29.1892384 C49.3340664,30.8054986 48.4445802,32.9545466 48.4445802,35.2403479 C48.4445802,39.9597178 52.2799162,43.7984507 56.9946514,43.7984507 C59.27843,43.7984507 61.4255763,42.9081767 63.0408648,41.2919164 C64.6552364,39.6751973 65.5447225,37.5266082 65.5447225,35.2403479 C65.5282166,30.5081288 61.6928806,26.6827041 56.9946514,26.6827041 M56.9946514,47.9285877 C50.004849,47.9285877 44.318098,42.2368 44.318098,35.2403479 C44.318098,31.8518 45.6367383,28.6651699 48.031015,26.2692315 C50.4252917,23.8723753 53.6086435,22.5525671 56.9946514,22.5525671 C63.9596949,22.5525671 69.6464458,28.224163 69.6712047,35.1958342 C69.6712047,38.6293548 68.3525644,41.8159849 65.9582877,44.2119233 C63.5640111,46.6087795 60.3806593,47.9285877 56.9946514,47.9285877" id="Fill-7"></path>
                <path d="M57.7010134,39.2816411 C59.9834166,37.4295041 56.3970451,33.3443397 57.8096775,32.2549014 C58.4616617,31.7101822 59.3309739,32.0915315 59.9288553,32.7996205 C60.9613929,34.0524288 60.3094087,34.9238877 60.7981676,35.4686068 C61.1241597,35.8499562 61.504713,35.8499562 61.8307051,35.6319767 C62.4826893,35.0872575 62.1566972,33.725689 61.5588158,32.6362507 L62.2112585,32.1456822 C62.5913534,31.8189425 62.6459146,31.2742233 62.3199225,30.8387233 C61.9939304,30.457374 61.4501518,30.4027644 61.0154957,30.7295041 L60.3635115,31.2742233 C59.2768711,30.457374 57.8642387,30.1301753 56.6684759,31.0562438 C54.4951953,32.8537712 57.9729028,36.9393945 56.4511478,38.1922027 C55.9078277,38.6281616 54.9298514,38.4643329 54.1692032,37.5387233 C53.0280016,36.1220863 53.5713217,34.8692781 53.1366656,34.2704082 C52.9193375,33.9978192 52.4846814,33.9432096 52.1041281,34.2157986 C51.5608079,34.6517575 51.6149107,36.1766959 52.4846814,37.6474836 L51.778136,38.2468123 C51.3975826,38.5735521 51.3434798,39.1182712 51.6694719,39.5542301 C51.995464,39.9351205 52.5387842,39.9897301 52.9734403,39.6629904 L53.6799858,39.0636616 C54.7666261,40.0443397 56.3424838,40.425689 57.7010134,39.2816411" id="Fill-9"></path>
                <path d="M74.6535194,7.10126575 C70.68797,11.0703274 70.68797,17.5294027 74.6535194,21.4984644 C76.5746261,23.4212726 79.1289186,24.4799644 81.8459779,24.4799644 C84.5625787,24.4799644 87.1168711,23.4212726 89.0379779,21.4984644 C90.9590846,19.5756562 92.0168395,17.0186425 92.0168395,14.3000945 C92.0168395,11.5806288 90.9590846,9.02407397 89.0379779,7.10126575 C85.0467526,3.13495753 78.6053138,3.14597123 74.6535194,7.10126575 M81.8459779,28.6101014 C78.0266893,28.6101014 74.4361913,27.1218753 71.7356379,24.4184712 C66.161219,18.8391151 66.161219,9.76061507 71.7356379,4.1812589 C77.2903415,-1.37928219 86.3447605,-1.39580274 91.9200964,4.14546438 L91.9558593,4.1812589 C94.6559542,6.8832863 96.1433217,10.4769644 96.1433217,14.3000945 C96.1433217,18.1223068 94.6559542,21.7159849 91.9558593,24.4184712 C89.2553059,27.1218753 85.6648079,28.6101014 81.8459779,28.6101014" id="Fill-11"></path>
                <path d="M85.7125375,17.0175411 C86.064664,13.6459726 79.814419,13.2416781 80.0785138,11.2013904 C80.1665455,10.2253014 81.1857866,9.8269726 82.249502,9.9164589 C84.1114625,10.0954315 84.2898182,11.3376849 85.1320791,11.3826575 C85.7079526,11.4276301 86.0183557,11.117411 86.1063874,10.6736507 C86.194419,9.69756164 84.8198419,8.85363699 83.4452648,8.4530137 L83.5773123,7.52143836 C83.6213281,6.94505479 83.2219763,6.45678082 82.60117,6.36729452 C82.0252964,6.32278082 81.537913,6.72156849 81.4494229,7.34246575 L81.3618498,8.31855479 C79.8102925,8.53928767 78.3926166,9.42543151 78.1725375,11.1555 C77.8648854,14.3939863 84.0266403,14.8868493 83.8065613,17.1492466 C83.7185296,17.9477397 82.7882372,18.6122329 81.4141186,18.4782329 C79.3307036,18.2547466 78.752996,16.7903836 77.9107352,16.6563836 C77.5118419,16.6118699 77.1134071,16.922089 77.024917,17.4544178 C76.9368854,18.252911 78.2234308,19.4515685 80.1298656,19.9412192 L80.041834,21.0058767 C79.9978182,21.5827192 80.39717,22.0709932 81.0179763,22.1600205 C81.5943083,22.2049932 82.0816917,21.8062055 82.1697233,21.1853082 L82.2577549,20.1201918 C83.9418182,20.033 85.5369328,19.0582877 85.7125375,17.0175411" id="Fill-13"></path>
            </g>
        </g>
    </g>
</svg>