<?xml version="1.0" encoding="UTF-8" standalone="no"?>
<svg width="262px" height="210px" viewBox="0 0 262 210" version="1.1" xmlns="http://www.w3.org/2000/svg" xmlns:xlink="http://www.w3.org/1999/xlink">
    <!-- Generator: Sketch 42 (36781) - http://www.bohemiancoding.com/sketch -->
    <title>intro-confetti-02</title>
    <desc>Created with Sketch.</desc>
    <defs></defs>
    <g id="Page-1" stroke="none" stroke-width="1" fill="none" fill-rule="evenodd">
        <g id="intro-2" transform="translate(-60.000000, -62.000000)" fill-rule="nonzero" fill="#89D3E6">
            <g id="intro-confetti-02" transform="translate(60.000000, 62.000000)">
                <g id="Group-2">
                    <path d="M42.1225772,114.134025 C42.1225772,114.405942 42.0317963,114.677858 41.9410153,114.949774 C41.3963295,116.399993 39.7622721,117.125102 38.3097767,116.535951 C28.0061371,112.502529 11.3478299,108.28783 6.67261014,111.460184 C6.12792435,111.822739 5.58323856,112.366571 5.58323856,113.726151 C5.58323856,116.354673 11.1208775,116.58127 11.2116584,116.58127 C12.7549348,116.58127 14.0258684,117.850212 14.0258684,119.391069 C13.9804779,120.977246 12.7549348,122.200868 11.2116584,122.200868 C7.3080769,122.200868 -0.0451813167,120.388095 0.000209166095,113.726151 C0.000209166095,110.735075 1.2257522,108.378469 3.54066683,106.837611 C12.3464205,100.855458 35.7679096,109.511452 40.3977389,111.324226 C41.532501,111.77742 42.2133582,112.955723 42.1225772,114.134025 Z" id="Shape"></path>
                    <path d="M211.097947,46.3206921 C211.097947,46.5926082 211.007166,46.8645242 210.916385,47.1364403 C210.371699,48.5866593 208.737642,49.3117687 207.285146,48.7226173 C196.981507,44.6891958 180.323199,40.4744969 175.64798,43.6468509 C175.103294,44.0094056 174.558608,44.5532377 174.558608,45.912818 C174.558608,48.5413399 180.096247,48.7679366 180.187028,48.7679366 C181.730304,48.7679366 183.001238,50.0368782 183.001238,51.5777359 C182.955847,53.1639129 181.730304,54.3875352 180.187028,54.3875352 C176.283446,54.3875352 168.930188,52.5747614 168.975579,45.912818 C168.975579,42.9217414 170.201122,40.5651356 172.516036,39.0242779 C181.32179,33.0421246 204.743279,41.6981191 209.373108,43.5108928 C210.50787,43.9640863 211.188728,45.1423892 211.097947,46.3206921 Z" id="Shape-Copy" transform="translate(190.040696, 45.667101) rotate(144.000000) translate(-190.040696, -45.667101) "></path>
                    <path d="M62.8067722,85.0815482 C63.0403051,85.8476682 63.0069433,86.7137169 62.606601,87.4798369 C61.3388506,89.9114352 59.6373961,91.7434613 57.6356849,92.7094387 C55.5338882,93.7420352 53.2319203,93.7420352 51.3302947,92.7760578 C47.9607475,91.0439604 46.0924838,86.2806926 49.0616887,80.5514473 C50.1959917,78.3197064 49.8623732,76.9873238 49.5287546,76.8207759 C49.1951361,76.6542281 47.8940238,77.120562 46.7597208,79.3523029 C45.4919704,81.7839012 43.7905159,83.6159273 41.7888047,84.5819047 C39.687008,85.6145012 37.3850401,85.6145012 35.4834145,84.6485238 C32.1138673,82.9164264 30.2456035,78.1531586 33.2148085,72.4239133 C34.0488548,70.7917446 34.0488548,69.7591481 33.9487692,69.2928141 C33.8820455,68.9264089 33.7485981,68.7265515 33.6485125,68.693242 C33.314894,68.5266941 32.0137817,68.993028 30.8794787,71.2247689 C30.0787943,72.757009 28.1771686,73.3898907 26.6425234,72.5904611 C25.1078782,71.7910316 24.4740029,69.8923863 25.2746874,68.3601463 C28.2105305,62.5975915 33.1814466,61.3651375 36.5509938,63.0972349 C39.9205409,64.8293324 41.7888047,69.5926002 38.8195998,75.3218455 C37.9855535,76.9540142 37.9855535,77.9866107 38.085639,78.4529447 C38.1523627,78.8193499 38.2858101,79.0192073 38.3858957,79.0525168 C38.7195142,79.2190647 40.0206265,78.7527307 41.1549295,76.4876803 C44.1241344,70.758435 49.0616887,69.4926715 52.4312358,71.2247689 C55.800783,72.9568663 57.6690468,77.7201342 54.6998419,83.4493795 C53.8657955,85.0815482 53.8657955,86.1141447 53.9658811,86.5804786 C54.0326048,86.9468839 54.1660522,87.1467413 54.2661378,87.1800508 C54.5997563,87.3465987 55.9008686,86.8802647 57.0351716,84.6485238 C57.8358561,83.1162838 59.7374817,82.4834021 61.2721269,83.2828317 C62.0060877,83.6159273 62.5398773,84.3154282 62.8067722,85.0815482 Z" id="Shape"></path>
                    <path d="M197.582567,81.8343508 C196.992491,81.6077541 196.447805,81.19988 196.175462,80.5654092 C195.267652,78.6166775 194.949919,76.6679457 195.267652,74.9911301 C195.630776,73.1783563 196.720148,71.7734567 198.263424,71.0483472 C200.941463,69.7794056 204.799654,70.8670698 206.978397,75.4896428 C207.840816,77.2570972 208.839407,77.7102906 209.111749,77.5743326 C209.384092,77.4383746 209.701826,76.3960297 208.839407,74.6285753 C207.931597,72.6798436 207.613864,70.7311118 207.931597,69.0542961 C208.294721,67.2415224 209.384092,65.7913034 210.927369,65.1115133 C213.605407,63.8425717 217.463598,64.9302359 219.642341,69.5528089 C220.277808,70.8670698 220.913275,71.3655826 221.231008,71.5015406 C221.503351,71.6374987 221.684913,71.6374987 221.775694,71.5921793 C222.048037,71.4562213 222.36577,70.4138764 221.503351,68.646422 C220.913275,67.4227998 221.457961,65.9272615 222.683504,65.33811 C223.909047,64.7489585 225.406933,65.2927907 225.997009,66.5164129 C228.175752,71.0936666 226.587085,74.8098527 223.909047,76.0787943 C221.231008,77.3477359 217.372817,76.2600717 215.194074,71.6374987 C214.558607,70.3232377 213.923141,69.8700443 213.605407,69.6887669 C213.333064,69.5528089 213.151502,69.5528089 213.060721,69.5981282 C212.788379,69.7340863 212.470645,70.7764312 213.333064,72.5438855 C215.511808,77.1211392 213.923141,80.8373253 211.245102,82.1062669 C208.567064,83.3752085 204.708873,82.2875443 202.530129,77.6649713 C201.894663,76.3507103 201.259196,75.8975169 200.941463,75.7162395 C200.66912,75.5802815 200.487558,75.5802815 200.396777,75.6256009 C200.124434,75.7615589 199.8067,76.8039038 200.66912,78.5713582 C201.259196,79.7949804 200.71451,81.2905187 199.488967,81.8796702 C198.898891,82.0609476 198.218034,82.0609476 197.582567,81.8343508 Z" id="Shape"></path>
                    <path d="M86.565253,208.336069 C86.0205672,208.653304 85.33971,208.743943 84.7042432,208.562666 C82.616281,208.018834 80.9368331,206.976489 79.8474616,205.616908 C78.7126995,204.166689 78.3041851,202.399235 78.75809,200.767739 C79.5297282,197.91262 82.8886239,195.691972 87.7907961,197.006233 C89.6971963,197.504746 90.6503965,197.051553 90.7411774,196.734317 C90.8319584,196.462401 90.2418821,195.556014 88.3354819,195.012182 C86.2475196,194.46835 84.5680718,193.426005 83.4787002,192.066425 C82.3439381,190.616206 81.9354238,188.848751 82.3893286,187.217255 C83.1609668,184.362137 86.5198625,182.141489 91.4220347,183.45575 C92.8291397,183.818304 93.6007779,183.637027 93.9639017,183.501069 C94.2362446,183.365111 94.3724161,183.274472 94.3724161,183.183834 C94.463197,182.911918 93.8731208,182.005531 91.9667205,181.461699 C90.6503965,181.099144 89.8787583,179.739564 90.1964916,178.425303 C90.5596155,177.111042 91.92133,176.340613 93.237654,176.657848 C98.1398261,177.972109 99.9554455,181.552337 99.1838073,184.452775 C98.412169,187.307894 95.0532733,189.528542 90.1511012,188.214281 C88.7439962,187.851726 87.972358,188.033003 87.6092341,188.168961 C87.3368912,188.304919 87.2007198,188.395558 87.2007198,188.486197 C87.1099388,188.758113 87.7000151,189.6645 89.6064154,190.208332 C94.5085875,191.522593 96.3242068,195.102821 95.5525686,198.003259 C94.7809304,200.858377 91.4220347,203.079025 86.5198625,201.764764 C85.1127576,201.402209 84.3411194,201.583487 83.9779955,201.719445 C83.7056526,201.855403 83.5694812,201.946042 83.5694812,202.03668 C83.4787002,202.308596 84.0687765,203.214983 85.9751767,203.758815 C87.2915007,204.12137 88.063139,205.48095 87.7454056,206.795211 C87.5638436,207.475001 87.1099388,208.018834 86.565253,208.336069 Z" id="Shape"></path>
                    <path d="M179.251293,172.100919 C184.652761,168.701968 189.509542,170.106868 191.506724,173.279222 C193.503905,176.451576 192.686876,181.391385 187.285409,184.790335 C185.197447,186.104596 184.834323,187.418857 185.015885,187.736093 C185.242837,188.053328 186.559161,188.279925 188.647123,186.965664 C194.048591,183.566713 198.905372,184.971613 200.902554,188.143967 C202.899735,191.316321 202.082706,196.256129 196.681239,199.65508 C194.593277,200.969341 194.230153,202.283602 194.411715,202.600837 C194.593277,202.918072 195.954991,203.144669 198.042953,201.830408 C199.495449,200.924021 201.401849,201.331895 202.355049,202.782114 C203.262859,204.232333 202.854344,206.135746 201.356458,207.087452 C195.954991,210.486403 191.098209,209.081503 189.101028,205.909149 C187.103847,202.736795 187.920876,197.796987 193.322343,194.398036 C195.410305,193.083775 195.773429,191.769514 195.591867,191.452279 C195.410305,191.135043 194.048591,190.908447 191.960629,192.222707 C186.559161,195.621658 181.702379,194.216759 179.705198,191.044405 C177.708017,187.872051 178.525046,182.932242 183.926513,179.533291 C186.014475,178.219031 186.377599,176.90477 186.196037,176.587534 C185.969085,176.270299 184.652761,176.043702 182.564799,177.357963 C181.112303,178.26435 179.205903,177.856476 178.252703,176.406257 C177.344893,174.910718 177.753407,173.007306 179.251293,172.100919 Z" id="Shape"></path>
                    <path d="M104.208821,1.52643187 C108.399221,-1.11043738 112.16706,-0.0205314259 113.716451,2.44054654 C115.265843,4.9016245 114.632001,8.73387448 110.441601,11.3707437 C108.821782,12.3903332 108.540075,13.4099226 108.680928,13.6560304 C108.856996,13.9021382 109.878186,14.0779295 111.498004,13.05834 C115.688404,10.4214708 119.456243,11.5113767 121.005635,13.9724547 C122.555026,16.4335327 121.921184,20.2657827 117.730784,22.9026519 C116.110966,23.9222413 115.829258,24.9418308 115.970112,25.1879386 C116.110966,25.4340464 117.167369,25.6098377 118.787188,24.5902482 C119.914018,23.8870831 121.392983,24.2035074 122.132465,25.3285716 C122.836734,26.4536358 122.519813,27.9302826 121.357769,28.668606 C117.167369,31.3054752 113.39953,30.2155693 111.850139,27.7544913 C110.300747,25.2934133 110.934589,21.4611634 115.124989,18.8242941 C116.744808,17.8047047 117.026515,16.7851152 116.885661,16.5390074 C116.744808,16.2928997 115.688404,16.1171084 114.068586,17.1366978 C109.878186,19.7735671 106.110347,18.6836611 104.560955,16.2225831 C103.011564,13.7615052 103.645406,9.9292552 107.835806,7.29238595 C109.455624,6.27279651 109.737332,5.25320707 109.596478,5.00709927 C109.420411,4.76099148 108.399221,4.58520019 106.779402,5.60478964 C105.652572,6.30795477 104.173607,5.99153046 103.434125,4.86646625 C102.729856,3.70624378 103.046777,2.229597 104.208821,1.52643187 Z" id="Shape-Copy-2"></path>
                    <path d="M210.373838,148.163966 C209.239076,148.028008 208.195095,147.393537 207.514237,146.351192 C206.379475,144.538419 206.924161,142.136493 208.73978,141.00351 C209.64759,140.414358 231.571193,127.045152 259.44095,134.386886 C261.528912,134.930718 262.754455,137.060727 262.209769,139.145417 C261.665083,141.230107 259.531731,142.453729 257.443769,141.909897 C232.842127,135.429231 213.051876,147.484176 212.870314,147.620134 C212.098676,148.073327 211.190866,148.254605 210.373838,148.163966 Z" id="Shape" transform="translate(234.630681, 140.188661) rotate(23.000000) translate(-234.630681, -140.188661) "></path>
                    <path d="M29.6371336,178.809974 C28.8928822,178.720804 28.2081709,178.304677 27.7616201,177.621039 C27.0173686,176.432103 27.3746093,174.856763 28.5654116,174.113678 C29.1608127,173.727273 43.5397498,164.958871 61.8185643,169.774061 C63.1879869,170.130742 63.9917784,171.527742 63.6345378,172.895018 C63.2772971,174.262295 61.8781044,175.064826 60.5086819,174.708146 C44.3733114,170.4577 31.3935669,178.364124 31.2744867,178.453294 C30.7683957,178.750528 30.1729946,178.869421 29.6371336,178.809974 Z" id="Shape-Copy-3" transform="translate(45.546363, 173.579247) rotate(-21.000000) translate(-45.546363, -173.579247) "></path>
                    <ellipse id="Oval" cx="212.448266" cy="104.8491" rx="5.08373408" ry="5.07576641"></ellipse>
                    <ellipse id="Oval-Copy-2" cx="168.349744" cy="31.0357664" rx="5.08373408" ry="5.07576641"></ellipse>
                    <ellipse id="Oval" cx="132.322296" cy="185.995347" rx="6.44544856" ry="6.4353467"></ellipse>
                    <ellipse id="Oval" cx="47.8198328" cy="139.855347" rx="6.44544856" ry="6.4353467"></ellipse>
                    <ellipse id="Oval-Copy" cx="83.7163845" cy="56.3153467" rx="6.44544856" ry="6.4353467"></ellipse>
                </g>
            </g>
        </g>
    </g>
</svg>