<?xml version="1.0" encoding="UTF-8" standalone="no"?>
<svg width="129px" height="125px" viewBox="0 0 129 125" version="1.1" xmlns="http://www.w3.org/2000/svg" xmlns:xlink="http://www.w3.org/1999/xlink">
    <!-- Generator: Sketch 42 (36781) - http://www.bohemiancoding.com/sketch -->
    <title>intro-image-02</title>
    <desc>Created with Sketch.</desc>
    <defs>
        <path d="M13.2411957,0.0870053223 C11.2912391,0.236224128 9.8685,1.82243406 9.8951413,3.94470905 L10.1068696,7.25325015 C5.03427174,8.79595742 0.752967391,12.4936836 0.911880435,18.3922703 C1.56015217,29.3792649 22.4179565,27.8309444 22.8540326,35.509398 C22.9732174,38.2243383 20.2067283,40.9299231 15.5426304,41.1942135 C8.46071739,41.5277339 5.77134783,36.9309527 2.8861413,36.920194 C1.52836957,36.9781975 0.356152174,38.2219994 0.33698913,40.0472401 C0.455706522,42.7626481 5.37780435,46.1039332 12.0058804,46.7517954 L12.263413,50.3573708 C12.4153152,52.307974 14.0035109,53.7337386 16.125,53.7098823 C18.0749565,53.5611313 19.4976957,51.9739858 19.4710543,49.8521786 L19.2130543,46.247071 C24.7993152,45.080919 29.6274674,40.9944755 29.1586739,34.0808267 C28.5893913,22.6260615 7.48153261,24.5163223 7.30859783,17.5572998 C7.09733696,14.2487587 10.2985,12.3879675 13.9025543,12.1353714 C17.0906304,11.9501342 18.9854348,12.8922241 20.4450978,13.8347818 C21.878587,14.7595642 22.8928261,15.6843465 24.2992065,15.5426121 C26.2496304,15.393861 27.1250543,14.1949651 27.1909565,12.666291 C26.9792283,9.35728208 21.9458913,7.24857244 17.1425109,6.62316322 L17.1023152,3.43998462 C16.9518152,1.50481786 15.3883913,0.0870053223 13.2930761,0.0870053223 L13.2411957,0.0870053223 Z" id="path-1"></path>
        <path d="M13.2411957,0.0870053223 C11.2912391,0.236224128 9.8685,1.82243406 9.8951413,3.94470905 L10.1068696,7.25325015 C5.03427174,8.79595742 0.752967391,12.4936836 0.911880435,18.3922703 C1.56015217,29.3792649 22.4179565,27.8309444 22.8540326,35.509398 C22.9732174,38.2243383 20.2067283,40.9299231 15.5426304,41.1942135 C8.46071739,41.5277339 5.77134783,36.9309527 2.8861413,36.920194 C1.52836957,36.9781975 0.356152174,38.2219994 0.33698913,40.0472401 C0.455706522,42.7626481 5.37780435,46.1039332 12.0058804,46.7517954 L12.263413,50.3573708 C12.4153152,52.307974 14.0035109,53.7337386 16.125,53.7098823 C18.0749565,53.5611313 19.4976957,51.9739858 19.4710543,49.8521786 L19.2130543,46.247071 C24.7993152,45.080919 29.6274674,40.9944755 29.1586739,34.0808267 C28.5893913,22.6260615 7.48153261,24.5163223 7.30859783,17.5572998 C7.09733696,14.2487587 10.2985,12.3879675 13.9025543,12.1353714 C17.0906304,11.9501342 18.9854348,12.8922241 20.4450978,13.8347818 C21.878587,14.7595642 22.8928261,15.6843465 24.2992065,15.5426121 C26.2496304,15.393861 27.1250543,14.1949651 27.1909565,12.666291 C26.9792283,9.35728208 21.9458913,7.24857244 17.1425109,6.62316322 L17.1023152,3.43998462 C16.9518152,1.50528563 15.3883913,0.0870053223 13.2930761,0.0865375517 C13.2757826,0.0865375517 13.2584891,0.0870053223 13.2411957,0.0870053223 Z" id="path-3"></path>
    </defs>
    <g id="Page-1" stroke="none" stroke-width="1" fill="none" fill-rule="evenodd">
        <g id="intro-2" transform="translate(-124.000000, -104.000000)">
            <g id="intro-image-02" transform="translate(124.000000, 104.000000)">
                <g id="Group-7" transform="translate(0.000000, 0.294695)" fill="#00A3DE">
                    <path d="M58.5924076,25.0341911 C59.2383424,25.7611065 60.1562989,26.1736801 61.1481033,26.1736801 L67.6812989,26.1736801 C68.6731033,26.1736801 69.5910598,25.7611065 70.2369946,25.0341911 L77.016038,11.4646352 C77.7741467,9.94812306 77.1656033,8.66689953 76.8688098,8.18649917 C76.5720163,7.70609882 75.6989293,6.5881272 74.0046359,6.5881272 L54.8247663,6.5881272 C53.1304728,6.5881272 52.2573859,7.70609882 51.9605924,8.18649917 C51.6637989,8.66689953 51.0557228,9.94812306 51.8133641,11.4646352 L58.5924076,25.0341911 Z M67.6812989,32.7224678 L61.1481033,32.7224678 C58.0179837,32.7224678 55.1346467,31.3004454 53.237038,28.8217292 L53.0706467,28.6037481 L52.9542663,28.3843637 C52.9266902,28.3343123 52.9009837,28.2856642 52.8766793,28.2360805 L45.9606902,14.3933466 C44.413625,11.2962378 44.5753424,7.68879131 46.3944293,4.74370792 C48.2130489,1.797689 51.3651359,0.0393395033 54.8247663,0.0393395033 L74.0046359,0.0393395033 C77.4642663,0.0393395033 80.6163533,1.797689 82.4349728,4.74370792 C84.2540598,7.68879131 84.4157772,11.2962378 82.868712,14.3933466 L75.7592228,28.6037481 L75.5923641,28.8217292 C73.6947554,31.3004454 70.8114185,32.7224678 67.6812989,32.7224678 L67.6812989,32.7224678 Z" id="Fill-1"></path>
                    <path d="M51.388225,28.6534721 C25.3643446,34.6516939 6.69206196,57.9925088 6.69206196,84.9398347 C6.69206196,99.0730541 11.7380185,107.819896 22.5730837,112.464389 C33.3039207,117.064445 49.1274533,117.449888 64.414888,117.449888 C79.7023228,117.449888 95.5258554,117.064445 106.256225,112.464389 C117.09129,107.819896 122.137714,99.0730541 122.137714,84.9398347 C122.137714,57.9925088 103.464964,34.6516939 77.4410837,28.6534721 C75.0414967,31.4979849 71.4837141,33.1899109 67.6814859,33.1899109 L61.1478228,33.1899109 C57.346062,33.1899109 53.787812,31.4979849 51.388225,28.6534721 M64.414888,123.998676 C47.7855728,123.998676 31.8755728,123.576747 19.9968228,118.484596 C6.64064891,112.758617 0.148583696,101.786123 0.148583696,84.9398347 C0.148583696,54.1525804 22.0444641,27.5925685 52.2127033,21.7870682 L54.5459207,21.3380085 L55.6943011,23.4200552 C56.8071598,25.4370818 58.8459207,26.6411232 61.1478228,26.6411232 L67.6814859,26.6411232 C69.983388,26.6411232 72.0221489,25.4370818 73.1350076,23.4200552 L74.283388,21.3380085 L76.6170728,21.7870682 C106.784845,27.5925685 128.681192,54.1525804 128.681192,84.9398347 C128.681192,101.786123 122.18866,112.758617 108.832486,118.484596 C96.9537359,123.576747 81.0437359,123.998676 64.414888,123.998676" id="Fill-3"></path>
                    <path d="M79.1695435,82.2610998 C78.6007283,70.8063346 57.4924022,72.6970632 57.3199348,65.7375729 C57.1082065,62.4290318 60.309837,60.5677728 63.9134239,60.3156445 C70.2311522,59.9479768 71.4706739,64.0091607 74.3100761,63.7228852 C76.2600326,63.5736664 77.1363913,62.375706 77.2018261,60.846564 C76.9900978,57.5380229 71.9562935,55.4293133 67.1533804,54.8034363 L67.1131848,51.6202577 C66.9612826,49.6696545 65.3735543,48.2438899 63.2520652,48.2672784 C61.3021087,48.4164972 59.8793696,50.0031749 59.9060109,52.1249821 L60.1177391,55.433991 C55.0451413,56.9757627 50.7633696,60.6744245 50.92275,66.5730111 C51.5710217,77.559538 72.4283587,76.0112175 72.8649022,83.6896711 C72.984087,86.4050791 70.2175978,89.1101962 65.5535,89.3744866 C58.4711196,89.708007 55.7822174,85.1112258 52.8965435,85.1009348 C51.5397065,85.1584706 50.3670217,86.4022725 50.3478587,88.227981 C50.4670435,90.943389 55.3891413,94.2842063 62.01675,94.9320685 L62.2742826,98.5371761 C62.4261848,100.488247 64.0143804,101.914012 66.1358696,101.890155 C68.0858261,101.740937 69.5085652,100.154727 69.4819239,98.0324517 L69.2239239,94.4273441 C74.8106522,93.2611921 79.6388043,89.1747486 79.1695435,82.2610998" id="Fill-5"></path>
                </g>
                <g id="Group-10" transform="translate(50.010870, 48.475062)">
                    <mask id="mask-2" fill="white">
                        <use xlink:href="#path-1"></use>
                    </mask>
                    <g id="Clip-9"></g>
                    <polygon id="Fill-8" fill="#00A3DE" mask="url(#mask-2)" points="-422.826087 371.275101 -78.998087 623.020791 368.41037 10.9692219 24.5823696 -240.776468"></polygon>
                </g>
                <g id="Group-13" transform="translate(50.010870, 48.475062)">
                    <mask id="mask-4" fill="white">
                        <use xlink:href="#path-3"></use>
                    </mask>
                    <g id="Clip-12"></g>
                    <polygon id="Fill-11" fill="#00A3DE" mask="url(#mask-4)" points="11.4266891 -9.32056209 50.4384391 19.2433788 18.2174174 63.3209299 -20.7943326 34.7574568"></polygon>
                </g>
            </g>
        </g>
    </g>
</svg>