<?xml version="1.0" encoding="UTF-8" standalone="no"?>
<svg width="264px" height="233px" viewBox="0 0 264 233" version="1.1" xmlns="http://www.w3.org/2000/svg" xmlns:xlink="http://www.w3.org/1999/xlink">
    <!-- Generator: Sketch 42 (36781) - http://www.bohemiancoding.com/sketch -->
    <title>intro-confetti-04</title>
    <desc>Created with Sketch.</desc>
    <defs></defs>
    <g id="Page-1" stroke="none" stroke-width="1" fill="none" fill-rule="evenodd">
        <g id="intro-4" transform="translate(-54.000000, -55.000000)" fill-rule="nonzero" fill="#89D3E7">
            <g id="intro-confetti-04" transform="translate(54.000000, 53.000000)">
                <path d="M47.8343349,182.45958 C47.8343349,182.731496 47.743554,183.003412 47.652773,183.275329 C47.1080872,184.725548 45.4740298,185.450657 44.0215344,184.861506 C33.7178948,180.828084 17.0595876,176.613385 12.3843678,179.785739 C11.839682,180.148294 11.2949963,180.692126 11.2949963,182.051706 C11.2949963,184.680228 16.8326352,184.906825 16.9234161,184.906825 C18.4666925,184.906825 19.7376261,186.175766 19.7376261,187.716624 C19.6922356,189.302801 18.4666925,190.526423 16.9234161,190.526423 C13.0198346,190.526423 5.66657638,188.71365 5.71196686,182.051706 C5.71196686,179.06063 6.9375099,176.704024 9.25242452,175.163166 C18.0581782,169.181013 41.4796673,177.837007 46.1094966,179.649781 C47.2442587,180.102975 47.9251159,181.281277 47.8343349,182.45958 Z" id="Shape" transform="translate(26.777084, 181.805989) rotate(-25.000000) translate(-26.777084, -181.805989) "></path>
                <path d="M163.713885,219.36599 C163.713885,219.58076 163.642183,219.79553 163.57048,220.0103 C163.140266,221.155741 161.849622,221.728461 160.702384,221.263126 C152.564159,218.077369 139.406765,214.748432 135.714091,217.254083 C135.283876,217.540444 134.853662,217.969984 134.853662,219.043834 C134.853662,221.119946 139.227509,221.298921 139.299212,221.298921 C140.518153,221.298921 141.521987,222.301181 141.521987,223.518212 C141.486136,224.771038 140.518153,225.737503 139.299212,225.737503 C136.216008,225.737503 130.408112,224.305702 130.443963,219.043834 C130.443963,216.681363 131.411946,214.820022 133.240358,213.602991 C140.195492,208.878049 158.694716,215.714898 162.351539,217.146698 C163.247819,217.504649 163.785587,218.435319 163.713885,219.36599 Z" id="Shape-Copy-4" transform="translate(147.082031, 218.849757) rotate(-117.000000) translate(-147.082031, -218.849757) "></path>
                <path d="M220.097947,20.3206921 C220.097947,20.5926082 220.007166,20.8645242 219.916385,21.1364403 C219.371699,22.5866593 217.737642,23.3117687 216.285146,22.7226173 C205.981507,18.6891958 189.323199,14.4744969 184.64798,17.6468509 C184.103294,18.0094056 183.558608,18.5532377 183.558608,19.912818 C183.558608,22.5413399 189.096247,22.7679366 189.187028,22.7679366 C190.730304,22.7679366 192.001238,24.0368782 192.001238,25.5777359 C191.955847,27.1639129 190.730304,28.3875352 189.187028,28.3875352 C185.283446,28.3875352 177.930188,26.5747614 177.975579,19.912818 C177.975579,16.9217414 179.201122,14.5651356 181.516036,13.0242779 C190.32179,7.04212462 213.743279,15.6981191 218.373108,17.5108928 C219.50787,17.9640863 220.188728,19.1423892 220.097947,20.3206921 Z" id="Shape-Copy" transform="translate(199.040696, 19.667101) rotate(144.000000) translate(-199.040696, -19.667101) "></path>
                <path d="M38.8067722,55.0815482 C39.0403051,55.8476682 39.0069433,56.7137169 38.606601,57.4798369 C37.3388506,59.9114352 35.6373961,61.7434613 33.6356849,62.7094387 C31.5338882,63.7420352 29.2319203,63.7420352 27.3302947,62.7760578 C23.9607475,61.0439604 22.0924838,56.2806926 25.0616887,50.5514473 C26.1959917,48.3197064 25.8623732,46.9873238 25.5287546,46.8207759 C25.1951361,46.6542281 23.8940238,47.120562 22.7597208,49.3523029 C21.4919704,51.7839012 19.7905159,53.6159273 17.7888047,54.5819047 C15.687008,55.6145012 13.3850401,55.6145012 11.4834145,54.6485238 C8.11386731,52.9164264 6.24560353,48.1531586 9.21480846,42.4239133 C10.0488548,40.7917446 10.0488548,39.7591481 9.94876923,39.2928141 C9.88204552,38.9264089 9.74859811,38.7265515 9.64851255,38.693242 C9.31489402,38.5266941 8.01378175,38.993028 6.87947874,41.2247689 C6.07879427,42.757009 4.17716864,43.3898907 2.6425234,42.5904611 C1.10787815,41.7910316 0.474002944,39.8923863 1.27468742,38.3601463 C4.21053049,32.5975915 9.18144661,31.3651375 12.5509938,33.0972349 C15.9205409,34.8293324 17.7888047,39.5926002 14.8195998,45.3218455 C13.9855535,46.9540142 13.9855535,47.9866107 14.085639,48.4529447 C14.1523627,48.8193499 14.2858101,49.0192073 14.3858957,49.0525168 C14.7195142,49.2190647 16.0206265,48.7527307 17.1549295,46.4876803 C20.1241344,40.758435 25.0616887,39.4926715 28.4312358,41.2247689 C31.800783,42.9568663 33.6690468,47.7201342 30.6998419,53.4493795 C29.8657955,55.0815482 29.8657955,56.1141447 29.9658811,56.5804786 C30.0326048,56.9468839 30.1660522,57.1467413 30.2661378,57.1800508 C30.5997563,57.3465987 31.9008686,56.8802647 33.0351716,54.6485238 C33.8358561,53.1162838 35.7374817,52.4834021 37.2721269,53.2828317 C38.0060877,53.6159273 38.5398773,54.3154282 38.8067722,55.0815482 Z" id="Shape"></path>
                <path d="M225.582567,89.8343508 C224.992491,89.6077541 224.447805,89.19988 224.175462,88.5654092 C223.267652,86.6166775 222.949919,84.6679457 223.267652,82.9911301 C223.630776,81.1783563 224.720148,79.7734567 226.263424,79.0483472 C228.941463,77.7794056 232.799654,78.8670698 234.978397,83.4896428 C235.840816,85.2570972 236.839407,85.7102906 237.111749,85.5743326 C237.384092,85.4383746 237.701826,84.3960297 236.839407,82.6285753 C235.931597,80.6798436 235.613864,78.7311118 235.931597,77.0542961 C236.294721,75.2415224 237.384092,73.7913034 238.927369,73.1115133 C241.605407,71.8425717 245.463598,72.9302359 247.642341,77.5528089 C248.277808,78.8670698 248.913275,79.3655826 249.231008,79.5015406 C249.503351,79.6374987 249.684913,79.6374987 249.775694,79.5921793 C250.048037,79.4562213 250.36577,78.4138764 249.503351,76.646422 C248.913275,75.4227998 249.457961,73.9272615 250.683504,73.33811 C251.909047,72.7489585 253.406933,73.2927907 253.997009,74.5164129 C256.175752,79.0936666 254.587085,82.8098527 251.909047,84.0787943 C249.231008,85.3477359 245.372817,84.2600717 243.194074,79.6374987 C242.558607,78.3232377 241.923141,77.8700443 241.605407,77.6887669 C241.333064,77.5528089 241.151502,77.5528089 241.060721,77.5981282 C240.788379,77.7340863 240.470645,78.7764312 241.333064,80.5438855 C243.511808,85.1211392 241.923141,88.8373253 239.245102,90.1062669 C236.567064,91.3752085 232.708873,90.2875443 230.530129,85.6649713 C229.894663,84.3507103 229.259196,83.8975169 228.941463,83.7162395 C228.66912,83.5802815 228.487558,83.5802815 228.396777,83.6256009 C228.124434,83.7615589 227.8067,84.8039038 228.66912,86.5713582 C229.259196,87.7949804 228.71451,89.2905187 227.488967,89.8796702 C226.898891,90.0609476 226.218034,90.0609476 225.582567,89.8343508 Z" id="Shape"></path>
                <path d="M51.9888983,231.749402 C51.4442125,232.066638 50.7633553,232.157276 50.1278885,231.975999 C48.0399263,231.432167 46.3604785,230.389822 45.2711069,229.030242 C44.1363448,227.580023 43.7278305,225.812568 44.1817353,224.181072 C44.9533735,221.325953 48.3122692,219.105306 53.2144414,220.419567 C55.1208417,220.918079 56.0740418,220.464886 56.1648228,220.14765 C56.2556037,219.875734 55.6655275,218.969348 53.7591272,218.425515 C51.671165,217.881683 49.9917171,216.839338 48.9023455,215.479758 C47.7675834,214.029539 47.3590691,212.262085 47.8129739,210.630588 C48.5846121,207.77547 51.9435079,205.554822 56.84568,206.869083 C58.252785,207.231638 59.0244232,207.05036 59.387547,206.914402 C59.6598899,206.778444 59.7960614,206.687806 59.7960614,206.597167 C59.8868424,206.325251 59.2967661,205.418864 57.3903658,204.875032 C56.0740418,204.512477 55.3024036,203.152897 55.620137,201.838636 C55.9832608,200.524375 57.3449753,199.753946 58.6612993,200.071182 C63.5634715,201.385442 65.3790908,204.965671 64.6074526,207.866109 C63.8358144,210.721227 60.4769186,212.941875 55.5747465,211.627614 C54.1676415,211.265059 53.3960033,211.446337 53.0328794,211.582295 C52.7605365,211.718253 52.6243651,211.808891 52.6243651,211.89953 C52.5335841,212.171446 53.1236604,213.077833 55.0300607,213.621665 C59.9322328,214.935926 61.7478522,218.516154 60.9762139,221.416592 C60.2045757,224.271711 56.84568,226.492358 51.9435079,225.178098 C50.5364029,224.815543 49.7647647,224.99682 49.4016408,225.132778 C49.1292979,225.268736 48.9931265,225.359375 48.9931265,225.450014 C48.9023455,225.72193 49.4924218,226.628317 51.3988221,227.172149 C52.7151461,227.534703 53.4867843,228.894284 53.1690509,230.208545 C52.987489,230.888335 52.5335841,231.432167 51.9888983,231.749402 Z" id="Shape"></path>
                <path d="M22.9888983,113.749402 C22.4442125,114.066638 21.7633553,114.157276 21.1278885,113.975999 C19.0399263,113.432167 17.3604785,112.389822 16.2711069,111.030242 C15.1363448,109.580023 14.7278305,107.812568 15.1817353,106.181072 C15.9533735,103.325953 19.3122692,101.105306 24.2144414,102.419567 C26.1208417,102.918079 27.0740418,102.464886 27.1648228,102.14765 C27.2556037,101.875734 26.6655275,100.969348 24.7591272,100.425515 C22.671165,99.8816833 20.9917171,98.8393384 19.9023455,97.4797581 C18.7675834,96.0295392 18.3590691,94.2620848 18.8129739,92.6305884 C19.5846121,89.7754698 22.9435079,87.554822 27.84568,88.869083 C29.252785,89.2316377 30.0244232,89.0503603 30.387547,88.9144023 C30.6598899,88.7784443 30.7960614,88.6878056 30.7960614,88.5971669 C30.8868424,88.3252509 30.2967661,87.418864 28.3903658,86.8750319 C27.0740418,86.5124771 26.3024036,85.1528969 26.620137,83.8386359 C26.9832608,82.524375 28.3449753,81.7539461 29.6612993,82.0711815 C34.5634715,83.3854425 36.3790908,86.9656706 35.6074526,89.8661085 C34.8358144,92.7212271 31.4769186,94.9418749 26.5747465,93.627614 C25.1676415,93.2650592 24.3960033,93.4463366 24.0328794,93.5822946 C23.7605365,93.7182527 23.6243651,93.8088914 23.6243651,93.89953 C23.5335841,94.1714461 24.1236604,95.077833 26.0300607,95.6216651 C30.9322328,96.935926 32.7478522,100.516154 31.9762139,103.416592 C31.2045757,106.271711 27.84568,108.492358 22.9435079,107.178098 C21.5364029,106.815543 20.7647647,106.99682 20.4016408,107.132778 C20.1292979,107.268736 19.9931265,107.359375 19.9931265,107.450014 C19.9023455,107.72193 20.4924218,108.628317 22.3988221,109.172149 C23.7151461,109.534703 24.4867843,110.894284 24.1690509,112.208545 C23.987489,112.888335 23.5335841,113.432167 22.9888983,113.749402 Z" id="Shape-Copy-3" transform="translate(25.389217, 98.034195) rotate(65.000000) translate(-25.389217, -98.034195) "></path>
                <path d="M222.477894,182.967586 C227.879362,179.568635 232.736143,180.973535 234.733325,184.145889 C236.730506,187.318243 235.913477,192.258051 230.51201,195.657002 C228.424048,196.971263 228.060924,198.285524 228.242486,198.602759 C228.469438,198.919995 229.785762,199.146591 231.873724,197.83233 C237.275192,194.43338 242.131973,195.838279 244.129155,199.010633 C246.126336,202.182987 245.309307,207.122796 239.90784,210.521746 C237.819878,211.836007 237.456754,213.150268 237.638316,213.467504 C237.819878,213.784739 239.181592,214.011336 241.269554,212.697075 C242.72205,211.790688 244.62845,212.198562 245.58165,213.648781 C246.48946,215.099 246.080945,217.002412 244.583059,217.954119 C239.181592,221.353069 234.32481,219.94817 232.327629,216.775816 C230.330448,213.603462 231.147477,208.663653 236.548944,205.264703 C238.636906,203.950442 239.00003,202.636181 238.818468,202.318945 C238.636906,202.00171 237.275192,201.775113 235.18723,203.089374 C229.785762,206.488325 224.92898,205.083425 222.931799,201.911071 C220.934618,198.738717 221.751647,193.798909 227.153114,190.399958 C229.241076,189.085697 229.6042,187.771436 229.422638,187.454201 C229.195686,187.136965 227.879362,186.910369 225.7914,188.22463 C224.338904,189.131017 222.432504,188.723142 221.479304,187.272923 C220.571494,185.777385 220.980008,183.873973 222.477894,182.967586 Z" id="Shape"></path>
                <path d="M99.2088208,3.52643187 C103.399221,0.889562618 107.16706,1.97946857 108.716451,4.44054654 C110.265843,6.9016245 109.632001,10.7338745 105.441601,13.3707437 C103.821782,14.3903332 103.540075,15.4099226 103.680928,15.6560304 C103.856996,15.9021382 104.878186,16.0779295 106.498004,15.05834 C110.688404,12.4214708 114.456243,13.5113767 116.005635,15.9724547 C117.555026,18.4335327 116.921184,22.2657827 112.730784,24.9026519 C111.110966,25.9222413 110.829258,26.9418308 110.970112,27.1879386 C111.110966,27.4340464 112.167369,27.6098377 113.787188,26.5902482 C114.914018,25.8870831 116.392983,26.2035074 117.132465,27.3285716 C117.836734,28.4536358 117.519813,29.9302826 116.357769,30.668606 C112.167369,33.3054752 108.39953,32.2155693 106.850139,29.7544913 C105.300747,27.2934133 105.934589,23.4611634 110.124989,20.8242941 C111.744808,19.8047047 112.026515,18.7851152 111.885661,18.5390074 C111.744808,18.2928997 110.688404,18.1171084 109.068586,19.1366978 C104.878186,21.7735671 101.110347,20.6836611 99.5609553,18.2225831 C98.0115636,15.7615052 98.6454057,11.9292552 102.835806,9.29238595 C104.455624,8.27279651 104.737332,7.25320707 104.596478,7.00709927 C104.420411,6.76099148 103.399221,6.58520019 101.779402,7.60478964 C100.652572,8.30795477 99.1736074,7.99153046 98.434125,6.86646625 C97.7298561,5.70624378 98.0467771,4.229597 99.2088208,3.52643187 Z" id="Shape-Copy-2"></path>
                <path d="M226.182323,166.036416 C225.356691,165.937496 224.59711,165.475866 224.101731,164.717476 C223.276099,163.398535 223.672402,161.650939 224.993413,160.826601 C225.653919,160.397945 241.605126,150.670759 261.882643,156.012468 C263.401806,156.40815 264.293488,157.957905 263.897185,159.474687 C263.500881,160.991469 261.948694,161.881753 260.429531,161.486071 C242.529833,156.770859 228.130814,165.541813 227.998713,165.640734 C227.437284,165.970469 226.776778,166.102363 226.182323,166.036416 Z" id="Shape" transform="translate(243.831152, 160.233732) rotate(23.000000) translate(-243.831152, -160.233732) "></path>
                <ellipse id="Oval" cx="231.448266" cy="42.8490997" rx="5.08373408" ry="5.07576641"></ellipse>
                <ellipse id="Oval-Copy-2" cx="148.083734" cy="29.0757664" rx="5.08373408" ry="5.07576641"></ellipse>
                <ellipse id="Oval-Copy-4" cx="184.872746" cy="209.075766" rx="5.08373408" ry="5.07576641"></ellipse>
                <ellipse id="Oval" cx="96.4454486" cy="212.435347" rx="6.44544856" ry="6.4353467"></ellipse>
                <ellipse id="Oval-Copy-3" cx="226.445449" cy="122.435347" rx="6.44544856" ry="6.4353467"></ellipse>
                <ellipse id="Oval" cx="31.4454486" cy="140.435347" rx="6.44544856" ry="6.4353467"></ellipse>
                <ellipse id="Oval-Copy" cx="62.7163845" cy="23.3153467" rx="6.44544856" ry="6.4353467"></ellipse>
            </g>
        </g>
    </g>
</svg>