<?xml version="1.0" encoding="UTF-8" standalone="no"?>
<svg width="133px" height="133px" viewBox="0 0 133 133" version="1.1" xmlns="http://www.w3.org/2000/svg" xmlns:xlink="http://www.w3.org/1999/xlink">
    <!-- Generator: Sketch 42 (36781) - http://www.bohemiancoding.com/sketch -->
    <title>intro-image-04</title>
    <desc>Created with Sketch.</desc>
    <defs>
        <polygon id="path-1" points="0 133 133 133 133 0 0 0"></polygon>
    </defs>
    <g id="Page-1" stroke="none" stroke-width="1" fill="none" fill-rule="evenodd">
        <g id="intro-4" transform="translate(-121.000000, -105.000000)">
            <g id="intro-image-04" transform="translate(121.000000, 105.000000)">
                <path d="M124.419355,17.1612903 C123.234868,17.1612903 122.274194,16.2006156 122.274194,15.016129 L122.274194,4.29032258 L111.548387,4.29032258 C110.363901,4.29032258 109.403226,3.32964785 109.403226,2.14516129 C109.403226,0.960674731 110.363901,0 111.548387,0 L124.419355,0 C125.603841,0 126.564516,0.960674731 126.564516,2.14516129 L126.564516,15.016129 C126.564516,16.2006156 125.603841,17.1612903 124.419355,17.1612903 Z" id="Fill-1" fill="#00A3DE"></path>
                <path d="M21.4516129,107.258065 C20.9028091,107.258065 20.3536478,107.048554 19.9349839,106.629532 C19.0969409,105.791847 19.0969409,104.43396 19.9349839,103.596274 L122.902726,0.628174731 C123.740054,-0.209153226 125.098656,-0.209153226 125.935984,0.628174731 C126.774027,1.46621774 126.774027,2.82410484 125.935984,3.66214785 L22.9682419,106.629532 C22.549578,107.048554 22.0004167,107.258065 21.4516129,107.258065" id="Fill-3" fill="#00A3DE"></path>
                <path d="M130.854839,133 L2.14516129,133 C0.960674731,133 0,132.039325 0,130.854839 C0,129.670352 0.960674731,128.709677 2.14516129,128.709677 L130.854839,128.709677 C132.039325,128.709677 133,129.670352 133,130.854839 C133,132.039325 132.039325,133 130.854839,133" id="Fill-5" fill="#00A3DE"></path>
                <mask id="mask-2" fill="white">
                    <use xlink:href="#path-1"></use>
                </mask>
                <g id="Clip-8"></g>
                <g id="Group" mask="url(#mask-2)">
                    <g transform="translate(16.791367, 15.179856)">
                        <path d="M36.1479929,18.2211586 C36.1479929,8.15804811 28.056062,0 18.0738488,0 C8.09193095,0 0,8.15804811 0,18.2211586 C0,26.6845643 5.72428096,33.7985632 13.4820249,35.8470783 L18.0738488,40.476252 L22.665968,35.8470783 C30.4237119,33.7985632 36.1479929,26.6845643 36.1479929,18.2211586" id="Fill-18" fill="#00A3DE"></path>
                        <path d="M19.2114131,19.6104465 L19.2114131,27.1303984 C20.9328305,26.7128382 22.2397615,25.5556936 22.2397615,23.9488459 C22.2397615,22.406284 21.6661525,21.249437 20.3589263,20.3818762 L19.2114131,19.6104465 Z M16.8845033,15.5288926 L16.8845033,9.29465698 C15.4181545,9.58394313 14.3659968,10.451504 14.3659968,12.1223398 C14.3659968,13.3116274 14.8761338,14.2756169 15.9598799,14.9506179 L16.8845033,15.5288926 Z M16.8845033,29.6693903 C13.6010864,29.2193896 11.6883677,26.8089693 11.6883677,23.6920003 C11.6883677,23.0491422 12.1985047,22.4705698 12.899648,22.4705698 C13.5373193,22.4705698 14.1109282,23.0491422 14.1109282,23.6920003 C14.1109282,25.5556936 15.2268531,26.6164095 16.8845033,27.0339696 L16.8845033,18.3250278 L14.6210653,17.0074663 C12.899648,16.0110362 11.9115526,14.0509142 11.9115526,12.0583517 C11.9115526,9.16578773 13.8561549,7.1413799 16.8845033,6.75566502 L16.8845033,5.9845329 C16.8845033,5.40596059 17.2986944,4.76310247 18.0001329,4.76310247 C18.7331597,4.76310247 19.2114131,5.40596059 19.2114131,5.9845329 L19.2114131,6.75566502 C22.1122272,7.30209443 24.3756652,9.5515026 24.3756652,12.3797807 C24.3756652,13.0223412 23.7698774,13.6009135 23.1643849,13.6009135 C22.5267136,13.6009135 21.9209258,13.0223412 21.9209258,12.3797807 C21.9209258,10.5479327 20.8052962,9.58394313 19.2114131,9.29465698 L19.2114131,16.8788947 L21.6020902,18.260742 C23.8974117,19.5783035 24.6942056,21.4422945 24.6942056,23.916703 C24.6942056,27.1946842 22.4310629,29.2836754 19.2114131,29.6693903 L19.2114131,30.3762366 C19.2114131,31.0190947 18.7653384,31.597667 18.0320164,31.597667 C17.330578,31.597667 16.8845033,31.0190947 16.8845033,30.3762366 L16.8845033,29.6693903 Z" id="Fill-19" fill="#FFFFFF"></path>
                    </g>
                </g>
                <polygon id="Fill-7" fill="#00A3DE" mask="url(#mask-2)" points="21.4516129 130.854839 47.1935484 130.854839 47.1935484 117.983871 21.4516129 117.983871"></polygon>
                <path d="M23.5967742,128.709677 L45.0483871,128.709677 L45.0483871,120.129032 L23.5967742,120.129032 L23.5967742,128.709677 Z M47.1935484,133 L21.4516129,133 C20.2671263,133 19.3064516,132.039325 19.3064516,130.854839 L19.3064516,117.983871 C19.3064516,116.799384 20.2671263,115.83871 21.4516129,115.83871 L47.1935484,115.83871 C48.3780349,115.83871 49.3387097,116.799384 49.3387097,117.983871 L49.3387097,130.854839 C49.3387097,132.039325 48.3780349,133 47.1935484,133 L47.1935484,133 Z" id="Fill-9" fill="#00A3DE" mask="url(#mask-2)"></path>
                <path d="M62.2096774,128.709677 L83.6612903,128.709677 L83.6612903,84.733871 L62.2096774,84.733871 L62.2096774,128.709677 Z M85.8064516,133 L60.0645161,133 C58.8800296,133 57.9193548,132.039325 57.9193548,130.854839 L57.9193548,82.5887097 C57.9193548,81.4042231 58.8800296,80.4435484 60.0645161,80.4435484 L85.8064516,80.4435484 C86.9909382,80.4435484 87.9516129,81.4042231 87.9516129,82.5887097 L87.9516129,130.854839 C87.9516129,132.039325 86.9909382,133 85.8064516,133 L85.8064516,133 Z" id="Fill-10" fill="#00A3DE" mask="url(#mask-2)"></path>
                <polygon id="Fill-11" fill="#00A3DE" mask="url(#mask-2)" points="98.6774194 130.854839 124.419355 130.854839 124.419355 43.9758065 98.6774194 43.9758065"></polygon>
                <path d="M100.822581,128.709677 L122.274194,128.709677 L122.274194,46.1209677 L100.822581,46.1209677 L100.822581,128.709677 Z M124.419355,133 L98.6774194,133 C97.4929328,133 96.5322581,132.039325 96.5322581,130.854839 L96.5322581,43.9758065 C96.5322581,42.7909624 97.4929328,41.8306452 98.6774194,41.8306452 L124.419355,41.8306452 C125.603841,41.8306452 126.564516,42.7909624 126.564516,43.9758065 L126.564516,130.854839 C126.564516,132.039325 125.603841,133 124.419355,133 L124.419355,133 Z" id="Fill-12" fill="#00A3DE" mask="url(#mask-2)"></path>
                <path d="M15.016129,4.29032258 L2.14516129,4.29032258 C0.960674731,4.29032258 0,3.32964785 0,2.14516129 C0,0.960674731 0.960674731,0 2.14516129,0 L15.016129,0 C16.2006156,0 17.1612903,0.960674731 17.1612903,2.14516129 C17.1612903,3.32964785 16.2006156,4.29032258 15.016129,4.29032258" id="Fill-13" fill="#00A3DE" mask="url(#mask-2)"></path>
                <path d="M8.58064516,17.1612903 L2.14516129,17.1612903 C0.960674731,17.1612903 0,16.2006156 0,15.016129 C0,13.8316425 0.960674731,12.8709677 2.14516129,12.8709677 L8.58064516,12.8709677 C9.76513172,12.8709677 10.7258065,13.8316425 10.7258065,15.016129 C10.7258065,16.2006156 9.76513172,17.1612903 8.58064516,17.1612903" id="Fill-14" fill="#00A3DE" mask="url(#mask-2)"></path>
                <path d="M8.58064516,30.0322581 L2.14516129,30.0322581 C0.960674731,30.0322581 0,29.0715833 0,27.8870968 C0,26.7026102 0.960674731,25.7419355 2.14516129,25.7419355 L8.58064516,25.7419355 C9.76513172,25.7419355 10.7258065,26.7026102 10.7258065,27.8870968 C10.7258065,29.0715833 9.76513172,30.0322581 8.58064516,30.0322581" id="Fill-15" fill="#00A3DE" mask="url(#mask-2)"></path>
                <path d="M8.58064516,42.9032258 L2.14516129,42.9032258 C0.960674731,42.9032258 0,41.9425511 0,40.7580645 C0,39.573578 0.960674731,38.6129032 2.14516129,38.6129032 L8.58064516,38.6129032 C9.76513172,38.6129032 10.7258065,39.573578 10.7258065,40.7580645 C10.7258065,41.9425511 9.76513172,42.9032258 8.58064516,42.9032258" id="Fill-16" fill="#00A3DE" mask="url(#mask-2)"></path>
                <path d="M8.58064516,55.7741935 L2.14516129,55.7741935 C0.960674731,55.7741935 0,54.8135188 0,53.6290323 C0,52.4445457 0.960674731,51.483871 2.14516129,51.483871 L8.58064516,51.483871 C9.76513172,51.483871 10.7258065,52.4445457 10.7258065,53.6290323 C10.7258065,54.8135188 9.76513172,55.7741935 8.58064516,55.7741935" id="Fill-17" fill="#00A3DE" mask="url(#mask-2)"></path>
                <path d="M15.016129,68.6451613 L2.14516129,68.6451613 C0.960674731,68.6451613 0,67.6844866 0,66.5 C0,65.3155134 0.960674731,64.3548387 2.14516129,64.3548387 L15.016129,64.3548387 C16.2006156,64.3548387 17.1612903,65.3155134 17.1612903,66.5 C17.1612903,67.6844866 16.2006156,68.6451613 15.016129,68.6451613" id="Fill-18" fill="#00A3DE" mask="url(#mask-2)"></path>
                <path d="M8.58064516,81.516129 L2.14516129,81.516129 C0.960674731,81.516129 0,80.5554543 0,79.3709677 C0,78.1864812 0.960674731,77.2258065 2.14516129,77.2258065 L8.58064516,77.2258065 C9.76513172,77.2258065 10.7258065,78.1864812 10.7258065,79.3709677 C10.7258065,80.5554543 9.76513172,81.516129 8.58064516,81.516129" id="Fill-19" fill="#00A3DE" mask="url(#mask-2)"></path>
                <path d="M8.58064516,94.3870968 L2.14516129,94.3870968 C0.960674731,94.3870968 0,93.426422 0,92.2419355 C0,91.0574489 0.960674731,90.0967742 2.14516129,90.0967742 L8.58064516,90.0967742 C9.76513172,90.0967742 10.7258065,91.0574489 10.7258065,92.2419355 C10.7258065,93.426422 9.76513172,94.3870968 8.58064516,94.3870968" id="Fill-20" fill="#00A3DE" mask="url(#mask-2)"></path>
                <path d="M8.58064516,107.258065 L2.14516129,107.258065 C0.960674731,107.258065 0,106.29739 0,105.112903 C0,103.928417 0.960674731,102.967742 2.14516129,102.967742 L8.58064516,102.967742 C9.76513172,102.967742 10.7258065,103.928417 10.7258065,105.112903 C10.7258065,106.29739 9.76513172,107.258065 8.58064516,107.258065" id="Fill-21" fill="#00A3DE" mask="url(#mask-2)"></path>
                <path d="M8.58064516,120.129032 L2.14516129,120.129032 C0.960674731,120.129032 0,119.168358 0,117.983871 C0,116.799384 0.960674731,115.83871 2.14516129,115.83871 L8.58064516,115.83871 C9.76513172,115.83871 10.7258065,116.799384 10.7258065,117.983871 C10.7258065,119.168358 9.76513172,120.129032 8.58064516,120.129032" id="Fill-22" fill="#00A3DE" mask="url(#mask-2)"></path>
            </g>
        </g>
    </g>
</svg>