<?xml version="1.0" encoding="UTF-8" standalone="no"?>
<svg width="309px" height="235px" viewBox="0 0 309 235" version="1.1" xmlns="http://www.w3.org/2000/svg" xmlns:xlink="http://www.w3.org/1999/xlink">
    <!-- Generator: Sketch 42 (36781) - http://www.bohemiancoding.com/sketch -->
    <title>intro-confetti-05</title>
    <desc>Created with Sketch.</desc>
    <defs></defs>
    <g id="Page-1" stroke="none" stroke-width="1" fill="none" fill-rule="evenodd">
        <g id="intro-5" transform="translate(-39.000000, -57.000000)" fill-rule="nonzero" fill="#89D3E7">
            <g id="intro-confetti-05" transform="translate(37.000000, 57.000000)">
                <path d="M43.8343349,176.45958 C43.8343349,176.731496 43.743554,177.003412 43.652773,177.275329 C43.1080872,178.725548 41.4740298,179.450657 40.0215344,178.861506 C29.7178948,174.828084 13.0595876,170.613385 8.38436784,173.785739 C7.83968205,174.148294 7.29499625,174.692126 7.29499625,176.051706 C7.29499625,178.680228 12.8326352,178.906825 12.9234161,178.906825 C14.4666925,178.906825 15.7376261,180.175766 15.7376261,181.716624 C15.6922356,183.302801 14.4666925,184.526423 12.9234161,184.526423 C9.0198346,184.526423 1.66657638,182.71365 1.71196686,176.051706 C1.71196686,173.06063 2.9375099,170.704024 5.25242452,169.163166 C14.0581782,163.181013 37.4796673,171.837007 42.1094966,173.649781 C43.2442587,174.102975 43.9251159,175.281277 43.8343349,176.45958 Z" id="Shape" transform="translate(22.777084, 175.805989) rotate(-25.000000) translate(-22.777084, -175.805989) "></path>
                <path d="M190.713885,215.36599 C190.713885,215.58076 190.642183,215.79553 190.57048,216.0103 C190.140266,217.155741 188.849622,217.728461 187.702384,217.263126 C179.564159,214.077369 166.406765,210.748432 162.714091,213.254083 C162.283876,213.540444 161.853662,213.969984 161.853662,215.043834 C161.853662,217.119946 166.227509,217.298921 166.299212,217.298921 C167.518153,217.298921 168.521987,218.301181 168.521987,219.518212 C168.486136,220.771038 167.518153,221.737503 166.299212,221.737503 C163.216008,221.737503 157.408112,220.305702 157.443963,215.043834 C157.443963,212.681363 158.411946,210.820022 160.240358,209.602991 C167.195492,204.878049 185.694716,211.714898 189.351539,213.146698 C190.247819,213.504649 190.785587,214.435319 190.713885,215.36599 Z" id="Shape-Copy-4" transform="translate(174.082031, 214.849757) rotate(-117.000000) translate(-174.082031, -214.849757) "></path>
                <path d="M257.097947,23.3206921 C257.097947,23.5926082 257.007166,23.8645242 256.916385,24.1364403 C256.371699,25.5866593 254.737642,26.3117687 253.285146,25.7226173 C242.981507,21.6891958 226.323199,17.4744969 221.64798,20.6468509 C221.103294,21.0094056 220.558608,21.5532377 220.558608,22.912818 C220.558608,25.5413399 226.096247,25.7679366 226.187028,25.7679366 C227.730304,25.7679366 229.001238,27.0368782 229.001238,28.5777359 C228.955847,30.1639129 227.730304,31.3875352 226.187028,31.3875352 C222.283446,31.3875352 214.930188,29.5747614 214.975579,22.912818 C214.975579,19.9217414 216.201122,17.5651356 218.516036,16.0242779 C227.32179,10.0421246 250.743279,18.6981191 255.373108,20.5108928 C256.50787,20.9640863 257.188728,22.1423892 257.097947,23.3206921 Z" id="Shape-Copy" transform="translate(236.040696, 22.667101) rotate(144.000000) translate(-236.040696, -22.667101) "></path>
                <path d="M45.8067722,51.0815482 C46.0403051,51.8476682 46.0069433,52.7137169 45.606601,53.4798369 C44.3388506,55.9114352 42.6373961,57.7434613 40.6356849,58.7094387 C38.5338882,59.7420352 36.2319203,59.7420352 34.3302947,58.7760578 C30.9607475,57.0439604 29.0924838,52.2806926 32.0616887,46.5514473 C33.1959917,44.3197064 32.8623732,42.9873238 32.5287546,42.8207759 C32.1951361,42.6542281 30.8940238,43.120562 29.7597208,45.3523029 C28.4919704,47.7839012 26.7905159,49.6159273 24.7888047,50.5819047 C22.687008,51.6145012 20.3850401,51.6145012 18.4834145,50.6485238 C15.1138673,48.9164264 13.2456035,44.1531586 16.2148085,38.4239133 C17.0488548,36.7917446 17.0488548,35.7591481 16.9487692,35.2928141 C16.8820455,34.9264089 16.7485981,34.7265515 16.6485125,34.693242 C16.314894,34.5266941 15.0137817,34.993028 13.8794787,37.2247689 C13.0787943,38.757009 11.1771686,39.3898907 9.6425234,38.5904611 C8.10787815,37.7910316 7.47400294,35.8923863 8.27468742,34.3601463 C11.2105305,28.5975915 16.1814466,27.3651375 19.5509938,29.0972349 C22.9205409,30.8293324 24.7888047,35.5926002 21.8195998,41.3218455 C20.9855535,42.9540142 20.9855535,43.9866107 21.085639,44.4529447 C21.1523627,44.8193499 21.2858101,45.0192073 21.3858957,45.0525168 C21.7195142,45.2190647 23.0206265,44.7527307 24.1549295,42.4876803 C27.1241344,36.758435 32.0616887,35.4926715 35.4312358,37.2247689 C38.800783,38.9568663 40.6690468,43.7201342 37.6998419,49.4493795 C36.8657955,51.0815482 36.8657955,52.1141447 36.9658811,52.5804786 C37.0326048,52.9468839 37.1660522,53.1467413 37.2661378,53.1800508 C37.5997563,53.3465987 38.9008686,52.8802647 40.0351716,50.6485238 C40.8358561,49.1162838 42.7374817,48.4834021 44.2721269,49.2828317 C45.0060877,49.6159273 45.5398773,50.3154282 45.8067722,51.0815482 Z" id="Shape"></path>
                <path d="M272.582567,85.8343508 C271.992491,85.6077541 271.447805,85.19988 271.175462,84.5654092 C270.267652,82.6166775 269.949919,80.6679457 270.267652,78.9911301 C270.630776,77.1783563 271.720148,75.7734567 273.263424,75.0483472 C275.941463,73.7794056 279.799654,74.8670698 281.978397,79.4896428 C282.840816,81.2570972 283.839407,81.7102906 284.111749,81.5743326 C284.384092,81.4383746 284.701826,80.3960297 283.839407,78.6285753 C282.931597,76.6798436 282.613864,74.7311118 282.931597,73.0542961 C283.294721,71.2415224 284.384092,69.7913034 285.927369,69.1115133 C288.605407,67.8425717 292.463598,68.9302359 294.642341,73.5528089 C295.277808,74.8670698 295.913275,75.3655826 296.231008,75.5015406 C296.503351,75.6374987 296.684913,75.6374987 296.775694,75.5921793 C297.048037,75.4562213 297.36577,74.4138764 296.503351,72.646422 C295.913275,71.4227998 296.457961,69.9272615 297.683504,69.33811 C298.909047,68.7489585 300.406933,69.2927907 300.997009,70.5164129 C303.175752,75.0936666 301.587085,78.8098527 298.909047,80.0787943 C296.231008,81.3477359 292.372817,80.2600717 290.194074,75.6374987 C289.558607,74.3232377 288.923141,73.8700443 288.605407,73.6887669 C288.333064,73.5528089 288.151502,73.5528089 288.060721,73.5981282 C287.788379,73.7340863 287.470645,74.7764312 288.333064,76.5438855 C290.511808,81.1211392 288.923141,84.8373253 286.245102,86.1062669 C283.567064,87.3752085 279.708873,86.2875443 277.530129,81.6649713 C276.894663,80.3507103 276.259196,79.8975169 275.941463,79.7162395 C275.66912,79.5802815 275.487558,79.5802815 275.396777,79.6256009 C275.124434,79.7615589 274.8067,80.8039038 275.66912,82.5713582 C276.259196,83.7949804 275.71451,85.2905187 274.488967,85.8796702 C273.898891,86.0609476 273.218034,86.0609476 272.582567,85.8343508 Z" id="Shape"></path>
                <path d="M72.9888983,233.749402 C72.4442125,234.066638 71.7633553,234.157276 71.1278885,233.975999 C69.0399263,233.432167 67.3604785,232.389822 66.2711069,231.030242 C65.1363448,229.580023 64.7278305,227.812568 65.1817353,226.181072 C65.9533735,223.325953 69.3122692,221.105306 74.2144414,222.419567 C76.1208417,222.918079 77.0740418,222.464886 77.1648228,222.14765 C77.2556037,221.875734 76.6655275,220.969348 74.7591272,220.425515 C72.671165,219.881683 70.9917171,218.839338 69.9023455,217.479758 C68.7675834,216.029539 68.3590691,214.262085 68.8129739,212.630588 C69.5846121,209.77547 72.9435079,207.554822 77.84568,208.869083 C79.252785,209.231638 80.0244232,209.05036 80.387547,208.914402 C80.6598899,208.778444 80.7960614,208.687806 80.7960614,208.597167 C80.8868424,208.325251 80.2967661,207.418864 78.3903658,206.875032 C77.0740418,206.512477 76.3024036,205.152897 76.620137,203.838636 C76.9832608,202.524375 78.3449753,201.753946 79.6612993,202.071182 C84.5634715,203.385442 86.3790908,206.965671 85.6074526,209.866109 C84.8358144,212.721227 81.4769186,214.941875 76.5747465,213.627614 C75.1676415,213.265059 74.3960033,213.446337 74.0328794,213.582295 C73.7605365,213.718253 73.6243651,213.808891 73.6243651,213.89953 C73.5335841,214.171446 74.1236604,215.077833 76.0300607,215.621665 C80.9322328,216.935926 82.7478522,220.516154 81.9762139,223.416592 C81.2045757,226.271711 77.84568,228.492358 72.9435079,227.178098 C71.5364029,226.815543 70.7647647,226.99682 70.4016408,227.132778 C70.1292979,227.268736 69.9931265,227.359375 69.9931265,227.450014 C69.9023455,227.72193 70.4924218,228.628317 72.3988221,229.172149 C73.7151461,229.534703 74.4867843,230.894284 74.1690509,232.208545 C73.987489,232.888335 73.5335841,233.432167 72.9888983,233.749402 Z" id="Shape"></path>
                <path d="M9.98889834,109.749402 C9.44421255,110.066638 8.7633553,110.157276 8.12788854,109.975999 C6.03992633,109.432167 4.36047847,108.389822 3.27110688,107.030242 C2.13634481,105.580023 1.72783046,103.812568 2.18173529,102.181072 C2.9533735,99.3259534 6.31226923,97.1053056 11.2144414,98.4195665 C13.1208417,98.9180793 14.0740418,98.4648859 14.1648228,98.1476505 C14.2556037,97.8757344 13.6655275,96.9693475 11.7591272,96.4255154 C9.67116496,95.8816833 7.9917171,94.8393384 6.90234551,93.4797581 C5.76758344,92.0295392 5.35906909,90.2620848 5.81297392,88.6305884 C6.58461213,85.7754698 9.94350786,83.554822 14.84568,84.869083 C16.252785,85.2316377 17.0244232,85.0503603 17.387547,84.9144023 C17.6598899,84.7784443 17.7960614,84.6878056 17.7960614,84.5971669 C17.8868424,84.3252509 17.2967661,83.418864 15.3903658,82.8750319 C14.0740418,82.5124771 13.3024036,81.1528969 13.620137,79.8386359 C13.9832608,78.524375 15.3449753,77.7539461 16.6612993,78.0711815 C21.5634715,79.3854425 23.3790908,82.9656706 22.6074526,85.8661085 C21.8358144,88.7212271 18.4769186,90.9418749 13.5747465,89.627614 C12.1676415,89.2650592 11.3960033,89.4463366 11.0328794,89.5822946 C10.7605365,89.7182527 10.6243651,89.8088914 10.6243651,89.89953 C10.5335841,90.1714461 11.1236604,91.077833 13.0300607,91.6216651 C17.9322328,92.935926 19.7478522,96.5161541 18.9762139,99.4165921 C18.2045757,102.271711 14.84568,104.492358 9.94350786,103.178098 C8.53640289,102.815543 7.76476468,102.99682 7.40164082,103.132778 C7.12929792,103.268736 6.99312647,103.359375 6.99312647,103.450014 C6.90234551,103.72193 7.49242179,104.628317 9.39882206,105.172149 C10.7151461,105.534703 11.4867843,106.894284 11.1690509,108.208545 C10.987489,108.888335 10.5335841,109.432167 9.98889834,109.749402 Z" id="Shape-Copy-3"></path>
                <path d="M257.477894,188.967586 C262.879362,185.568635 267.736143,186.973535 269.733325,190.145889 C271.730506,193.318243 270.913477,198.258051 265.51201,201.657002 C263.424048,202.971263 263.060924,204.285524 263.242486,204.602759 C263.469438,204.919995 264.785762,205.146591 266.873724,203.83233 C272.275192,200.43338 277.131973,201.838279 279.129155,205.010633 C281.126336,208.182987 280.309307,213.122796 274.90784,216.521746 C272.819878,217.836007 272.456754,219.150268 272.638316,219.467504 C272.819878,219.784739 274.181592,220.011336 276.269554,218.697075 C277.72205,217.790688 279.62845,218.198562 280.58165,219.648781 C281.48946,221.099 281.080945,223.002412 279.583059,223.954119 C274.181592,227.353069 269.32481,225.94817 267.327629,222.775816 C265.330448,219.603462 266.147477,214.663653 271.548944,211.264703 C273.636906,209.950442 274.00003,208.636181 273.818468,208.318945 C273.636906,208.00171 272.275192,207.775113 270.18723,209.089374 C264.785762,212.488325 259.92898,211.083425 257.931799,207.911071 C255.934618,204.738717 256.751647,199.798909 262.153114,196.399958 C264.241076,195.085697 264.6042,193.771436 264.422638,193.454201 C264.195686,193.136965 262.879362,192.910369 260.7914,194.22463 C259.338904,195.131017 257.432504,194.723142 256.479304,193.272923 C255.571494,191.777385 255.980008,189.873973 257.477894,188.967586 Z" id="Shape"></path>
                <path d="M126.208821,1.52643187 C130.399221,-1.11043738 134.16706,-0.0205314259 135.716451,2.44054654 C137.265843,4.9016245 136.632001,8.73387448 132.441601,11.3707437 C130.821782,12.3903332 130.540075,13.4099226 130.680928,13.6560304 C130.856996,13.9021382 131.878186,14.0779295 133.498004,13.05834 C137.688404,10.4214708 141.456243,11.5113767 143.005635,13.9724547 C144.555026,16.4335327 143.921184,20.2657827 139.730784,22.9026519 C138.110966,23.9222413 137.829258,24.9418308 137.970112,25.1879386 C138.110966,25.4340464 139.167369,25.6098377 140.787188,24.5902482 C141.914018,23.8870831 143.392983,24.2035074 144.132465,25.3285716 C144.836734,26.4536358 144.519813,27.9302826 143.357769,28.668606 C139.167369,31.3054752 135.39953,30.2155693 133.850139,27.7544913 C132.300747,25.2934133 132.934589,21.4611634 137.124989,18.8242941 C138.744808,17.8047047 139.026515,16.7851152 138.885661,16.5390074 C138.744808,16.2928997 137.688404,16.1171084 136.068586,17.1366978 C131.878186,19.7735671 128.110347,18.6836611 126.560955,16.2225831 C125.011564,13.7615052 125.645406,9.9292552 129.835806,7.29238595 C131.455624,6.27279651 131.737332,5.25320707 131.596478,5.00709927 C131.420411,4.76099148 130.399221,4.58520019 128.779402,5.60478964 C127.652572,6.30795477 126.173607,5.99153046 125.434125,4.86646625 C124.729856,3.70624378 125.046777,2.229597 126.208821,1.52643187 Z" id="Shape-Copy-2"></path>
                <path d="M273.182323,162.036416 C272.356691,161.937496 271.59711,161.475866 271.101731,160.717476 C270.276099,159.398535 270.672402,157.650939 271.993413,156.826601 C272.653919,156.397945 288.605126,146.670759 308.882643,152.012468 C310.401806,152.40815 311.293488,153.957905 310.897185,155.474687 C310.500881,156.991469 308.948694,157.881753 307.429531,157.486071 C289.529833,152.770859 275.130814,161.541813 274.998713,161.640734 C274.437284,161.970469 273.776778,162.102363 273.182323,162.036416 Z" id="Shape" transform="translate(290.831152, 156.233732) rotate(23.000000) translate(-290.831152, -156.233732) "></path>
                <ellipse id="Oval" cx="267.448266" cy="42.8490997" rx="5.08373408" ry="5.07576641"></ellipse>
                <ellipse id="Oval-Copy-2" cx="185.083734" cy="26.0757664" rx="5.08373408" ry="5.07576641"></ellipse>
                <ellipse id="Oval-Copy-4" cx="211.872746" cy="205.075766" rx="5.08373408" ry="5.07576641"></ellipse>
                <ellipse id="Oval" cx="132.445449" cy="208.435347" rx="6.44544856" ry="6.4353467"></ellipse>
                <ellipse id="Oval-Copy-3" cx="286.445449" cy="116.435347" rx="6.44544856" ry="6.4353467"></ellipse>
                <ellipse id="Oval" cx="29.4454486" cy="136.435347" rx="6.44544856" ry="6.4353467"></ellipse>
                <ellipse id="Oval-Copy" cx="89.7163845" cy="21.3153467" rx="6.44544856" ry="6.4353467"></ellipse>
            </g>
        </g>
    </g>
</svg>