<?xml version="1.0" encoding="UTF-8" standalone="no"?>
<svg width="196px" height="126px" viewBox="0 0 196 126" version="1.1" xmlns="http://www.w3.org/2000/svg" xmlns:xlink="http://www.w3.org/1999/xlink">
    <!-- Generator: Sketch 42 (36781) - http://www.bohemiancoding.com/sketch -->
    <title>intro-image-05</title>
    <desc>Created with Sketch.</desc>
    <defs>
        <polygon id="path-1" points="2.62350155e-20 0.302206897 2.62350155e-20 34.0793793 19.8587653 34.0793793 19.8587653 0.302206897 0 0.302206897"></polygon>
        <polygon id="path-3" points="0 125.984552 195.739151 125.984552 195.739151 0 0 0"></polygon>
    </defs>
    <g id="Page-1" stroke="none" stroke-width="1" fill="none" fill-rule="evenodd">
        <g id="intro-5" transform="translate(-90.000000, -111.000000)">
            <g id="intro-image-05" transform="translate(90.000000, 111.000000)">
                <path d="M81.0555822,43.6896552 L81.0555822,65.9694483 C86.1249649,64.7466207 89.8992958,60.2168966 89.8992958,54.8312414 C89.8992958,49.4436552 86.1249649,44.9124828 81.0555822,43.6896552 Z M78.3144859,71.7191034 C78.25496,71.7191034 78.1813995,71.7157241 78.1160662,71.7108966 C77.4249847,71.6737241 76.7711674,71.3773103 76.2867328,70.8815172 C75.7722933,70.348069 75.4969254,69.6287586 75.5264464,68.8911034 C75.5327378,68.7414483 75.5424168,68.5932414 75.5545156,68.4435862 C75.5627427,68.306 75.5748415,68.1674483 75.5748415,68.0269655 L75.5748415,40.6545517 C75.5748415,39.1555862 76.8026242,37.941931 78.3159378,37.941931 C87.7278094,37.941931 95.3829402,45.5178621 95.3829402,54.8312414 C95.3814884,64.1431724 87.7258736,71.7191034 78.3144859,71.7191034 Z" id="Fill-1" fill="#00A3DE"></path>
                <g id="Group-5" transform="translate(0.000000, 37.639724)">
                    <mask id="mask-2" fill="white">
                        <use xlink:href="#path-1"></use>
                    </mask>
                    <g id="Clip-4"></g>
                </g>
                <path d="M14.3228573,43.6896552 C9.25686222,44.913931 5.48204741,49.4436552 5.48204741,54.8326897 C5.48204741,60.2188276 9.25686222,64.7466207 14.3228573,65.9708966 L14.3228573,43.6896552 Z M17.0654054,71.7191034 C7.65401778,71.7191034 -0.000145185185,64.1431724 -0.000145185185,54.8312414 C-0.000145185185,45.5178621 7.65546963,37.941931 17.0654054,37.941931 C18.579203,37.941931 19.8065017,39.1555862 19.8065017,40.6545517 L19.8065017,68.0269655 C19.8065017,68.1655172 19.8190844,68.2997241 19.8282795,68.433931 C19.8379585,68.5869655 19.8500573,68.738069 19.8563486,68.8911034 C19.8878054,69.6302069 19.6109857,70.3495172 19.0950943,70.8815172 C18.6121116,71.3773103 17.9553906,71.6766207 17.2623733,71.7108966 C17.1936523,71.7171724 17.1234795,71.7191034 17.0654054,71.7191034 L17.0654054,71.7191034 Z" id="Fill-3" fill="#00A3DE"></path>
                <path d="M62.5108849,65.6279448 C62.5108849,65.6279448 63.0974331,76.2187034 47.692317,76.2187034 L47.6894133,76.2187034 C32.2842973,76.2187034 32.8708454,65.6279448 32.8708454,65.6279448" id="Fill-6" fill="#00A3DE"></path>
                <path d="M22.8540356,119.357772 L72.525759,119.357772 C70.7574035,111.217497 64.9737096,104.444876 57.1666183,101.340738 C56.296959,105.731428 52.376959,109.053772 47.6894133,109.053772 C43.0028356,109.053772 39.0847714,105.731428 38.2136602,101.33929 C30.4065689,104.444876 24.6209393,111.218945 22.8540356,119.357772 M75.7140257,124.782531 L19.6657689,124.782531 C18.8948356,124.782531 18.1616504,124.462945 17.6409195,123.900048 C17.1230923,123.336669 16.8670825,122.581634 16.9372553,121.822255 C18.1316454,108.974117 27.4433393,98.2119793 40.1025195,95.0392897 C40.9184602,94.836531 41.7910232,95.0127379 42.4588751,95.5273586 C43.1281788,96.0419793 43.5158232,96.8327379 43.5158232,97.6708069 L43.5158232,99.498531 C43.5158232,101.779083 45.3877442,103.630462 47.6894133,103.630462 C49.9910825,103.630462 51.8654232,101.777634 51.8654232,99.498531 L51.8654232,97.6708069 C51.8654232,96.8327379 52.2535516,96.0419793 52.9209195,95.5273586 C53.5902232,95.0127379 54.4579467,94.836531 55.2792109,95.0392897 C67.939843,98.2134276 77.2481491,108.976048 78.4410874,121.822255 C78.513196,122.581634 78.2581541,123.336669 77.7388751,123.900048 C77.2186281,124.462945 76.4835072,124.782531 75.7140257,124.782531" id="Fill-8" fill="#00A3DE"></path>
                <path d="M43.5158716,94.2046966 L43.5158716,99.5000759 C43.5158716,101.780628 45.3873086,103.632007 47.6889778,103.632007 C49.9906469,103.632007 51.8654716,101.779179 51.8654716,99.5000759 L51.8654716,94.2046966 L43.5158716,94.2046966 Z M47.6889778,109.055317 C42.365037,109.055317 38.033679,104.768903 38.033679,99.4986276 L38.033679,91.4906276 C38.033679,89.9931103 39.2614617,88.7780069 40.7762272,88.7780069 L54.605116,88.7780069 C56.1203654,88.7780069 57.3476642,89.9931103 57.3476642,91.4906276 L57.3476642,99.4986276 C57.3476642,104.768903 53.0134025,109.055317 47.6889778,109.055317 L47.6889778,109.055317 Z" id="Fill-10" fill="#00A3DE"></path>
                <path d="M19.9425886,30.3067172 L75.4391417,30.3067172 C74.0584306,16.3593379 62.1401788,5.42678621 47.6908652,5.42678621 C33.2396158,5.42678621 21.3218479,16.3593379 19.9425886,30.3067172 M78.3147763,35.7314759 L17.0655022,35.7314759 C15.5517047,35.7314759 14.3244059,34.5183034 14.3244059,33.0174069 C14.3244059,14.8135448 29.2929985,9.65517242e-05 47.6908652,9.65517242e-05 C66.0887319,9.65517242e-05 81.0553886,14.8135448 81.0553886,33.0174069 C81.0553886,34.5183034 79.8280899,35.7314759 78.3147763,35.7314759" id="Fill-12" fill="#00A3DE"></path>
                <path d="M19.8065501,35.731669 L19.8065501,68.0267724 C19.8065501,79.4696 29.2116464,88.7781517 40.7766143,88.7781517 L54.6050193,88.7781517 C66.1680514,88.7781517 75.5736316,79.4696 75.5736316,68.0267724 L75.5736316,35.731669 L19.8065501,35.731669 Z M54.6050193,94.2048414 L40.7766143,94.2048414 C26.1893748,94.2048414 14.3229057,82.4627034 14.3229057,68.0287034 L14.3229057,34.3152552 C14.3229057,33.8300828 14.3383921,33.3497379 14.3650094,32.8708414 C14.4434094,31.4327034 15.6440909,30.3049793 17.1012662,30.3049793 L78.2769798,30.3049793 C79.7327032,30.3049793 80.9353205,31.4327034 81.0151723,32.8708414 C81.0398538,33.3497379 81.0538884,33.8300828 81.0538884,34.3152552 L81.0538884,68.0267724 C81.0558242,82.4612552 69.1908069,94.2048414 54.6050193,94.2048414 L54.6050193,94.2048414 Z" id="Fill-14" fill="#00A3DE"></path>
                <mask id="mask-4" fill="white">
                    <use xlink:href="#path-3"></use>
                </mask>
                <g id="Clip-17"></g>
                <polygon id="Fill-16" fill="#00A3DE" mask="url(#mask-4)" points="34.6702222 21.7033793 60.711121 21.7033793 60.711121 16.2766897 34.6702222 16.2766897"></polygon>
                <path d="M79.0337817,21.7014 C80.1347694,24.6930552 80.7992336,27.8406414 80.9947496,31.0244345 L86.6893965,21.7014 L79.0337817,21.7014 M78.3146311,43.3666414 C78.0721719,43.3666414 77.8248731,43.3338138 77.5780583,43.2686414 C76.3914114,42.9408483 75.5735348,41.8725034 75.5735348,40.6559517 L75.5735348,34.3154 C75.5735348,33.9301586 75.5595002,33.5463655 75.5406262,33.1640207 C75.5294953,32.9723655 75.5406262,32.7807103 75.572083,32.5919517 C75.5062657,28.2461586 74.4415743,24.097331 72.4070459,20.2492621 C72.0663447,19.6018828 72.0019793,18.8487793 72.2289521,18.1511931 C72.4573768,17.4589172 72.9572978,16.883469 73.6188583,16.5585724 C73.9973077,16.3731931 74.4164089,16.2747103 74.836962,16.2747103 L91.5506805,16.2747103 C92.5403595,16.2747103 93.4535743,16.8023655 93.9384928,17.6554 C94.4229274,18.5084345 94.407441,19.5550552 93.8959052,20.3911931 L80.6598558,42.0564345 C80.1550953,42.8848483 79.2573669,43.3666414 78.3146311,43.3666414" id="Fill-18" fill="#00A3DE" mask="url(#mask-4)"></path>
                <path d="M32.8691032,42.8036966 C35.2835328,42.8036966 37.2411131,44.7410069 37.2411131,47.1306621 C37.2411131,49.5203172 35.2835328,51.4571448 32.8691032,51.4571448 C30.4546736,51.4571448 28.4970933,49.5203172 28.4970933,47.1306621 C28.4970933,44.7410069 30.4546736,42.8036966 32.8691032,42.8036966" id="Fill-19" fill="#00A3DE" mask="url(#mask-4)"></path>
                <path d="M62.5124336,42.8036966 C64.9278311,42.8036966 66.8858953,44.7410069 66.8858953,47.1306621 C66.8858953,49.5203172 64.9278311,51.4571448 62.5124336,51.4571448 C60.097036,51.4571448 58.1389719,49.5203172 58.1389719,47.1306621 C58.1389719,44.7410069 60.097036,42.8036966 62.5124336,42.8036966" id="Fill-20" fill="#00A3DE" mask="url(#mask-4)"></path>
                <path d="M181.479981,45.2791862 L181.479981,67.4508414 C186.525166,66.2357379 190.281591,61.7262897 190.281591,56.3657379 C190.281591,51.005669 186.525166,46.4962207 181.479981,45.2791862 M178.751952,73.1729793 C178.699201,73.1729793 178.632416,73.171531 178.57289,73.1667034 C177.878905,73.1338759 177.21928,72.8393931 176.735329,72.3407034 C176.221858,71.8101517 175.947942,71.095669 175.977463,70.3618759 C175.983754,70.2112552 175.992949,70.063531 176.00408,69.9143586 C176.013275,69.7777379 176.025858,69.639669 176.025858,69.5001517 L176.025858,42.2585655 C176.025858,40.7663586 177.247349,39.5589793 178.753403,39.5589793 C188.120268,39.5589793 195.739102,47.0987034 195.739102,56.367669 C195.739102,65.6361517 188.118332,73.1729793 178.751952,73.1729793" id="Fill-21" fill="#00A3DE" mask="url(#mask-4)"></path>
                <path d="M115.066277,45.2791862 C110.024479,46.4962207 106.26757,51.0042207 106.26757,56.3657379 C106.26757,61.7262897 110.024479,66.2357379 115.066277,67.4508414 L115.066277,45.2791862 Z M117.795758,73.1729793 C108.429378,73.1729793 100.811995,65.6332552 100.811995,56.3657379 C100.811995,47.0987034 108.43083,39.557531 117.795758,39.557531 C119.302296,39.557531 120.523788,40.7649103 120.523788,42.2566345 L120.523788,69.4987034 C120.523788,69.6353241 120.53637,69.7685655 120.545565,69.9022897 C120.55476,70.0543586 120.567343,70.2064276 120.573635,70.3584966 C120.604607,71.0927724 120.32924,71.8082207 119.814316,72.3378069 C119.32843,72.8374621 118.670257,73.1324276 117.973368,73.1652552 C117.910938,73.171531 117.845605,73.1729793 117.795758,73.1729793 L117.795758,73.1729793 Z" id="Fill-22" fill="#00A3DE" mask="url(#mask-4)"></path>
                <path d="M163.023944,67.1110759 C163.023944,67.1110759 163.607588,77.6530759 148.276033,77.6530759 L148.273129,77.6530759 C132.942057,77.6530759 133.525218,67.1110759 133.525218,67.1110759" id="Fill-23" fill="#00A3DE" mask="url(#mask-4)"></path>
                <path d="M123.556658,120.584028 L172.991245,120.584028 C171.231117,112.483821 165.475008,105.744028 157.705181,102.654855 C156.839878,107.024303 152.940203,110.330717 148.272984,110.330717 C143.609152,110.330717 139.709478,107.024303 138.842722,102.654855 C131.072895,105.745476 125.315334,112.485752 123.556658,120.584028 M176.164026,125.984648 L120.383878,125.984648 C119.617784,125.984648 118.886534,125.664579 118.368223,125.104579 C117.850396,124.544097 117.598258,123.792441 117.667947,123.036924 C118.857013,110.250097 128.124184,99.539131 140.72287,96.3833379 C141.537843,96.1815448 142.403147,96.3582345 143.067611,96.8709241 C143.734011,97.383131 144.11972,98.1685793 144.11972,99.0018207 L144.11972,100.822786 C144.11972,103.090786 145.982445,104.934924 148.272984,104.934924 C150.564006,104.934924 152.429636,103.090786 152.429636,100.822786 L152.429636,99.0018207 C152.429636,98.1700276 152.815344,97.383131 153.479808,96.8709241 C154.146208,96.3582345 155.009576,96.1800966 155.826485,96.3833379 C168.427107,99.5405793 177.69089,110.251545 178.878021,123.038372 C178.949645,123.794372 178.696055,124.544097 178.179196,125.104579 C177.661369,125.664579 176.929636,125.984648 176.164026,125.984648" id="Fill-24" fill="#00A3DE" mask="url(#mask-4)"></path>
                <path d="M144.119768,95.5512069 L144.119768,100.821483 C144.119768,103.089483 145.982494,104.933621 148.273032,104.933621 C150.56357,104.933621 152.429684,103.089483 152.429684,100.821483 L152.429684,95.5512069 L144.119768,95.5512069 Z M148.273032,110.33231 C142.974257,110.33231 138.663709,106.066655 138.663709,100.822931 L138.663709,92.853069 C138.663709,91.3632759 139.885684,90.1539655 141.39319,90.1539655 L155.156262,90.1539655 C156.663768,90.1539655 157.885743,91.3613448 157.885743,92.853069 L157.885743,100.822931 C157.885743,106.066655 153.571807,110.33231 148.273032,110.33231 L148.273032,110.33231 Z" id="Fill-25" fill="#00A3DE" mask="url(#mask-4)"></path>
                <path d="M109.106183,107.28369 C110.710479,108.317759 113.045057,109.373069 115.869393,109.373069 L115.872296,109.373069 C118.883437,109.373069 122.000563,108.186931 125.136079,105.849414 C128.799585,101.709276 133.4368,98.6712759 138.663951,96.9748621 L138.663951,95.4145862 C126.570993,94.1927241 116.906983,84.9377586 115.306074,72.9943103 C113.475773,72.7307241 111.720484,72.1731379 110.095862,71.3534138 C111.163457,78.657069 112.311872,82.3081724 113.166044,84.1262414 C117.5608,93.4821034 112.836474,102.066517 111.284928,104.474034 C110.838242,105.169207 110.069244,106.268448 109.106183,107.28369 M115.872296,114.772241 L115.869393,114.772241 C107.801936,114.772241 102.76643,109.089207 102.559299,108.84831 C101.863862,108.047414 101.700286,106.920655 102.145521,105.960931 C102.53123,105.132034 103.306519,104.560931 104.196504,104.421414 C106.026321,103.341 112.184109,94.8463793 108.217649,86.4034138 C106.367506,82.4621724 104.938884,75.565 103.849511,65.3179655 C103.721748,64.1212069 104.411378,62.9847931 105.54237,62.5314828 C106.670943,62.0815517 107.962607,62.4247931 108.712247,63.3748621 C110.909867,66.1579655 114.197827,67.7597586 117.739862,67.7756897 C118.426104,67.7539655 119.106054,67.9992069 119.627269,68.4539655 C120.181393,68.941069 120.514351,69.6304483 120.545323,70.3632759 C121.004593,81.460931 130.16239,90.1539655 141.39198,90.1539655 C142.898035,90.1539655 144.118074,91.3613448 144.118074,92.853069 L144.118074,99.0019655 C144.118074,100.237828 143.271644,101.31631 142.0608,101.619483 C136.992385,102.889138 132.504711,105.644241 129.077857,109.588862 C128.957837,109.73031 128.821363,109.855828 128.673274,109.969276 C124.491941,113.154517 120.182844,114.772241 115.872296,114.772241" id="Fill-26" fill="#00A3DE" mask="url(#mask-4)"></path>
                <path d="M171.413179,105.849366 C174.550631,108.187366 177.665821,109.373021 180.679866,109.373021 C183.50275,109.373021 185.835876,108.31771 187.443076,107.283641 C186.480014,106.266952 185.711016,105.169641 185.26433,104.473986 C183.711332,102.065021 178.988458,93.4806069 183.383214,84.1261931 C184.237387,82.3081241 185.385801,78.6575034 186.450493,71.3533655 C184.828774,72.1730897 183.073485,72.7287448 181.243184,72.9942621 C179.642276,84.9381931 169.980201,94.1946069 157.885308,95.4145379 L157.885308,96.9748138 C163.112458,98.6712276 167.751609,101.710676 171.413179,105.849366 M180.679866,114.772193 C176.366414,114.772193 172.057318,113.154469 167.87308,109.967779 C167.72354,109.854331 167.589485,109.728814 167.468498,109.587366 C164.043095,105.642745 159.553485,102.887641 154.487006,101.617503 C153.276162,101.314814 152.429732,100.236331 152.429732,99.000469 L152.429732,92.8515724 C152.429732,91.3612966 153.649772,90.152469 155.155826,90.152469 C166.386868,90.152469 175.544666,81.4594345 176.002483,70.3617793 C176.033456,69.6275034 176.364962,68.9395724 176.920537,68.452469 C177.4403,67.9977103 178.115411,67.7505379 178.805041,67.7737103 C182.348043,67.7582621 185.63794,66.156469 187.833624,63.3728828 C188.585199,62.4232966 189.876863,62.0800552 191.005436,62.5299862 C192.136429,62.9832966 192.824122,64.1182621 192.698295,65.316469 C191.610374,75.5649517 190.182236,82.4621241 188.330157,86.4019172 C184.363698,94.8448828 190.51955,103.339503 192.351303,104.419917 C193.241288,104.559434 194.016577,105.130538 194.402285,105.959434 C194.845584,106.918676 194.685397,108.045917 193.988508,108.845366 C193.779925,109.089159 188.747322,114.772193 180.679866,114.772193" id="Fill-27" fill="#00A3DE" mask="url(#mask-4)"></path>
                <path d="M181.483079,39.7777655 C184.139483,40.2079034 186.640056,41.258869 188.785893,42.8143172 C189.159503,33.6679724 189.193864,26.4077655 189.193864,24.0712138 C189.193864,23.8742483 189.218545,23.6753517 189.262101,23.4812828 C189.295009,23.3200414 190.155474,18.9409379 186.777014,14.8413517 C182.658111,9.84142069 173.82698,7.20073103 161.232649,7.20073103 C125.092669,7.20073103 123.600165,8.67073103 123.600165,14.2871448 C123.600165,21.4232828 128.527266,26.604731 135.315158,26.604731 C136.278219,26.604731 137.610535,26.5661103 139.15579,26.5226621 C141.441488,26.4574897 144.28615,26.3763862 147.375207,26.3763862 C159.690782,26.3763862 176.445637,27.4925241 180.978802,37.0023862 C181.301113,37.450869 181.481627,37.9959034 181.481627,38.5621793 L181.481627,39.7777655 L181.483079,39.7777655 Z M191.196451,52.1899724 C190.224195,52.1899724 189.304204,51.674869 188.813962,50.8088 C186.774111,47.1992138 182.917992,44.9577655 178.753597,44.9577655 C177.247059,44.9577655 176.027019,43.7484552 176.027019,42.2581793 L176.027019,39.2670069 C174.307543,35.7699034 167.858901,31.7741103 147.376659,31.7741103 C144.365518,31.7741103 141.564412,31.854731 139.311138,31.9184552 C137.725716,31.9633517 136.357587,32.0039034 135.316609,32.0039034 C125.528224,32.0039034 118.146041,24.3850069 118.146041,14.2871448 C118.146041,8.13969655 120.78212,5.0090069 127.247701,3.47817931 C133.232718,2.05790345 143.38697,1.79866207 161.232649,1.79866207 C175.820372,1.79866207 185.868155,5.07852414 191.103049,11.5503862 C195.505548,16.9910759 194.89577,22.8324552 194.649923,24.3135586 C194.646535,27.5205241 194.57975,37.720731 193.91819,49.6395586 C193.851404,50.8382483 192.992392,51.8501103 191.811069,52.1219034 C191.607325,52.1682483 191.400679,52.1899724 191.196451,52.1899724 L191.196451,52.1899724 Z" id="Fill-28" fill="#00A3DE" mask="url(#mask-4)"></path>
                <path d="M122.75993,26.6373172 C121.289204,29.5029724 120.522142,32.6635931 120.522142,35.949731 L120.522142,69.5000069 C120.522142,80.8878 129.885619,90.1524207 141.392029,90.1524207 L155.154616,90.1524207 C166.662478,90.1524207 176.022567,80.8878 176.022567,69.5000069 L176.022567,39.2624207 C174.301639,35.7682138 167.851061,31.7724207 147.37511,31.7724207 C144.362518,31.7724207 141.562863,31.8530414 139.309589,31.9167655 C137.724167,31.9616621 136.356039,32.0022138 135.315061,32.0022138 C130.356987,32.0022138 125.901737,30.0523517 122.75993,26.6373172 M155.156068,95.5511103 L141.39348,95.5511103 C126.87593,95.5511103 115.066083,83.8654552 115.066083,69.5000069 L115.066083,35.949731 C115.066083,30.1812483 116.938488,24.7111103 120.477135,20.1345586 C121.044809,19.4002828 121.953668,19.0029724 122.884305,19.0850414 C123.814942,19.1675931 124.638142,19.7140759 125.065955,20.5338 C127.051604,24.3335931 130.884493,26.6015931 135.316513,26.6015931 C136.280058,26.6015931 137.61189,26.5629724 139.154241,26.5195241 C141.441392,26.4543517 144.287989,26.3732483 147.376562,26.3732483 C159.695525,26.3732483 176.456671,27.4913172 180.983545,37.0055241 C181.302468,37.4540069 181.480078,37.9956621 181.480078,38.5604897 L181.480078,69.5000069 C181.480078,83.8654552 169.671683,95.5511103 155.156068,95.5511103" id="Fill-29" fill="#00A3DE" mask="url(#mask-4)"></path>
                <path d="M108.08224,27.0455862 L108.08224,42.5889655 C110.152097,41.1575862 112.537489,40.1877241 115.066131,39.7778621 L115.066131,35.9495862 C115.066131,30.7401379 116.597351,25.7696552 119.509282,21.4788966 C119.326833,21.0289655 119.162289,20.5693793 119.0142,20.102069 C112.380205,20.5162759 108.528926,22.946 108.08224,27.0455862 M105.352759,52.190069 C105.125302,52.190069 104.893489,52.162069 104.665065,52.1031724 C103.463415,51.7942069 102.624729,50.7186207 102.624729,49.4904828 L102.624729,26.9118621 C102.624729,26.8283448 102.628117,26.7457931 102.63586,26.6651724 C102.973173,23.0483448 105.449065,14.6377241 121.141647,14.6377241 C122.464284,14.6377241 123.595761,15.5771724 123.827573,16.8671034 C124.062289,18.1787586 124.482359,19.416069 125.070842,20.539931 C125.557697,21.4697241 125.459939,22.5935862 124.8158,23.4224828 C122.008403,27.0533103 120.525094,31.3841379 120.525094,35.9495862 L120.525094,42.2582759 C120.525094,43.7485517 119.303603,44.9578621 117.797549,44.9578621 C113.629766,44.9578621 109.777035,47.1993103 107.733796,50.8084138 C107.242102,51.6764138 106.322112,52.190069 105.352759,52.190069" id="Fill-30" fill="#00A3DE" mask="url(#mask-4)"></path>
                <path d="M142.761222,54.183331 L137.305162,54.183331 C137.305162,52.1185724 135.608916,50.4376069 133.52212,50.4376069 C131.437261,50.4376069 129.739079,52.1185724 129.739079,54.183331 L124.282051,54.183331 C124.282051,49.1414 128.429024,45.0384345 133.52212,45.0384345 C138.615701,45.0384345 142.761222,49.1414 142.761222,54.183331" id="Fill-31" fill="#00A3DE" mask="url(#mask-4)"></path>
                <path d="M172.2644,54.183331 L166.808341,54.183331 C166.808341,52.1185724 165.112094,50.4376069 163.027235,50.4376069 C160.938504,50.4376069 159.239353,52.1185724 159.239353,54.183331 L153.78523,54.183331 C153.78523,49.1414 157.929299,45.0384345 163.025299,45.0384345 C168.121783,45.0384345 172.2644,49.1414 172.2644,54.183331" id="Fill-32" fill="#00A3DE" mask="url(#mask-4)"></path>
            </g>
        </g>
    </g>
</svg>