<?xml version="1.0" encoding="UTF-8"?>
<svg width="23px" height="25px" viewBox="0 0 23 25" version="1.1" xmlns="http://www.w3.org/2000/svg" xmlns:xlink="http://www.w3.org/1999/xlink">
    <!-- Generator: Sketch 42 (36781) - http://www.bohemiancoding.com/sketch -->
    <title>Combined Shape Copy</title>
    <desc>Created with Sketch.</desc>
    <defs></defs>
    <g id="Page-1" stroke="none" stroke-width="1" fill="none" fill-rule="evenodd">
        <g id="services-path-view" transform="translate(-19.000000, -19.000000)" fill="#244665">
            <path d="M30.0690877,31.0751053 C28.4024912,31.0751053 26.9796316,30.4853509 25.8003158,29.3062281 C24.621,28.1271053 24.0314386,26.7042456 24.0314386,25.0374561 C24.0314386,23.3708596 24.621,21.948 25.8003158,20.7686842 C26.9794386,19.5895614 28.4024912,19 30.0690877,19 C31.7356842,19 33.1587368,19.5895614 34.3378596,20.7686842 C35.5171754,21.948 36.1067368,23.3708596 36.1067368,25.0374561 C36.1067368,26.7042456 35.5171754,28.1271053 34.3378596,29.3062281 C33.1589298,30.4853509 31.7360702,31.0751053 30.0690877,31.0751053 Z M41.0827895,37.4506667 C41.1198421,37.9800175 41.1381754,38.5224912 41.1381754,39.0780877 C41.1381754,40.3359474 40.7556842,41.3290351 39.9903158,42.0575439 C39.2249474,42.7858596 38.2083158,43.1500175 36.9400351,43.1500175 L23.1981404,43.1500175 C21.9298596,43.1500175 20.9130351,42.7858596 20.1478596,42.0575439 C19.3826842,41.3290351 19,40.3357544 19,39.0780877 C19,38.5224912 19.0183333,37.9802105 19.055,37.4506667 C19.0916667,36.9211228 19.165,36.3500877 19.275193,35.7367895 C19.385193,35.1234912 19.5241404,34.5549649 19.6918421,34.0308246 C19.8595439,33.5070702 20.0849474,32.9958596 20.3678596,32.4979649 C20.6507719,32.0000702 20.9757544,31.5755088 21.342614,31.2242807 C21.7094737,30.8732456 22.1575789,30.5928421 22.6869298,30.3832632 C23.2162807,30.1736842 23.8006316,30.0687018 24.4399825,30.0687018 C24.5343509,30.0687018 24.7543509,30.1814035 25.1003684,30.406807 C25.446193,30.6322105 25.8365965,30.8838596 26.2715789,31.1615614 C26.7065614,31.4390702 27.2727719,31.6909123 27.9696316,31.9159298 C28.6666842,32.1413333 29.3662456,32.2540351 30.0685088,32.2540351 C30.7709649,32.2540351 31.4705263,32.1413333 32.1675789,31.9159298 C32.8644386,31.6909123 33.4306491,31.4390702 33.8656316,31.1615614 C34.300614,30.8838596 34.6910175,30.6322105 35.0368421,30.406807 C35.3826667,30.1814035 35.6028596,30.0687018 35.6972281,30.0687018 C36.3365789,30.0687018 36.9209298,30.1736842 37.4504737,30.3832632 C37.9796316,30.5928421 38.4275439,30.8730526 38.7945965,31.2242807 C39.1616491,31.5755088 39.4866316,32.0000702 39.7695439,32.4979649 C40.0526491,32.9958596 40.2780526,33.5068772 40.4457544,34.0308246 C40.6134561,34.5549649 40.7525965,35.1234912 40.8625965,35.7367895 C40.9725965,36.3500877 41.0459298,36.9213158 41.0827895,37.4506667 Z" id="Combined-Shape-Copy"></path>
        </g>
    </g>
</svg>