<?xml version="1.0" encoding="UTF-8"?>
<svg width="775px" height="537px" viewBox="0 0 775 537" version="1.1" xmlns="http://www.w3.org/2000/svg" xmlns:xlink="http://www.w3.org/1999/xlink">
    <!-- Generator: Sketch 44.1 (41455) - http://www.bohemiancoding.com/sketch -->
    <title>budget_party_logo</title>
    <desc>Created with Sketch.</desc>
    <defs></defs>
    <g id="Page-1" stroke="none" stroke-width="1" fill="none" fill-rule="evenodd">
        <g id="2017-budget-party-logo-(1)">
            <g id="Layer_1_1_">
                <g id="Group" transform="translate(42.766773, 355.992712)" fill-rule="nonzero">
                    <path d="M1.9,41.5 C-1.2,44 1.4,47.1 1.4,47.1 L26.4,77.8 C26.4,77.8 28.9,80.9 32,78.3 L81.2,38.3 C84.3,35.8 81.7,32.7 81.7,32.7 L56.7,2 C56.7,2 54.2,-1.1 51.1,1.5 L1.9,41.5 Z" id="Shape" stroke="#000000" stroke-width="4" fill="#A7D18B"></path>
                    <rect id="Rectangle-path" stroke="#000000" stroke-width="1.99992945" fill="#9AAAB4" transform="translate(42.561385, 39.046955) rotate(-39.110813) translate(-42.561385, -39.046955) " x="33.6117007" y="16.197761" width="17.8993686" height="45.6983879"></rect>
                    <path d="M33.2,51.8 C29.5,47.2 21.2,54.4 19.1,51.6 C18,50.3 18.8,48.5 20.2,47.3 C22.7,45.2 24.5,46.5 25.6,45.5 C26.4,44.8 26.4,44.1 25.9,43.4 C24.8,42.1 22.1,42.7 19.9,43.9 L18.9,42.6 C18.2,41.8 17.1,41.7 16.3,42.4 C15.5,43.1 15.4,44.2 16.1,45 L17.2,46.3 C15.6,48.5 14.9,51.3 16.8,53.7 C20.4,58.1 28.6,51.1 31.2,54.1 C32.1,55.2 31.7,57.2 29.9,58.7 C27,61 24.5,59.9 23.3,60.8 C22.8,61.2 22.6,62.1 23.2,62.9 C24.1,64 27.1,63.9 30.1,62.1 L31.3,63.5 C32,64.3 33.1,64.4 33.9,63.7 C34.7,63 34.8,61.9 34.1,61.1 L32.9,59.7 C34.8,57.7 35.5,54.5 33.2,51.8 Z" id="Shape_1_" fill="#000000"></path>
                </g>
                <g id="Group_1_" transform="translate(167.777342, 362.564885)" fill-rule="nonzero" fill="#00A3DE">
                    <path d="M298.8,14.3 L142.8,14.3 L142.8,159.7 L181.5,159.7 L181.5,103 C181.5,81.5 199,64 220.5,64 C242,64 259.5,81.5 259.5,103 L259.5,159.7 L298.8,159.7 L298.8,14.3 Z M341.5,14.3 L313.1,14.3 L313.1,159.7 L341.5,159.7 L341.5,14.3 Z M373.4,14.3 L355.7,14.3 L355.7,159.7 L373.4,159.7 L373.4,14.3 Z M416,14.3 L387.6,14.3 L387.6,159.7 L416,159.7 L416,14.3 Z M430.3,14.3 L430.3,159.7 L433.7,159.7 C437.6,159.7 440.8,162.9 440.8,166.8 C440.8,170.7 437.6,173.9 433.7,173.9 L7.8,173.9 C3.9,173.9 0.7,170.7 0.7,166.8 C0.7,162.9 3.9,159.7 7.8,159.7 L11.3,159.7 L11.3,14.3 L7.8,14.3 C3.9,14.3 0.7,11.1 0.7,7.2 C0.7,3.3 3.9,0.1 7.8,0.1 L433.7,0.1 C437.6,0.1 440.8,3.3 440.8,7.2 C440.8,11.1 437.6,14.3 433.7,14.3 L430.3,14.3 Z M54,14.3 L25.6,14.3 L25.6,159.7 L54,159.7 L54,14.3 Z M85.9,14.3 L68.2,14.3 L68.2,159.7 L85.9,159.7 C85.9,159.7 85.9,14.3 85.9,14.3 Z M128.5,14.3 L100.1,14.3 L100.1,159.7 L128.5,159.7 L128.5,14.3 Z M245.5,159.7 L245.5,103 C245.5,89.3 234.3,78.1 220.6,78.1 C206.9,78.1 195.7,89.3 195.7,103 L195.7,159.7 L245.5,159.7 Z" id="Combined-Shape"></path>
                </g>
                <g id="capitol-top" transform="translate(201.771444, 1.095362)" fill-rule="nonzero">
                    <path d="M15.1,250.2 C11.3,250.2 7.9,247.4 7.4,243.4 L1,186.2 C0.8,184.2 1.3,182.1 2.6,180.5 C3.9,178.9 5.7,177.9 7.8,177.7 L351.4,139.4 C353.4,139.2 355.5,139.7 357.1,141 C358.7,142.3 359.7,144.1 360,146.1 L366.4,203.3 C366.8,207.5 363.9,211.3 359.6,211.7 L16,250.1 C15.7,250.2 15.5,250.2 15.1,250.2 Z M17.2,192 L21.9,234 L350.1,197.3 L345.4,155.3 L272.8,163.4 L17.2,192 Z M90.4,183.8 L17.2,192 L17.2,192 L90.4,183.8 Z" id="Shape_2_" fill="#00A3DE"></path>
                    <rect id="Rectangle" fill="#DFF7FE" transform="translate(182.994850, 174.495250) rotate(-5.998509) translate(-182.994850, -174.495250) " x="94.997028" y="153.995757" width="175.995644" height="40.9989852"></rect>
                    <path d="M168,59.4 C165.5,59.4 163.2,57.4 163,54.8 L157.6,6.5 C157.3,3.7 159.4,1.1 162.1,0.8 C165,0.5 167.5,2.6 167.8,5.3 L173.2,53.6 C173.5,56.4 171.4,59 168.7,59.3 C168.3,59.4 168.1,59.4 168,59.4 Z" id="Shape_3_" fill="#00A3DE"></path>
                    <g id="Group_2_" transform="translate(80.050627, 46.005212)" fill="#00A3DE">
                        <path d="M6.4,153.8 L1.2,108 C-4.7,54.8 33.8,6.6 87.1,0.7 C113,-2.1 138.3,5.2 158.6,21.4 C178.9,37.6 191.7,60.7 194.6,86.6 L199.8,132.4 L184.6,134.2 L179.4,88.4 C177,66.7 166.2,47.2 149.1,33.5 C132,19.8 110.5,13.6 88.8,16 C44,21 11.5,61.6 16.6,106.5 L21.8,152.3 L6.4,153.8 Z" id="Shape_4_"></path>
                    </g>
                    <polygon id="Shape_5_" fill="#FFFFFF" points="165.1 28.8 162.5 6 198.2 13.6"></polygon>
                    <path d="M165.1,34 C164.2,34 163.3,33.8 162.6,33.3 C161.2,32.5 160.2,31 160.1,29.5 L157.6,6.6 C157.4,5 158,3.3 159.2,2.2 C160.4,1.1 162.1,0.7 163.7,1 L199.3,8.6 C201.5,9 203,10.8 203.4,13 C203.6,15.2 202.4,17.3 200.4,18.3 L167.3,33.5 C166.6,33.8 165.9,34 165.1,34 Z M168.4,12.5 L169.4,21.3 L182.1,15.5 L168.4,12.5 Z" id="Shape_6_" fill="#00A3DE"></path>
                    <path d="M49.5,246.3 C47.7,246.3 46.1,245.8 44.7,244.7 C43.1,243.4 42.1,241.6 41.8,239.6 L39.3,216.7 C38.9,213.2 40.9,209.9 44.2,208.7 L177.8,159 C179,158.6 180.2,158.5 181.5,158.6 L322.7,177.4 C326.2,177.8 329,180.7 329.3,184.2 L331.8,207.1 C332,209.1 331.5,211.2 330.2,212.8 C328.9,214.4 327.1,215.4 325,215.6 L50.2,246.3 L49.5,246.3 Z M55.3,220.8 L56.3,230.1 L315.9,201.2 L314.9,191.9 L181.4,173.9 L55.3,220.8 Z" id="Shape_7_" fill="#00A3DE"></path>
                </g>
                <g id="confetti" transform="translate(0.000000, 13.190546)" fill-rule="nonzero" fill="#00A3DE">
                    <path d="M102.6,237.1 C102.6,237.8 102.4,238.4 102.2,239.1 C100.9,242.6 96.9,244.4 93.4,242.9 C68.5,233.2 28.3,223 17,230.6 C15.7,231.5 14.4,232.8 14.4,236.1 C14.4,242.5 27.8,243 28,243 C31.7,243 34.8,246.1 34.8,249.8 C34.7,253.6 31.7,256.6 28,256.6 C18.6,256.6 0.8,252.2 0.9,236.1 C0.9,228.9 3.9,223.2 9.5,219.5 C30.8,205 87.4,226 98.5,230.3 C101.2,231.4 102.9,234.3 102.6,237.1 Z" id="Shape_8_"></path>
                    <path d="M164.7,192.5 C165.5,195 165.4,197.9 164,200.4 C159.8,208.4 154.2,214.4 147.7,217.6 C140.8,221 133.2,221 127,217.8 C115.9,212.1 109.8,196.4 119.5,177.6 C123.2,170.3 122.1,165.9 121,165.3 C119.9,164.7 115.6,166.3 111.9,173.6 C107.7,181.6 102.1,187.6 95.6,190.8 C88.7,194.2 81.1,194.2 74.9,191 C63.8,185.3 57.7,169.6 67.4,150.8 C70.1,145.4 70.1,142 69.8,140.5 C69.6,139.3 69.1,138.6 68.8,138.5 C67.7,138 63.4,139.5 59.7,146.8 C57.1,151.8 50.8,153.9 45.8,151.3 C40.8,148.7 38.7,142.4 41.3,137.4 C50.9,118.5 67.3,114.4 78.4,120.1 C89.5,125.8 95.6,141.5 85.9,160.3 C83.2,165.7 83.2,169.1 83.5,170.6 C83.7,171.8 84.2,172.5 84.5,172.6 C85.6,173.1 89.9,171.6 93.6,164.2 C103.4,145.4 119.6,141.2 130.7,146.9 C141.8,152.6 147.9,168.3 138.2,187.1 C135.5,192.5 135.5,195.9 135.8,197.4 C136,198.6 136.5,199.3 136.8,199.4 C137.9,199.9 142.2,198.4 145.9,191.1 C148.5,186.1 154.8,184 159.8,186.6 C162.1,187.7 163.8,190 164.7,192.5 Z" id="Shape_9_"></path>
                    <path d="M650.6,170.2 C649.2,169.7 647.9,168.7 647.2,167.1 C645,162.4 644.2,157.7 645,153.6 C645.9,149.2 648.5,145.8 652.2,144.1 C658.7,141 668,143.7 673.3,154.8 C675.4,159.1 677.8,160.2 678.5,159.8 C679.2,159.4 679.9,157 677.8,152.7 C675.6,148 674.8,143.3 675.6,139.2 C676.5,134.8 679.1,131.3 682.8,129.7 C689.3,126.6 698.6,129.3 703.9,140.4 C705.4,143.6 707,144.8 707.7,145.1 C708.4,145.4 708.8,145.4 709,145.3 C709.7,145 710.4,142.5 708.3,138.2 C706.9,135.2 708.2,131.6 711.2,130.2 C714.2,128.8 717.8,130.1 719.2,133 C724.5,144.1 720.6,153 714.2,156.1 C707.7,159.2 698.4,156.5 693.1,145.4 C691.6,142.2 690,141.1 689.3,140.7 C688.6,140.4 688.2,140.4 688,140.5 C687.3,140.8 686.6,143.3 688.7,147.6 C694,158.7 690.1,167.6 683.7,170.7 C677.3,173.8 667.9,171.1 662.6,160 C661.1,156.8 659.5,155.7 658.8,155.3 C658.1,155 657.7,155 657.5,155.1 C656.8,155.4 656.1,157.9 658.2,162.2 C659.6,165.2 658.3,168.8 655.3,170.2 C653.8,170.7 652.1,170.7 650.6,170.2 Z" id="Shape_10_"></path>
                    <path d="M121.8,482.4 C120.5,483.2 118.8,483.4 117.3,482.9 C112.3,481.6 108.2,479.1 105.6,475.8 C102.9,472.3 101.9,468 103,464.1 C104.9,457.2 113,451.8 124.8,455 C129.4,456.2 131.7,455.1 131.9,454.3 C132.1,453.6 130.7,451.5 126.1,450.1 C121.1,448.8 117,446.3 114.4,443 C111.7,439.5 110.7,435.2 111.8,431.3 C113.7,424.4 121.8,419 133.6,422.2 C137,423.1 138.9,422.6 139.7,422.3 C140.4,422 140.7,421.8 140.7,421.5 C140.9,420.8 139.5,418.7 134.9,417.3 C131.7,416.4 129.9,413.1 130.6,410 C131.5,406.8 134.8,405 137.9,405.7 C149.7,408.9 154.1,417.5 152.3,424.5 C150.4,431.4 142.3,436.8 130.5,433.6 C127.1,432.7 125.2,433.2 124.4,433.5 C123.7,433.8 123.4,434 123.4,434.3 C123.2,435 124.6,437.1 129.2,438.5 C141,441.7 145.4,450.3 143.6,457.3 C141.7,464.2 133.6,469.6 121.8,466.4 C118.4,465.5 116.5,466 115.7,466.3 C115,466.6 114.7,466.8 114.7,467.1 C114.5,467.8 115.9,469.9 120.5,471.3 C123.7,472.2 125.5,475.5 124.8,478.6 C124.2,480.3 123.1,481.6 121.8,482.4 Z" id="Shape_11_"></path>
                    <path d="M641.3,341.7 C654.3,333.5 666.1,336.9 670.9,344.5 C675.7,352.2 673.8,364.1 660.7,372.3 C655.7,375.5 654.8,378.7 655.2,379.4 C655.7,380.2 658.9,380.7 664,377.5 C677,369.3 688.8,372.7 693.6,380.3 C698.4,388 696.5,399.9 683.4,408.1 C678.4,411.3 677.5,414.5 677.9,415.2 C678.3,416 681.6,416.5 686.7,413.3 C690.2,411.1 694.8,412.1 697.1,415.6 C699.3,419.1 698.3,423.7 694.7,426 C681.7,434.2 669.9,430.8 665.1,423.2 C660.3,415.5 662.2,403.6 675.3,395.4 C680.3,392.2 681.2,389 680.8,388.3 C680.4,387.5 677.1,387 672,390.2 C659,398.4 647.2,395 642.4,387.4 C637.6,379.7 639.5,367.8 652.6,359.6 C657.6,356.4 658.5,353.2 658.1,352.5 C657.6,351.7 654.4,351.2 649.3,354.4 C645.8,356.6 641.2,355.6 638.9,352.1 C636.7,348.5 637.7,343.9 641.3,341.7 Z" id="Shape_12_"></path>
                    <path d="M625.6,232.3 C622.9,232 620.3,230.4 618.7,227.9 C616,223.5 617.3,217.7 621.7,215 C623.9,213.6 676.9,181.3 744.2,199 C749.2,200.3 752.2,205.5 750.9,210.5 C749.6,215.5 744.4,218.5 739.4,217.2 C680,201.5 632.2,230.7 631.7,231 C629.8,232.1 627.6,232.5 625.6,232.3 Z" id="Shape_13_"></path>
                    <circle id="Oval" cx="589.3" cy="165.4" r="7.8"></circle>
                    <circle id="Oval_1_" cx="211" cy="21.6" r="20.7"></circle>
                    <circle id="Oval_2_" cx="735.8" cy="356.2" r="12.3"></circle>
                    <circle id="Oval_3_" cx="627.9" cy="444.5" r="15.6"></circle>
                    <circle id="Oval_4_" cx="252.9" cy="69.7" r="8.7"></circle>
                    <circle id="Oval_5_" cx="599.1" cy="37" r="15.6"></circle>
                    <circle id="Oval_6_" cx="45" cy="290" r="15.6"></circle>
                    <circle id="Oval_7_" cx="220.1" cy="119.8" r="15.6"></circle>
                </g>
                <g id="Shape_14_" transform="translate(620.000000, 57.000000)">
                    <path d="M12.2,79.2 C11.7,79.1 11.2,78.9 10.9,78.5 C10.1,77.7 10,76.5 10.6,75.6 L30.5,46.4 L2.7,42.9 C1.7,42.8 0.9,42.1 0.7,41.1 C0.4,40.1 0.9,39.1 1.7,38.6 L57.8,1.1 C58.2,0.7 58.9,0.7 59.4,0.7 C59.9,0.8 60.4,1 60.7,1.4 C61.5,2.2 61.6,3.4 61,4.3 L41.1,33.5 L69,37 C70,37.1 70.8,37.8 71,38.8 C71.3,39.8 70.8,40.8 70,41.3 L13.9,78.8 C13.3,79.1 12.8,79.2 12.2,79.2 Z" id="path-1_1_" fill="#FFCD4E" fill-rule="nonzero"></path>
                    <path d="M12.2,79.2 C11.7,79.1 11.2,78.9 10.9,78.5 C10.1,77.7 10,76.5 10.6,75.6 L30.5,46.4 L2.7,42.9 C1.7,42.8 0.9,42.1 0.7,41.1 C0.4,40.1 0.9,39.1 1.7,38.6 L57.8,1.1 C58.2,0.7 58.9,0.7 59.4,0.7 C59.9,0.8 60.4,1 60.7,1.4 C61.5,2.2 61.6,3.4 61,4.3 L41.1,33.5 L69,37 C70,37.1 70.8,37.8 71,38.8 C71.3,39.8 70.8,40.8 70,41.3 L13.9,78.8 C13.3,79.1 12.8,79.2 12.2,79.2 Z" id="path-1_2_" stroke="#000000" stroke-width="4"></path>
                </g>
                <g id="Group_3_" transform="translate(109.658393, 54.768109)">
                    <g id="Shape_15_">
                        <path d="M63.7,43 C66.4,46.2 66.1,51 62.9,53.8 L48.5,66.4 C45.3,69.1 40.5,68.8 37.6,65.6 L2.6,25.2 C-0.1,22 0.2,17.2 3.4,14.4 L17.9,1.9 C21.1,-0.8 25.9,-0.5 28.8,2.7 L63.7,43 Z" id="path-3_1_" fill="#666D72" fill-rule="nonzero"></path>
                        <path d="M63.7,43 C66.4,46.2 66.1,51 62.9,53.8 L48.5,66.4 C45.3,69.1 40.5,68.8 37.6,65.6 L2.6,25.2 C-0.1,22 0.2,17.2 3.4,14.4 L17.9,1.9 C21.1,-0.8 25.9,-0.5 28.8,2.7 L63.7,43 Z" id="path-3_2_" stroke="#000000" stroke-width="4"></path>
                    </g>
                    <circle id="Oval_8_" stroke="#000000" stroke-width="1.99994765" fill="#78B354" fill-rule="nonzero" transform="translate(47.017180, 50.086490) rotate(-40.981641) translate(-47.017180, -50.086490) " cx="47.01718" cy="50.08649" r="7.69979845"></circle>
                    <circle id="Oval_9_" stroke="#000000" stroke-width="1.99994765" fill="#FFCD4E" fill-rule="nonzero" transform="translate(33.177460, 34.088830) rotate(-40.981641) translate(-33.177460, -34.088830) " cx="33.17746" cy="34.08883" r="7.69979845"></circle>
                    <circle id="Oval_10_" stroke="#000000" stroke-width="1.99994765" fill="#DE3045" fill-rule="nonzero" transform="translate(19.409500, 18.311950) rotate(-40.981641) translate(-19.409500, -18.311950) " cx="19.4095" cy="18.31195" r="7.69979845"></circle>
                </g>
                <g id="Group_4_" transform="translate(687.558126, 269.459099)" fill-rule="nonzero">
                    <rect id="Rectangle-path_1_" fill="#010101" transform="translate(30.895825, 29.146055) rotate(-75.220275) translate(-30.895825, -29.146055) " x="5.29618827" y="27.7960742" width="51.1992735" height="2.69996169"></rect>
                    <polygon id="Shape_16_" fill="#FFFFFF" points="81.7 68.4 3.9 47.9 14.5 8.2 74.8 24.1 84.8 48.7"></polygon>
                    <rect id="Rectangle-path_2_" fill="#4473B9" transform="translate(43.030225, 57.258485) rotate(-75.220275) translate(-43.030225, -57.258485) " x="40.5802598" y="17.0590554" width="4.89993047" height="80.3988591"></rect>
                    <rect id="Rectangle-path_3_" fill="#F15F5E" transform="translate(46.582920, 40.374990) rotate(-75.220275) translate(-46.582920, -40.374990) " x="44.9329434" y="1.02554838" width="3.29995317" height="78.6988832"></rect>
                    <g id="Group" transform="translate(3.289752, 30.574779)">
                        <rect id="Rectangle-path_4_" fill="#F15F5E" transform="translate(6.799145, 6.908725) rotate(-75.220275) translate(-6.799145, -6.908725) " x="1.84921524" y="3.60877183" width="9.89985952" height="6.59990635"></rect>
                        <path d="M8.3,13.9 L2,12.3 C1.2,12.1 0.8,11.3 1,10.7 L3.5,1.2 C3.7,0.4 4.5,1.11022302e-15 5.1,0.2 L11.5,1.8 C12.3,2 12.7,2.8 12.5,3.4 L10,12.9 C9.9,13.7 9.1,14.1 8.3,13.9 Z M4.1,10 L7.8,11 L9.6,4 L5.9,3 L4.1,10 Z" id="Shape_17_" fill="#010101"></path>
                    </g>
                    <path d="M80.9,71.2 L1.6,50.3 C0.8,50.1 0.4,49.3 0.6,48.7 L3.1,39.2 C3.3,38.4 4.1,38 4.7,38.2 L5,38.2 L13,7.9 C13.2,7.1 14,6.7 14.6,6.9 L75,22.8 C75.4,22.9 75.8,23.2 75.9,23.6 L86.3,48.4 C86.4,48.7 86.4,48.9 86.4,49.3 L83.8,59 L84,59 C84.8,59.2 85.2,60 85,60.6 L82.5,70.1 C82.5,71 81.7,71.4 80.9,71.2 Z M3.6,48.1 L80.3,68.4 L82.2,61.5 L82,61.4 C81.2,61.2 80.8,60.4 81,59.8 L83.9,49.2 L73.9,25.4 L15.5,10 L7.5,40.3 C7.3,41.1 6.5,41.5 5.9,41.3 L5.7,41.2 L3.6,48.1 Z" id="Shape_18_" fill="#010101"></path>
                    <polygon id="Shape_19_" fill="#76CABB" points="77.9 31.7 63.6 27.9 62.9 43 85.2 48.9"></polygon>
                    <polygon id="Shape_20_" fill="#FFFFFF" points="74.7 30.9 71.5 30 78.8 47.2 82 48.1"></polygon>
                    <path d="M84.8,50.2 L62.5,44.4 C61.8,44.3 61.5,43.6 61.5,43.1 L62,28 C62,27.6 62.2,27.2 62.5,27 C62.8,26.8 63.3,26.7 63.7,26.8 L78,30.5 C78.4,30.6 78.8,30.9 78.9,31.3 L86.2,48.5 C86.4,48.9 86.3,49.5 86,49.9 C85.9,50.2 85.3,50.4 84.8,50.2 Z M64.4,42 L82.8,46.8 L76.8,32.8 L64.8,29.6 L64.4,42 Z" id="Shape_21_" fill="#010101"></path>
                    <g id="Group" transform="translate(32.897518, 19.716519)">
                        <rect id="Rectangle-path_5_" fill="#76CABB" transform="translate(12.191775, 10.951965) rotate(-75.220275) translate(-12.191775, -10.951965) " x="4.79188001" y="1.90209342" width="14.79979" height="18.0997432"></rect>
                        <rect id="Rectangle-path_6_" fill="#FFFFFF" transform="translate(16.165775, 11.978965) rotate(-75.220275) translate(-16.165775, -11.978965) " x="8.76588001" y="10.3289884" width="14.79979" height="3.29995317"></rect>
                        <path d="M18.6,21.7 L1.2,17.1 C0.4,16.9 0,16.1 0.2,15.5 L3.9,1.2 C4.1,0.4 4.9,0 5.5,0.2 L23,4.8 C23.8,5 24.2,5.8 24,6.4 L20.3,20.6 C20.2,21.5 19.4,21.9 18.6,21.7 Z M3.3,14.9 L18.1,18.8 L21.2,7.2 L6.4,3.3 L3.3,14.9 Z" id="Shape_22_" fill="#010101"></path>
                    </g>
                    <g id="Group" transform="translate(7.676088, 13.144346)">
                        <rect id="Rectangle-path_7_" fill="#76CABB" transform="translate(12.853925, 11.037635) rotate(-75.220275) translate(-12.853925, -11.037635) " x="5.45403001" y="1.98776342" width="14.79979" height="18.0997432"></rect>
                        <rect id="Rectangle-path_8_" fill="#FFFFFF" transform="translate(16.585205, 12.097915) rotate(-75.220275) translate(-16.585205, -12.097915) " x="9.18531001" y="10.4479384" width="14.79979" height="3.29995317"></rect>
                        <path d="M19.2,21.8 L1.1,17 C0.3,16.8 -0.1,16 0.1,15.4 L3.8,1.1 C4,0.3 4.8,-0.1 5.4,0.1 L23.5,4.9 C24.3,5.1 24.7,5.9 24.5,6.5 L20.8,20.7 C20.7,21.6 20,22 19.2,21.8 Z M3.1,14.8 L18.6,18.9 L21.7,7.3 L6.1,3.2 L3.1,14.8 Z" id="Shape_23_" fill="#010101"></path>
                    </g>
                    <path d="M11.6,44.5 L5.2,42.9 C4.4,42.7 4,41.9 4.2,41.3 C4.4,40.5 5.2,40.1 5.8,40.3 L12.2,41.9 C13,42.1 13.4,42.9 13.2,43.5 C13.2,44.3 12.4,44.7 11.6,44.5 Z" id="Shape_24_" fill="#010101"></path>
                    <path d="M83,63.3 L76.6,61.7 C75.8,61.5 75.4,60.7 75.6,60.1 C75.8,59.3 76.6,58.9 77.2,59.1 L83.6,60.7 C84.4,60.9 84.8,61.7 84.6,62.3 C84.5,63.1 83.8,63.5 83,63.3 Z" id="Shape_25_" fill="#010101"></path>
                    <path d="M60.9,57.4 L27.6,48.6 C26.8,48.4 26.4,47.6 26.6,47 C26.8,46.2 27.6,45.8 28.2,46 L61.5,54.8 C62.3,55 62.7,55.8 62.5,56.4 C62.3,57.2 61.5,57.6 60.9,57.4 Z" id="Shape_26_" fill="#010101"></path>
                    <path d="M76.4,49.7 C75.6,49.5 75.2,48.7 75.4,48.1 L76.6,43.4 C76.8,42.6 77.6,42.2 78.2,42.4 C79,42.6 79.4,43.4 79.2,44 L78,48.7 C78,49.5 77.2,49.9 76.4,49.7 Z" id="Shape_27_" fill="#010101"></path>
                    <path d="M58.4,20.7 C58.2,20.7 58.1,20.6 58,20.4 L51.6,12.4 C51.3,12 51.4,11.4 51.7,11.1 C52.1,10.8 52.7,10.9 53,11.2 L59.4,19.2 C59.7,19.6 59.6,20.2 59.3,20.5 C59,20.8 58.7,20.8 58.4,20.7 Z" id="Shape_28_" fill="#010101"></path>
                    <path d="M50.6,18.6 C50.4,18.6 50.3,18.5 50.2,18.3 L43.8,10.3 C43.5,9.9 43.6,9.3 43.9,9 C44.3,8.7 44.9,8.8 45.2,9.1 L51.6,17.1 C51.9,17.5 51.8,18.1 51.5,18.4 C51.1,18.7 50.8,18.7 50.6,18.6 Z" id="Shape_29_" fill="#010101"></path>
                    <path d="M52.1,12.7 C51.9,12.6 51.7,12.5 51.6,12.3 C51.4,11.9 51.5,11.3 51.9,11.1 L56.8,8.3 C57.2,8.1 57.8,8.2 58,8.6 C58.2,9 58.1,9.6 57.7,9.8 L52.8,12.6 C52.5,12.8 52.3,12.8 52.1,12.7 Z" id="Shape_30_" fill="#010101"></path>
                    <path d="M44.2,10.6 C44,10.5 43.8,10.4 43.7,10.2 C43.5,9.8 43.6,9.2 44,9 L48.9,6.2 C49.3,6 49.9,6.1 50.1,6.5 C50.3,6.9 50.2,7.5 49.8,7.7 L44.9,10.5 C44.6,10.7 44.4,10.7 44.2,10.6 Z" id="Shape_31_" fill="#010101"></path>
                    <path d="M68.9,12.9 L27.9,2.1 C27.4,2 27.1,1.4 27.2,1 C27.3,0.6 27.9,0.2 28.3,0.3 L69.3,11.1 C69.7,11.2 70.1,11.8 70,12.2 C69.9,12.8 69.4,13.1 68.9,12.9 Z" id="Shape_32_" fill="#010101"></path>
                </g>
                <g id="Group_5_" transform="translate(457.275500, 0.000000)" fill-rule="nonzero">
                    <polygon id="Shape_33_" fill="#76CABB" points="79.6 45.9 16.1 19.8 33.4 4.7 78 23"></polygon>
                    <polygon id="Shape_34_" fill="#FFFFFF" points="73.3 43.3 70.1 42 71.6 20.4 74.8 21.7"></polygon>
                    <path d="M41.5,3.4 L39.9,7.2 L71.7,20.2 L73.3,16.4 C73.8,15.1 73.2,13.4 71.9,12.9 L45,2 C43.5,1.4 42,2.1 41.5,3.4 Z" id="Shape_35_" fill="#F15F5E"></path>
                    <path d="M71.6,20.4 L58.9,15.1 L61.5,8.7 L71.7,12.9 C73,13.4 73.7,15 73.1,16.4 L71.6,20.4 Z" id="Shape_36_" fill="#3459A8"></path>
                    <rect id="Rectangle-path_9_" fill="#FFFFFF" transform="translate(57.082585, 10.685655) rotate(-67.628280) translate(-57.082585, -10.685655) " x="53.6327119" y="7.23578188" width="6.89974625" height="6.89974625"></rect>
                    <path d="M83.3,54.9 L76.5,71.4 C76,72.7 74.4,73.4 73,72.8 L1.8,43.5 C0.5,43 -0.2,41.4 0.4,40 L7.2,23.5 L16.2,19.8 L79.8,46 L83.3,54.9 Z" id="Shape_37_" fill="#FFFFFF"></path>
                    <rect id="Rectangle-path_10_" fill="#DDDDDC" transform="translate(38.962650, 54.373175) rotate(-67.628280) translate(-38.962650, -54.373175) " x="36.2127511" y="15.8745909" width="5.49979773" height="76.9971683"></rect>
                    <polygon id="Shape_38_" fill="#DDDDDC" points="83.3 54.9 7.1 23.6 16.1 19.8 79.6 45.9"></polygon>
                    <path d="M76.7,26.2 L76.5,44.7 L80.2,53.7 L73.6,69.6 L3.6,40.9 L10.2,25 L19.2,21.3 L32.1,8 L76.7,26.2 L76.7,26.2 Z M78.1,22.8 L33.6,4.5 C32.2,4 30.6,4.3 29.5,5.4 L17.1,18.1 L8.9,21.5 C8,21.8 7.3,22.6 6.9,23.5 L0.3,39.3 C-0.5,41.2 0.4,43.4 2.3,44.1 L72.3,72.8 C74.2,73.6 76.4,72.7 77.1,70.8 L83.7,55 C84,54.1 84,53.1 83.7,52.2 L80.3,44 L80.5,26.3 C80.4,24.6 79.4,23.3 78.1,22.8 L78.1,22.8 Z" id="Shape_39_" fill="#010101"></path>
                    <g id="Shape_40_" transform="translate(9.869255, 25.193330)">
                        <path d="M11.2,9.5 L11.2,9.5 C10.9,10.4 9.8,10.8 8.9,10.5 L2.6,8 C1.7,7.7 1.3,6.6 1.6,5.7 L2.8,2.6 C3.1,1.7 4.2,1.3 5.1,1.6 L8.3,3 C11.1,3.9 12.3,7 11.2,9.5 Z" id="Shape" fill="#75CFE6"></path>
                        <path d="M8.4,11.6 L2.2,9.1 C0.7,8.4 -0.1,6.7 0.5,5.1 L1.7,2 C2.4,0.5 4.1,-0.3 5.6,0.4 L8.8,1.7 C12,3 13.5,6.7 12.2,9.9 C11.7,11.5 10,12.3 8.4,11.6 Z M4.8,2.7 C4.5,2.6 4.1,2.7 4,3 L2.9,6.1 C2.8,6.4 2.9,6.8 3.2,6.9 L9.5,9.4 C9.8,9.5 10.2,9.4 10.3,9.1 C11.1,7.1 10.2,4.8 8.2,4.1 L4.8,2.7 Z" id="Shape" fill="#010101"></path>
                    </g>
                    <g id="Shape_41_" transform="translate(77.857459, 40.528401)" fill="#010101">
                        <path d="M8.6,6.9 L8.6,6.9 C8.3,7.6 7.6,7.8 7,7.6 L2.9,5.8 C2.2,5.6 2,4.8 2.2,4.3 L3.1,2.3 C3.3,1.6 4.1,1.4 4.6,1.6 L6.7,2.5 C8.4,3.2 9.3,5.1 8.6,6.9 Z" id="Shape"></path>
                        <path d="M6.6,8.7 L2.4,6.9 C1.2,6.4 0.5,4.9 1.1,3.7 L2,1.7 C2.5,0.5 4,-0.2 5.2,0.4 L7.3,1.3 C9.6,2.3 10.8,4.9 9.8,7.3 C9.2,8.5 7.8,9.2 6.6,8.7 Z M7.5,6.5 L7.5,6.5 L8.6,6.9 L7.5,6.5 Z M3.4,4.7 L7.5,6.3 C7.9,5.2 7.4,4 6.3,3.5 L4.2,2.6 L3.4,4.7 Z" id="Shape"></path>
                    </g>
                    <g id="Shape_42_" transform="translate(7.772671, 12.048984)" fill="#010101">
                        <path d="M2.4,4.1 L2.4,4.1 C2.2,4.8 2.4,5.4 3.1,5.6 L7.3,7.4 C8,7.6 8.6,7.4 8.8,6.7 L9.7,4.7 C9.9,4 9.7,3.4 9,3.2 L6.9,2.3 C5.2,1.4 3.1,2.3 2.4,4.1 Z" id="Shape"></path>
                        <path d="M6.7,8.4 L2.5,6.7 C1.3,6.2 0.6,4.7 1.2,3.5 C2.2,1.2 4.8,2.22044605e-16 7.2,1 L9.3,1.9 C10.5,2.4 11.2,3.9 10.6,5.1 L9.8,7 C9.4,8.3 8,8.9 6.7,8.4 Z M2.4,4.1 L3.5,4.5 L3.5,4.5 L2.4,4.1 Z M3.5,4.5 L7.6,6.1 L8.4,4.1 L6.3,3.3 C5.3,2.8 4.1,3.4 3.5,4.5 Z" id="Shape"></path>
                    </g>
                    <g id="Shape_43_" transform="translate(63.601868, 48.195936)">
                        <path d="M2,4.8 L2,4.8 C1.7,5.7 2.1,6.8 3,7.1 L9.3,9.6 C10.2,9.9 11.3,9.5 11.6,8.6 L12.8,5.5 C13.1,4.6 12.7,3.5 11.8,3.2 L8.6,2 C6,1 3.1,2.3 2,4.8 Z" id="Shape" fill="#75CFE6"></path>
                        <path d="M8.7,10.8 L2.4,8.3 C0.9,7.7 0.1,5.9 0.8,4.4 C2.1,1.2 5.8,-0.3 9,1 L12.2,2.3 C13.7,3 14.5,4.7 13.8,6.2 L12.6,9.3 C12,10.7 10.2,11.5 8.7,10.8 Z M8.1,3.2 C6.1,2.4 3.8,3.3 3.1,5.3 C3,5.6 3.1,5.9 3.4,6 L9.7,8.5 C10,8.6 10.4,8.5 10.5,8.2 L11.7,5.1 C11.8,4.8 11.7,4.4 11.4,4.3 L8.1,3.2 Z" id="Shape" fill="#010101"></path>
                    </g>
                    <path d="M17.3,43.9 L11,41.3 C10.3,41.1 10.1,40.3 10.3,39.7 C10.5,39.1 11.3,38.8 11.9,39 L18.3,41.6 C19,41.8 19.2,42.6 19,43.2 C18.6,43.8 18,44.1 17.3,43.9 Z" id="Shape_44_" fill="#010101"></path>
                    <path d="M68.2,64.7 L61.8,62.1 C61.1,61.9 60.9,61.1 61.1,60.5 C61.3,59.8 62.1,59.6 62.7,59.8 L69.1,62.4 C69.8,62.6 70,63.4 69.8,64 C69.6,64.7 68.8,65.1 68.2,64.7 Z" id="Shape_45_" fill="#010101"></path>
                    <g id="Shape_46_" transform="translate(24.124847, 30.670141)">
                        <path d="M5.3,2 L2.3,9 C1.8,10.3 2.4,12 3.7,12.5 L30.6,23.6 C31.9,24.1 33.6,23.5 34.1,22.2 L37.1,15.2 L5.3,2 Z" id="Shape" fill="#DCDCC9"></path>
                        <path d="M30.2,24.6 L3.3,13.6 C1.3,12.8 0.3,10.5 1.2,8.6 L4.2,1.6 C4.4,1 5.2,0.8 5.8,1 L37.6,14 C38.3,14.2 38.5,15 38.3,15.6 L35.3,22.6 C34.4,24.5 32.1,25.5 30.2,24.6 Z M5.9,3.6 L3.5,9.5 C3.2,10.3 3.5,11 4.3,11.4 L31.2,22.5 C32,22.8 32.7,22.5 33.1,21.7 L35.5,15.8 L5.9,3.6 Z" id="Shape" fill="#010101"></path>
                    </g>
                    <path d="M79.2,47.1 L15.6,20.9 C14.9,20.7 14.7,19.9 14.9,19.3 C15.1,18.6 15.9,18.4 16.5,18.6 L80.1,44.8 C80.8,45 81,45.8 80.8,46.4 C80.5,47 79.8,47.3 79.2,47.1 Z" id="Shape_47_" fill="#010101"></path>
                    <path d="M71.2,21.5 L39.4,8.5 C38.7,8.3 38.5,7.5 38.7,6.9 L40.4,3 C41.2,1 43.5,-1.11022302e-16 45.4,0.9 L72.3,12 C74.3,12.8 75.3,15.1 74.4,17 L72.8,20.8 C72.5,21.5 71.7,21.7 71.2,21.5 Z M41.5,6.6 L71,18.8 L72,16 C72.3,15.2 72,14.5 71.2,14.1 L44.4,3.1 C43.6,2.8 42.9,3.1 42.5,3.9 L41.5,6.6 Z" id="Shape_48_" fill="#010101"></path>
                    <g id="Group" transform="translate(1.096584, 43.814488)" fill="#010101">
                        <rect id="Rectangle-path_11_" transform="translate(7.968685, 6.472605) rotate(-67.628280) translate(-7.968685, -6.472605) " x="4.51881188" y="1.32279439" width="6.89974625" height="10.2996212"></rect>
                        <path d="M11,12.8 L1.4,8.9 C0.7,8.7 0.5,7.9 0.7,7.3 L3.3,0.9 C3.6,0.2 4.4,0 5,0.2 L14.5,4.1 C15.2,4.3 15.4,5.1 15.2,5.7 L12.6,12.1 C12.3,12.7 11.6,13 11,12.8 Z M3.5,7 L10.7,10 L12.3,5.9 L5.2,3 L3.5,7 Z" id="Shape_49_"></path>
                    </g>
                    <g id="Group" transform="translate(55.829197, 65.721731)" fill="#010101">
                        <rect id="Rectangle-path_12_" transform="translate(7.304745, 6.863035) rotate(-67.628280) translate(-7.304745, -6.863035) " x="3.85487188" y="1.71322439" width="6.89974625" height="10.2996212"></rect>
                        <path d="M10.3,13 L0.8,9.1 C0.1,8.9 -0.1,8.1 0.1,7.5 L2.7,1.1 C2.9,0.4 3.7,0.2 4.3,0.4 L13.8,4.3 C14.5,4.5 14.7,5.3 14.5,5.9 L11.9,12.3 C11.6,13 10.8,13.4 10.3,13 Z M2.8,7.3 L10,10.3 L11.6,6.2 L4.4,3.2 L2.8,7.3 Z" id="Shape_50_"></path>
                    </g>
                </g>
            </g>
            <path d="M205.4,317.6 C205.4,319.8 204.9,321.7 204,323.2 C203.1,324.7 201.8,326.1 200.2,327.1 C198.6,328.1 196.8,328.8 194.6,329.3 C192.5,329.8 190.2,330 187.9,330 L164.1,330 L164.1,281.5 L192.2,281.5 C193.9,281.5 195.4,281.9 196.8,282.6 C198.2,283.3 199.3,284.3 200.3,285.4 C201.3,286.6 202,287.9 202.5,289.4 C203,290.9 203.3,292.4 203.3,293.9 C203.3,296.2 202.7,298.4 201.6,300.4 C200.4,302.5 198.7,304 196.4,305.1 C199.2,305.9 201.4,307.3 203,309.4 C204.6,311.4 205.4,314.1 205.4,317.6 Z M191.9,314.8 C191.9,313.6 191.6,312.6 190.9,311.8 C190.3,311 189.4,310.6 188.4,310.6 L177.4,310.6 L177.4,318.7 L188,318.7 C189.1,318.7 190,318.4 190.8,317.7 C191.5,317.1 191.9,316.1 191.9,314.8 Z M177.5,292.8 L177.5,300.2 L186.6,300.2 C187.5,300.2 188.3,299.9 189.1,299.4 C189.9,298.9 190.2,297.9 190.2,296.4 C190.2,295.1 189.9,294.1 189.2,293.6 C188.6,293 187.8,292.7 186.9,292.7 L177.5,292.8 L177.5,292.8 Z M221.8,330.7 C218.2,330.7 215.4,329.6 213.5,327.4 C211.6,325.2 210.6,322 210.6,317.7 L210.6,294 L223.6,294 L223.6,314.7 C223.6,316.3 224,317.5 224.7,318.4 C225.4,319.3 226.4,319.7 227.6,319.7 C228.6,319.7 229.6,319.5 230.7,319 C231.7,318.5 232.8,317.5 233.8,316 L233.8,294 L246.8,294 L246.8,315.6 C246.8,316.8 247,317.7 247.3,318.2 C247.6,318.7 248.3,319 249.2,319.1 L249.2,330 C247,330.5 245.1,330.7 243.7,330.7 C239.3,330.7 236.7,329 236.1,325.7 L235.8,324.4 C234.1,326.6 232.1,328.2 229.8,329.2 C227.5,330.2 224.8,330.7 221.8,330.7 Z M270.5,330.7 C268,330.7 265.8,330.2 263.7,329.3 C261.6,328.4 259.8,327.1 258.3,325.4 C256.8,323.7 255.6,321.8 254.8,319.5 C254,317.2 253.5,314.7 253.5,311.9 C253.5,309.3 253.9,306.8 254.7,304.5 C255.5,302.2 256.6,300.3 257.9,298.6 C259.3,296.9 260.9,295.6 262.9,294.7 C264.8,293.8 266.9,293.3 269.3,293.3 C271.6,293.3 273.8,293.8 275.7,294.9 C277.6,295.9 279.1,297.4 280.2,299.3 L280.2,280 L293.2,280 L293.2,315.5 C293.2,316.7 293.4,317.6 293.7,318.1 C294.1,318.6 294.7,318.9 295.6,319 L295.6,330 C293.4,330.5 291.5,330.7 290.1,330.7 C285.7,330.7 283.1,329 282.5,325.7 L282.2,324.4 C281,326.6 279.3,328.2 277.2,329.2 C275.1,330.2 272.9,330.7 270.5,330.7 Z M274.1,319.7 C276.5,319.7 278.5,318.5 280.2,316 L280.2,309.6 C279.6,308 278.6,306.7 277.4,305.7 C276.2,304.7 274.9,304.2 273.5,304.2 C272.5,304.2 271.7,304.4 270.9,304.8 C270.1,305.2 269.4,305.8 268.9,306.5 C268.3,307.2 267.9,308.1 267.5,309 C267.2,310 267,311 267,312.1 C267,314.4 267.6,316.2 268.9,317.6 C270.2,319 271.9,319.7 274.1,319.7 Z M315.7,330 C313.4,330 311.2,329.5 309.3,328.6 C307.4,327.7 305.7,326.4 304.3,324.8 C302.9,323.2 301.9,321.3 301.1,319.1 C300.3,316.9 300,314.5 300,312 C300,309.3 300.4,306.8 301.2,304.6 C302,302.3 303.2,300.4 304.6,298.7 C306.1,297.1 307.8,295.8 309.9,294.8 C311.9,293.9 314.2,293.4 316.7,293.4 C319.3,293.4 321.6,293.9 323.5,294.9 C325.5,295.9 327,297.4 328.1,299.4 L328.1,294 L339.4,294 L339.4,326.7 C339.4,329.5 338.9,332.1 337.8,334.4 C336.8,336.7 335.3,338.6 333.4,340.2 C331.5,341.8 329.2,343 326.5,343.9 C323.8,344.8 320.8,345.2 317.6,345.2 C313.8,345.2 310.5,344.6 307.6,343.4 C304.8,342.2 302.3,340.5 300.1,338.3 L306.9,331.2 C308.2,332.4 309.8,333.5 311.6,334.3 C313.4,335.1 315.4,335.6 317.5,335.6 C318.7,335.6 319.8,335.4 320.9,335.1 C322,334.8 322.9,334.3 323.7,333.6 C324.5,332.9 325.2,332 325.6,330.8 C326.1,329.7 326.3,328.3 326.3,326.7 L326.3,324.4 C325.3,326.3 323.8,327.7 321.8,328.6 C320.1,329.5 318,330 315.7,330 Z M320.3,319.7 C321.6,319.7 322.8,319.4 323.7,318.8 C324.7,318.2 325.6,317.3 326.5,316 L326.5,309.6 C325.9,308 324.9,306.7 323.7,305.7 C322.4,304.7 321.1,304.3 319.8,304.3 C318.9,304.3 318,304.5 317.2,304.9 C316.4,305.3 315.7,305.9 315.1,306.6 C314.5,307.3 314.1,308.1 313.7,309.1 C313.3,310.1 313.2,311.1 313.2,312.2 C313.2,314.4 313.9,316.2 315.2,317.6 C316.5,319 318.3,319.7 320.3,319.7 Z M364.7,330.7 C361.6,330.7 358.8,330.2 356.3,329.2 C353.8,328.2 351.8,326.9 350.1,325.2 C348.4,323.5 347.2,321.6 346.3,319.4 C345.4,317.2 345,314.9 345,312.5 C345,309.9 345.4,307.4 346.3,305.1 C347.1,302.8 348.4,300.7 350.1,299 C351.8,297.3 353.8,295.9 356.2,294.9 C358.6,293.9 361.5,293.4 364.7,293.4 C367.9,293.4 370.7,293.9 373.2,294.9 C375.7,295.9 377.7,297.3 379.4,299 C381.1,300.7 382.3,302.7 383.2,304.9 C384,307.2 384.5,309.5 384.5,312 C384.5,312.7 384.5,313.4 384.4,314.1 C384.3,314.8 384.3,315.4 384.2,316 L359,316 C359.1,317.9 359.8,319.3 361.1,320.1 C362.4,320.9 363.8,321.4 365.3,321.4 C366.7,321.4 368,321.1 369.3,320.4 C370.6,319.7 371.4,318.9 371.8,317.7 L382.8,320.8 C381.3,323.7 379.1,326 376.1,327.8 C372.8,329.8 369.1,330.7 364.7,330.7 Z M370.4,308.2 C370.2,306.5 369.5,305.1 368.5,304.1 C367.5,303.1 366.1,302.6 364.5,302.6 C362.9,302.6 361.5,303.1 360.5,304.1 C359.5,305.1 358.8,306.5 358.6,308.2 L370.4,308.2 Z M414.3,328 C412.5,328.8 410.5,329.4 408.5,329.9 C406.4,330.4 404.4,330.7 402.4,330.7 C400.9,330.7 399.6,330.5 398.2,330.2 C396.9,329.8 395.7,329.2 394.8,328.4 C393.8,327.6 393,326.5 392.5,325.2 C391.9,323.9 391.6,322.2 391.6,320.3 L391.6,303.8 L387.2,303.8 L387.2,294 L391.6,294 L391.6,282.7 L404.6,282.7 L404.6,294 L411.6,294 L411.6,303.8 L404.6,303.8 L404.6,315.7 C404.6,316.9 404.9,317.7 405.4,318.2 C405.9,318.7 406.6,318.9 407.4,318.9 C408,318.9 408.8,318.8 409.6,318.6 C410.4,318.4 411.2,318.1 412.1,317.7 L414.3,328 Z M436.2,330 L436.2,281.5 L457.1,281.5 C459.5,281.5 461.7,282 463.7,283 C465.7,284 467.4,285.3 468.9,286.8 C470.4,288.3 471.5,290.2 472.3,292.2 C473.1,294.2 473.5,296.3 473.5,298.3 C473.5,300.4 473.1,302.5 472.3,304.6 C471.5,306.6 470.4,308.4 469.1,310 C467.8,311.6 466,312.8 464,313.8 C462,314.8 459.8,315.2 457.5,315.2 L449.6,315.2 L449.6,330 L436.2,330 Z M449.5,303.5 L456.5,303.5 C457.3,303.5 458.1,303.1 458.8,302.4 C459.5,301.6 459.9,300.3 459.9,298.3 C459.9,296.3 459.5,294.9 458.7,294.2 C457.9,293.5 457.1,293.1 456.2,293.1 L449.5,293.1 L449.5,303.5 L449.5,303.5 Z M488.8,330.7 C487,330.7 485.4,330.4 483.8,329.8 C482.3,329.2 480.9,328.4 479.8,327.4 C478.7,326.4 477.8,325.2 477.2,323.7 C476.6,322.3 476.2,320.8 476.2,319.1 C476.2,317.3 476.6,315.6 477.4,314.1 C478.2,312.6 479.2,311.3 480.6,310.2 C482,309.1 483.6,308.3 485.5,307.7 C487.4,307.1 489.5,306.8 491.7,306.8 C494.6,306.8 497,307.3 498.9,308.2 L498.9,307.1 C498.9,305.4 498.4,304.2 497.4,303.3 C496.4,302.5 494.8,302.1 492.7,302.1 C490.7,302.1 488.8,302.4 487,303.1 C485.3,303.8 483.4,304.7 481.5,306 L477.7,297.9 C482.4,294.8 487.8,293.3 493.9,293.3 C499.6,293.3 504.1,294.6 507.2,297.1 C510.3,299.6 511.8,303.5 511.8,308.6 L511.8,315.6 C511.8,316.8 512,317.7 512.3,318.2 C512.6,318.7 513.3,319 514.2,319.1 L514.2,330 C513.2,330.2 512.2,330.4 511.2,330.5 C510.2,330.6 509.4,330.7 508.7,330.7 C506.4,330.7 504.6,330.3 503.4,329.4 C502.2,328.5 501.4,327.3 501,325.7 L500.7,324.4 C499.1,326.5 497.3,328 495.2,329.1 C493.4,330.1 491.2,330.7 488.8,330.7 Z M492.7,321.4 C493.5,321.4 494.3,321.3 495.1,321 C495.9,320.7 496.6,320.4 497.3,320 C497.8,319.6 498.2,319.2 498.5,318.8 C498.8,318.4 499,317.9 499,317.5 L499,314.8 C498.2,314.5 497.4,314.3 496.5,314.1 C495.6,313.9 494.8,313.8 494,313.8 C492.4,313.8 491.1,314.2 490,315 C489,315.8 488.4,316.8 488.4,317.9 C488.4,318.9 488.8,319.7 489.6,320.4 C490.5,321.1 491.5,321.4 492.7,321.4 Z M544.5,305.1 C542,305.1 539.7,305.4 537.7,305.9 C535.7,306.4 534.1,307.4 533.1,308.6 L533.1,330 L520.1,330 L520.1,294 L532,294 L532,300.8 C533.3,298.4 534.9,296.5 536.7,295.2 C538.6,293.9 540.6,293.3 542.8,293.3 C543.7,293.3 544.2,293.3 544.4,293.4 L544.4,305.1 L544.5,305.1 Z M574.7,328 C572.9,328.8 570.9,329.4 568.9,329.9 C566.9,330.4 564.8,330.7 562.8,330.7 C561.3,330.7 560,330.5 558.6,330.2 C557.3,329.8 556.1,329.2 555.2,328.4 C554.3,327.6 553.4,326.5 552.9,325.2 C552.3,323.9 552,322.2 552,320.3 L552,303.8 L547.6,303.8 L547.6,294 L552,294 L552,282.7 L565,282.7 L565,294 L572,294 L572,303.8 L565,303.8 L565,315.7 C565,316.9 565.3,317.7 565.8,318.2 C566.3,318.7 567,318.9 567.8,318.9 C568.4,318.9 569.2,318.8 570,318.6 C570.8,318.4 571.6,318.1 572.5,317.7 L574.7,328 Z M578.7,333.6 C580.8,334.4 582.6,334.8 584,334.8 C586.8,334.8 588.3,333.2 588.6,330 L575.6,294.1 L588.9,294.1 L595.7,319 L601.2,294.1 L613.3,294.1 L601.1,334.4 C600.6,336.2 599.8,337.8 598.8,339.2 C597.8,340.6 596.6,341.9 595.2,342.9 C593.8,343.9 592.3,344.7 590.6,345.3 C588.9,345.8 587.2,346.1 585.3,346.1 C583,346.1 580.7,345.7 578.6,344.8 L578.6,333.6 L578.7,333.6 Z" id="Budget-Party" fill="#244665" fill-rule="nonzero"></path>
        </g>
    </g>
</svg>