<?xml version="1.0" encoding="UTF-8"?>
<svg width="20px" height="17px" viewBox="0 0 20 17" version="1.1" xmlns="http://www.w3.org/2000/svg" xmlns:xlink="http://www.w3.org/1999/xlink">
    <!-- Generator: Sketch 43.1 (39012) - http://www.bohemiancoding.com/sketch -->
    <title>Shape</title>
    <desc>Created with Sketch.</desc>
    <defs></defs>
    <g id="Page-1" stroke="none" stroke-width="1" fill="none" fill-rule="evenodd">
        <g id="service-budget-view" transform="translate(-89.000000, -506.000000)" fill="#00A3DE">
            <g id="Group-4" transform="translate(89.000000, 502.000000)">
                <path d="M18.5054538,7.5250877 C17.6200046,6.43681927 16.4173532,5.57718094 14.8973638,4.94630856 C13.3773743,4.31543619 11.717191,4 9.91681383,4 C8.11643666,4 6.45625335,4.31543619 4.93626389,4.94630856 C3.41627444,5.57718094 2.21362303,6.43668342 1.32817382,7.5250877 C0.442724607,8.61335613 -1.84741111e-13,9.79943424 -1.84741111e-13,11.083322 C-1.84741111e-13,12.1900656 0.333775501,13.226984 1.0015982,14.1935337 C1.66942089,15.1600834 2.582447,15.9719037 3.74094821,16.628587 C3.65971185,16.9236461 3.56380403,17.2040338 3.45308892,17.4697501 C3.3423738,17.7353305 3.24279812,17.9530929 3.15422603,18.1229014 C3.06565394,18.2924381 2.9458371,18.4807217 2.7945038,18.687073 C2.64330635,18.8938318 2.52892337,19.0395953 2.45149072,19.1244996 C2.37405806,19.2094038 2.24676964,19.3494618 2.06962546,19.5450811 C1.89261713,19.7405646 1.77823415,19.8679889 1.72661238,19.9269464 C1.71914081,19.9306143 1.68966206,19.9637609 1.63804029,20.0266579 C1.58641852,20.0892833 1.56060763,20.120528 1.56060763,20.120528 L1.49417857,20.2201037 C1.45722825,20.2752575 1.44065494,20.3104418 1.4443228,20.3249774 C1.44799067,20.3397847 1.44065494,20.376735 1.42217978,20.4355567 C1.40370462,20.4947859 1.40560648,20.5390719 1.4277495,20.5685507 L1.4277495,20.5796901 C1.45722825,20.7050767 1.51618574,20.8065542 1.60475783,20.8839869 C1.69332992,20.9612837 1.79304145,21 1.90362072,21 L1.9590462,21 C2.43872112,20.9409067 2.85930271,20.8598061 3.22079095,20.7565626 C5.15402626,20.2622162 6.85115989,19.3694313 8.312056,18.0780719 C8.86535987,18.1370294 9.40032443,18.1665082 9.91681383,18.1665082 C11.717191,18.1665082 13.3775102,17.8512078 14.8973638,17.2200638 C16.4172174,16.5891914 17.6200046,15.7298248 18.5054538,14.6415563 C19.3909031,13.5534237 19.8336277,12.3672098 19.8336277,11.083322 C19.8336277,9.79957008 19.3909031,8.61335613 18.5054538,7.5250877 L18.5054538,7.5250877 Z M17.2602824,13.9056744 C16.4889445,14.7761805 15.4486299,15.468048 14.1389313,15.9807337 C12.8292326,16.4934194 11.4217243,16.7498981 9.91654214,16.7498981 C9.46648181,16.7498981 8.98694273,16.7205552 8.47778905,16.6614619 L7.84691668,16.5951686 L7.37104546,17.0158861 C6.46358907,17.8127632 5.44894958,18.4436356 4.32739869,18.9085032 C4.66674391,18.3109133 4.92498861,17.6762372 5.10213279,17.0048825 L5.40099568,15.9422891 L4.43811381,15.3891211 C3.4788998,14.8428812 2.7355463,14.1954355 2.20791747,13.4465123 C1.68028863,12.6975891 1.41661006,11.9098137 1.41661006,11.0834579 C1.41661006,10.0726221 1.80214318,9.13188324 2.57320942,8.26124132 C3.3444115,7.3905994 4.38472603,6.69886768 5.69442469,6.18604614 C7.00412335,5.6732246 8.41149583,5.41661006 9.91681383,5.41661006 C11.421996,5.41661006 12.8292326,5.67308876 14.1389313,6.18591029 C15.4486299,6.69873183 16.4889445,7.39046356 17.2602824,8.26110547 C18.0313486,9.13174739 18.4168818,10.0724862 18.4168818,11.083322 C18.4168818,12.0941578 18.0312128,13.0350325 17.2602824,13.9056744 L17.2602824,13.9056744 Z" id="Shape"></path>
            </g>
        </g>
    </g>
</svg>