<?xml version="1.0" encoding="UTF-8"?>
<svg width="7px" height="12px" viewBox="0 0 7 12" version="1.1" xmlns="http://www.w3.org/2000/svg" xmlns:xlink="http://www.w3.org/1999/xlink">
    <!-- Generator: Sketch 43.1 (39012) - http://www.bohemiancoding.com/sketch -->
    <title>Shape</title>
    <desc>Created with Sketch.</desc>
    <defs></defs>
    <g id="Page-1" stroke="none" stroke-width="1" fill="none" fill-rule="evenodd">
        <g id="service-budget-view" transform="translate(-283.000000, -564.000000)" fill="#FFFFFF">
            <g id="Next-btn" transform="translate(208.000000, 552.000000)">
                <path d="M81.488082,17.3991011 L76.2023062,12.1134645 C76.1267096,12.0378679 76.0396969,12 75.9414074,12 C75.8431179,12 75.7561053,12.0378679 75.6805087,12.1134645 L75.1134645,12.6806479 C75.0377287,12.7562445 75,12.8431179 75,12.9415466 C75,13.0399754 75.0377287,13.1268488 75.1134645,13.2024454 L79.5711582,17.6601391 L75.1134645,22.1179719 C75.0377287,22.1935685 75,22.2805812 75,22.3787315 C75,22.4771602 75.0377287,22.5641729 75.1134645,22.6397695 L75.6805087,23.2066744 C75.7561053,23.2824102 75.8431179,23.3199997 75.9414074,23.3199997 C76.0396969,23.3199997 76.1267096,23.282271 76.2023062,23.2066744 L81.4879428,17.9210378 C81.5635394,17.8454412 81.6012681,17.7584286 81.6012681,17.6601391 C81.6012681,17.5618496 81.5636786,17.4748369 81.488082,17.3991011 L81.488082,17.3991011 Z" id="Shape"></path>
            </g>
        </g>
    </g>
</svg>