<?xml version="1.0" encoding="UTF-8"?>
<svg width="251px" height="187px" viewBox="0 0 251 187" version="1.1" xmlns="http://www.w3.org/2000/svg" xmlns:xlink="http://www.w3.org/1999/xlink">
    <!-- Generator: Sketch 42 (36781) - http://www.bohemiancoding.com/sketch -->
    <title>Group 2</title>
    <desc>Created with Sketch.</desc>
    <defs></defs>
    <g id="Page-1" stroke="none" stroke-width="1" fill="none" fill-rule="evenodd">
        <g id="intro-1" transform="translate(-60.000000, -77.000000)" fill-rule="nonzero">
            <g id="Group-2" transform="translate(60.000000, 77.000000)">
                <g id="Group" transform="translate(57.330049, 29.920000)">
                    <path d="M3.17644428,70.7050335 C-2.0553463,74.9958403 2.24219596,80.2194312 2.24219596,80.2194312 L44.8439193,132.45534 C44.8439193,132.45534 49.1414615,137.678931 54.3732521,133.388124 L138.268751,65.2948858 C143.500542,61.0040791 139.202999,55.7804882 139.202999,55.7804882 L96.6012761,3.3580227 C96.6012761,3.3580227 92.3037338,-1.86556817 87.0719433,2.42523862 L3.17644428,70.7050335 Z" id="Shape" fill="#A7D18B"></path>
                    <rect id="Rectangle-path" fill="#9AAAB4" transform="translate(70.751288, 68.179922) rotate(-39.110813) translate(-70.751288, -68.179922) " x="53.8419904" y="27.6052454" width="33.8185961" height="81.1493526"></rect>
                    <path d="M56.6154481,88.2413743 C50.2625595,80.405988 36.2488347,92.7187379 32.5118415,87.8682607 C30.6433448,85.6295789 31.9512925,82.6446698 34.3803381,80.5925448 C38.6778804,77.0479653 41.667475,79.2866471 43.5359716,77.6076357 C44.8439193,76.4882948 44.8439193,75.1823971 44.0965206,74.0630562 C42.228024,71.8243744 37.5567824,72.9437153 33.8197891,74.9958403 L32.1381421,72.7571585 C31.0170442,71.4512608 29.1485475,71.264704 27.6537502,72.3840449 C26.3458026,73.5033858 26.1589529,75.3689539 27.2800509,76.8614085 L29.1485475,79.1000903 C26.3458026,82.8312266 25.2247046,87.6817038 28.4011489,91.7859538 C34.5671878,99.2482265 48.5809125,87.3085902 52.8784548,92.5321811 C54.3732521,94.3977492 53.8127031,97.7557719 50.6362588,100.367567 C45.7781676,104.285261 41.4806253,102.419692 39.425279,103.912147 C38.4910307,104.658374 38.304181,106.150829 39.2384294,107.456726 C40.7332267,109.322295 45.9650173,109.135738 51.0099582,106.150829 L51.0099582,106.150829 L53.0653045,108.576067 C54.1864025,109.881965 56.0548991,110.068522 57.5496964,108.949181 C58.857644,107.82984 59.0444937,105.964272 57.9233957,104.471817 L55.8680494,102.046579 L55.8680494,102.046579 C59.2313434,98.3154424 60.539291,92.9052947 56.6154481,88.2413743 Z" id="Shape" fill="#687680"></path>
                </g>
                <path d="M42.1225772,99.1340254 C42.1225772,99.4059415 42.0317963,99.6778576 41.9410153,99.9497736 C41.3963295,101.399993 39.7622721,102.125102 38.3097767,101.535951 C28.0061371,97.5025291 11.3478299,93.2878302 6.67261014,96.4601842 C6.12792435,96.822739 5.58323856,97.3665711 5.58323856,98.7261514 C5.58323856,101.354673 11.1208775,101.58127 11.2116584,101.58127 C12.7549348,101.58127 14.0258684,102.850212 14.0258684,104.391069 C13.9804779,105.977246 12.7549348,107.200868 11.2116584,107.200868 C7.3080769,107.200868 -0.0451813167,105.388095 0.000209166095,98.7261514 C0.000209166095,95.7350747 1.2257522,93.3784689 3.54066683,91.8376112 C12.3464205,85.855458 35.7679096,94.5114525 40.3977389,96.3242262 C41.532501,96.7774196 42.2133582,97.9557225 42.1225772,99.1340254 Z" id="Shape" fill="#00A3DE"></path>
                <path d="M219.097947,29.3206921 C219.097947,29.5926082 219.007166,29.8645242 218.916385,30.1364403 C218.371699,31.5866593 216.737642,32.3117687 215.285146,31.7226173 C204.981507,27.6891958 188.323199,23.4744969 183.64798,26.6468509 C183.103294,27.0094056 182.558608,27.5532377 182.558608,28.912818 C182.558608,31.5413399 188.096247,31.7679366 188.187028,31.7679366 C189.730304,31.7679366 191.001238,33.0368782 191.001238,34.5777359 C190.955847,36.1639129 189.730304,37.3875352 188.187028,37.3875352 C184.283446,37.3875352 176.930188,35.5747614 176.975579,28.912818 C176.975579,25.9217414 178.201122,23.5651356 180.516036,22.0242779 C189.32179,16.0421246 212.743279,24.6981191 217.373108,26.5108928 C218.50787,26.9640863 219.188728,28.1423892 219.097947,29.3206921 Z" id="Shape-Copy" fill="#00A3DE" transform="translate(198.040696, 28.667101) rotate(144.000000) translate(-198.040696, -28.667101) "></path>
                <path d="M62.8067722,70.0815482 C63.0403051,70.8476682 63.0069433,71.7137169 62.606601,72.4798369 C61.3388506,74.9114352 59.6373961,76.7434613 57.6356849,77.7094387 C55.5338882,78.7420352 53.2319203,78.7420352 51.3302947,77.7760578 C47.9607475,76.0439604 46.0924838,71.2806926 49.0616887,65.5514473 C50.1959917,63.3197064 49.8623732,61.9873238 49.5287546,61.8207759 C49.1951361,61.6542281 47.8940238,62.120562 46.7597208,64.3523029 C45.4919704,66.7839012 43.7905159,68.6159273 41.7888047,69.5819047 C39.687008,70.6145012 37.3850401,70.6145012 35.4834145,69.6485238 C32.1138673,67.9164264 30.2456035,63.1531586 33.2148085,57.4239133 C34.0488548,55.7917446 34.0488548,54.7591481 33.9487692,54.2928141 C33.8820455,53.9264089 33.7485981,53.7265515 33.6485125,53.693242 C33.314894,53.5266941 32.0137817,53.993028 30.8794787,56.2247689 C30.0787943,57.757009 28.1771686,58.3898907 26.6425234,57.5904611 C25.1078782,56.7910316 24.4740029,54.8923863 25.2746874,53.3601463 C28.2105305,47.5975915 33.1814466,46.3651375 36.5509938,48.0972349 C39.9205409,49.8293324 41.7888047,54.5926002 38.8195998,60.3218455 C37.9855535,61.9540142 37.9855535,62.9866107 38.085639,63.4529447 C38.1523627,63.8193499 38.2858101,64.0192073 38.3858957,64.0525168 C38.7195142,64.2190647 40.0206265,63.7527307 41.1549295,61.4876803 C44.1241344,55.758435 49.0616887,54.4926715 52.4312358,56.2247689 C55.800783,57.9568663 57.6690468,62.7201342 54.6998419,68.4493795 C53.8657955,70.0815482 53.8657955,71.1141447 53.9658811,71.5804786 C54.0326048,71.9468839 54.1660522,72.1467413 54.2661378,72.1800508 C54.5997563,72.3465987 55.9008686,71.8802647 57.0351716,69.6485238 C57.8358561,68.1162838 59.7374817,67.4834021 61.2721269,68.2828317 C62.0060877,68.6159273 62.5398773,69.3154282 62.8067722,70.0815482 Z" id="Shape" fill="#00A3DE"></path>
                <path d="M205.582567,65.8343508 C204.992491,65.6077541 204.447805,65.19988 204.175462,64.5654092 C203.267652,62.6166775 202.949919,60.6679457 203.267652,58.9911301 C203.630776,57.1783563 204.720148,55.7734567 206.263424,55.0483472 C208.941463,53.7794056 212.799654,54.8670698 214.978397,59.4896428 C215.840816,61.2570972 216.839407,61.7102906 217.111749,61.5743326 C217.384092,61.4383746 217.701826,60.3960297 216.839407,58.6285753 C215.931597,56.6798436 215.613864,54.7311118 215.931597,53.0542961 C216.294721,51.2415224 217.384092,49.7913034 218.927369,49.1115133 C221.605407,47.8425717 225.463598,48.9302359 227.642341,53.5528089 C228.277808,54.8670698 228.913275,55.3655826 229.231008,55.5015406 C229.503351,55.6374987 229.684913,55.6374987 229.775694,55.5921793 C230.048037,55.4562213 230.36577,54.4138764 229.503351,52.646422 C228.913275,51.4227998 229.457961,49.9272615 230.683504,49.33811 C231.909047,48.7489585 233.406933,49.2927907 233.997009,50.5164129 C236.175752,55.0936666 234.587085,58.8098527 231.909047,60.0787943 C229.231008,61.3477359 225.372817,60.2600717 223.194074,55.6374987 C222.558607,54.3232377 221.923141,53.8700443 221.605407,53.6887669 C221.333064,53.5528089 221.151502,53.5528089 221.060721,53.5981282 C220.788379,53.7340863 220.470645,54.7764312 221.333064,56.5438855 C223.511808,61.1211392 221.923141,64.8373253 219.245102,66.1062669 C216.567064,67.3752085 212.708873,66.2875443 210.530129,61.6649713 C209.894663,60.3507103 209.259196,59.8975169 208.941463,59.7162395 C208.66912,59.5802815 208.487558,59.5802815 208.396777,59.6256009 C208.124434,59.7615589 207.8067,60.8039038 208.66912,62.5713582 C209.259196,63.7949804 208.71451,65.2905187 207.488967,65.8796702 C206.898891,66.0609476 206.218034,66.0609476 205.582567,65.8343508 Z" id="Shape" fill="#00A3DE"></path>
                <path d="M66.565253,186.336069 C66.0205672,186.653304 65.33971,186.743943 64.7042432,186.562666 C62.616281,186.018834 60.9368331,184.976489 59.8474616,183.616908 C58.7126995,182.166689 58.3041851,180.399235 58.75809,178.767739 C59.5297282,175.91262 62.8886239,173.691972 67.7907961,175.006233 C69.6971963,175.504746 70.6503965,175.051553 70.7411774,174.734317 C70.8319584,174.462401 70.2418821,173.556014 68.3354819,173.012182 C66.2475196,172.46835 64.5680718,171.426005 63.4787002,170.066425 C62.3439381,168.616206 61.9354238,166.848751 62.3893286,165.217255 C63.1609668,162.362137 66.5198625,160.141489 71.4220347,161.45575 C72.8291397,161.818304 73.6007779,161.637027 73.9639017,161.501069 C74.2362446,161.365111 74.3724161,161.274472 74.3724161,161.183834 C74.463197,160.911918 73.8731208,160.005531 71.9667205,159.461699 C70.6503965,159.099144 69.8787583,157.739564 70.1964916,156.425303 C70.5596155,155.111042 71.92133,154.340613 73.237654,154.657848 C78.1398261,155.972109 79.9554455,159.552337 79.1838073,162.452775 C78.412169,165.307894 75.0532733,167.528542 70.1511012,166.214281 C68.7439962,165.851726 67.972358,166.033003 67.6092341,166.168961 C67.3368912,166.304919 67.2007198,166.395558 67.2007198,166.486197 C67.1099388,166.758113 67.7000151,167.6645 69.6064154,168.208332 C74.5085875,169.522593 76.3242068,173.102821 75.5525686,176.003259 C74.7809304,178.858377 71.4220347,181.079025 66.5198625,179.764764 C65.1127576,179.402209 64.3411194,179.583487 63.9779955,179.719445 C63.7056526,179.855403 63.5694812,179.946042 63.5694812,180.03668 C63.4787002,180.308596 64.0687765,181.214983 65.9751767,181.758815 C67.2915007,182.12137 68.063139,183.48095 67.7454056,184.795211 C67.5638436,185.475001 67.1099388,186.018834 66.565253,186.336069 Z" id="Shape" fill="#00A3DE"></path>
                <path d="M162.251293,139.100919 C167.652761,135.701968 172.509542,137.106868 174.506724,140.279222 C176.503905,143.451576 175.686876,148.391385 170.285409,151.790335 C168.197447,153.104596 167.834323,154.418857 168.015885,154.736093 C168.242837,155.053328 169.559161,155.279925 171.647123,153.965664 C177.048591,150.566713 181.905372,151.971613 183.902554,155.143967 C185.899735,158.316321 185.082706,163.256129 179.681239,166.65508 C177.593277,167.969341 177.230153,169.283602 177.411715,169.600837 C177.593277,169.918072 178.954991,170.144669 181.042953,168.830408 C182.495449,167.924021 184.401849,168.331895 185.355049,169.782114 C186.262859,171.232333 185.854344,173.135746 184.356458,174.087452 C178.954991,177.486403 174.098209,176.081503 172.101028,172.909149 C170.103847,169.736795 170.920876,164.796987 176.322343,161.398036 C178.410305,160.083775 178.773429,158.769514 178.591867,158.452279 C178.410305,158.135043 177.048591,157.908447 174.960629,159.222707 C169.559161,162.621658 164.702379,161.216759 162.705198,158.044405 C160.708017,154.872051 161.525046,149.932242 166.926513,146.533291 C169.014475,145.219031 169.377599,143.90477 169.196037,143.587534 C168.969085,143.270299 167.652761,143.043702 165.564799,144.357963 C164.112303,145.26435 162.205903,144.856476 161.252703,143.406257 C160.344893,141.910718 160.753407,140.007306 162.251293,139.100919 Z" id="Shape" fill="#00A3DE"></path>
                <path d="M110.208821,1.52643187 C114.399221,-1.11043738 118.16706,-0.0205314259 119.716451,2.44054654 C121.265843,4.9016245 120.632001,8.73387448 116.441601,11.3707437 C114.821782,12.3903332 114.540075,13.4099226 114.680928,13.6560304 C114.856996,13.9021382 115.878186,14.0779295 117.498004,13.05834 C121.688404,10.4214708 125.456243,11.5113767 127.005635,13.9724547 C128.555026,16.4335327 127.921184,20.2657827 123.730784,22.9026519 C122.110966,23.9222413 121.829258,24.9418308 121.970112,25.1879386 C122.110966,25.4340464 123.167369,25.6098377 124.787188,24.5902482 C125.914018,23.8870831 127.392983,24.2035074 128.132465,25.3285716 C128.836734,26.4536358 128.519813,27.9302826 127.357769,28.668606 C123.167369,31.3054752 119.39953,30.2155693 117.850139,27.7544913 C116.300747,25.2934133 116.934589,21.4611634 121.124989,18.8242941 C122.744808,17.8047047 123.026515,16.7851152 122.885661,16.5390074 C122.744808,16.2928997 121.688404,16.1171084 120.068586,17.1366978 C115.878186,19.7735671 112.110347,18.6836611 110.560955,16.2225831 C109.011564,13.7615052 109.645406,9.9292552 113.835806,7.29238595 C115.455624,6.27279651 115.737332,5.25320707 115.596478,5.00709927 C115.420411,4.76099148 114.399221,4.58520019 112.779402,5.60478964 C111.652572,6.30795477 110.173607,5.99153046 109.434125,4.86646625 C108.729856,3.70624378 109.046777,2.229597 110.208821,1.52643187 Z" id="Shape-Copy-2" fill="#00A3DE"></path>
                <path d="M200.042883,133.380437 C198.908121,133.244479 197.86414,132.610009 197.183283,131.567664 C196.04852,129.75489 196.593206,127.352965 198.408826,126.219981 C199.316635,125.63083 221.240238,112.261624 249.109995,119.603357 C251.197957,120.147189 252.4235,122.277198 251.878814,124.361888 C251.334129,126.446578 249.200776,127.6702 247.112814,127.126368 C222.511172,120.645702 202.720921,132.700647 202.53936,132.836605 C201.767721,133.289799 200.859912,133.471076 200.042883,133.380437 Z" id="Shape" fill="#00A3DE" transform="translate(224.299726, 125.405133) rotate(23.000000) translate(-224.299726, -125.405133) "></path>
                <ellipse id="Oval" fill="#00A3DE" cx="219.448266" cy="89.8490997" rx="5.08373408" ry="5.07576641"></ellipse>
                <ellipse id="Oval-Copy-2" fill="#00A3DE" cx="168.349744" cy="20.0357664" rx="5.08373408" ry="5.07576641"></ellipse>
                <ellipse id="Oval" fill="#00A3DE" cx="132.322296" cy="170.995347" rx="6.44544856" ry="6.4353467"></ellipse>
                <ellipse id="Oval" fill="#00A3DE" cx="48.8198328" cy="129.855347" rx="6.44544856" ry="6.4353467"></ellipse>
                <ellipse id="Oval-Copy" fill="#00A3DE" cx="83.7163845" cy="51.3153467" rx="6.44544856" ry="6.4353467"></ellipse>
            </g>
        </g>
    </g>
</svg>