<?xml version="1.0" encoding="UTF-8"?>
<svg width="16px" height="16px" viewBox="0 0 16 16" version="1.1" xmlns="http://www.w3.org/2000/svg" xmlns:xlink="http://www.w3.org/1999/xlink">
    <!-- Generator: Sketch 42 (36781) - http://www.bohemiancoding.com/sketch -->
    <title>Combined Shape</title>
    <desc>Created with Sketch.</desc>
    <defs></defs>
    <g id="Page-1" stroke="none" stroke-width="1" fill="none" fill-rule="evenodd">
        <g id="services-path-view" transform="translate(-345.000000, -367.000000)" fill="#00A3DE">
            <g id="infra-tab" transform="translate(0.000000, 352.000000)">
                <path d="M345,26.6066206 L345,31 L349.393379,31 L358.180138,22.2132412 L353.786759,17.8198618 L345,26.6066206 L345,26.6066206 Z M348.833659,29.6481411 L348.833659,29.6481411 L347.703588,29.6482707 L347.703588,28.2964118 L346.351859,28.2964118 L346.351859,27.1662116 L347.312898,26.205172 L349.794698,28.6869719 L348.833659,29.6481411 L348.833659,29.6481411 Z M354.124821,19.6152974 C354.279593,19.6152974 354.356979,19.6928131 354.356979,19.8475853 C354.356979,19.9181013 354.33248,19.9778584 354.283093,20.0272456 L348.558983,25.751355 C348.509726,25.8004829 348.449839,25.8251116 348.379453,25.8251116 C348.224681,25.8251116 348.147165,25.7474662 348.147165,25.5928236 C348.147165,25.5223076 348.171794,25.4625505 348.221051,25.4131634 L353.945161,19.6891836 C353.994418,19.6399261 354.054305,19.6152974 354.124821,19.6152974 Z M360.609051,17.8724895 C360.869727,18.1471649 360.99987,18.4675978 361,18.8336587 C361,19.2068491 360.869857,19.5236525 360.60931,19.7841987 L358.856132,21.5372469 L354.462753,17.1438675 L356.215801,15.4013189 C356.469218,15.1339026 356.785892,15 357.166212,15 C357.539402,15 357.859835,15.1339026 358.127251,15.4013189 L360.609051,17.8724895 Z" id="Combined-Shape"></path>
            </g>
        </g>
    </g>
</svg>