<svg xmlns="http://www.w3.org/2000/svg" viewBox="1956 4627 163.99 155.34">
  <defs>
    <style>
      .cls-1 {
        fill: #2e4c66;
      }
    </style>
  </defs>
  <path id="Path_313" data-name="Path 313" class="cls-1" d="M140.445,93.745c14.807-9.749,23.581-25.287,23.581-41.83C164.026,23.764,139.1.792,108.12.03c-.518,0-1.036-.03-1.584-.03s-1.036,0-1.584.03C78.934.64,57.15,17.031,50.9,39,25.922,40.764,4.809,57.551.726,81.071c-2.833,16.3,3.169,33.117,16.086,45.243L1.7,152.211a1.923,1.923,0,0,0-.244.7,2.1,2.1,0,0,0,1.706,2.407,2.088,2.088,0,0,0,1.28-.213l32.416-16.391a64.586,64.586,0,0,0,11.638,3.2c30.284,5.271,58.8-11.851,64.985-38.631,1.737-.183,3.443-.457,5.149-.762l29.126,21.723a2.064,2.064,0,0,0,1.249.427,2.1,2.1,0,0,0,2.1-2.072,1.942,1.942,0,0,0-.122-.731Zm-30.588,5.728c-.03.183-.061.366-.091.579-.213,1.219-.487,2.407-.792,3.6-6.276,23.825-32.355,39-59.867,34.214a58.186,58.186,0,0,1-11.7-3.321,2.084,2.084,0,0,0-1.706.091L8.8,148.25l12.43-21.2a2.06,2.06,0,0,0-.427-2.62C8.129,113.153,2.158,97.219,4.839,81.772,8.526,60.6,27.354,45.4,49.9,43.262c1.432-.122,2.894-.213,4.387-.244A58.544,58.544,0,0,1,65.5,43.9C94.258,48.9,113.97,73.759,109.857,99.473Zm10.572-.792a2.071,2.071,0,0,0-1.676-.366c-1.493.3-3.016.579-4.539.762C117.931,71.931,97.549,46,67.752,40.094c-.518-.091-1.036-.213-1.554-.274-.518-.091-1.036-.183-1.554-.244a64.245,64.245,0,0,0-9.292-.7C61.69,18.92,82.224,4.235,106.536,4.235c29.37,0,53.286,21.387,53.286,47.711,0,15.66-8.622,30.345-23.033,39.241a2.053,2.053,0,0,0-.853,2.5l8.592,23.033Z" transform="translate(1955.964 4627)"/>
</svg>
