<svg id="Layer_1" data-name="Layer 1" xmlns="http://www.w3.org/2000/svg" xmlns:xlink="http://www.w3.org/1999/xlink" viewBox="0 0 533 533"><defs><style>.cls-1,.cls-10,.cls-12,.cls-13,.cls-14,.cls-7{fill:none;}.cls-2{fill:#69c9ff;}.cls-3{clip-path:url(#clip-path);}.cls-4{fill:#f7d45b;}.cls-5{fill:#fff;}.cls-6{fill:#ffa900;}.cls-12,.cls-6,.cls-7,.cls-8{stroke:#505050;}.cls-12,.cls-14,.cls-6,.cls-7,.cls-8{stroke-linecap:round;}.cls-10,.cls-12,.cls-13,.cls-14,.cls-6,.cls-7,.cls-8{stroke-linejoin:round;}.cls-10,.cls-12,.cls-6,.cls-8{stroke-width:5px;}.cls-7{stroke-width:8px;}.cls-8{fill:#71b7ff;}.cls-9{fill:#ef4239;}.cls-10{stroke:#f78;}.cls-11{fill:#f7e17d;}.cls-13,.cls-14{stroke:#000;stroke-width:12px;}</style><clipPath id="clip-path" transform="translate(313 -1)"><circle class="cls-1" cx="252" cy="254" r="250"/></clipPath></defs><title>yourBudget</title><g id="Layer_1-2" data-name="Layer 1"><circle class="cls-2" cx="565" cy="251" r="250"/><g class="cls-3"><circle class="cls-4" cx="493" cy="161" r="36"/><polygon class="cls-5" points="430 107 646 107 700 161 700 512 430 521 430 107"/><path class="cls-6" d="M180,405l-25.46-25.46a36,36,0,1,1-10.06,31.35Z" transform="translate(313 -1)"/><path d="M333,108l54,54V513l-270,9V108H333m0-12H117a12,12,0,0,0-12,12V522a12,12,0,0,0,12,12h0.4l270-9A12,12,0,0,0,399,513V162a12,12,0,0,0-3.51-8.49l-54-54A12,12,0,0,0,333,96h0Z" transform="translate(313 -1)"/><line class="cls-7" x1="457" y1="251" x2="529" y2="251"/><line class="cls-7" x1="457" y1="278" x2="529" y2="278"/><line class="cls-7" x1="457" y1="305" x2="529" y2="305"/><line class="cls-7" x1="457" y1="332" x2="529" y2="332"/><line class="cls-7" x1="457" y1="224" x2="673" y2="224"/><line class="cls-7" x1="556" y1="197" x2="673" y2="197"/><line class="cls-7" x1="610" y1="251" x2="673" y2="251"/><line class="cls-7" x1="556" y1="251" x2="592" y2="251"/><line class="cls-7" x1="610" y1="332" x2="673" y2="332"/><line class="cls-7" x1="556" y1="332" x2="592" y2="332"/><line class="cls-7" x1="556" y1="278" x2="673" y2="278"/><line class="cls-7" x1="637" y1="305" x2="673" y2="305"/><line class="cls-7" x1="556" y1="305" x2="619" y2="305"/><path class="cls-8" d="M180,405h36a36,36,0,1,1-15.06-29.28Z" transform="translate(313 -1)"/><rect class="cls-9" x="471" y="175" width="44" height="62" rx="4" ry="4"/><path d="M198,180v54H162V180h36m0-8H162a8,8,0,0,0-8,8v54a8,8,0,0,0,8,8h36a8,8,0,0,0,8-8V180a8,8,0,0,0-8-8h0Z" transform="translate(313 -1)"/><line class="cls-10" x1="493" y1="201" x2="493" y2="233"/><path d="M180,126a36,36,0,1,1-36,36,36,36,0,0,1,36-36m0-8a44,44,0,1,0,44,44,44,44,0,0,0-44-44h0Z" transform="translate(313 -1)"/><path class="cls-11" d="M154.54,187.46a36,36,0,0,1,50.91-50.91" transform="translate(313 -1)"/><path class="cls-4" d="M205.46,136.54a36,36,0,0,1-50.91,50.91" transform="translate(313 -1)"/><rect class="cls-8" x="574" y="395" width="18" height="36"/><rect class="cls-6" x="610" y="368" width="18" height="63"/><rect class="cls-8" x="646" y="386" width="18" height="45"/><polyline class="cls-12" points="556 368 556 449 673 449"/><polyline class="cls-13" points="646 107 646 161 700 161"/></g><g class="cls-3"><polyline class="cls-14" points="105 312 276 312 240 429 96 429 60 312 6 285"/><line class="cls-14" x1="123" y1="348" x2="258" y2="348"/><line class="cls-14" x1="141" y1="384" x2="249" y2="384"/><circle class="cls-14" cx="235.5" cy="460.5" r="13.5"/><circle class="cls-14" cx="100.5" cy="460.5" r="13.5"/></g><path d="M251.5,13A239.35,239.35,0,0,1,420.8,421.7,239.55,239.55,0,0,1,30.9,345.6,235.17,235.17,0,0,1,12,252.5,239.44,239.44,0,0,1,251.5,13m0-12C112.6,1,0,113.6,0,252.5S112.6,504,251.5,504,503,391.4,503,252.5,390.4,1,251.5,1h0Z" transform="translate(313 -1)"/></g></svg>
