<?xml version="1.0" encoding="utf-8"?>
<!-- Generator: Adobe Illustrator 21.1.0, SVG Export Plug-In . SVG Version: 6.00 Build 0)  -->
<svg version="1.1" id="Layer_1" xmlns="http://www.w3.org/2000/svg" xmlns:xlink="http://www.w3.org/1999/xlink" x="0px" y="0px"
	 viewBox="0 0 922 922" style="enable-background:new 0 0 922 922;" xml:space="preserve">
<style type="text/css">
	.st0{fill:#A7D18B;stroke:#000000;stroke-width:4;}
	.st1{fill:#9AAAB4;stroke:#000000;stroke-width:2;}
	.st2{fill:#00A3DE;}
	.st3{fill:#FFFFFF;}
	.st4{fill:#FFCD4E;}
	.st5{fill:none;stroke:#000000;stroke-width:4;}
	.st6{fill:#666D72;}
	.st7{fill:#78B354;stroke:#000000;stroke-width:2;}
	.st8{fill:#FFCD4E;stroke:#000000;stroke-width:2;}
	.st9{fill:#DE3045;stroke:#000000;stroke-width:2;}
	.st10{fill:#010101;}
	.st11{fill:#4473B9;}
	.st12{fill:#F15F5E;}
	.st13{fill:#76CABB;}
	.st14{fill:#3459A8;}
	.st15{fill:#DDDDDC;}
	.st16{fill:#75CFE6;}
	.st17{fill:#DCDCC9;}
	.st18{fill:#244665;}
</style>
<title>bp-logo</title>
<desc>Created with Sketch.</desc>
<g id="Page-1">
	<g id="bp-logo">
		<g id="logo" transform="translate(73.000000, 196.000000)">
			<g id="Layer_1_1_">
				<g id="Group" transform="translate(42.766773, 355.992712)">
					<path id="Shape" class="st0" d="M1.9,41.5c-3.1,2.5-0.5,5.6-0.5,5.6l25,30.7c0,0,2.5,3.1,5.6,0.5l49.2-40
						c3.1-2.5,0.5-5.6,0.5-5.6L56.7,2c0,0-2.5-3.1-5.6-0.5L1.9,41.5z"/>
					
						<rect id="Rectangle-path" x="33.6" y="16.2" transform="matrix(0.7759 -0.6308 0.6308 0.7759 -15.0859 35.5886)" class="st1" width="17.9" height="45.7"/>
					<path id="Shape_1_" d="M33.2,51.8c-3.7-4.6-12,2.6-14.1-0.2c-1.1-1.3-0.3-3.1,1.1-4.3c2.5-2.1,4.3-0.8,5.4-1.8
						c0.8-0.7,0.8-1.4,0.3-2.1c-1.1-1.3-3.8-0.7-6,0.5l-1-1.3c-0.7-0.8-1.8-0.9-2.6-0.2c-0.8,0.7-0.9,1.8-0.2,2.6l1.1,1.3
						c-1.6,2.2-2.3,5-0.4,7.4c3.6,4.4,11.8-2.6,14.4,0.4c0.9,1.1,0.5,3.1-1.3,4.6c-2.9,2.3-5.4,1.2-6.6,2.1
						c-0.5,0.4-0.7,1.3-0.1,2.1c0.9,1.1,3.9,1,6.9-0.8l1.2,1.4c0.7,0.8,1.8,0.9,2.6,0.2s0.9-1.8,0.2-2.6l-1.2-1.4
						C34.8,57.7,35.5,54.5,33.2,51.8z"/>
				</g>
				<g id="Group_1_" transform="translate(167.777342, 362.564885)">
					<g transform="translate(180.936349, 63.531007)">
					</g>
					<path id="Combined-Shape" class="st2" d="M298.8,14.3h-156v145.4h38.7V103c0-21.5,17.5-39,39-39s39,17.5,39,39v56.7h39.3V14.3z
						 M341.5,14.3h-28.4v145.4h28.4V14.3z M373.4,14.3h-17.7v145.4h17.7V14.3z M416,14.3h-28.4v145.4H416V14.3z M430.3,14.3v145.4
						h3.4c3.9,0,7.1,3.2,7.1,7.1c0,3.9-3.2,7.1-7.1,7.1H7.8c-3.9,0-7.1-3.2-7.1-7.1c0-3.9,3.2-7.1,7.1-7.1h3.5V14.3H7.8
						c-3.9,0-7.1-3.2-7.1-7.1s3.2-7.1,7.1-7.1h425.9c3.9,0,7.1,3.2,7.1,7.1s-3.2,7.1-7.1,7.1H430.3z M54,14.3H25.6v145.4H54V14.3z
						 M85.9,14.3H68.2v145.4h17.7C85.9,159.7,85.9,14.3,85.9,14.3z M128.5,14.3h-28.4v145.4h28.4V14.3z M245.5,159.7V103
						c0-13.7-11.2-24.9-24.9-24.9s-24.9,11.2-24.9,24.9v56.7H245.5z"/>
				</g>
				<g id="capitol-top" transform="translate(202.771444, 1.095362)">
					<path id="Shape_2_" class="st2" d="M14.1,250.2c-3.8,0-7.2-2.8-7.7-6.8L0,186.2c-0.2-2,0.3-4.1,1.6-5.7
						c1.3-1.6,3.1-2.6,5.2-2.8l343.6-38.3c2-0.2,4.1,0.3,5.7,1.6s2.6,3.1,2.9,5.1l6.4,57.2c0.4,4.2-2.5,8-6.8,8.4L15,250.1
						C14.7,250.2,14.5,250.2,14.1,250.2z M16.2,192l4.7,42l328.2-36.7l-4.7-42l-72.6,8.1 M89.4,183.8L16.2,192l0,0"/>
					
						<rect id="Rectangle" x="94" y="154" transform="matrix(0.9945 -0.1045 0.1045 0.9945 -17.2394 19.974)" class="st3" width="176" height="41"/>
					<path id="Shape_3_" class="st2" d="M167,59.4c-2.5,0-4.8-2-5-4.6l-5.4-48.3c-0.3-2.8,1.8-5.4,4.5-5.7c2.9-0.3,5.4,1.8,5.7,4.5
						l5.4,48.3c0.3,2.8-1.8,5.4-4.5,5.7C167.3,59.4,167.1,59.4,167,59.4z"/>
					<g id="Group_2_" transform="translate(79.050627, 46.005212)">
						<path id="Shape_4_" class="st2" d="M6.4,153.8L1.2,108C-4.7,54.8,33.8,6.6,87.1,0.7c25.9-2.8,51.2,4.5,71.5,20.7
							s33.1,39.3,36,65.2l5.2,45.8l-15.2,1.8l-5.2-45.8c-2.4-21.7-13.2-41.2-30.3-54.9S110.5,13.6,88.8,16
							C44,21,11.5,61.6,16.6,106.5l5.2,45.8L6.4,153.8z"/>
					</g>
					<polygon id="Shape_5_" class="st3" points="164.1,28.8 161.5,6 197.2,13.6 					"/>
					<path id="Shape_6_" class="st2" d="M164.1,34c-0.9,0-1.8-0.2-2.5-0.7c-1.4-0.8-2.4-2.3-2.5-3.8l-2.5-22.9
						c-0.2-1.6,0.4-3.3,1.6-4.4s2.9-1.5,4.5-1.2l35.6,7.6c2.2,0.4,3.7,2.2,4.1,4.4c0.2,2.2-1,4.3-3,5.3l-33.1,15.2
						C165.6,33.8,164.9,34,164.1,34z M167.4,12.5l1,8.8l12.7-5.8L167.4,12.5z"/>
					<path id="Shape_7_" class="st2" d="M48.5,246.3c-1.8,0-3.4-0.5-4.8-1.6c-1.6-1.3-2.6-3.1-2.9-5.1l-2.5-22.9
						c-0.4-3.5,1.6-6.8,4.9-8L176.8,159c1.2-0.4,2.4-0.5,3.7-0.4l141.2,18.8c3.5,0.4,6.3,3.3,6.6,6.8l2.5,22.9
						c0.2,2-0.3,4.1-1.6,5.7c-1.3,1.6-3.1,2.6-5.2,2.8L49.2,246.3H48.5z M54.3,220.8l1,9.3l259.6-28.9l-1-9.3l-133.5-18L54.3,220.8z
						"/>
				</g>
				<g id="confetti" transform="translate(0.000000, 13.190546)">
					<path id="Shape_8_" class="st2" d="M102.6,237.1c0,0.7-0.2,1.3-0.4,2c-1.3,3.5-5.3,5.3-8.8,3.8C68.5,233.2,28.3,223,17,230.6
						c-1.3,0.9-2.6,2.2-2.6,5.5c0,6.4,13.4,6.9,13.6,6.9c3.7,0,6.8,3.1,6.8,6.8c-0.1,3.8-3.1,6.8-6.8,6.8c-9.4,0-27.2-4.4-27.1-20.5
						c0-7.2,3-12.9,8.6-16.6c21.3-14.5,77.9,6.5,89,10.8C101.2,231.4,102.9,234.3,102.6,237.1z"/>
					<path id="Shape_9_" class="st2" d="M164.7,192.5c0.8,2.5,0.7,5.4-0.7,7.9c-4.2,8-9.8,14-16.3,17.2c-6.9,3.4-14.5,3.4-20.7,0.2
						c-11.1-5.7-17.2-21.4-7.5-40.2c3.7-7.3,2.6-11.7,1.5-12.3s-5.4,1-9.1,8.3c-4.2,8-9.8,14-16.3,17.2c-6.9,3.4-14.5,3.4-20.7,0.2
						c-11.1-5.7-17.2-21.4-7.5-40.2c2.7-5.4,2.7-8.8,2.4-10.3c-0.2-1.2-0.7-1.9-1-2c-1.1-0.5-5.4,1-9.1,8.3c-2.6,5-8.9,7.1-13.9,4.5
						s-7.1-8.9-4.5-13.9c9.6-18.9,26-23,37.1-17.3s17.2,21.4,7.5,40.2c-2.7,5.4-2.7,8.8-2.4,10.3c0.2,1.2,0.7,1.9,1,2
						c1.1,0.5,5.4-1,9.1-8.4c9.8-18.8,26-23,37.1-17.3s17.2,21.4,7.5,40.2c-2.7,5.4-2.7,8.8-2.4,10.3c0.2,1.2,0.7,1.9,1,2
						c1.1,0.5,5.4-1,9.1-8.3c2.6-5,8.9-7.1,13.9-4.5C162.1,187.7,163.8,190,164.7,192.5z"/>
					<path id="Shape_10_" class="st2" d="M650.6,170.2c-1.4-0.5-2.7-1.5-3.4-3.1c-2.2-4.7-3-9.4-2.2-13.5c0.9-4.4,3.5-7.8,7.2-9.5
						c6.5-3.1,15.8-0.4,21.1,10.7c2.1,4.3,4.5,5.4,5.2,5s1.4-2.8-0.7-7.1c-2.2-4.7-3-9.4-2.2-13.5c0.9-4.4,3.5-7.9,7.2-9.5
						c6.5-3.1,15.8-0.4,21.1,10.7c1.5,3.2,3.1,4.4,3.8,4.7s1.1,0.3,1.3,0.2c0.7-0.3,1.4-2.8-0.7-7.1c-1.4-3-0.1-6.6,2.9-8
						s6.6-0.1,8,2.8c5.3,11.1,1.4,20-5,23.1c-6.5,3.1-15.8,0.4-21.1-10.7c-1.5-3.2-3.1-4.3-3.8-4.7c-0.7-0.3-1.1-0.3-1.3-0.2
						c-0.7,0.3-1.4,2.8,0.7,7.1c5.3,11.1,1.4,20-5,23.1s-15.8,0.4-21.1-10.7c-1.5-3.2-3.1-4.3-3.8-4.7c-0.7-0.3-1.1-0.3-1.3-0.2
						c-0.7,0.3-1.4,2.8,0.7,7.1c1.4,3,0.1,6.6-2.9,8C653.8,170.7,652.1,170.7,650.6,170.2z"/>
					<path id="Shape_11_" class="st2" d="M121.8,482.4c-1.3,0.8-3,1-4.5,0.5c-5-1.3-9.1-3.8-11.7-7.1c-2.7-3.5-3.7-7.8-2.6-11.7
						c1.9-6.9,10-12.3,21.8-9.1c4.6,1.2,6.9,0.1,7.1-0.7c0.2-0.7-1.2-2.8-5.8-4.2c-5-1.3-9.1-3.8-11.7-7.1
						c-2.7-3.5-3.7-7.8-2.6-11.7c1.9-6.9,10-12.3,21.8-9.1c3.4,0.9,5.3,0.4,6.1,0.1c0.7-0.3,1-0.5,1-0.8c0.2-0.7-1.2-2.8-5.8-4.2
						c-3.2-0.9-5-4.2-4.3-7.3c0.9-3.2,4.2-5,7.3-4.3c11.8,3.2,16.2,11.8,14.4,18.8c-1.9,6.9-10,12.3-21.8,9.1
						c-3.4-0.9-5.3-0.4-6.1-0.1c-0.7,0.3-1,0.5-1,0.8c-0.2,0.7,1.2,2.8,5.8,4.2c11.8,3.2,16.2,11.8,14.4,18.8
						c-1.9,6.9-10,12.3-21.8,9.1c-3.4-0.9-5.3-0.4-6.1-0.1c-0.7,0.3-1,0.5-1,0.8c-0.2,0.7,1.2,2.8,5.8,4.2c3.2,0.9,5,4.2,4.3,7.3
						C124.2,480.3,123.1,481.6,121.8,482.4z"/>
					<path id="Shape_12_" class="st2" d="M641.3,341.7c13-8.2,24.8-4.8,29.6,2.8c4.8,7.7,2.9,19.6-10.2,27.8c-5,3.2-5.9,6.4-5.5,7.1
						c0.5,0.8,3.7,1.3,8.8-1.9c13-8.2,24.8-4.8,29.6,2.8c4.8,7.7,2.9,19.6-10.2,27.8c-5,3.2-5.9,6.4-5.5,7.1
						c0.4,0.8,3.7,1.3,8.8-1.9c3.5-2.2,8.1-1.2,10.4,2.3c2.2,3.5,1.2,8.1-2.4,10.4c-13,8.2-24.8,4.8-29.6-2.8
						c-4.8-7.7-2.9-19.6,10.2-27.8c5-3.2,5.9-6.4,5.5-7.1c-0.4-0.8-3.7-1.3-8.8,1.9c-13,8.2-24.8,4.8-29.6-2.8
						c-4.8-7.7-2.9-19.6,10.2-27.8c5-3.2,5.9-6.4,5.5-7.1c-0.5-0.8-3.7-1.3-8.8,1.9c-3.5,2.2-8.1,1.2-10.4-2.3
						C636.7,348.5,637.7,343.9,641.3,341.7z"/>
					<path id="Shape_13_" class="st2" d="M625.6,232.3c-2.7-0.3-5.3-1.9-6.9-4.4c-2.7-4.4-1.4-10.2,3-12.9
						c2.2-1.4,55.2-33.7,122.5-16c5,1.3,8,6.5,6.7,11.5s-6.5,8-11.5,6.7C680,201.5,632.2,230.7,631.7,231
						C629.8,232.1,627.6,232.5,625.6,232.3z"/>
					<ellipse id="Oval" class="st2" cx="589.3" cy="165.4" rx="7.8" ry="7.8"/>
					<ellipse id="Oval_1_" class="st2" cx="211" cy="21.6" rx="20.7" ry="20.7"/>
					<ellipse id="Oval_2_" class="st2" cx="735.8" cy="356.2" rx="12.3" ry="12.3"/>
					<ellipse id="Oval_3_" class="st2" cx="627.9" cy="444.5" rx="15.6" ry="15.6"/>
					<ellipse id="Oval_4_" class="st2" cx="252.9" cy="69.7" rx="8.7" ry="8.7"/>
					<ellipse id="Oval_5_" class="st2" cx="599.1" cy="37" rx="15.6" ry="15.6"/>
					<ellipse id="Oval_6_" class="st2" cx="45" cy="290" rx="15.6" ry="15.6"/>
					<ellipse id="Oval_7_" class="st2" cx="220.1" cy="119.8" rx="15.6" ry="15.6"/>
				</g>
				<g id="Shape_14_">
					<g>
						<path id="path-1_1_" class="st4" d="M632.2,136.2c-0.5-0.1-1-0.3-1.3-0.7c-0.8-0.8-0.9-2-0.3-2.9l19.9-29.2l-27.8-3.5
							c-1-0.1-1.8-0.8-2-1.8c-0.3-1,0.2-2,1-2.5l56.1-37.5c0.4-0.4,1.1-0.4,1.6-0.4c0.5,0.1,1,0.3,1.3,0.7c0.8,0.8,0.9,2,0.3,2.9
							l-19.9,29.2L689,94c1,0.1,1.8,0.8,2,1.8c0.3,1-0.2,2-1,2.5l-56.1,37.5C633.3,136.1,632.8,136.2,632.2,136.2z"/>
					</g>
					<g>
						<path id="path-1_2_" class="st5" d="M632.2,136.2c-0.5-0.1-1-0.3-1.3-0.7c-0.8-0.8-0.9-2-0.3-2.9l19.9-29.2l-27.8-3.5
							c-1-0.1-1.8-0.8-2-1.8c-0.3-1,0.2-2,1-2.5l56.1-37.5c0.4-0.4,1.1-0.4,1.6-0.4c0.5,0.1,1,0.3,1.3,0.7c0.8,0.8,0.9,2,0.3,2.9
							l-19.9,29.2L689,94c1,0.1,1.8,0.8,2,1.8c0.3,1-0.2,2-1,2.5l-56.1,37.5C633.3,136.1,632.8,136.2,632.2,136.2z"/>
					</g>
				</g>
				<g id="Group_3_" transform="translate(109.658393, 54.768109)">
					<g id="Shape_15_">
						<g>
							<path id="path-3_1_" class="st6" d="M63.7,43c2.7,3.2,2.4,8-0.8,10.8L48.5,66.4c-3.2,2.7-8,2.4-10.9-0.8l-35-40.4
								c-2.7-3.2-2.4-8,0.8-10.8L17.9,1.9c3.2-2.7,8-2.4,10.9,0.8L63.7,43z"/>
						</g>
						<g>
							<path id="path-3_2_" class="st5" d="M63.7,43c2.7,3.2,2.4,8-0.8,10.8L48.5,66.4c-3.2,2.7-8,2.4-10.9-0.8l-35-40.4
								c-2.7-3.2-2.4-8,0.8-10.8L17.9,1.9c3.2-2.7,8-2.4,10.9,0.8L63.7,43z"/>
						</g>
					</g>
					
						<ellipse id="Oval_8_" transform="matrix(0.7549 -0.6558 0.6558 0.7549 -21.3187 43.0886)" class="st7" cx="47" cy="50.1" rx="7.7" ry="7.7"/>
					
						<ellipse id="Oval_9_" transform="matrix(0.7549 -0.6558 0.6558 0.7549 -14.248 30.1193)" class="st8" cx="33.2" cy="34.1" rx="7.7" ry="7.7"/>
					
						<ellipse id="Oval_10_" transform="matrix(0.7549 -0.6558 0.6558 0.7549 -7.2367 17.2198)" class="st9" cx="19.4" cy="18.3" rx="7.7" ry="7.7"/>
				</g>
				<g id="Group_4_" transform="translate(687.558126, 269.459099)">
					
						<rect id="Rectangle-path_1_" x="5.3" y="27.8" transform="matrix(0.2551 -0.9669 0.9669 0.2551 -5.1719 51.5871)" class="st10" width="51.2" height="2.7"/>
					<polygon id="Shape_16_" class="st3" points="81.7,68.4 3.9,47.9 14.5,8.2 74.8,24.1 84.8,48.7 					"/>
					
						<rect id="Rectangle-path_2_" x="40.6" y="17.1" transform="matrix(0.2551 -0.9669 0.9669 0.2551 -23.3552 84.2663)" class="st11" width="4.9" height="80.4"/>
					
						<rect id="Rectangle-path_3_" x="44.9" y="1" transform="matrix(0.2551 -0.9669 0.9669 0.2551 -4.3064 75.0909)" class="st12" width="3.3" height="78.7"/>
					<g transform="translate(3.289752, 30.574779)">
						
							<rect id="Rectangle-path_4_" x="1.9" y="3.6" transform="matrix(0.2551 -0.9669 0.9669 0.2551 -1.6199 11.7718)" class="st12" width="9.9" height="6.6"/>
						<path id="Shape_17_" class="st10" d="M8.3,13.9L2,12.3c-0.8-0.2-1.2-1-1-1.6l2.5-9.5c0.2-0.8,1-1.2,1.6-1l6.4,1.6
							c0.8,0.2,1.2,1,1,1.6L10,12.9C9.9,13.7,9.1,14.1,8.3,13.9z M4.1,10l3.7,1l1.8-7L5.9,3L4.1,10z"/>
					</g>
					<path id="Shape_18_" class="st10" d="M80.9,71.2L1.6,50.3c-0.8-0.2-1.2-1-1-1.6l2.5-9.5c0.2-0.8,1-1.2,1.6-1H5l8-30.3
						c0.2-0.8,1-1.2,1.6-1L75,22.8c0.4,0.1,0.8,0.4,0.9,0.8l10.4,24.8c0.1,0.3,0.1,0.5,0.1,0.9L83.8,59H84c0.8,0.2,1.2,1,1,1.6
						l-2.5,9.5C82.5,71,81.7,71.4,80.9,71.2z M3.6,48.1l76.7,20.3l1.9-6.9L82,61.4c-0.8-0.2-1.2-1-1-1.6l2.9-10.6l-10-23.8L15.5,10
						l-8,30.3c-0.2,0.8-1,1.2-1.6,1l-0.2-0.1L3.6,48.1z"/>
					<polygon id="Shape_19_" class="st13" points="77.9,31.7 63.6,27.9 62.9,43 85.2,48.9 					"/>
					<polygon id="Shape_20_" class="st3" points="74.7,30.9 71.5,30 78.8,47.2 82,48.1 					"/>
					<path id="Shape_21_" class="st10" d="M84.8,50.2l-22.3-5.8c-0.7-0.1-1-0.8-1-1.3L62,28c0-0.4,0.2-0.8,0.5-1s0.8-0.3,1.2-0.2
						L78,30.5c0.4,0.1,0.8,0.4,0.9,0.8l7.3,17.2c0.2,0.4,0.1,1-0.2,1.4C85.9,50.2,85.3,50.4,84.8,50.2z M64.4,42l18.4,4.8l-6-14
						l-12-3.2L64.4,42z"/>
					<g transform="translate(32.897518, 19.716519)">
						
							<rect id="Rectangle-path_5_" x="4.8" y="1.9" transform="matrix(0.2551 -0.9669 0.9669 0.2551 -1.508 19.9548)" class="st13" width="14.8" height="18.1"/>
						
							<rect id="Rectangle-path_6_" x="8.8" y="10.3" transform="matrix(0.2551 -0.9669 0.9669 0.2551 0.4787 24.5943)" class="st3" width="14.8" height="3.3"/>
						<path id="Shape_22_" class="st10" d="M18.6,21.7L1.2,17.1c-0.8-0.2-1.2-1-1-1.6L3.9,1.2c0.2-0.8,1-1.2,1.6-1L23,4.8
							c0.8,0.2,1.2,1,1,1.6l-3.7,14.2C20.2,21.5,19.4,21.9,18.6,21.7z M3.3,14.9l14.8,3.9l3.1-11.6L6.4,3.3L3.3,14.9z"/>
					</g>
					<g transform="translate(7.676088, 13.144346)">
						
							<rect id="Rectangle-path_7_" x="5.4" y="2" transform="matrix(0.2551 -0.9669 0.9669 0.2551 -1.0956 20.5951)" class="st13" width="14.8" height="18.1"/>
						
							<rect id="Rectangle-path_8_" x="9.2" y="10.4" transform="matrix(0.2551 -0.9669 0.9669 0.2551 0.6994 25.0745)" class="st3" width="14.8" height="3.3"/>
						<path id="Shape_23_" class="st10" d="M19.2,21.8L1.1,17c-0.8-0.2-1.2-1-1-1.6L3.8,1.1c0.2-0.8,1-1.2,1.6-1l18.1,4.8
							c0.8,0.2,1.2,1,1,1.6l-3.7,14.2C20.7,21.6,20,22,19.2,21.8z M3.1,14.8l15.5,4.1l3.1-11.6L6.1,3.2L3.1,14.8z"/>
					</g>
					<path id="Shape_24_" class="st10" d="M11.6,44.5l-6.4-1.6c-0.8-0.2-1.2-1-1-1.6c0.2-0.8,1-1.2,1.6-1l6.4,1.6
						c0.8,0.2,1.2,1,1,1.6C13.2,44.3,12.4,44.7,11.6,44.5z"/>
					<path id="Shape_25_" class="st10" d="M83,63.3l-6.4-1.6c-0.8-0.2-1.2-1-1-1.6c0.2-0.8,1-1.2,1.6-1l6.4,1.6c0.8,0.2,1.2,1,1,1.6
						C84.5,63.1,83.8,63.5,83,63.3z"/>
					<path id="Shape_26_" class="st10" d="M60.9,57.4l-33.3-8.8c-0.8-0.2-1.2-1-1-1.6c0.2-0.8,1-1.2,1.6-1l33.3,8.8
						c0.8,0.2,1.2,1,1,1.6C62.3,57.2,61.5,57.6,60.9,57.4z"/>
					<path id="Shape_27_" class="st10" d="M76.4,49.7c-0.8-0.2-1.2-1-1-1.6l1.2-4.7c0.2-0.8,1-1.2,1.6-1c0.8,0.2,1.2,1,1,1.6
						L78,48.7C78,49.5,77.2,49.9,76.4,49.7z"/>
					<path id="Shape_28_" class="st10" d="M58.4,20.7c-0.2,0-0.3-0.1-0.4-0.3l-6.4-8c-0.3-0.4-0.2-1,0.1-1.3c0.4-0.3,1-0.2,1.3,0.1
						l6.4,8c0.3,0.4,0.2,1-0.1,1.3S58.7,20.8,58.4,20.7z"/>
					<path id="Shape_29_" class="st10" d="M50.6,18.6c-0.2,0-0.3-0.1-0.4-0.3l-6.4-8c-0.3-0.4-0.2-1,0.1-1.3c0.4-0.3,1-0.2,1.3,0.1
						l6.4,8c0.3,0.4,0.2,1-0.1,1.3C51.1,18.7,50.8,18.7,50.6,18.6z"/>
					<path id="Shape_30_" class="st10" d="M52.1,12.7c-0.2-0.1-0.4-0.2-0.5-0.4c-0.2-0.4-0.1-1,0.3-1.2l4.9-2.8
						c0.4-0.2,1-0.1,1.2,0.3c0.2,0.4,0.1,1-0.3,1.2l-4.9,2.8C52.5,12.8,52.3,12.8,52.1,12.7z"/>
					<path id="Shape_31_" class="st10" d="M44.2,10.6c-0.2-0.1-0.4-0.2-0.5-0.4c-0.2-0.4-0.1-1,0.3-1.2l4.9-2.8
						c0.4-0.2,1-0.1,1.2,0.3s0.1,1-0.3,1.2l-4.9,2.8C44.6,10.7,44.4,10.7,44.2,10.6z"/>
					<path id="Shape_32_" class="st10" d="M68.9,12.9l-41-10.8C27.4,2,27.1,1.4,27.2,1s0.7-0.8,1.1-0.7l41,10.8
						c0.4,0.1,0.8,0.7,0.7,1.1C69.9,12.8,69.4,13.1,68.9,12.9z"/>
				</g>
				<g id="Group_5_" transform="translate(457.275500, 0.000000)">
					<polygon id="Shape_33_" class="st13" points="79.6,45.9 16.1,19.8 33.4,4.7 78,23 					"/>
					<polygon id="Shape_34_" class="st3" points="73.3,43.3 70.1,42 71.6,20.4 74.8,21.7 					"/>
					<path id="Shape_35_" class="st12" d="M41.5,3.4l-1.6,3.8l31.8,13l1.6-3.8c0.5-1.3-0.1-3-1.4-3.5L45,2C43.5,1.4,42,2.1,41.5,3.4
						z"/>
					<path id="Shape_36_" class="st14" d="M71.6,20.4l-12.7-5.3l2.6-6.4l10.2,4.2c1.3,0.5,2,2.1,1.4,3.5L71.6,20.4z"/>
					
						<rect id="Rectangle-path_9_" x="53.6" y="7.2" transform="matrix(0.3806 -0.9247 0.9247 0.3806 25.5213 59.3864)" class="st3" width="6.9" height="6.9"/>
					<path id="Shape_37_" class="st3" d="M83.3,54.9l-6.8,16.5c-0.5,1.3-2.1,2-3.5,1.4L1.8,43.5c-1.3-0.5-2-2.1-1.4-3.5l6.8-16.5
						l9-3.7L79.8,46L83.3,54.9z"/>
					
						<rect id="Rectangle-path_10_" x="36.2" y="15.9" transform="matrix(0.3806 -0.9247 0.9247 0.3806 -26.1654 69.6856)" class="st15" width="5.5" height="77"/>
					<polygon id="Shape_38_" class="st15" points="83.3,54.9 7.1,23.6 16.1,19.8 79.6,45.9 					"/>
					<path id="Shape_39_" class="st10" d="M76.7,26.2l-0.2,18.5l3.7,9l-6.6,15.9l-70-28.7L10.2,25l9-3.7L32.1,8L76.7,26.2L76.7,26.2
						z M78.1,22.8L33.6,4.5c-1.4-0.5-3-0.2-4.1,0.9L17.1,18.1l-8.2,3.4c-0.9,0.3-1.6,1.1-2,2L0.3,39.3c-0.8,1.9,0.1,4.1,2,4.8
						l70,28.7c1.9,0.8,4.1-0.1,4.8-2L83.7,55c0.3-0.9,0.3-1.9,0-2.8L80.3,44l0.2-17.7C80.4,24.6,79.4,23.3,78.1,22.8L78.1,22.8z"/>
					<g id="Shape_40_" transform="translate(9.869255, 25.193330)">
						<path class="st16" d="M11.2,9.5L11.2,9.5c-0.3,0.9-1.4,1.3-2.3,1L2.6,8c-0.9-0.3-1.3-1.4-1-2.3l1.2-3.1c0.3-0.9,1.4-1.3,2.3-1
							L8.3,3C11.1,3.9,12.3,7,11.2,9.5z"/>
						<path class="st10" d="M8.4,11.6L2.2,9.1c-1.5-0.7-2.3-2.4-1.7-4L1.7,2c0.7-1.5,2.4-2.3,3.9-1.6l3.2,1.3c3.2,1.3,4.7,5,3.4,8.2
							C11.7,11.5,10,12.3,8.4,11.6z M4.8,2.7C4.5,2.6,4.1,2.7,4,3L2.9,6.1c-0.1,0.3,0,0.7,0.3,0.8l6.3,2.5c0.3,0.1,0.7,0,0.8-0.3
							c0.8-2-0.1-4.3-2.1-5L4.8,2.7z"/>
					</g>
					<g id="Shape_41_" transform="translate(77.857459, 40.528401)">
						<path class="st10" d="M8.6,6.9L8.6,6.9C8.3,7.6,7.6,7.8,7,7.6L2.9,5.8C2.2,5.6,2,4.8,2.2,4.3l0.9-2c0.2-0.7,1-0.9,1.5-0.7
							l2.1,0.9C8.4,3.2,9.3,5.1,8.6,6.9z"/>
						<path class="st10" d="M6.6,8.7L2.4,6.9c-1.2-0.5-1.9-2-1.3-3.2l0.9-2c0.5-1.2,2-1.9,3.2-1.3l2.1,0.9c2.3,1,3.5,3.6,2.5,6
							C9.2,8.5,7.8,9.2,6.6,8.7z M7.5,6.5L7.5,6.5l1.1,0.4L7.5,6.5z M3.4,4.7l4.1,1.6C7.9,5.2,7.4,4,6.3,3.5L4.2,2.6L3.4,4.7z"/>
					</g>
					<g id="Shape_42_" transform="translate(8.772671, 12.048984)">
						<path class="st10" d="M1.4,4.1L1.4,4.1c-0.2,0.7,0,1.3,0.7,1.5l4.2,1.8c0.7,0.2,1.3,0,1.5-0.7l0.9-2C8.9,4,8.7,3.4,8,3.2
							L5.9,2.3C4.2,1.4,2.1,2.3,1.4,4.1z"/>
						<path class="st10" d="M5.7,8.4L1.5,6.7c-1.2-0.5-1.9-2-1.3-3.2c1-2.3,3.6-3.5,6-2.5l2.1,0.9c1.2,0.5,1.9,2,1.3,3.2L8.8,7
							C8.4,8.3,7,8.9,5.7,8.4z M1.4,4.1l1.1,0.4l0,0L1.4,4.1z M2.5,4.5l4.1,1.6l0.8-2L5.3,3.3C4.3,2.8,3.1,3.4,2.5,4.5z"/>
					</g>
					<g id="Shape_43_" transform="translate(63.601868, 48.195936)">
						<path class="st16" d="M2,4.8L2,4.8c-0.3,0.9,0.1,2,1,2.3l6.3,2.5c0.9,0.3,2-0.1,2.3-1l1.2-3.1c0.3-0.9-0.1-2-1-2.3L8.6,2
							C6,1,3.1,2.3,2,4.8z"/>
						<path class="st10" d="M8.7,10.8L2.4,8.3C0.9,7.7,0.1,5.9,0.8,4.4C2.1,1.2,5.8-0.3,9,1l3.2,1.3c1.5,0.7,2.3,2.4,1.6,3.9
							l-1.2,3.1C12,10.7,10.2,11.5,8.7,10.8z M8.1,3.2c-2-0.8-4.3,0.1-5,2.1C3,5.6,3.1,5.9,3.4,6l6.3,2.5c0.3,0.1,0.7,0,0.8-0.3
							l1.2-3.1c0.1-0.3,0-0.7-0.3-0.8L8.1,3.2z"/>
					</g>
					<path id="Shape_44_" class="st10" d="M17.3,43.9L11,41.3c-0.7-0.2-0.9-1-0.7-1.6s1-0.9,1.6-0.7l6.4,2.6c0.7,0.2,0.9,1,0.7,1.6
						C18.6,43.8,18,44.1,17.3,43.9z"/>
					<path id="Shape_45_" class="st10" d="M68.2,64.7l-6.4-2.6c-0.7-0.2-0.9-1-0.7-1.6c0.2-0.7,1-0.9,1.6-0.7l6.4,2.6
						c0.7,0.2,0.9,1,0.7,1.6C69.6,64.7,68.8,65.1,68.2,64.7z"/>
					<g id="Shape_46_" transform="translate(24.124847, 30.670141)">
						<path class="st17" d="M5.3,2l-3,7c-0.5,1.3,0.1,3,1.4,3.5l26.9,11.1c1.3,0.5,3-0.1,3.5-1.4l3-7L5.3,2z"/>
						<path class="st10" d="M30.2,24.6l-26.9-11c-2-0.8-3-3.1-2.1-5l3-7C4.4,1,5.2,0.8,5.8,1l31.8,13c0.7,0.2,0.9,1,0.7,1.6l-3,7
							C34.4,24.5,32.1,25.5,30.2,24.6z M5.9,3.6L3.5,9.5c-0.3,0.8,0,1.5,0.8,1.9l26.9,11.1c0.8,0.3,1.5,0,1.9-0.8l2.4-5.9L5.9,3.6z"
							/>
					</g>
					<path id="Shape_47_" class="st10" d="M79.2,47.1L15.6,20.9c-0.7-0.2-0.9-1-0.7-1.6c0.2-0.7,1-0.9,1.6-0.7l63.6,26.2
						c0.7,0.2,0.9,1,0.7,1.6C80.5,47,79.8,47.3,79.2,47.1z"/>
					<path id="Shape_48_" class="st10" d="M71.2,21.5l-31.8-13c-0.7-0.2-0.9-1-0.7-1.6L40.4,3c0.8-2,3.1-3,5-2.1L72.3,12
						c2,0.8,3,3.1,2.1,5l-1.6,3.8C72.5,21.5,71.7,21.7,71.2,21.5z M41.5,6.6L71,18.8l1-2.8c0.3-0.8,0-1.5-0.8-1.9l-26.8-11
						c-0.8-0.3-1.5,0-1.9,0.8L41.5,6.6z"/>
					<g transform="translate(1.096584, 43.814488)">
						
							<rect id="Rectangle-path_11_" x="4.5" y="1.3" transform="matrix(0.3806 -0.9247 0.9247 0.3806 -1.0214 11.3691)" class="st10" width="6.9" height="10.3"/>
						<path id="Shape_49_" class="st10" d="M11,12.8L1.4,8.9c-0.7-0.2-0.9-1-0.7-1.6l2.6-6.4C3.6,0.2,4.4,0,5,0.2l9.5,3.9
							c0.7,0.2,0.9,1,0.7,1.6l-2.6,6.4C12.3,12.7,11.6,13,11,12.8z M3.5,7l7.2,3l1.6-4.1L5.2,3L3.5,7z"/>
					</g>
					<g transform="translate(55.829197, 65.721731)">
						
							<rect id="Rectangle-path_12_" x="3.8" y="1.7" transform="matrix(0.3806 -0.9247 0.9247 0.3806 -1.7888 10.96)" class="st10" width="6.9" height="10.3"/>
						<path id="Shape_50_" class="st10" d="M10.3,13L0.8,9.1c-0.7-0.2-0.9-1-0.7-1.6l2.6-6.4c0.2-0.7,1-0.9,1.6-0.7l9.5,3.9
							c0.7,0.2,0.9,1,0.7,1.6l-2.6,6.4C11.6,13,10.8,13.4,10.3,13z M2.8,7.3l7.2,3l1.6-4.1l-7.2-3L2.8,7.3z"/>
					</g>
				</g>
			</g>
			<path id="Budget-Party" class="st18" d="M205.4,317.6c0,2.2-0.5,4.1-1.4,5.6s-2.2,2.9-3.8,3.9s-3.4,1.7-5.6,2.2
				c-2.1,0.5-4.4,0.7-6.7,0.7h-23.8v-48.5h28.1c1.7,0,3.2,0.4,4.6,1.1s2.5,1.7,3.5,2.8c1,1.2,1.7,2.5,2.2,4s0.8,3,0.8,4.5
				c0,2.3-0.6,4.5-1.7,6.5c-1.2,2.1-2.9,3.6-5.2,4.7c2.8,0.8,5,2.2,6.6,4.3C204.6,311.4,205.4,314.1,205.4,317.6z M191.9,314.8
				c0-1.2-0.3-2.2-1-3c-0.6-0.8-1.5-1.2-2.5-1.2h-11v8.1H188c1.1,0,2-0.3,2.8-1C191.5,317.1,191.9,316.1,191.9,314.8z M177.5,292.8
				v7.4h9.1c0.9,0,1.7-0.3,2.5-0.8s1.1-1.5,1.1-3c0-1.3-0.3-2.3-1-2.8c-0.6-0.6-1.4-0.9-2.3-0.9L177.5,292.8L177.5,292.8z
				 M221.8,330.7c-3.6,0-6.4-1.1-8.3-3.3s-2.9-5.4-2.9-9.7V294h13v20.7c0,1.6,0.4,2.8,1.1,3.7s1.7,1.3,2.9,1.3c1,0,2-0.2,3.1-0.7
				c1-0.5,2.1-1.5,3.1-3v-22h13v21.6c0,1.2,0.2,2.1,0.5,2.6s1,0.8,1.9,0.9V330c-2.2,0.5-4.1,0.7-5.5,0.7c-4.4,0-7-1.7-7.6-5
				l-0.3-1.3c-1.7,2.2-3.7,3.8-6,4.8S224.8,330.7,221.8,330.7z M270.5,330.7c-2.5,0-4.7-0.5-6.8-1.4c-2.1-0.9-3.9-2.2-5.4-3.9
				c-1.5-1.7-2.7-3.6-3.5-5.9s-1.3-4.8-1.3-7.6c0-2.6,0.4-5.1,1.2-7.4s1.9-4.2,3.2-5.9c1.4-1.7,3-3,5-3.9c1.9-0.9,4-1.4,6.4-1.4
				c2.3,0,4.5,0.5,6.4,1.6c1.9,1,3.4,2.5,4.5,4.4V280h13v35.5c0,1.2,0.2,2.1,0.5,2.6c0.4,0.5,1,0.8,1.9,0.9v11
				c-2.2,0.5-4.1,0.7-5.5,0.7c-4.4,0-7-1.7-7.6-5l-0.3-1.3c-1.2,2.2-2.9,3.8-5,4.8S272.9,330.7,270.5,330.7z M274.1,319.7
				c2.4,0,4.4-1.2,6.1-3.7v-6.4c-0.6-1.6-1.6-2.9-2.8-3.9s-2.5-1.5-3.9-1.5c-1,0-1.8,0.2-2.6,0.6c-0.8,0.4-1.5,1-2,1.7
				c-0.6,0.7-1,1.6-1.4,2.5c-0.3,1-0.5,2-0.5,3.1c0,2.3,0.6,4.1,1.9,5.5S271.9,319.7,274.1,319.7z M315.7,330
				c-2.3,0-4.5-0.5-6.4-1.4s-3.6-2.2-5-3.8s-2.4-3.5-3.2-5.7c-0.8-2.2-1.1-4.6-1.1-7.1c0-2.7,0.4-5.2,1.2-7.4c0.8-2.3,2-4.2,3.4-5.9
				c1.5-1.6,3.2-2.9,5.3-3.9c2-0.9,4.3-1.4,6.8-1.4c2.6,0,4.9,0.5,6.8,1.5c2,1,3.5,2.5,4.6,4.5V294h11.3v32.7c0,2.8-0.5,5.4-1.6,7.7
				c-1,2.3-2.5,4.2-4.4,5.8c-1.9,1.6-4.2,2.8-6.9,3.7s-5.7,1.3-8.9,1.3c-3.8,0-7.1-0.6-10-1.8c-2.8-1.2-5.3-2.9-7.5-5.1l6.8-7.1
				c1.3,1.2,2.9,2.3,4.7,3.1c1.8,0.8,3.8,1.3,5.9,1.3c1.2,0,2.3-0.2,3.4-0.5s2-0.8,2.8-1.5s1.5-1.6,1.9-2.8c0.5-1.1,0.7-2.5,0.7-4.1
				v-2.3c-1,1.9-2.5,3.3-4.5,4.2C320.1,329.5,318,330,315.7,330z M320.3,319.7c1.3,0,2.5-0.3,3.4-0.9c1-0.6,1.9-1.5,2.8-2.8v-6.4
				c-0.6-1.6-1.6-2.9-2.8-3.9c-1.3-1-2.6-1.4-3.9-1.4c-0.9,0-1.8,0.2-2.6,0.6c-0.8,0.4-1.5,1-2.1,1.7s-1,1.5-1.4,2.5s-0.5,2-0.5,3.1
				c0,2.2,0.7,4,2,5.4S318.3,319.7,320.3,319.7z M364.7,330.7c-3.1,0-5.9-0.5-8.4-1.5s-4.5-2.3-6.2-4s-2.9-3.6-3.8-5.8
				c-0.9-2.2-1.3-4.5-1.3-6.9c0-2.6,0.4-5.1,1.3-7.4c0.8-2.3,2.1-4.4,3.8-6.1s3.7-3.1,6.1-4.1s5.3-1.5,8.5-1.5s6,0.5,8.5,1.5
				s4.5,2.4,6.2,4.1s2.9,3.7,3.8,5.9c0.8,2.3,1.3,4.6,1.3,7.1c0,0.7,0,1.4-0.1,2.1s-0.1,1.3-0.2,1.9H359c0.1,1.9,0.8,3.3,2.1,4.1
				s2.7,1.3,4.2,1.3c1.4,0,2.7-0.3,4-1s2.1-1.5,2.5-2.7l11,3.1c-1.5,2.9-3.7,5.2-6.7,7C372.8,329.8,369.1,330.7,364.7,330.7z
				 M370.4,308.2c-0.2-1.7-0.9-3.1-1.9-4.1s-2.4-1.5-4-1.5s-3,0.5-4,1.5s-1.7,2.4-1.9,4.1H370.4z M414.3,328
				c-1.8,0.8-3.8,1.4-5.8,1.9c-2.1,0.5-4.1,0.8-6.1,0.8c-1.5,0-2.8-0.2-4.2-0.5c-1.3-0.4-2.5-1-3.4-1.8c-1-0.8-1.8-1.9-2.3-3.2
				c-0.6-1.3-0.9-3-0.9-4.9v-16.5h-4.4V294h4.4v-11.3h13V294h7v9.8h-7v11.9c0,1.2,0.3,2,0.8,2.5s1.2,0.7,2,0.7
				c0.6,0,1.4-0.1,2.2-0.3c0.8-0.2,1.6-0.5,2.5-0.9L414.3,328z M436.2,330v-48.5h20.9c2.4,0,4.6,0.5,6.6,1.5s3.7,2.3,5.2,3.8
				s2.6,3.4,3.4,5.4s1.2,4.1,1.2,6.1c0,2.1-0.4,4.2-1.2,6.3c-0.8,2-1.9,3.8-3.2,5.4s-3.1,2.8-5.1,3.8s-4.2,1.4-6.5,1.4h-7.9V330
				H436.2z M449.5,303.5h7c0.8,0,1.6-0.4,2.3-1.1c0.7-0.8,1.1-2.1,1.1-4.1s-0.4-3.4-1.2-4.1c-0.8-0.7-1.6-1.1-2.5-1.1h-6.7
				L449.5,303.5L449.5,303.5z M488.8,330.7c-1.8,0-3.4-0.3-5-0.9c-1.5-0.6-2.9-1.4-4-2.4s-2-2.2-2.6-3.7c-0.6-1.4-1-2.9-1-4.6
				c0-1.8,0.4-3.5,1.2-5c0.8-1.5,1.8-2.8,3.2-3.9s3-1.9,4.9-2.5s4-0.9,6.2-0.9c2.9,0,5.3,0.5,7.2,1.4v-1.1c0-1.7-0.5-2.9-1.5-3.8
				c-1-0.8-2.6-1.2-4.7-1.2c-2,0-3.9,0.3-5.7,1c-1.7,0.7-3.6,1.6-5.5,2.9l-3.8-8.1c4.7-3.1,10.1-4.6,16.2-4.6
				c5.7,0,10.2,1.3,13.3,3.8s4.6,6.4,4.6,11.5v7c0,1.2,0.2,2.1,0.5,2.6s1,0.8,1.9,0.9V330c-1,0.2-2,0.4-3,0.5s-1.8,0.2-2.5,0.2
				c-2.3,0-4.1-0.4-5.3-1.3s-2-2.1-2.4-3.7l-0.3-1.3c-1.6,2.1-3.4,3.6-5.5,4.7C493.4,330.1,491.2,330.7,488.8,330.7z M492.7,321.4
				c0.8,0,1.6-0.1,2.4-0.4s1.5-0.6,2.2-1c0.5-0.4,0.9-0.8,1.2-1.2c0.3-0.4,0.5-0.9,0.5-1.3v-2.7c-0.8-0.3-1.6-0.5-2.5-0.7
				s-1.7-0.3-2.5-0.3c-1.6,0-2.9,0.4-4,1.2c-1,0.8-1.6,1.8-1.6,2.9c0,1,0.4,1.8,1.2,2.5C490.5,321.1,491.5,321.4,492.7,321.4z
				 M544.5,305.1c-2.5,0-4.8,0.3-6.8,0.8s-3.6,1.5-4.6,2.7V330h-13v-36H532v6.8c1.3-2.4,2.9-4.3,4.7-5.6c1.9-1.3,3.9-1.9,6.1-1.9
				c0.9,0,1.4,0,1.6,0.1v11.7H544.5z M574.7,328c-1.8,0.8-3.8,1.4-5.8,1.9s-4.1,0.8-6.1,0.8c-1.5,0-2.8-0.2-4.2-0.5
				c-1.3-0.4-2.5-1-3.4-1.8s-1.8-1.9-2.3-3.2c-0.6-1.3-0.9-3-0.9-4.9v-16.5h-4.4V294h4.4v-11.3h13V294h7v9.8h-7v11.9
				c0,1.2,0.3,2,0.8,2.5s1.2,0.7,2,0.7c0.6,0,1.4-0.1,2.2-0.3c0.8-0.2,1.6-0.5,2.5-0.9L574.7,328z M578.7,333.6
				c2.1,0.8,3.9,1.2,5.3,1.2c2.8,0,4.3-1.6,4.6-4.8l-13-35.9h13.3l6.8,24.9l5.5-24.9h12.1l-12.2,40.3c-0.5,1.8-1.3,3.4-2.3,4.8
				s-2.2,2.7-3.6,3.7c-1.4,1-2.9,1.8-4.6,2.4c-1.7,0.5-3.4,0.8-5.3,0.8c-2.3,0-4.6-0.4-6.7-1.3v-11.2H578.7z"/>
		</g>
	</g>
</g>
<g transform="translate(180.936349, 63.531007)">
</g>
</svg>
