<?xml version="1.0" encoding="UTF-8"?>
<svg width="7px" height="12px" viewBox="0 0 7 12" version="1.1" xmlns="http://www.w3.org/2000/svg" xmlns:xlink="http://www.w3.org/1999/xlink">
    <!-- Generator: Sketch 43.1 (39012) - http://www.bohemiancoding.com/sketch -->
    <title>Shape</title>
    <desc>Created with Sketch.</desc>
    <defs></defs>
    <g id="Page-1" stroke="none" stroke-width="1" fill="none" fill-rule="evenodd">
        <g id="service-budget-view" transform="translate(-87.000000, -564.000000)" fill="#FFFFFF">
            <g id="Prev-btn" transform="translate(68.000000, 552.000000)">
                <path d="M25.488082,17.3991011 L20.2023062,12.1134645 C20.1267096,12.0378679 20.0396969,12 19.9414074,12 C19.8431179,12 19.7561053,12.0378679 19.6805087,12.1134645 L19.1134645,12.6806479 C19.0377287,12.7562445 19,12.8431179 19,12.9415466 C19,13.0399754 19.0377287,13.1268488 19.1134645,13.2024454 L23.5711582,17.6601391 L19.1134645,22.1179719 C19.0377287,22.1935685 19,22.2805812 19,22.3787315 C19,22.4771602 19.0377287,22.5641729 19.1134645,22.6397695 L19.6805087,23.2066744 C19.7561053,23.2824102 19.8431179,23.3199997 19.9414074,23.3199997 C20.0396969,23.3199997 20.1267096,23.282271 20.2023062,23.2066744 L25.4879428,17.9210378 C25.5635394,17.8454412 25.6012681,17.7584286 25.6012681,17.6601391 C25.6012681,17.5618496 25.5636786,17.4748369 25.488082,17.3991011 L25.488082,17.3991011 Z" id="Shape" transform="translate(22.300634, 17.660000) rotate(180.000000) translate(-22.300634, -17.660000) "></path>
            </g>
        </g>
    </g>
</svg>