<?xml version="1.0" encoding="UTF-8"?>
<svg width="24px" height="24px" viewBox="0 0 24 24" version="1.1" xmlns="http://www.w3.org/2000/svg" xmlns:xlink="http://www.w3.org/1999/xlink">
    <!-- Generator: Sketch 42 (36781) - http://www.bohemiancoding.com/sketch -->
    <title>back-btn</title>
    <desc>Created with Sketch.</desc>
    <defs></defs>
    <g id="Page-1" stroke="none" stroke-width="1" fill="none" fill-rule="evenodd">
        <g id="service-overview" transform="translate(-20.000000, -20.000000)" fill="#244665">
            <g id="service-page-top-nav">
                <g id="back-btn" transform="translate(20.000000, 20.000000)">
                    <path d="M22.3909479,5.97650669 C21.3179268,4.13808314 19.8623004,2.68245673 18.0238769,1.60943568 C16.1850698,0.536414633 14.1776861,0 12.0003836,0 C9.82327276,0 7.8153138,0.536414633 5.97689025,1.60943568 C4.13827492,2.68226495 2.68264851,4.13789136 1.60962746,5.97650669 C0.536414633,7.81512202 0,9.82308098 0,12 C0,14.1771108 0.536606415,16.1846862 1.60943568,18.0234933 C2.68245673,19.8617251 4.13808314,21.3175433 5.97669847,22.3905643 C7.8153138,23.4635854 9.82308098,24 12.0001918,24 C14.1773026,24 16.1852615,23.4635854 18.0236851,22.3905643 C19.8621086,21.3177351 21.3177351,19.8619169 22.3907561,18.0234933 C23.4635854,16.184878 24,14.176919 24,12 C24,9.8228892 23.4635854,7.81493024 22.3909479,5.97650669 L22.3909479,5.97650669 Z M15.7970945,16.796663 C15.9950137,16.9945822 16.0943568,17.2291317 16.0943568,17.4999281 C16.0943568,17.7707245 15.9950137,18.005274 15.7970945,18.2030014 L14.2030014,19.7970945 C14.0054658,19.9950137 13.771108,20.0939732 13.5003116,20.0937815 C13.2293235,20.0937815 12.9949657,19.9946301 12.7968548,19.7969027 L5.70321715,12.7028815 C5.50529798,12.5049624 5.4063384,12.2706046 5.4063384,11.9998082 C5.4063384,11.7290118 5.50529798,11.4944623 5.70321715,11.2967349 L12.7968548,4.2029055 C12.9949657,4.00498634 13.2293235,3.90602675 13.5003116,3.90602675 C13.771108,3.90602675 14.0054658,4.00498634 14.2030014,4.2029055 L15.7970945,5.79699861 C15.9950137,5.99491777 16.0943568,6.22927554 16.0943568,6.50007192 C16.0943568,6.77086829 15.9950137,7.00541785 15.7970945,7.20314523 L11.0002397,12 L15.7970945,16.796663 L15.7970945,16.796663 Z" id="Shape"></path>
                </g>
            </g>
        </g>
    </g>
</svg>