<?xml version="1.0" encoding="UTF-8"?>
<svg width="16px" height="13px" viewBox="0 0 16 13" version="1.1" xmlns="http://www.w3.org/2000/svg" xmlns:xlink="http://www.w3.org/1999/xlink">
    <!-- Generator: Sketch 42 (36781) - http://www.bohemiancoding.com/sketch -->
    <title>Shape</title>
    <desc>Created with Sketch.</desc>
    <defs></defs>
    <g id="Page-1" stroke="none" stroke-width="1" fill="none" fill-rule="evenodd">
        <g id="services-path-view" transform="translate(-345.000000, -81.000000)" fill="#7ED321">
            <g id="intro-tab" transform="translate(0.000000, 64.000000)">
                <g id="development-+-Development-Mask">
                    <path d="M359.307167,17.2900642 C359.114584,17.0966457 358.880443,17 358.605252,17 C358.329933,17 358.095793,17.0966457 357.903209,17.2900642 L351.131625,24.0969717 L348.096791,21.0405522 C347.90408,20.8471337 347.670066,20.750488 347.394875,20.750488 C347.119557,20.750488 346.885543,20.8471337 346.692833,21.0405522 L345.289002,22.4495444 C345.096292,22.6429629 345,22.8778374 345,23.1541677 C345,23.4303709 345.096292,23.6653724 345.289002,23.8586638 L349.025752,27.6091518 L350.429709,29.018144 C350.622293,29.2115625 350.856307,29.3082082 351.131625,29.3082082 C351.406816,29.3082082 351.64083,29.2114354 351.83354,29.018144 L353.237498,27.6091518 L360.710998,20.1081758 C360.903582,19.9147573 361,19.6798828 361,19.4035525 C361.000127,19.1273493 360.903582,18.8924749 360.710998,18.6990564 L359.307167,17.2900642 Z" id="Shape"></path>
                </g>
            </g>
        </g>
    </g>
</svg>