<?xml version="1.0" encoding="UTF-8"?>
<svg width="24px" height="24px" viewBox="0 0 24 24" version="1.1" xmlns="http://www.w3.org/2000/svg" xmlns:xlink="http://www.w3.org/1999/xlink">
    <!-- Generator: Sketch 43.1 (39012) - http://www.bohemiancoding.com/sketch -->
    <title>Shape</title>
    <desc>Created with Sketch.</desc>
    <defs></defs>
    <g id="Page-1" stroke="none" stroke-width="1" fill="none" fill-rule="evenodd">
        <g id="Explain-your-spending" transform="translate(-331.000000, -20.000000)" fill="#244665">
            <g id="top-nav">
                <path d="M353.390948,25.9765067 C352.317927,24.1380831 350.8623,22.6824567 349.023877,21.6094357 C347.18507,20.5364146 345.177686,20 343.000384,20 C340.823273,20 338.815314,20.5364146 336.97689,21.6094357 C335.138275,22.6822649 333.682649,24.1378914 332.609627,25.9765067 C331.536415,27.815122 331,29.823081 331,32 C331,34.1771108 331.536606,36.1846862 332.609436,38.0234933 C333.682457,39.8617251 335.138083,41.3175433 336.976698,42.3905643 C338.815314,43.4635854 340.823081,44 343.000192,44 C345.177303,44 347.185262,43.4635854 349.023685,42.3905643 C350.862109,41.3177351 352.317735,39.8619169 353.390756,38.0234933 C354.463585,36.184878 355,34.176919 355,32 C355,29.8228892 354.463585,27.8149302 353.390948,25.9765067 L353.390948,25.9765067 Z M348.656422,34.8280194 C348.854341,35.0257468 348.953493,35.2604881 348.953493,35.5312845 C348.953493,35.8124371 348.854341,36.0521647 348.656422,36.2498921 L347.250276,37.6562305 C347.052357,37.8541497 346.812821,37.9531093 346.531476,37.9531093 C346.26068,37.9531093 346.025939,37.8541497 345.828403,37.6562305 L343.000192,34.8280194 L340.171981,37.6562305 C339.974061,37.8541497 339.739704,37.9531093 339.468907,37.9531093 C339.187563,37.9531093 338.948027,37.8541497 338.750108,37.6562305 L337.343769,36.2498921 C337.14585,36.0521647 337.046891,35.8124371 337.046891,35.5312845 C337.046891,35.2604881 337.14585,35.0257468 337.343769,34.8280194 L340.171981,32 L337.343769,29.1717888 C337.14585,28.9740615 337.046891,28.7395119 337.046891,28.4687155 C337.046891,28.1873711 337.14585,27.9478353 337.343769,27.7499161 L338.750108,26.3437695 C338.948027,26.1458503 339.187563,26.0468907 339.468907,26.0468907 C339.739704,26.0468907 339.974061,26.1458503 340.171981,26.3437695 L343.000192,29.1717888 L345.828403,26.3437695 C346.025939,26.1458503 346.26068,26.0468907 346.531476,26.0468907 C346.812821,26.0468907 347.052357,26.1458503 347.250276,26.3437695 L348.656422,27.7499161 C348.854341,27.9478353 348.953493,28.1873711 348.953493,28.4687155 C348.953493,28.7395119 348.854341,28.9740615 348.656422,29.1717888 L345.828403,32 L348.656422,34.8280194 L348.656422,34.8280194 Z" id="Shape"></path>
            </g>
        </g>
    </g>
</svg>