<?xml version="1.0" encoding="UTF-8"?>
<svg width="14px" height="17px" viewBox="0 0 14 17" version="1.1" xmlns="http://www.w3.org/2000/svg" xmlns:xlink="http://www.w3.org/1999/xlink">
    <!-- Generator: Sketch 42 (36781) - http://www.bohemiancoding.com/sketch -->
    <title>Shape</title>
    <desc>Created with Sketch.</desc>
    <defs></defs>
    <g id="Page-1" stroke="none" stroke-width="1" fill="none" fill-rule="evenodd">
        <g id="services-path-view" transform="translate(-346.000000, -510.000000)" fill="#9B9B9B">
            <g id="public-safety-tab" transform="translate(0.000000, 496.000000)">
                <path d="M358.852491,21.6385965 C358.639018,21.4251228 358.37993,21.3184561 358.074807,21.3184561 L357.709193,21.3184561 L357.709193,19.122807 C357.709193,17.7201404 357.206035,16.5157895 356.19986,15.5094737 C355.193544,14.5031579 353.989193,14 352.586386,14 C351.183579,14 349.979088,14.5031579 348.972912,15.5094737 C347.966596,16.5157895 347.463579,17.7201404 347.463579,19.122807 L347.463579,21.3184561 L347.097684,21.3184561 C346.792842,21.3184561 346.533614,21.4251228 346.32014,21.6385965 C346.106667,21.8519298 346,22.1111579 346,22.4162807 L346,29.002807 C346,29.3076491 346.106667,29.5668772 346.32014,29.7803509 C346.533614,29.9936842 346.792842,30.1004912 347.097684,30.1004912 L358.075088,30.1004912 C358.380211,30.1004912 358.639298,29.9938246 358.852772,29.7803509 C359.066105,29.5668772 359.172912,29.3076491 359.172912,29.002807 L359.172912,22.4161404 C359.173053,22.1112982 359.066105,21.8520702 358.852491,21.6385965 L358.852491,21.6385965 Z M355.513684,21.3184561 L349.659088,21.3184561 L349.659088,19.122807 C349.659088,18.314807 349.944982,17.6248421 350.516772,17.053193 C351.088561,16.4814035 351.778386,16.1956491 352.586526,16.1956491 C353.394667,16.1956491 354.084491,16.4814035 354.65614,17.053193 C355.227789,17.6248421 355.513684,18.314807 355.513684,19.122807 L355.513684,21.3184561 L355.513684,21.3184561 Z" id="Shape"></path>
            </g>
        </g>
    </g>
</svg>