<?xml version="1.0" encoding="UTF-8"?>
<svg width="168px" height="140px" viewBox="0 0 168 140" version="1.1" xmlns="http://www.w3.org/2000/svg" xmlns:xlink="http://www.w3.org/1999/xlink">
    <!-- Generator: Sketch 42 (36781) - http://www.bohemiancoding.com/sketch -->
    <title>logo</title>
    <desc>Created with Sketch.</desc>
    <defs></defs>
    <g id="Page-1" stroke="none" stroke-width="1" fill="none" fill-rule="evenodd">
        <g id="services-path-view" transform="translate(0.000000, -64.000000)">
            <g id="intro-tab" transform="translate(0.000000, 64.000000)">
                <g id="development-+-Development-Mask">
                    <g id="logo" transform="translate(70.000000, 68.500000) rotate(24.000000) translate(-70.000000, -68.500000) translate(-37.000000, -1.000000)">
                        <g id="Layer_1" transform="translate(0.000000, 0.000000)">
                            <g id="capitol-building" transform="translate(45.235772, 6.965418)">
                                <g id="capitol-bottom" transform="translate(0.983789, 72.037664)">
                                    <g id="Group" transform="translate(49.844625, 17.505020)"></g>
                                    <path d="M82.319153,3.95371999 L39.3319403,3.95371999 L39.3319403,44.003998 L49.9956691,44.003998 L49.9956691,28.3702045 C49.9956691,22.454715 54.8290872,17.6257441 60.7500245,17.6257441 C66.6709617,17.6257441 71.5043799,22.454715 71.5043799,28.3702045 L71.5043799,44.003998 L82.319153,44.003998 L82.319153,3.95371999 Z M94.0704009,3.95371999 L86.2463053,3.95371999 L86.2463053,44.003998 L94.0704009,44.003998 L94.0704009,3.95371999 Z M102.86118,3.95371999 L97.9975532,3.95371999 L97.9975532,44.003998 L102.86118,44.003998 L102.86118,3.95371999 Z M114.612428,3.95371999 L106.788332,3.95371999 L106.788332,44.003998 L114.612428,44.003998 L114.612428,3.95371999 Z M118.53958,3.95371999 L118.53958,44.003998 L119.476055,44.003998 C120.563574,44.003998 121.439631,44.879249 121.439631,45.9657675 C121.439631,47.0522859 120.563574,47.9275369 119.476055,47.9275369 L2.14482931,47.9275369 C1.05731022,47.9275369 0.181253181,47.0522859 0.181253181,45.9657675 C0.181253181,44.879249 1.05731022,44.003998 2.14482931,44.003998 L3.11151294,44.003998 L3.11151294,3.95371999 L2.14482931,3.95371999 C1.05731022,3.95371999 0.181253181,3.078469 0.181253181,1.99195053 C0.181253181,0.905432058 1.05731022,0.0301810686 2.14482931,0.0301810686 L119.476055,0.0301810686 C120.563574,0.0301810686 121.439631,0.905432058 121.439631,1.99195053 C121.439631,3.078469 120.563574,3.95371999 119.476055,3.95371999 L118.53958,3.95371999 Z M14.8627608,3.95371999 L7.03866519,3.95371999 L7.03866519,44.003998 L14.8627608,44.003998 L14.8627608,3.95371999 Z M23.6535401,3.95371999 L18.7899131,3.95371999 L18.7899131,44.003998 L23.6535401,44.003998 L23.6535401,3.95371999 Z M35.404788,3.95371999 L27.5806924,3.95371999 L27.5806924,44.003998 L35.404788,44.003998 L35.404788,3.95371999 Z M67.6376454,44.003998 L67.6376454,28.3702045 C67.6376454,24.5975709 64.5563413,21.5191019 60.7802334,21.5191019 C57.0041254,21.5191019 53.9228213,24.5975709 53.9228213,28.3702045 L53.9228213,44.003998 L67.6376454,44.003998 Z" id="Combined-Shape" fill="#00A3DE" fill-rule="nonzero"></path>
                                </g>
                                <g id="capitol-top" transform="translate(7.172457, 0.301811)" fill-rule="nonzero">
                                    <path d="M77.1549628,42.5128458 L99.5133133,40.1682092 C100.452359,40.069735 101.25639,40.6966035 101.346058,41.5478093 L102.634544,53.7791753 C102.724053,54.6288692 102.069869,55.4101839 101.129237,55.5088244 L7.6805501,65.3084387 C6.74144003,65.4069197 5.93737488,64.7800429 5.84770775,63.9288488 L4.559222,51.6974828 C4.47099026,50.8599145 5.14173441,50.0646037 6.07017438,49.9672416 L28.2667664,47.6395681 L27.891446,44.076719 L5.69485406,46.4043926 C2.82372485,46.7054772 0.689541467,49.2360086 0.98828768,52.0719533 L2.27677343,64.3033193 C2.5767002,67.1504709 5.17183369,69.1737259 8.05587042,68.8712878 L101.504558,59.0716735 C104.393362,58.7687354 106.50488,56.2468748 106.205478,53.4047048 L104.916992,41.1733388 C104.617067,38.3261989 102.021987,36.3029265 99.1379929,36.6053601 L76.7796425,38.9499967 L77.1549628,42.5128458 Z" id="Rectangle" fill="#00A3DE"></path>
                                    <path d="M49.4560579,16.3581392 C48.761254,16.3581392 48.1268679,15.8148799 48.0664502,15.0905343 L46.5862159,1.78068305 C46.4955893,0.995975263 47.0695577,0.301810686 47.8247793,0.21126748 C48.6102097,0.120724274 49.3050136,0.694164578 49.3956402,1.44869129 L50.8758745,14.7585425 C50.9665011,15.5432503 50.3925327,16.2374149 49.6373111,16.3279581 C49.5466845,16.3581392 49.4862667,16.3581392 49.4560579,16.3581392 Z" id="Shape" fill="#00A3DE"></path>
                                    <g id="Group" transform="translate(25.228549, 12.676049)">
                                        <path d="M52.89572,36.6398173 L51.4759034,24.0241306 C49.9654602,10.4728308 37.7610794,0.754526715 24.1972997,2.26358014 C10.63352,3.77263357 0.906265905,15.9959664 2.41670908,29.5170851 L3.83652566,42.1327718" id="Shape"></path>
                                        <path d="M1.75211408,42.3742203 L0.332297498,29.7585336 C-1.29898113,15.0905343 9.30432996,1.81086412 23.9858376,0.181086412 C31.1151294,-0.603621372 38.0933769,1.41851022 43.6820166,5.88530838 C49.2706564,10.3521065 52.8050934,16.720312 53.5905238,23.8430442 L55.0103404,36.4587309 L50.8113084,36.941628 L49.3914918,24.3259413 C48.7268968,18.3500897 45.7664282,12.9778595 41.0538455,9.20522592 C36.3412628,5.43259235 30.4505344,3.74245251 24.4691794,4.40643601 C12.1137543,5.79476517 3.17193067,16.9617605 4.56153839,29.3359987 L5.98135497,41.9516853 L1.75211408,42.3742203 Z" id="Shape" fill="#00A3DE"></path>
                                    </g>
                                    <polygon id="Shape" points="48.6706274 7.93762104 47.9456147 1.65995877 57.7634953 3.74245251"></polygon>
                                    <path d="M48.6706274,9.35613126 C48.4289565,9.35613126 48.1872856,9.29576913 47.9758236,9.17504485 C47.5831083,8.96377737 47.3112286,8.54124241 47.2810197,8.11870745 L46.5862159,1.81086412 C46.5257981,1.35814809 46.7070513,0.905432058 47.0393488,0.603621372 C47.3716463,0.301810686 47.8247793,0.181086412 48.2779122,0.271629617 L58.0957928,2.35412335 C58.6999701,2.47484762 59.1228942,2.95774472 59.2135208,3.56136609 C59.2739385,4.16498747 58.941641,4.73842777 58.3978815,5.01005739 L49.2748047,9.20522592 C49.0633427,9.32595019 48.8820895,9.35613126 48.6706274,9.35613126 Z M49.5768933,3.44064182 L49.8487731,5.85512731 L53.3530013,4.25553067 L49.5768933,3.44064182 Z" id="Shape" fill="#00A3DE"></path>
                                    <path d="M16.8002764,67.8772233 C16.3169346,67.8772233 15.8638017,67.7263179 15.4710865,67.4245072 C15.0179535,67.0623344 14.7460737,66.5794373 14.685656,66.005997 L13.9908521,59.6981537 C13.8700167,58.7323595 14.4439851,57.8269274 15.350251,57.4949357 L52.1446467,43.8229116 C52.4769442,43.7021873 52.8092417,43.6720063 53.1717481,43.7021873 L92.0807643,48.8933311 C93.0474479,49.0140554 93.8026695,49.7987632 93.8932961,50.7645574 L94.5880999,57.0724007 C94.6485177,57.6156599 94.4974734,58.1891002 94.134967,58.6418163 C93.7724606,59.0945323 93.2891188,59.3661619 92.7151504,59.4265241 L17.0117385,67.8772233 L16.8002764,67.8772233 Z M18.4013462,60.8450343 L18.673226,63.4104251 L90.1776059,55.442623 L89.9057261,52.8772322 L53.1415392,47.9275369 L18.4013462,60.8450343 Z" id="Shape" fill="#00A3DE"></path>
                                </g>
                            </g>
                            <g id="confetti" transform="translate(0.000000, 3.320942)" fill-rule="nonzero" fill="#00A3DE">
                                <path d="M28.2754962,65.6427993 C28.2754962,65.8238857 28.2150785,66.0049721 28.1546608,66.1860585 C27.7921544,67.1518527 26.7046353,67.6347498 25.7379517,67.2423959 C18.8805397,64.5562808 7.79388678,61.7494415 4.68237384,63.8621163 C4.31986748,64.1035648 3.95736112,64.4657376 3.95736112,65.3711697 C3.95736112,67.1216717 7.64284246,67.272577 7.70326019,67.272577 C8.73036155,67.272577 9.57620973,68.1176469 9.57620973,69.1438033 C9.54600086,70.2001407 8.73036155,71.0150295 7.70326019,71.0150295 C5.10529793,71.0150295 0.211462044,69.8077868 0.241670908,65.3711697 C0.241670908,63.3792192 1.05731022,61.8098036 2.59796226,60.7836473 C8.45848178,56.7997462 24.0462553,62.5643303 27.1275594,63.7715731 C27.882781,64.0733837 28.335914,64.8580915 28.2754962,65.6427993 Z" id="Shape"></path>
                                <path d="M45.373713,53.3591044 C45.585175,54.053269 45.5549661,54.8379767 45.1924598,55.5321413 C44.044523,57.7353593 42.5038709,59.3953181 40.6913391,60.2705691 C38.7881807,61.2061822 36.7037691,61.2061822 34.9818639,60.3309312 C31.9307687,58.7615157 30.2390724,54.4456229 32.9276612,49.2544791 C33.9547626,47.2323475 33.6526739,46.0251047 33.3505853,45.8741994 C33.0484967,45.723294 31.870351,46.145829 30.8432496,48.1679606 C29.6953128,50.3711786 28.1546608,52.0311374 26.342129,52.9063884 C24.4389706,53.8420015 22.354559,53.8420015 20.6326538,52.9667505 C17.5815586,51.3973349 15.8898622,47.0814421 18.578451,41.8902983 C19.3336726,40.411426 19.3336726,39.4758128 19.243046,39.0532779 C19.1826283,38.7212861 19.0617929,38.5401997 18.9711663,38.5100186 C18.6690776,38.3591133 17.490932,38.7816483 16.4638306,40.8037799 C15.7388179,42.192109 14.0169127,42.7655493 12.6273049,42.0412037 C11.2376972,41.316858 10.6637288,39.5965371 11.3887415,38.208208 C14.0471215,32.9868831 18.5482422,31.8701836 21.5993374,33.4395991 C24.6504326,35.0090147 26.342129,39.3249075 23.6535401,44.5160513 C22.8983185,45.9949237 22.8983185,46.9305368 22.9889451,47.3530717 C23.0493628,47.6850635 23.1701983,47.8661499 23.2608249,47.896331 C23.5629135,48.0472363 24.7410592,47.6247014 25.7681606,45.5723887 C28.4567494,40.3812449 32.9276612,39.2343643 35.9787564,40.8037799 C39.0298516,42.3731954 40.721548,46.6890882 38.0329591,51.880232 C37.2777376,53.3591044 37.2777376,54.2947175 37.3683641,54.7172525 C37.4287819,55.0492442 37.5496173,55.2303306 37.6402439,55.2605117 C37.9423325,55.4114171 39.1204782,54.9888821 40.1475796,52.9667505 C40.8725923,51.5784213 42.5944975,51.004981 43.9841052,51.7293267 C44.6487002,52.0311374 45.1320421,52.6649398 45.373713,53.3591044 Z" id="Shape"></path>
                                <path d="M179.229187,47.2021664 C178.836472,47.0512611 178.473966,46.7796314 178.292712,46.3570965 C177.688535,45.0593105 177.477073,43.7615246 177.688535,42.644825 C177.930206,41.4375823 178.655219,40.5019692 179.68232,40.0190721 C181.464643,39.1740021 184.032396,39.8983478 185.482422,42.9768168 C186.05639,44.1538785 186.720985,44.4556892 186.902238,44.3651459 C187.083492,44.2746027 187.294954,43.5804382 186.720985,42.4033765 C186.116808,41.1055905 185.905346,39.8078046 186.116808,38.6911051 C186.358479,37.4838623 187.083492,36.5180681 188.110593,36.0653521 C189.892916,35.2202822 192.460669,35.9446278 193.910695,39.0230968 C194.333619,39.8983478 194.756543,40.2303396 194.968005,40.3208828 C195.149258,40.411426 195.270094,40.411426 195.330511,40.3812449 C195.511765,40.2907017 195.723227,39.5965371 195.149258,38.4194754 C194.756543,37.6045866 195.119049,36.6086113 195.934689,36.2162574 C196.750328,35.8239035 197.74722,36.1860764 198.139936,37.0009652 C199.589961,40.0492531 198.532651,42.5241008 196.750328,43.3691707 C194.968005,44.2142406 192.400252,43.489895 190.950226,40.411426 C190.527302,39.536175 190.104378,39.2343643 189.892916,39.11364 C189.711663,39.0230968 189.590827,39.0230968 189.53041,39.0532779 C189.349156,39.1438211 189.137694,39.8379857 189.711663,41.0150473 C191.161688,44.0633353 190.104378,46.5381829 188.322055,47.3832528 C186.539732,48.2283227 183.971979,47.5039771 182.521953,44.4255081 C182.099029,43.5502571 181.676105,43.2484464 181.464643,43.1277221 C181.28339,43.0371789 181.162554,43.0371789 181.102137,43.06736 C180.920883,43.1579032 180.709421,43.8520678 181.28339,45.0291295 C181.676105,45.8440183 181.313599,46.8399936 180.497959,47.2323475 C180.105244,47.3530717 179.652111,47.3530717 179.229187,47.2021664 Z" id="Shape"></path>
                                <path d="M176.661434,94.4657198 C180.256288,92.2021397 183.488637,93.1377528 184.817827,95.2504276 C186.147017,97.3631024 185.603257,100.652839 182.008403,102.916419 C180.618795,103.79167 180.377124,104.666921 180.497959,104.878188 C180.649004,105.089456 181.525061,105.240361 182.914668,104.36511 C186.509523,102.10153 189.741872,103.037143 191.071062,105.149818 C192.400252,107.262493 191.856492,110.552229 188.261637,112.81581 C186.87203,113.69106 186.630359,114.566311 186.751194,114.777579 C186.87203,114.988846 187.778295,115.139752 189.167903,114.264501 C190.134587,113.660879 191.403359,113.932509 192.037745,114.898303 C192.641923,115.864097 192.370043,117.131702 191.37315,117.765505 C187.778295,120.029085 184.545947,119.093472 183.216757,116.980797 C181.887567,114.868122 182.431327,111.578386 186.026181,109.314806 C187.415789,108.439555 187.65746,107.564304 187.536625,107.353036 C187.415789,107.141769 186.509523,106.990863 185.119915,107.866114 C181.525061,110.129694 178.292712,109.194081 176.963522,107.081406 C175.634332,104.968732 176.178092,101.678995 179.772947,99.4154151 C181.162554,98.5401641 181.404225,97.6649131 181.28339,97.4536456 C181.132346,97.2423781 180.256288,97.0914728 178.866681,97.9667238 C177.899997,98.5703451 176.631225,98.2987155 175.996839,97.3329213 C175.392661,96.3369461 175.664541,95.0693412 176.661434,94.4657198 Z" id="Shape"></path>
                                <path d="M172.341566,64.3148323 C171.586345,64.2242891 170.891541,63.8017541 170.438408,63.1075895 C169.683186,61.9003468 170.045693,60.3007502 171.254047,59.5462234 C171.858224,59.1538696 186.449105,50.2504543 204.997348,55.1397874 C206.386955,55.5019603 207.202595,56.9204705 206.840088,58.3087996 C206.477582,59.6971288 205.057765,60.5120176 203.668158,60.1498448 C187.294954,55.833952 174.123889,63.8621163 174.003054,63.9526595 C173.489503,64.2544701 172.885326,64.3751944 172.341566,64.3148323 Z" id="Shape"></path>
                                <ellipse id="Oval" cx="162.342432" cy="45.8741994" rx="2.14482931" ry="2.14285587"></ellipse>
                                <ellipse id="Oval" cx="58.1218534" cy="6.27663739" rx="5.7094752" ry="5.70422196"></ellipse>
                                <ellipse id="Oval" cx="202.701474" cy="98.4496209" rx="3.38339271" ry="3.38027968"></ellipse>
                                <ellipse id="Oval" cx="69.6616392" cy="19.5261265" rx="2.38650022" ry="2.38430442"></ellipse>
                                <ellipse id="Oval" cx="165.031021" cy="10.501987" rx="4.28965862" ry="4.28571174"></ellipse>
                                <ellipse id="Oval" cx="60.629189" cy="33.3188748" rx="4.28965862" ry="4.28571174"></ellipse>
                            </g>
                            <path d="M172.643655,40.050278 C172.462402,40.020097 172.311357,39.9597348 172.190522,39.8088295 C171.918642,39.5371999 171.888433,39.1146649 172.099895,38.8128542 L178.866681,28.8832826 L169.411306,27.706221 C169.079009,27.6760399 168.807129,27.4345913 168.746711,27.1025996 C168.656085,26.7706078 168.807129,26.4386161 169.079009,26.2575297 L188.171011,13.4909377 C188.322055,13.3702134 188.533517,13.3400323 188.71477,13.3702134 C188.896023,13.4003945 189.047068,13.4607566 189.167903,13.6116619 C189.439783,13.8832916 189.469992,14.3058265 189.25853,14.6076372 L182.491744,24.5372088 L191.947119,25.7142704 C192.279416,25.7444515 192.551296,25.9859001 192.611714,26.3178918 C192.70234,26.6498836 192.551296,26.9818753 192.279416,27.1629617 L173.217623,39.9295537 C173.006161,40.020097 172.824908,40.050278 172.643655,40.050278 Z" id="Shape" fill="#FFCD4E" fill-rule="nonzero"></path>
                            <g id="Group" transform="translate(30.208863, 15.090534)" fill-rule="nonzero">
                                <path d="M17.5513497,11.86116 C18.3065713,12.7364109 18.2159447,14.064378 17.3398876,14.8490857 L13.3523177,18.2897276 C12.4762606,19.0442543 11.1470706,18.9537111 10.3616402,18.0784601 L0.725012724,6.94164578 C-0.0302088635,6.06639479 0.060417727,4.73842777 0.936474768,3.95371999 L4.92404475,0.513078166 C5.80010179,-0.241448549 7.12929178,-0.150905343 7.91472224,0.724345646 L17.5513497,11.86116 Z" id="Shape" fill="#2A2F33"></path>
                                <ellipse id="Oval" fill="#78B354" transform="translate(12.935006, 13.802373) rotate(-40.981641) translate(-12.935006, -13.802373) " cx="12.9350064" cy="13.8023731" rx="2.11456509" ry="2.1126195"></ellipse>
                                <ellipse id="Oval" fill="#FFCD4E" transform="translate(9.151180, 9.407874) rotate(-40.981641) translate(-9.151180, -9.407874) " cx="9.15118008" cy="9.40787369" rx="2.11456509" ry="2.1126195"></ellipse>
                            </g>
                            <g id="Group" transform="translate(189.409574, 74.245429)" fill-rule="nonzero">
                                <rect id="Rectangle-path" fill="#010101" transform="translate(8.628881, 8.063799) rotate(-75.220275) translate(-8.628881, -8.063799) " x="1.57512478" y="7.5638013" width="14.1073391" height="0.754516008"></rect>
                                <polygon id="Shape" fill="#FFFFFF" points="22.5056033 18.8329868 1.08751909 13.189127 3.98756998 2.26358014 20.6024449 6.63983509 23.3514515 13.4305755"></polygon>
                                <rect id="Rectangle-path" fill="#4473B9" transform="translate(11.853106, 15.793265) rotate(14.779725) translate(-11.853106, -15.793265) " x="0.781714121" y="15.114207" width="22.1427827" height="1.35812881"></rect>
                                <rect id="Rectangle-path" fill="#F15F5E" transform="translate(12.828261, 11.173972) rotate(14.779725) translate(-12.828261, -11.173972) " x="1.98374029" y="10.6740062" width="21.6896562" height="0.90541921"></rect>
                                <g transform="translate(0.906266, 8.148889)">
                                    <rect id="Rectangle-path" fill="#F15F5E" transform="translate(1.873116, 2.199141) rotate(14.779725) translate(-1.873116, -2.199141) " x="0.966862641" y="0.84101173" width="1.81250609" height="2.71625763"></rect>
                                    <path d="M2.29587363,4.10462533 L0.543759543,3.6519093 C0.332297498,3.59154716 0.211462044,3.38027968 0.271879771,3.19919327 L0.966683632,0.573440303 C1.02710136,0.362172823 1.2385634,0.241448549 1.41981658,0.301810686 L3.17193067,0.754526715 C3.38339271,0.814888852 3.50422817,1.02615633 3.44381044,1.20724274 L2.74900658,3.83299571 C2.71879771,4.04426319 2.50733567,4.16498747 2.29587363,4.10462533 Z M1.11772795,3.01810686 L2.14482931,3.28973648 L2.65837999,1.38832916 L1.63127863,1.11669954 L1.11772795,3.01810686 Z" id="Shape" fill="#010101"></path>
                                </g>
                                <path d="M22.2941413,19.6176946 L0.453132952,13.8531105 C0.241670908,13.7927483 0.120835454,13.5814809 0.181253181,13.4003945 L0.876057041,10.7746415 C0.936474768,10.563374 1.14793681,10.4426497 1.32918999,10.5030119 L1.38960772,10.5331929 L3.59485476,2.17303694 C3.65527248,1.96176946 3.86673453,1.84104518 4.04798771,1.90140732 L20.6628626,6.27766227 C20.7836981,6.30784334 20.8743247,6.39838654 20.9045335,6.48892975 L23.7743756,13.3098512 C23.8045844,13.4003945 23.8045844,13.4607566 23.8045844,13.5512998 L23.0795717,16.2374149 L23.1399894,16.267596 C23.3514515,16.3279581 23.4722869,16.5392256 23.4118692,16.720312 L22.7170653,19.346065 C22.7170653,19.5573324 22.5056033,19.6780567 22.2941413,19.6176946 Z M0.996892495,13.2494891 L22.1128881,18.8329868 L22.6264388,16.9315795 L22.566021,16.9013984 C22.354559,16.8410363 22.2337235,16.6297688 22.2941413,16.4486824 L23.0795717,13.5211187 L20.3305651,6.97182684 L4.25944975,2.74647724 L2.05420272,11.1066332 C1.99378499,11.3179007 1.78232295,11.438625 1.60106977,11.3782629 L1.54065204,11.3480818 L0.996892495,13.2494891 Z" id="Shape" fill="#010101"></path>
                                <polygon id="Shape" fill="#76CABB" points="21.4482931 8.72232882 17.5211408 7.69617249 17.3398876 11.86116 23.4722869 13.4607566"></polygon>
                                <polygon id="Shape" fill="#FFFFFF" points="20.572236 8.51106134 19.696179 8.26961279 21.7201729 13.0080406 22.5962299 13.2494891"></polygon>
                                <path d="M23.3514515,13.8229294 L17.2190522,12.2233328 C17.037799,12.1931517 16.9471724,12.0120653 16.9471724,11.86116 L17.0982167,7.69617249 C17.0982167,7.57544822 17.1586345,7.48490501 17.2492611,7.42454287 C17.3398876,7.36418074 17.4607231,7.33399967 17.5815586,7.36418074 L21.5087108,8.39033707 C21.6295463,8.42051814 21.7201729,8.51106134 21.7503817,8.60160455 L23.7743756,13.3400323 C23.8347933,13.4607566 23.8045844,13.6116619 23.7139578,13.7323862 C23.6535401,13.8229294 23.5024958,13.8832916 23.3514515,13.8229294 Z M17.7326029,11.5593493 L22.8076919,12.8873163 L21.1462044,9.02413951 L17.8534383,8.14888852 L17.7326029,11.5593493 Z" id="Shape" fill="#010101"></path>
                                <g transform="translate(9.062659, 5.432592)">
                                    <rect id="Rectangle-path" fill="#76CABB" transform="translate(3.361585, 3.018415) rotate(-75.220275) translate(-3.361585, -3.018415) " x="1.32251558" y="0.52851188" width="4.0781387" height="4.97980565"></rect>
                                    <rect id="Rectangle-path" fill="#FFFFFF" transform="translate(4.495987, 3.323068) rotate(-75.220275) translate(-4.495987, -3.323068) " x="2.45683101" y="2.82307071" width="4.0781387" height="0.90541921"></rect>
                                    <path d="M5.13550679,5.97585158 L0.332297498,4.7082467 C0.120835454,4.64788456 -2.72289136e-13,4.43661708 0.060417727,4.25553067 L1.08751909,0.331991754 C1.14793681,0.120724274 1.35939886,6.4358241e-14 1.54065204,0.0603621372 L6.34386133,1.32796702 C6.55532338,1.38832916 6.67615883,1.59959664 6.61574111,1.78068305 L5.58863975,5.70422196 C5.55843088,5.91548944 5.34696884,6.03621372 5.13550679,5.97585158 Z M0.906265905,4.10462533 L4.98446248,5.1911438 L5.83031065,1.99195053 L1.75211408,0.905432058 L0.906265905,4.10462533 Z" id="Shape" fill="#010101"></path>
                                </g>
                                <g transform="translate(2.114620, 3.621728)">
                                    <rect id="Rectangle-path" fill="#76CABB" transform="translate(3.521372, 3.035515) rotate(-75.220275) translate(-3.521372, -3.035515) " x="1.48230234" y="0.545612473" width="4.0781387" height="4.97980565"></rect>
                                    <rect id="Rectangle-path" fill="#FFFFFF" transform="translate(4.626535, 3.332469) rotate(-75.220275) translate(-4.626535, -3.332469) " x="2.58737861" y="2.83247212" width="4.0781387" height="0.90541921"></rect>
                                    <path d="M5.28655111,6.00603265 L0.302088635,4.67806563 C0.0906265905,4.61770349 -0.0302088635,4.40643601 0.0302088635,4.2253496 L1.05731022,0.301810686 C1.11772795,0.0905432058 1.32918999,-0.0301810686 1.51044317,0.0301810686 L6.49490565,1.35814809 C6.7063677,1.41851022 6.82720315,1.6297777 6.76678542,1.81086412 L5.73968406,5.73440303 C5.7094752,5.94567051 5.49801316,6.06639479 5.28655111,6.00603265 Z M0.845848178,4.07444426 L5.10529793,5.1911438 L5.95114611,1.99195053 L1.69169636,0.875250989 L0.845848178,4.07444426 Z" id="Shape" fill="#010101"></path>
                                </g>
                                <path d="M3.20213953,12.2535138 L1.45002545,11.8007978 C1.2385634,11.7404357 1.11772795,11.5291682 1.17814568,11.3480818 C1.2385634,11.1368143 1.45002545,11.01609 1.63127863,11.0764522 L3.38339271,11.5291682 C3.59485476,11.5895303 3.71569021,11.8007978 3.65527248,11.9818842 C3.62506362,12.1931517 3.41360157,12.313876 3.20213953,12.2535138 Z" id="Shape" fill="#010101"></path>
                                <path d="M22.8681097,17.4446576 L21.1159956,16.9919416 C20.9045335,16.9315795 20.7836981,16.720312 20.8441158,16.5392256 C20.9045335,16.3279581 21.1159956,16.2072338 21.2972488,16.267596 L23.0493628,16.720312 C23.2608249,16.7806741 23.3816603,16.9919416 23.3212426,17.173028 C23.2910338,17.3842955 23.0795717,17.5050198 22.8681097,17.4446576 Z" id="Shape" fill="#010101"></path>
                                <path d="M16.7659192,15.8148799 L7.58242474,13.4003945 C7.37096269,13.3400323 7.25012724,13.1287648 7.31054497,12.9476784 C7.37096269,12.7364109 7.58242474,12.6156867 7.76367792,12.6760488 L16.9471724,15.0905343 C17.1586345,15.1508964 17.2794699,15.3621639 17.2190522,15.5432503 C17.1586345,15.7545178 16.9471724,15.8752421 16.7659192,15.8148799 Z" id="Shape" fill="#010101"></path>
                                <path d="M21.0555779,13.7022051 C20.8441158,13.641843 20.7232804,13.4305755 20.7836981,13.2494891 L21.1159956,11.9517032 C21.1764133,11.7404357 21.3878754,11.6197114 21.5691285,11.6800735 C21.7805906,11.7404357 21.901426,11.9517032 21.8410083,12.1327896 L21.5087108,13.4305755 C21.4785019,13.641843 21.2670399,13.7625673 21.0555779,13.7022051 Z" id="Shape" fill="#010101"></path>
                                <path d="M16.1013242,5.70422196 C16.0409065,5.70422196 16.0106977,5.67404089 15.9804888,5.61367876 L14.2283747,3.41046075 C14.1377481,3.28973648 14.167957,3.13883113 14.2585836,3.04828793 C14.379419,2.95774472 14.5304633,2.98792579 14.6210899,3.078469 L16.373204,5.281687 C16.4638306,5.40241128 16.4336217,5.55331662 16.3429952,5.64385983 C16.2523686,5.73440303 16.161742,5.73440303 16.1013242,5.70422196 Z" id="Shape" fill="#010101"></path>
                                <path d="M13.9262861,5.13078166 C13.8658683,5.13078166 13.8356595,5.10060059 13.8054506,5.04023845 L12.0533365,2.83702045 C11.9627099,2.71629617 11.9929188,2.56539083 12.0835454,2.47484762 C12.2043809,2.38430442 12.3554252,2.41448549 12.4460518,2.50502869 L14.1981658,4.7082467 C14.2887924,4.82897097 14.2585836,4.97987632 14.167957,5.07041952 C14.0773304,5.16096273 13.9867038,5.16096273 13.9262861,5.13078166 Z" id="Shape" fill="#010101"></path>
                                <path d="M14.3492102,3.50100396 C14.2887924,3.47082289 14.2283747,3.44064182 14.1981658,3.38027968 C14.1377481,3.25955541 14.167957,3.10865006 14.2887924,3.04828793 L15.6481913,2.26358014 C15.7690267,2.20321801 15.9200711,2.23339908 15.9804888,2.35412335 C16.0409065,2.47484762 16.0106977,2.62575297 15.8898622,2.6861151 L14.5304633,3.47082289 C14.4700456,3.53118503 14.4096279,3.53118503 14.3492102,3.50100396 Z" id="Shape" fill="#010101"></path>
                                <path d="M12.174172,2.92756365 C12.1137543,2.89738258 12.0533365,2.86720152 12.0231277,2.80683938 C11.9627099,2.6861151 11.9929188,2.53520976 12.1137543,2.47484762 L13.4731531,1.69013984 C13.5939886,1.6297777 13.7450329,1.65995877 13.8054506,1.78068305 C13.8658683,1.90140732 13.8356595,2.05231266 13.714824,2.1126748 L12.3554252,2.89738258 C12.2950074,2.95774472 12.2345897,2.95774472 12.174172,2.92756365 Z" id="Shape" fill="#010101"></path>
                                <path d="M18.9711663,3.56136609 L7.67305133,0.573440303 C7.55221587,0.543259235 7.46158928,0.392353892 7.49179815,0.271629617 C7.52200701,0.150905343 7.67305133,0.0603621372 7.79388678,0.0905432058 L19.0920017,3.078469 C19.2128372,3.10865006 19.3034638,3.25955541 19.2732549,3.38027968 C19.243046,3.53118503 19.1222106,3.62172823 18.9711663,3.56136609 Z" id="Shape" fill="#010101"></path>
                            </g>
                            <g id="Group" transform="translate(125.970961, 0.000000)" fill-rule="nonzero">
                                <polygon id="Shape" fill="#76CABB" points="21.9316349 12.6458677 4.44070293 5.46277341 9.21370337 1.29778595 21.4785019 6.3380244"></polygon>
                                <polygon id="Shape" fill="#FFFFFF" points="20.1795208 11.9215221 19.3034638 11.5593493 19.7263879 5.61367876 20.6024449 5.97585158"></polygon>
                                <path d="M11.4189504,0.935613126 L10.9658174,1.99195053 L19.7263879,5.58349769 L20.1795208,4.52716029 C20.3305651,4.16498747 20.149312,3.71227144 19.7868056,3.56136609 L12.385634,0.543259235 C11.9929188,0.392353892 11.5699947,0.573440303 11.4189504,0.935613126 Z" id="Shape" fill="#F15F5E"></path>
                                <path d="M19.7263879,5.61367876 L16.2221597,4.16498747 L16.9471724,2.41448549 L19.7565967,3.56136609 C20.1191031,3.71227144 20.3003563,4.1348064 20.149312,4.52716029 L19.7263879,5.61367876 Z" id="Shape" fill="#3459A8"></path>
                                <rect id="Rectangle-path" fill="#FFFFFF" transform="translate(15.720135, 2.924158) rotate(-67.628280) translate(-15.720135, -2.924158) " x="14.768591" y="1.97348902" width="1.90308841" height="1.9013374"></rect>
                                <path d="M22.9587363,15.1207154 L21.0857867,19.6780567 C20.9347424,20.0402295 20.5118183,20.221316 20.1191031,20.0704106 L0.483341816,11.9818842 C0.120835454,11.8309789 -0.060417727,11.4084439 0.0906265905,11.01609 L1.96357613,6.45874868 L4.44070293,5.43259235 L21.9618438,12.6458677 L22.9587363,15.1207154 Z" id="Shape" fill="#FFFFFF"></path>
                                <rect id="Rectangle-path" fill="#DDDDDC" transform="translate(10.723449, 14.987767) rotate(22.371720) translate(-10.723449, -14.987767) " x="0.120527469" y="14.2332677" width="21.2058423" height="1.50899793"></rect>
                                <polygon id="Shape" fill="#DDDDDC" points="22.9587363 15.1207154 1.96357613 6.48892975 4.44070293 5.46277341 21.9316349 12.6458677"></polygon>
                                <path d="M21.1159956,7.21327539 L21.0555779,12.313876 L22.0826792,14.7887236 L20.2701474,19.1649786 L0.996892495,11.2575386 L2.8094243,6.88128364 L5.28655111,5.85512731 L8.851197,2.20321801 L21.1159956,7.21327539 L21.1159956,7.21327539 Z M21.5087108,6.27766227 L9.24391223,1.23742381 C8.851197,1.08651847 8.42827291,1.17706168 8.12618428,1.47887236 L4.71258271,4.97987632 L2.44691794,5.91548944 C2.20524704,6.00603265 1.99378499,6.21730013 1.9031584,6.45874868 L0.0906265905,10.8350036 C-0.120835454,11.3480818 0.120835454,11.9517032 0.634386133,12.1629706 L19.907641,20.0704106 C20.4211917,20.2816781 21.025369,20.0402295 21.236831,19.5271514 L23.0493628,15.1508964 C23.1399894,14.9094479 23.1399894,14.6378183 23.0493628,14.3661886 L22.1128881,12.1026085 L22.1733058,7.21327539 C22.1430969,6.79074043 21.8712172,6.42856761 21.5087108,6.27766227 L21.5087108,6.27766227 Z" id="Shape" fill="#010101"></path>
                                <g transform="translate(2.718798, 6.941646)" id="Shape">
                                    <path d="M3.08130408,2.62575297 L3.08130408,2.62575297 C2.99067749,2.86720152 2.68858885,2.98792579 2.44691794,2.89738258 L0.725012724,2.20321801 C0.483341816,2.1126748 0.362506362,1.81086412 0.453132952,1.56941557 L0.785430451,0.724345646 C0.876057041,0.482897097 1.17814568,0.362172823 1.41981658,0.452716029 L2.29587363,0.814888852 C3.05109521,1.08651847 3.38339271,1.93158839 3.08130408,2.62575297 Z" fill="#75CFE6"></path>
                                    <path d="M2.32608249,3.19919327 L0.60417727,2.50502869 C0.181253181,2.32394228 -0.0302088635,1.84104518 0.151044317,1.41851022 L0.483341816,0.573440303 C0.664594997,0.150905343 1.14793681,-0.0603621372 1.5708609,0.120724274 L2.44691794,0.482897097 C3.32297498,0.845069921 3.74589907,1.87122625 3.38339271,2.74647724 C3.23234839,3.1690122 2.74900658,3.38027968 2.32608249,3.19919327 Z M1.32918999,0.754526715 C1.2385634,0.724345646 1.14793681,0.754526715 1.11772795,0.845069921 L0.785430451,1.69013984 C0.755221587,1.78068305 0.785430451,1.87122625 0.876057041,1.90140732 L2.59796226,2.5955719 C2.68858885,2.62575297 2.77921544,2.5955719 2.8094243,2.50502869 C3.02088635,1.96176946 2.77921544,1.32796702 2.2354559,1.11669954 L1.32918999,0.754526715 Z" fill="#010101"></path>
                                </g>
                                <g transform="translate(21.448293, 11.166995)" id="Shape" fill="#010101">
                                    <path d="M2.35629135,1.90140732 L2.35629135,1.90140732 C2.29587363,2.08249373 2.08441158,2.14285587 1.93336726,2.08249373 L0.785430451,1.59959664 C0.60417727,1.5392345 0.543759543,1.32796702 0.60417727,1.17706168 L0.845848178,0.63380244 C0.906265905,0.452716029 1.11772795,0.392353892 1.26877227,0.452716029 L1.84274067,0.694164578 C2.32608249,0.875250989 2.5677534,1.41851022 2.35629135,1.90140732 Z"></path>
                                    <path d="M1.81253181,2.38430442 L0.664594997,1.90140732 C0.332297498,1.75050198 0.151044317,1.35814809 0.302088635,1.02615633 L0.543759543,0.482897097 C0.69480386,0.150905343 1.08751909,-0.0301810686 1.41981658,0.120724274 L1.99378499,0.362172823 C2.62817112,0.63380244 2.96046862,1.35814809 2.68858885,2.0221316 C2.53754453,2.35412335 2.14482931,2.53520976 1.81253181,2.38430442 Z M2.05420272,1.78068305 L2.05420272,1.78068305 L2.35629135,1.90140732 L2.05420272,1.78068305 Z M0.936474768,1.29778595 L2.05420272,1.75050198 C2.17503817,1.44869129 2.02399385,1.11669954 1.72190522,0.965794195 L1.14793681,0.724345646 L0.936474768,1.29778595 Z"></path>
                                </g>
                                <g transform="translate(2.416709, 3.319918)" id="Shape" fill="#010101">
                                    <path d="M0.392715225,1.11669954 L0.392715225,1.11669954 C0.332297498,1.29778595 0.392715225,1.47887236 0.573968406,1.5392345 L1.72190522,2.0221316 C1.9031584,2.08249373 2.08441158,2.0221316 2.14482931,1.84104518 L2.38650022,1.29778595 C2.44691794,1.11669954 2.38650022,0.935613126 2.20524704,0.875250989 L1.63127863,0.63380244 C1.14793681,0.392353892 0.573968406,0.63380244 0.392715225,1.11669954 Z"></path>
                                    <path d="M1.5708609,2.32394228 L0.422924089,1.84104518 C0.0906265905,1.69013984 -0.0906265905,1.29778595 0.060417727,0.965794195 C0.332297498,0.331991754 1.05731022,-5.21527266e-14 1.72190522,0.271629617 L2.29587363,0.513078166 C2.62817112,0.663983509 2.8094243,1.0563374 2.65837999,1.38832916 L2.41670908,1.93158839 C2.32608249,2.29376121 1.93336726,2.44466656 1.5708609,2.32394228 Z M0.392715225,1.11669954 L0.69480386,1.23742381 L0.69480386,1.23742381 L0.392715225,1.11669954 Z M0.69480386,1.23742381 L1.81253181,1.69013984 L2.02399385,1.14688061 L1.45002545,0.905432058 C1.17814568,0.784707783 0.845848178,0.935613126 0.69480386,1.23742381 Z"></path>
                                </g>
                                <g transform="translate(17.521141, 13.279670)" id="Shape">
                                    <path d="M0.543759543,1.32796702 L0.543759543,1.32796702 C0.453132952,1.56941557 0.573968406,1.87122625 0.815639314,1.96176946 L2.53754453,2.65593404 C2.77921544,2.74647724 3.08130408,2.62575297 3.17193067,2.38430442 L3.50422817,1.5392345 C3.59485476,1.29778595 3.4740193,0.995975263 3.23234839,0.905432058 L2.35629135,0.543259235 C1.66148749,0.271629617 0.845848178,0.63380244 0.543759543,1.32796702 Z" fill="#75CFE6"></path>
                                    <path d="M2.38650022,2.98792579 L0.664594997,2.29376121 C0.241670908,2.1126748 0.0302088635,1.6297777 0.211462044,1.20724274 C0.573968406,0.331991754 1.60106977,-0.0905432058 2.47712681,0.271629617 L3.35318385,0.63380244 C3.77610794,0.814888852 3.98756998,1.29778595 3.8063168,1.72032091 L3.4740193,2.56539083 C3.29276612,2.95774472 2.8094243,3.1690122 2.38650022,2.98792579 Z M2.2354559,0.875250989 C1.69169636,0.663983509 1.05731022,0.905432058 0.845848178,1.44869129 C0.815639314,1.5392345 0.845848178,1.6297777 0.936474768,1.65995877 L2.65837999,2.35412335 C2.74900658,2.38430442 2.83963317,2.35412335 2.86984203,2.26358014 L3.20213953,1.41851022 C3.23234839,1.32796702 3.20213953,1.23742381 3.11151294,1.20724274 L2.2354559,0.875250989 Z" fill="#010101"></path>
                                </g>
                                <path d="M4.77300043,12.1026085 L3.02088635,11.3782629 C2.83963317,11.3179007 2.77921544,11.1066332 2.83963317,10.9255468 C2.9000509,10.7444604 3.11151294,10.6840983 3.29276612,10.7444604 L5.0448802,11.4688061 C5.22613338,11.5291682 5.28655111,11.7404357 5.22613338,11.9215221 C5.13550679,12.0724274 4.95425361,12.1629706 4.77300043,12.1026085 Z" id="Shape" fill="#010101"></path>
                                <path d="M18.7899131,17.8370115 L17.037799,17.1126659 C16.8565458,17.0523038 16.7961281,16.8410363 16.8565458,16.6599499 C16.9169636,16.4788635 17.1284256,16.4185013 17.3096788,16.4788635 L19.0617929,17.2032091 C19.243046,17.2635712 19.3034638,17.4748387 19.243046,17.6559251 C19.1826283,17.8370115 18.9409574,17.9275547 18.7899131,17.8370115 Z" id="Shape" fill="#010101"></path>
                                <g transform="translate(6.645950, 8.450699)" id="Shape">
                                    <path d="M1.45002545,0.543259235 L0.634386133,2.47484762 C0.483341816,2.83702045 0.664594997,3.28973648 1.02710136,3.44064182 L8.42827291,6.48892975 C8.79077928,6.63983509 9.24391223,6.45874868 9.39495655,6.09657586 L10.2105959,4.16498747 L1.45002545,0.543259235 Z" fill="#DCDCC9"></path>
                                    <path d="M8.30743746,6.79074043 L0.906265905,3.77263357 C0.362506362,3.56136609 0.0906265905,2.92756365 0.332297498,2.38430442 L1.14793681,0.452716029 C1.20835454,0.271629617 1.41981658,0.21126748 1.60106977,0.271629617 L10.3616402,3.86317678 C10.5428934,3.92353892 10.6033111,4.1348064 10.5428934,4.31589281 L9.72725405,6.2474812 C9.48558314,6.76055936 8.851197,7.03218898 8.30743746,6.79074043 Z M1.63127863,0.995975263 L0.966683632,2.62575297 C0.876057041,2.83702045 0.966683632,3.04828793 1.17814568,3.13883113 L8.57931723,6.18711906 C8.79077928,6.27766227 9.00224132,6.18711906 9.09286791,5.97585158 L9.75746291,4.34607388 L1.63127863,0.995975263 Z" fill="#010101"></path>
                                </g>
                                <path d="M21.8107994,12.9778595 L4.28965862,5.7645841 C4.10840544,5.70422196 4.04798771,5.49295448 4.10840544,5.31186807 C4.16882316,5.13078166 4.38028521,5.07041952 4.56153839,5.13078166 L22.0826792,12.3440571 C22.2639324,12.4044192 22.3243501,12.6156867 22.2639324,12.7967731 C22.1733058,12.9476784 21.9920526,13.0382216 21.8107994,12.9778595 Z" id="Shape" fill="#010101"></path>
                                <path d="M19.6055524,5.91548944 L10.844982,2.32394228 C10.6637288,2.26358014 10.6033111,2.05231266 10.6637288,1.87122625 L11.1168618,0.814888852 C11.3283238,0.271629617 11.9627099,-6.95832281e-14 12.5064695,0.241448549 L19.907641,3.28973648 C20.4514006,3.50100396 20.7232804,4.1348064 20.4816094,4.67806563 L20.0284765,5.73440303 C19.9680588,5.91548944 19.7565967,5.97585158 19.6055524,5.91548944 Z M11.4189504,1.81086412 L19.5451347,5.16096273 L19.8472233,4.40643601 C19.9378499,4.19516853 19.8472233,3.98390105 19.6357613,3.89335785 L12.2345897,0.845069921 C12.0231277,0.754526715 11.8116656,0.845069921 11.721039,1.0563374 L11.4189504,1.81086412 Z" id="Shape" fill="#010101"></path>
                                <g transform="translate(0.302089, 12.072427)" fill="#010101">
                                    <rect id="Rectangle-path" transform="translate(2.193085, 1.771295) rotate(-67.628280) translate(-2.193085, -1.771295) " x="1.24154074" y="0.352837168" width="1.90308841" height="2.83691611"></rect>
                                    <path d="M3.02088635,3.53118503 L0.392715225,2.44466656 C0.211462044,2.38430442 0.151044317,2.17303694 0.211462044,1.99195053 L0.936474768,0.241448549 C0.996892495,0.0603621372 1.20835454,1.68268177e-14 1.38960772,0.0603621372 L4.01777884,1.14688061 C4.19903203,1.20724274 4.25944975,1.41851022 4.19903203,1.59959664 L3.4740193,3.35009861 C3.38339271,3.50100396 3.20213953,3.59154716 3.02088635,3.53118503 Z M0.966683632,1.93158839 L2.96046862,2.74647724 L3.41360157,1.6297777 L1.41981658,0.814888852 L0.966683632,1.93158839 Z" id="Shape"></path>
                                </g>
                                <g transform="translate(15.104432, 18.108641)" fill="#010101">
                                    <rect id="Rectangle-path" transform="translate(2.270731, 1.874919) rotate(-67.628280) translate(-2.270731, -1.874919) " x="1.31918658" y="0.456460849" width="1.90308841" height="2.83691611"></rect>
                                    <path d="M3.11151294,3.59154716 L0.483341816,2.50502869 C0.302088635,2.44466656 0.241670908,2.23339908 0.302088635,2.05231266 L1.02710136,0.301810686 C1.08751909,0.120724274 1.29898113,0.0603621372 1.48023431,0.120724274 L4.10840544,1.20724274 C4.28965862,1.26760488 4.35007634,1.47887236 4.28965862,1.65995877 L3.56464589,3.41046075 C3.4740193,3.59154716 3.26255726,3.68209037 3.11151294,3.59154716 Z M1.05731022,2.0221316 L3.05109521,2.83702045 L3.50422817,1.72032091 L1.51044317,0.905432058 L1.05731022,2.0221316 Z" id="Shape"></path>
                                </g>
                            </g>
                        </g>
                    </g>
                </g>
            </g>
        </g>
    </g>
</svg>