<?xml version="1.0" encoding="UTF-8"?>
<svg width="142px" height="117px" viewBox="0 0 142 117" version="1.1" xmlns="http://www.w3.org/2000/svg" xmlns:xlink="http://www.w3.org/1999/xlink">
    <!-- Generator: Sketch 42 (36781) - http://www.bohemiancoding.com/sketch -->
    <title>envelope</title>
    <desc>Created with Sketch.</desc>
    <defs>
        <polygon id="path-1" points="126.833608 -1.06670647e-13 0.000155433153 -1.06670647e-13 0.000155433153 93.2790423 126.833608 93.2790423 126.833608 -1.24344979e-13"></polygon>
        <polygon id="path-3" points="5.68434189e-14 115.666012 126.833764 115.666012 126.833764 -5.86197757e-14 5.68434189e-14 -5.86197757e-14"></polygon>
    </defs>
    <g id="Page-1" stroke="none" stroke-width="1" fill="none" fill-rule="evenodd">
        <g id="services-path-view" transform="translate(-18.000000, -807.000000)">
            <g id="budget-tab" transform="translate(0.000000, 784.000000)">
                <g id="development-+-Development-Mask">
                    <g id="envelope" transform="translate(95.704430, 79.623368) rotate(17.000000) translate(-95.704430, -79.623368) translate(32.204430, 21.623368)">
                        <polygon id="Fill-1" fill="#FFBA61" points="1.86529109 46.6395212 63.4168196 1.86558085 124.968348 46.6395212 63.4168196 91.4134615"></polygon>
                        <g id="Group-34" transform="translate(0.000000, -0.000000)">
                            <g id="Group-4" transform="translate(0.000000, 0.000000)">
                                <mask id="mask-2" fill="white">
                                    <use xlink:href="#path-1"></use>
                                </mask>
                                <g id="Clip-3"></g>
                                <path d="M5.03650045,46.6395212 L63.4168818,89.1066707 L121.797263,46.6395212 L63.4168818,4.17237156 L5.03650045,46.6395212 Z M63.4168818,93.2790423 C63.0317185,93.2790423 62.646866,93.1599561 62.3198346,92.9224054 L0.768306075,48.1484651 C0.285530702,47.7971141 0.000155433153,47.2361961 0.000155433153,46.6395212 C0.000155433153,46.0428462 0.285530702,45.4819282 0.768306075,45.1305772 L62.3198346,0.356636872 C62.9738973,-0.118775314 63.8598663,-0.119086244 64.513929,0.356636872 L126.065458,45.1305772 C126.547922,45.4819282 126.833608,46.0428462 126.833608,46.6395212 C126.833608,47.2361961 126.547922,47.7971141 126.065458,48.1484651 L64.513929,92.9224054 C64.1868976,93.1599561 63.8017343,93.2790423 63.4168818,93.2790423 L63.4168818,93.2790423 Z" id="Fill-2" fill="#000000" mask="url(#mask-2)"></path>
                            </g>
                            <mask id="mask-4" fill="white">
                                <use xlink:href="#path-3"></use>
                            </mask>
                            <g id="Clip-6"></g>
                            <polygon id="Fill-5" fill="#000000" mask="url(#mask-4)" points="1.86519783 47.8832417 18.6519783 47.8832417 18.6519783 45.3958006 1.86519783 45.3958006"></polygon>
                            <polygon id="Fill-7" fill="#000000" mask="url(#mask-4)" points="108.181474 47.8832417 124.968255 47.8832417 124.968255 45.3958006 108.181474 45.3958006"></polygon>
                            <path d="M52.2256326,32.6476648 C52.2256326,38.8295779 47.2150895,43.8411499 41.0344456,43.8411499 C34.8538017,43.8411499 29.8432586,38.8295779 29.8432586,32.6476648 C29.8432586,26.4657517 34.8538017,21.4541797 41.0344456,21.4541797 C47.2150895,21.4541797 52.2256326,26.4657517 52.2256326,32.6476648" id="Fill-8" fill="#F8D45B" mask="url(#mask-4)"></path>
                            <polygon id="Fill-9" fill="#FFFFFF" mask="url(#mask-4)" points="21.4498684 15.8574372 88.5969904 15.8574372 105.383771 32.6476648 105.383771 108.203689 21.4498684 108.203689"></polygon>
                            <path d="M88.5970837,12.1262755 L21.4499616,12.1262755 C19.3895397,12.1262755 17.7195659,13.7969031 17.7195659,15.8574372 L17.7195659,111.00206 C17.7195659,113.062594 19.3895397,114.733222 21.4499616,114.733222 L105.383864,114.733222 C107.443975,114.733222 109.11426,113.062594 109.11426,111.00206 L109.11426,32.6476648 C109.11426,31.6579742 108.721014,30.7090154 108.021565,30.0094226 L91.2347843,13.2191949 C90.5353351,12.5192912 89.5865711,12.1262755 88.5970837,12.1262755 M88.5970837,15.8574372 L105.383864,32.6476648 L105.383864,111.00206 L21.4499616,111.00206 L21.4499616,15.8574372 L88.5970837,15.8574372" id="Fill-10" fill="#000000" mask="url(#mask-4)"></path>
                            <path d="M52.2256326,61.8750981 L29.8432586,61.8750981 C29.1565549,61.8750981 28.5997934,61.3182222 28.5997934,60.6313775 C28.5997934,59.9445328 29.1565549,59.3876569 29.8432586,59.3876569 L52.2256326,59.3876569 C52.9123363,59.3876569 53.4690978,59.9445328 53.4690978,60.6313775 C53.4690978,61.3182222 52.9123363,61.8750981 52.2256326,61.8750981" id="Fill-11" fill="#505050" mask="url(#mask-4)"></path>
                            <path d="M52.2256326,70.2702119 L29.8432586,70.2702119 C29.1565549,70.2702119 28.5997934,69.713336 28.5997934,69.0264913 C28.5997934,68.3396466 29.1565549,67.7827707 29.8432586,67.7827707 L52.2256326,67.7827707 C52.9123363,67.7827707 53.4690978,68.3396466 53.4690978,69.0264913 C53.4690978,69.713336 52.9123363,70.2702119 52.2256326,70.2702119" id="Fill-12" fill="#505050" mask="url(#mask-4)"></path>
                            <path d="M52.2256326,78.6653257 L29.8432586,78.6653257 C29.1565549,78.6653257 28.5997934,78.1084498 28.5997934,77.4216051 C28.5997934,76.7347604 29.1565549,76.1778846 29.8432586,76.1778846 L52.2256326,76.1778846 C52.9123363,76.1778846 53.4690978,76.7347604 53.4690978,77.4216051 C53.4690978,78.1084498 52.9123363,78.6653257 52.2256326,78.6653257" id="Fill-13" fill="#505050" mask="url(#mask-4)"></path>
                            <path d="M52.2256326,87.0604395 L29.8432586,87.0604395 C29.1565549,87.0604395 28.5997934,86.5035636 28.5997934,85.8167189 C28.5997934,85.1298742 29.1565549,84.5729984 29.8432586,84.5729984 L52.2256326,84.5729984 C52.9123363,84.5729984 53.4690978,85.1298742 53.4690978,85.8167189 C53.4690978,86.5035636 52.9123363,87.0604395 52.2256326,87.0604395" id="Fill-14" fill="#505050" mask="url(#mask-4)"></path>
                            <path d="M96.9903806,53.4799843 L29.8432586,53.4799843 C29.1565549,53.4799843 28.5997934,52.9231084 28.5997934,52.2362637 C28.5997934,51.549419 29.1565549,50.9925431 29.8432586,50.9925431 L96.9903806,50.9925431 C97.6770843,50.9925431 98.2338459,51.549419 98.2338459,52.2362637 C98.2338459,52.9231084 97.6770843,53.4799843 96.9903806,53.4799843" id="Fill-15" fill="#505050" mask="url(#mask-4)"></path>
                            <path d="M96.9903806,45.0848705 L60.6190229,45.0848705 C59.9323192,45.0848705 59.3755577,44.5279946 59.3755577,43.8411499 C59.3755577,43.1543052 59.9323192,42.5974293 60.6190229,42.5974293 L96.9903806,42.5974293 C97.6770843,42.5974293 98.2338459,43.1543052 98.2338459,43.8411499 C98.2338459,44.5279946 97.6770843,45.0848705 96.9903806,45.0848705" id="Fill-16" fill="#505050" mask="url(#mask-4)"></path>
                            <path d="M96.9903806,61.8750981 L77.4058034,61.8750981 C76.7190997,61.8750981 76.1623382,61.3182222 76.1623382,60.6313775 C76.1623382,59.9445328 76.7190997,59.3876569 77.4058034,59.3876569 L96.9903806,59.3876569 C97.6770843,59.3876569 98.2338459,59.9445328 98.2338459,60.6313775 C98.2338459,61.3182222 97.6770843,61.8750981 96.9903806,61.8750981" id="Fill-17" fill="#505050" mask="url(#mask-4)"></path>
                            <path d="M71.8102099,61.8750981 L60.6190229,61.8750981 C59.9323192,61.8750981 59.3755577,61.3182222 59.3755577,60.6313775 C59.3755577,59.9445328 59.9323192,59.3876569 60.6190229,59.3876569 L71.8102099,59.3876569 C72.4969136,59.3876569 73.0536751,59.9445328 73.0536751,60.6313775 C73.0536751,61.3182222 72.4969136,61.8750981 71.8102099,61.8750981" id="Fill-18" fill="#505050" mask="url(#mask-4)"></path>
                            <path d="M96.9903806,87.0604395 L77.4058034,87.0604395 C76.7190997,87.0604395 76.1623382,86.5035636 76.1623382,85.8167189 C76.1623382,85.1298742 76.7190997,84.5729984 77.4058034,84.5729984 L96.9903806,84.5729984 C97.6770843,84.5729984 98.2338459,85.1298742 98.2338459,85.8167189 C98.2338459,86.5035636 97.6770843,87.0604395 96.9903806,87.0604395" id="Fill-19" fill="#505050" mask="url(#mask-4)"></path>
                            <path d="M96.9903806,70.2702119 L60.6190229,70.2702119 C59.9323192,70.2702119 59.3755577,69.713336 59.3755577,69.0264913 C59.3755577,68.3396466 59.9323192,67.7827707 60.6190229,67.7827707 L96.9903806,67.7827707 C97.6770843,67.7827707 98.2338459,68.3396466 98.2338459,69.0264913 C98.2338459,69.713336 97.6770843,70.2702119 96.9903806,70.2702119" id="Fill-20" fill="#505050" mask="url(#mask-4)"></path>
                            <path d="M96.9903806,78.6653257 L85.7991936,78.6653257 C85.11249,78.6653257 84.5557284,78.1084498 84.5557284,77.4216051 C84.5557284,76.7347604 85.11249,76.1778846 85.7991936,76.1778846 L96.9903806,76.1778846 C97.6770843,76.1778846 98.2338459,76.7347604 98.2338459,77.4216051 C98.2338459,78.1084498 97.6770843,78.6653257 96.9903806,78.6653257" id="Fill-21" fill="#505050" mask="url(#mask-4)"></path>
                            <path d="M80.2036001,78.6653257 L60.6190229,78.6653257 C59.9323192,78.6653257 59.3755577,78.1084498 59.3755577,77.4216051 C59.3755577,76.7347604 59.9323192,76.1778846 60.6190229,76.1778846 L80.2036001,76.1778846 C80.8903038,76.1778846 81.4470654,76.7347604 81.4470654,77.4216051 C81.4470654,78.1084498 80.8903038,78.6653257 80.2036001,78.6653257" id="Fill-22" fill="#505050" mask="url(#mask-4)"></path>
                            <polygon id="Fill-23" fill="#EF4239" mask="url(#mask-4)" points="35.4387589 55.034635 46.6299459 55.034635 46.6299459 38.2444073 35.4387589 38.2444073"></polygon>
                            <path d="M46.6300391,35.7569662 L35.4388521,35.7569662 C34.0654448,35.7569662 32.9519217,36.870718 32.9519217,38.2444073 L32.9519217,55.034635 C32.9519217,56.4083243 34.0654448,57.5220761 35.4388521,57.5220761 L46.6300391,57.5220761 C48.0034465,57.5220761 49.1169696,56.4083243 49.1169696,55.034635 L49.1169696,38.2444073 C49.1169696,36.870718 48.0034465,35.7569662 46.6300391,35.7569662 L46.6300391,35.7569662 Z M35.4388521,55.034635 L46.6300391,55.034635 L46.6300391,38.2444073 L35.4388521,38.2444073 L35.4388521,55.034635 Z" id="Fill-24" fill="#000000" mask="url(#mask-4)"></path>
                            <polygon id="Fill-25" fill="#FF7788" mask="url(#mask-4)" points="40.2571866 55.034635 41.8115181 55.034635 41.8115181 45.0848705 40.2571866 45.0848705"></polygon>
                            <path d="M41.0344456,18.9667386 C33.4922073,18.9667386 27.3563282,25.1038777 27.3563282,32.6476648 C27.3563282,40.1914519 33.4922073,46.328591 41.0344456,46.328591 C48.5766839,46.328591 54.7125631,40.1914519 54.7125631,32.6476648 C54.7125631,25.1038777 48.5766839,18.9667386 41.0344456,18.9667386 M41.0344456,21.4541797 C47.2150895,21.4541797 52.2256326,26.4657517 52.2256326,32.6476648 C52.2256326,38.8295779 47.2150895,43.8411499 41.0344456,43.8411499 C34.8538017,43.8411499 29.8432586,38.8295779 29.8432586,32.6476648 C29.8432586,26.4657517 34.8538017,21.4541797 41.0344456,21.4541797" id="Fill-26" fill="#000000" mask="url(#mask-4)"></path>
                            <path d="M33.1210951,40.5626403 C28.7506257,36.1912734 28.7506257,29.1039318 33.1210951,24.732565 C37.4915645,20.3611981 44.5774511,20.3611981 48.9479205,24.732565" id="Fill-27" fill="#F8E17D" mask="url(#mask-4)"></path>
                            <path d="M48.9477961,24.7326893 C53.3182655,29.1040562 53.3182655,36.1913978 48.9477961,40.5627647 C44.5773267,44.9341315 37.4914402,44.9341315 33.1209708,40.5627647" id="Fill-28" fill="#F8D45B" mask="url(#mask-4)"></path>
                            <path d="M105.383771,34.5132457 L88.5969904,34.5132457 C87.5670903,34.5132457 86.7317926,33.6777764 86.7317926,32.6476648 L86.7317926,15.8574372 L90.4621882,15.8574372 L90.4621882,30.782084 L105.383771,30.782084 L105.383771,34.5132457 Z" id="Fill-29" fill="#000000" mask="url(#mask-4)"></path>
                            <polygon id="Fill-30" fill="#FFE9A2" mask="url(#mask-4)" points="124.968348 113.800432 1.86529109 113.800432 1.86529109 46.6395212 63.4168196 91.4134615 124.968348 46.6395212"></polygon>
                            <path d="M3.73048893,111.934851 L123.10315,111.934851 L123.10315,50.303211 L64.5138668,92.9224054 C63.860115,93.3981286 62.974146,93.3978176 62.3197724,92.9224054 L3.73048893,50.303211 L3.73048893,111.934851 Z M124.968348,115.666012 L1.86529109,115.666012 C0.835391023,115.666012 9.32598917e-05,114.830543 9.32598917e-05,113.800432 L9.32598917e-05,46.6395212 C9.32598917e-05,45.9377518 0.393650003,45.2953702 1.01880214,44.9769777 C1.64426515,44.6585852 2.39500728,44.7179729 2.96233829,45.1305772 L63.4168196,89.1066707 L123.871301,45.1305772 C124.438321,44.7182838 125.189685,44.6588962 125.814837,44.9769777 C126.439678,45.2953702 126.833546,45.9377518 126.833546,46.6395212 L126.833546,113.800432 C126.833546,114.830543 125.998248,115.666012 124.968348,115.666012 L124.968348,115.666012 Z" id="Fill-31" fill="#000000" mask="url(#mask-4)"></path>
                            <polygon id="Fill-32" fill="#FFD37F" mask="url(#mask-4)" points="124.968348 113.800432 1.86529109 113.800432 46.6300391 80.2199764 63.4168196 91.4134615 80.203911 80.2202873"></polygon>
                            <path d="M7.4608846,111.934851 L119.372755,111.934851 L80.1404943,82.5046911 L64.4513827,92.9656247 C63.8246762,93.3835148 63.0086522,93.3835148 62.3822566,92.9656247 L46.6934558,82.5043801 L7.4608846,111.934851 Z M124.968348,115.666012 L1.86529109,115.666012 C1.06232343,115.666012 0.349817854,115.152356 0.0958400821,114.390266 C-0.15813769,113.628487 0.103922606,112.789909 0.746172394,112.307967 L45.5109204,78.7275117 C46.1438442,78.2530323 47.0061874,78.2284688 47.6646022,78.6678131 L63.4168196,89.1713442 L79.1693479,78.6681241 C79.8268302,78.2297126 80.6904168,78.2527214 81.3230297,78.7278226 L126.087467,112.307967 C126.729717,112.789909 126.991777,113.628487 126.737799,114.390266 C126.483821,115.152356 125.771316,115.666012 124.968348,115.666012 L124.968348,115.666012 Z" id="Fill-33" fill="#000000" mask="url(#mask-4)"></path>
                        </g>
                    </g>
                </g>
            </g>
        </g>
    </g>
</svg>