<?xml version="1.0" encoding="UTF-8"?>
<svg width="179px" height="146px" viewBox="0 0 179 146" version="1.1" xmlns="http://www.w3.org/2000/svg" xmlns:xlink="http://www.w3.org/1999/xlink">
    <!-- Generator: Sketch 42 (36781) - http://www.bohemiancoding.com/sketch -->
    <title>icon</title>
    <desc>Created with Sketch.</desc>
    <defs></defs>
    <g id="Page-1" stroke="none" stroke-width="1" fill="none" fill-rule="evenodd">
        <g id="services-path-view" transform="translate(-94.000000, -428.000000)">
            <g id="icon" transform="translate(93.000000, 416.000000)">
                <g id="Layer_1">
                    <g id="Group" transform="translate(62.154508, 50.475528) rotate(-18.000000) translate(-62.154508, -50.475528) translate(9.154508, 14.975528)">
                        <path d="M78.954444,11.8586207 L86.0181893,11.8586207 L86.0181893,9.58275862 C86.0181893,7.64827586 84.4231501,6.05517241 82.4863167,6.05517241 L82.3723853,6.05517241 C80.4355519,6.05517241 78.8405126,7.64827586 78.8405126,9.58275862 L78.8405126,11.8586207 L78.954444,11.8586207 Z" id="Shape" stroke="#000000" stroke-width="2.0521" stroke-linejoin="round" fill="#F6FF17" fill-rule="nonzero"></path>
                        <polygon id="Shape" fill="#FF5E5B" fill-rule="nonzero" points="0.797519636 59.0827586 104.930798 59.0827586 104.930798 37.8034483 93.1958661 11.8586207 69.4981397 11.8586207 69.4981397 4.68965517 0.797519636 4.46206897"></polygon>
                        <rect id="Rectangle-path" fill="#EC1C24" fill-rule="nonzero" transform="translate(52.934568, 38.993610) rotate(-180.000000) translate(-52.934568, -38.993610) " x="0.86792923" y="35.4660241" width="104.133278" height="7.05517241"></rect>
                        <polygon id="Shape" stroke="#000000" stroke-width="3.0781" stroke-linejoin="round" points="104.930798 59.0827586 104.930798 38.0310345 92.6262092 11.5172414 69.4981397 11.5172414 69.4981397 4.46206897 0.797519636 4.46206897 0.797519636 59.0827586"></polygon>
                        <path d="M69.4981397,11.5172414 L69.4981397,59.0827586" id="Shape" stroke="#000000" stroke-width="3.0781" stroke-linejoin="round"></path>
                        <ellipse id="Oval" stroke="#000000" stroke-width="5.1302" stroke-linejoin="round" fill="#231F20" fill-rule="nonzero" cx="19.7101282" cy="60.3344828" rx="10.595618" ry="10.5827586"></ellipse>
                        <ellipse id="Oval" stroke="#000000" stroke-width="5.1302" stroke-linejoin="round" fill="#231F20" fill-rule="nonzero" cx="86.0181893" cy="60.3344828" rx="10.595618" ry="10.5827586"></ellipse>
                        <g transform="translate(74.055395, 16.068966)" id="Shape" fill-rule="nonzero">
                            <path d="M2.50649029,20.5965517 C1.82290203,20.5965517 1.36717652,20.0275862 1.36717652,19.4586207 L1.36717652,2.84482759 C1.36717652,2.16206897 1.9368334,1.70689655 2.50649029,1.70689655 L14.3553535,1.70689655 C14.811079,1.70689655 15.2668045,1.93448276 15.3807358,2.38965517 L22.4444812,18.8896552 C22.5584126,19.2310345 22.5584126,19.6862069 22.3305498,20.0275862 C22.1026871,20.3689655 21.7608929,20.5965517 21.3051674,20.5965517 L2.50649029,20.5965517 Z" fill="#59E6C8"></path>
                            <path d="M14.3553535,2.84482759 L21.4190988,19.3448276 L2.50649029,19.3448276 L2.50649029,2.84482759 L14.3553535,2.84482759 L14.3553535,2.84482759 Z M14.3553535,0.568965517 L2.50649029,0.568965517 C1.25324514,0.568965517 0.113931377,1.59310345 0.113931377,2.95862069 L0.113931377,19.4586207 C0.113931377,20.7103448 1.13931377,21.8482759 2.50649029,21.8482759 L21.4190988,21.8482759 C22.2166184,21.8482759 22.9002067,21.5068966 23.3559322,20.8241379 C23.8116577,20.1413793 23.8116577,19.3448276 23.583795,18.662069 L16.5200496,2.16206897 C16.1782555,1.02413793 15.2668045,0.568965517 14.3553535,0.568965517 L14.3553535,0.568965517 Z" fill="#000000"></path>
                        </g>
                        <polygon id="Shape" fill="#FFFFFF" fill-rule="nonzero" points="86.0181893 18.9137931 83.6256304 18.9137931 90.8033072 35.5275862 93.1958661 35.5275862"></polygon>
                        <g transform="translate(50.129806, 16.068966)" id="Shape" fill-rule="nonzero">
                            <path d="M2.73435304,13.4275862 C2.05076478,13.4275862 1.59503927,12.8586207 1.59503927,12.2896552 L1.59503927,2.84482759 C1.59503927,2.16206897 2.16469616,1.70689655 2.73435304,1.70689655 L12.1906573,1.70689655 C12.8742456,1.70689655 13.3299711,2.27586207 13.3299711,2.84482759 L13.3299711,12.2896552 C13.3299711,12.9724138 12.7603142,13.4275862 12.1906573,13.4275862 L2.73435304,13.4275862 Z" fill="#59E6C8"></path>
                            <path d="M12.1906573,2.84482759 L12.1906573,12.2896552 L2.73435304,12.2896552 L2.73435304,2.84482759 L12.1906573,2.84482759 L12.1906573,2.84482759 Z M12.1906573,0.568965517 L2.73435304,0.568965517 C1.4811079,0.568965517 0.34179413,1.59310345 0.34179413,2.95862069 L0.34179413,12.4034483 C0.34179413,13.6551724 1.36717652,14.7931034 2.73435304,14.7931034 L12.1906573,14.7931034 C13.4439024,14.7931034 14.5832162,13.7689655 14.5832162,12.4034483 L14.5832162,2.95862069 C14.5832162,1.59310345 13.5578338,0.568965517 12.1906573,0.568965517 L12.1906573,0.568965517 Z" fill="#000000"></path>
                        </g>
                        <rect id="Rectangle-path" fill="#FFFFFF" fill-rule="nonzero" x="59.7000413" y="18.9137931" width="1.36717652" height="9.44482759"></rect>
                        <path d="M81.3470029,40.1931034 L76.5618851,40.1931034" id="Shape" stroke="#000000" stroke-width="2.0521" stroke-linecap="round" stroke-linejoin="round"></path>
                        <g transform="translate(19.368334, 11.517241)" id="Shape" fill-rule="nonzero">
                            <path d="M2.73435304,27.537931 C2.05076478,27.537931 1.59503927,26.9689655 1.59503927,26.4 L1.59503927,2.73103448 C1.59503927,2.04827586 2.16469616,1.59310345 2.73435304,1.59310345 L26.4320794,1.59310345 C27.1156676,1.59310345 27.5713931,2.16206897 27.5713931,2.73103448 L27.5713931,26.4 C27.5713931,27.0827586 27.0017363,27.537931 26.4320794,27.537931 L2.73435304,27.537931 Z" fill="#FF5E5B"></path>
                            <path d="M26.4320794,2.73103448 L26.4320794,26.4 L2.73435304,26.4 L2.73435304,2.73103448 L26.4320794,2.73103448 L26.4320794,2.73103448 Z M26.4320794,0.34137931 L2.73435304,0.34137931 C1.4811079,0.34137931 0.34179413,1.36551724 0.34179413,2.73103448 L0.34179413,26.4 C0.34179413,27.6517241 1.36717652,28.7896552 2.73435304,28.7896552 L26.4320794,28.7896552 C27.6853245,28.7896552 28.8246383,27.7655172 28.8246383,26.4 L28.8246383,2.73103448 C28.7107069,1.36551724 27.6853245,0.34137931 26.4320794,0.34137931 L26.4320794,0.34137931 Z" fill="#000000"></path>
                        </g>
                        <path d="M15.0389417,14.2482759 L15.0389417,37.8034483" id="Shape" stroke="#000000" stroke-width="2.0521" stroke-linecap="round" stroke-linejoin="round"></path>
                        <path d="M7.97519636,14.2482759 L7.97519636,37.8034483" id="Shape" stroke="#000000" stroke-width="2.0521" stroke-linecap="round" stroke-linejoin="round"></path>
                        <path d="M15.0389417,16.5241379 L7.97519636,16.5241379" id="Shape" stroke="#000000" stroke-width="2.0521" stroke-linecap="round" stroke-linejoin="round"></path>
                        <path d="M15.0389417,21.3034483 L7.97519636,21.3034483" id="Shape" stroke="#000000" stroke-width="2.0521" stroke-linecap="round" stroke-linejoin="round"></path>
                        <path d="M15.0389417,25.9689655 L7.97519636,25.9689655" id="Shape" stroke="#000000" stroke-width="2.0521" stroke-linecap="round" stroke-linejoin="round"></path>
                        <path d="M15.0389417,30.7482759 L7.97519636,30.7482759" id="Shape" stroke="#000000" stroke-width="2.0521" stroke-linecap="round" stroke-linejoin="round"></path>
                        <path d="M15.0389417,35.5275862 L7.97519636,35.5275862" id="Shape" stroke="#000000" stroke-width="2.0521" stroke-linecap="round" stroke-linejoin="round"></path>
                        <path d="M43.4078545,30.7482759 L43.4078545,33.137931" id="Shape" stroke="#000000" stroke-width="2.0521" stroke-linecap="round" stroke-linejoin="round" fill="#FF5E5B" fill-rule="nonzero"></path>
                        <path d="M43.4078545,18.9137931 L43.4078545,21.3034483" id="Shape" stroke="#000000" stroke-width="2.0521" stroke-linecap="round" stroke-linejoin="round" fill="#FF5E5B" fill-rule="nonzero"></path>
                        <rect id="Rectangle-path" fill="#EC1C24" fill-rule="nonzero" transform="translate(23.320044, 25.958497) rotate(-180.000000) translate(-23.320044, -25.958497) " x="22.1237644" y="14.1240138" width="2.39255891" height="23.6689655"></rect>
                        <path d="M104.361141,52.0275862 L105.044729,52.0275862 L105.044729,42.5827586 L104.361141,42.5827586 C102.082513,42.5827586 100.259611,44.4034483 100.259611,46.6793103 L100.259611,47.9310345 C100.259611,50.2068966 102.082513,52.0275862 104.361141,52.0275862 Z" id="Shape" stroke="#000000" stroke-width="2.0521" stroke-linejoin="round" fill="#FFFFFF" fill-rule="nonzero"></path>
                        <path d="M68.8145515,52.0275862 L69.4981397,52.0275862 L69.4981397,42.5827586 L68.8145515,42.5827586 C66.5359239,42.5827586 64.7130219,44.4034483 64.7130219,46.6793103 L64.7130219,47.9310345 C64.7130219,50.2068966 66.5359239,52.0275862 68.8145515,52.0275862 Z" id="Shape" stroke="#000000" stroke-width="2.0521" stroke-linejoin="round" fill="#F6FF17" fill-rule="nonzero"></path>
                        <path d="M1.4811079,52.0275862 L0.797519636,52.0275862 L0.797519636,42.5827586 L1.4811079,42.5827586 C3.75973543,42.5827586 5.58263745,44.4034483 5.58263745,46.6793103 L5.58263745,47.9310345 C5.58263745,50.2068966 3.75973543,52.0275862 1.4811079,52.0275862 Z" id="Shape" stroke="#000000" stroke-width="2.0521" stroke-linejoin="round" fill="#F6FF17" fill-rule="nonzero"></path>
                        <path d="M62.320463,0.024137931 L62.320463,4.68965517" id="Shape" stroke="#000000" stroke-width="2.0521" stroke-linecap="round" stroke-linejoin="round"></path>
                        <path d="M57.6492766,0.024137931 L57.6492766,4.68965517" id="Shape" stroke="#000000" stroke-width="2.0521" stroke-linecap="round" stroke-linejoin="round"></path>
                        <path d="M10.2538239,0.024137931 L10.2538239,4.68965517" id="Shape" stroke="#000000" stroke-width="2.0521" stroke-linecap="round" stroke-linejoin="round"></path>
                        <path d="M5.58263745,0.024137931 L5.58263745,4.68965517" id="Shape" stroke="#000000" stroke-width="2.0521" stroke-linecap="round" stroke-linejoin="round"></path>
                        <path d="M64.7130219,0.024137931 L3.19007854,0.024137931" id="Shape" stroke="#000000" stroke-width="2.0521" stroke-linecap="round" stroke-linejoin="round"></path>
                        <path d="M64.7130219,61.4724138 L41.0152956,61.4724138" id="Shape" stroke="#000000" stroke-width="2.0521" stroke-linecap="round" stroke-linejoin="round"></path>
                    </g>
                    <g id="Group" transform="translate(137.381277, 113.109748) rotate(24.000000) translate(-137.381277, -113.109748) translate(94.881277, 81.109748)">
                        <polygon id="Shape" fill="#59E6C8" fill-rule="nonzero" points="77.5185907 28.5757025 8.17706653 28.5757025 18.5346841 7.66398151 67.1609731 7.66398151"></polygon>
                        <polygon id="Shape" fill="#FFFFFF" fill-rule="nonzero" points="70.5408273 28.5757025 67.1609731 28.5757025 60.1832097 7.66398151 63.6720914 7.66398151"></polygon>
                        <path d="M25.5124476,3.39404896 L25.5124476,7.66398151 L60.1832097,7.66398151 L60.1832097,3.39404896 C60.1832097,1.86125265 58.9839066,0.656912701 57.4575208,0.656912701 L28.1291089,0.656912701 C26.7117507,0.656912701 25.5124476,1.9707381 25.5124476,3.39404896 Z" id="Shape" fill="#FF5E5B" fill-rule="nonzero"></path>
                        <path d="M60.1832097,7.66398151 L46.3367103,7.66398151 L46.3367103,0.656912701 L57.4575208,0.656912701 C58.9839066,0.656912701 60.1832097,1.86125265 60.1832097,3.39404896 L60.1832097,7.66398151 Z" id="Shape" fill="#004DD0" fill-rule="nonzero"></path>
                        <rect id="Rectangle-path" fill="#FFFFFF" fill-rule="nonzero" x="39.3589469" y="0.656912701" width="6.97776344" height="7.00706881"></rect>
                        <path d="M84.4963541,35.4732859 L84.4963541,53.6478706 C84.4963541,55.1806669 83.297051,56.3850068 81.7706653,56.3850068 L3.92499193,56.3850068 C2.39860618,56.3850068 1.19930309,55.1806669 1.19930309,53.6478706 L1.19930309,35.4732859 L8.17706653,28.466217 L77.5185907,28.466217 L84.4963541,35.4732859 Z" id="Shape" fill="#FFFFFF" fill-rule="nonzero"></path>
                        <rect id="Rectangle-path" fill="#DCDCDC" fill-rule="nonzero" x="4.03401949" y="49.4874235" width="77.6276183" height="5.58375796"></rect>
                        <polygon id="Shape" fill="#DCDCDC" fill-rule="nonzero" points="84.4963541 35.4732859 1.19930309 35.4732859 8.17706653 28.5757025 77.5185907 28.5757025"></polygon>
                        <path d="M67.1609731,11.1675159 L74.1387365,28.5757025 L81.1165,35.5827713 L81.1165,52.9909579 L4.79721236,52.9909579 L4.79721236,35.4732859 L11.7749758,28.466217 L18.7527392,11.0580305 L67.1609731,11.0580305 L67.1609731,11.1675159 Z M67.1609731,7.44501061 L18.5346841,7.44501061 C17.0082984,7.44501061 15.6999677,8.32089421 15.15483,9.74420507 L8.50414919,26.4954789 L2.07152352,32.9551205 C1.4173582,33.6120332 0.981247984,34.5974023 0.981247984,35.5827713 L0.981247984,52.9909579 C0.981247984,55.0711814 2.61666129,56.7134632 4.68818481,56.7134632 L81.0074724,56.7134632 C83.0789959,56.7134632 84.7144092,55.0711814 84.7144092,52.9909579 L84.7144092,35.4732859 C84.7144092,34.4879168 84.278299,33.5025478 83.6241337,32.8456351 L77.191508,26.3859935 L70.5408273,9.63471962 C69.9956895,8.32089421 68.6873589,7.44501061 67.1609731,7.44501061 L67.1609731,7.44501061 Z" id="Shape" fill="#000000" fill-rule="nonzero"></path>
                        <path d="M18.5346841,40.619102 L18.5346841,40.619102 C18.5346841,41.6044711 17.7714913,42.4803547 16.6812157,42.4803547 L9.92150739,42.4803547 C8.94025941,42.4803547 8.06803898,41.7139565 8.06803898,40.619102 L8.06803898,37.3345385 C8.06803898,36.3491695 8.83123185,35.4732859 9.92150739,35.4732859 L13.4103891,35.4732859 C16.2451055,35.4732859 18.5346841,37.7724803 18.5346841,40.619102 Z" id="Shape" stroke="#000000" stroke-width="2.2615" stroke-linejoin="round" fill="#45EFFF" fill-rule="nonzero"></path>
                        <path d="M84.4963541,27.3713625 L84.4963541,27.3713625 C84.4963541,28.0282752 83.9512164,28.5757025 83.297051,28.5757025 L78.8269213,28.5757025 C78.172756,28.5757025 77.6276183,28.0282752 77.6276183,27.3713625 L77.6276183,25.1816535 C77.6276183,24.5247408 78.172756,23.9773136 78.8269213,23.9773136 L81.1165,23.9773136 C82.9699684,23.8678281 84.4963541,25.4006244 84.4963541,27.3713625 Z" id="Shape" stroke="#000000" stroke-width="2.2615" stroke-linejoin="round" fill="#000000" fill-rule="nonzero"></path>
                        <path d="M1.19930309,27.3713625 L1.19930309,27.3713625 C1.19930309,28.0282752 1.74444086,28.5757025 2.39860618,28.5757025 L6.86873589,28.5757025 C7.52290121,28.5757025 8.06803898,28.0282752 8.06803898,27.3713625 L8.06803898,25.1816535 C8.06803898,24.5247408 7.52290121,23.9773136 6.86873589,23.9773136 L4.57915726,23.9773136 C2.72568884,23.8678281 1.19930309,25.4006244 1.19930309,27.3713625 Z" id="Shape" stroke="#000000" stroke-width="2.2615" stroke-linejoin="round" fill="#000000" fill-rule="nonzero"></path>
                        <path d="M67.1609731,40.619102 L67.1609731,40.619102 C67.1609731,41.6044711 67.924166,42.4803547 69.0144415,42.4803547 L75.7741498,42.4803547 C76.7553978,42.4803547 77.6276183,41.7139565 77.6276183,40.619102 L77.6276183,37.3345385 C77.6276183,36.3491695 76.8644254,35.4732859 75.7741498,35.4732859 L72.2852681,35.4732859 C69.4505517,35.4732859 67.1609731,37.7724803 67.1609731,40.619102 Z" id="Shape" stroke="#000000" stroke-width="2.2615" stroke-linejoin="round" fill="#45EFFF" fill-rule="nonzero"></path>
                        <path d="M11.6659482,49.4874235 L18.5346841,49.4874235" id="Shape" stroke="#000000" stroke-width="2.2615" stroke-linecap="round" stroke-linejoin="round"></path>
                        <path d="M67.1609731,49.4874235 L74.029709,49.4874235" id="Shape" stroke="#000000" stroke-width="2.2615" stroke-linecap="round" stroke-linejoin="round"></path>
                        <path d="M25.5124476,35.4732859 L25.5124476,43.2467528 C25.5124476,44.7795491 26.7117507,45.9838891 28.2381364,45.9838891 L57.5665484,45.9838891 C59.0929341,45.9838891 60.2922372,44.7795491 60.2922372,43.2467528 L60.2922372,35.4732859 L25.5124476,35.4732859 Z" id="Shape" stroke="#000000" stroke-width="2.2615" stroke-linecap="round" stroke-linejoin="round" fill="#DCDCC8" fill-rule="nonzero"></path>
                        <path d="M8.17706653,28.5757025 L77.5185907,28.5757025" id="Shape" stroke="#000000" stroke-width="2.2615" stroke-linecap="round" stroke-linejoin="round"></path>
                        <path d="M25.5124476,3.39404896 L25.5124476,7.66398151 L60.1832097,7.66398151 L60.1832097,3.39404896 C60.1832097,1.86125265 58.9839066,0.656912701 57.4575208,0.656912701 L28.1291089,0.656912701 C26.7117507,0.656912701 25.5124476,1.9707381 25.5124476,3.39404896 Z" id="Shape" stroke="#000000" stroke-width="2.2615" stroke-linejoin="round"></path>
                        <rect id="Rectangle-path" stroke="#000000" stroke-width="2.2615" stroke-linejoin="round" fill="#000000" fill-rule="nonzero" x="8.17706653" y="56.3850068" width="10.3576176" height="7.00706881"></rect>
                        <rect id="Rectangle-path" stroke="#000000" stroke-width="2.2615" stroke-linejoin="round" fill="#000000" fill-rule="nonzero" x="67.1609731" y="56.3850068" width="10.3576176" height="7.00706881"></rect>
                    </g>
                </g>
            </g>
        </g>
    </g>
</svg>