<?xml version="1.0" encoding="UTF-8" standalone="no"?>
<svg width="238px" height="207px" viewBox="0 0 238 207" version="1.1" xmlns="http://www.w3.org/2000/svg" xmlns:xlink="http://www.w3.org/1999/xlink">
    <!-- Generator: Sketch 42 (36781) - http://www.bohemiancoding.com/sketch -->
    <title>intro-confetti-01</title>
    <desc>Created with Sketch.</desc>
    <defs></defs>
    <g id="Page-1" stroke="none" stroke-width="1" fill="none" fill-rule="evenodd">
        <g id="intro-1" transform="translate(-67.000000, -52.000000)" fill-rule="nonzero" fill="#89D3E6">
            <g id="intro-confetti-01" transform="translate(67.000000, 52.000000)">
                <path d="M42.1225772,123.134025 C42.1225772,123.405942 42.0317963,123.677858 41.9410153,123.949774 C41.3963295,125.399993 39.7622721,126.125102 38.3097767,125.535951 C28.0061371,121.502529 11.3478299,117.28783 6.67261014,120.460184 C6.12792435,120.822739 5.58323856,121.366571 5.58323856,122.726151 C5.58323856,125.354673 11.1208775,125.58127 11.2116584,125.58127 C12.7549348,125.58127 14.0258684,126.850212 14.0258684,128.391069 C13.9804779,129.977246 12.7549348,131.200868 11.2116584,131.200868 C7.3080769,131.200868 -0.0451813167,129.388095 0.000209166095,122.726151 C0.000209166095,119.735075 1.2257522,117.378469 3.54066683,115.837611 C12.3464205,109.855458 35.7679096,118.511452 40.3977389,120.324226 C41.532501,120.77742 42.2133582,121.955723 42.1225772,123.134025 Z" id="Shape"></path>
                <path d="M212.097947,54.3206921 C212.097947,54.5926082 212.007166,54.8645242 211.916385,55.1364403 C211.371699,56.5866593 209.737642,57.3117687 208.285146,56.7226173 C197.981507,52.6891958 181.323199,48.4744969 176.64798,51.6468509 C176.103294,52.0094056 175.558608,52.5532377 175.558608,53.912818 C175.558608,56.5413399 181.096247,56.7679366 181.187028,56.7679366 C182.730304,56.7679366 184.001238,58.0368782 184.001238,59.5777359 C183.955847,61.1639129 182.730304,62.3875352 181.187028,62.3875352 C177.283446,62.3875352 169.930188,60.5747614 169.975579,53.912818 C169.975579,50.9217414 171.201122,48.5651356 173.516036,47.0242779 C182.32179,41.0421246 205.743279,49.6981191 210.373108,51.5108928 C211.50787,51.9640863 212.188728,53.1423892 212.097947,54.3206921 Z" id="Shape-Copy" transform="translate(191.040696, 53.667101) rotate(144.000000) translate(-191.040696, -53.667101) "></path>
                <path d="M47.8067722,86.0815482 C48.0403051,86.8476682 48.0069433,87.7137169 47.606601,88.4798369 C46.3388506,90.9114352 44.6373961,92.7434613 42.6356849,93.7094387 C40.5338882,94.7420352 38.2319203,94.7420352 36.3302947,93.7760578 C32.9607475,92.0439604 31.0924838,87.2806926 34.0616887,81.5514473 C35.1959917,79.3197064 34.8623732,77.9873238 34.5287546,77.8207759 C34.1951361,77.6542281 32.8940238,78.120562 31.7597208,80.3523029 C30.4919704,82.7839012 28.7905159,84.6159273 26.7888047,85.5819047 C24.687008,86.6145012 22.3850401,86.6145012 20.4834145,85.6485238 C17.1138673,83.9164264 15.2456035,79.1531586 18.2148085,73.4239133 C19.0488548,71.7917446 19.0488548,70.7591481 18.9487692,70.2928141 C18.8820455,69.9264089 18.7485981,69.7265515 18.6485125,69.693242 C18.314894,69.5266941 17.0137817,69.993028 15.8794787,72.2247689 C15.0787943,73.757009 13.1771686,74.3898907 11.6425234,73.5904611 C10.1078782,72.7910316 9.47400294,70.8923863 10.2746874,69.3601463 C13.2105305,63.5975915 18.1814466,62.3651375 21.5509938,64.0972349 C24.9205409,65.8293324 26.7888047,70.5926002 23.8195998,76.3218455 C22.9855535,77.9540142 22.9855535,78.9866107 23.085639,79.4529447 C23.1523627,79.8193499 23.2858101,80.0192073 23.3858957,80.0525168 C23.7195142,80.2190647 25.0206265,79.7527307 26.1549295,77.4876803 C29.1241344,71.758435 34.0616887,70.4926715 37.4312358,72.2247689 C40.800783,73.9568663 42.6690468,78.7201342 39.6998419,84.4493795 C38.8657955,86.0815482 38.8657955,87.1141447 38.9658811,87.5804786 C39.0326048,87.9468839 39.1660522,88.1467413 39.2661378,88.1800508 C39.5997563,88.3465987 40.9008686,87.8802647 42.0351716,85.6485238 C42.8358561,84.1162838 44.7374817,83.4834021 46.2721269,84.2828317 C47.0060877,84.6159273 47.5398773,85.3154282 47.8067722,86.0815482 Z" id="Shape"></path>
                <path d="M198.582567,90.8343508 C197.992491,90.6077541 197.447805,90.19988 197.175462,89.5654092 C196.267652,87.6166775 195.949919,85.6679457 196.267652,83.9911301 C196.630776,82.1783563 197.720148,80.7734567 199.263424,80.0483472 C201.941463,78.7794056 205.799654,79.8670698 207.978397,84.4896428 C208.840816,86.2570972 209.839407,86.7102906 210.111749,86.5743326 C210.384092,86.4383746 210.701826,85.3960297 209.839407,83.6285753 C208.931597,81.6798436 208.613864,79.7311118 208.931597,78.0542961 C209.294721,76.2415224 210.384092,74.7913034 211.927369,74.1115133 C214.605407,72.8425717 218.463598,73.9302359 220.642341,78.5528089 C221.277808,79.8670698 221.913275,80.3655826 222.231008,80.5015406 C222.503351,80.6374987 222.684913,80.6374987 222.775694,80.5921793 C223.048037,80.4562213 223.36577,79.4138764 222.503351,77.646422 C221.913275,76.4227998 222.457961,74.9272615 223.683504,74.33811 C224.909047,73.7489585 226.406933,74.2927907 226.997009,75.5164129 C229.175752,80.0936666 227.587085,83.8098527 224.909047,85.0787943 C222.231008,86.3477359 218.372817,85.2600717 216.194074,80.6374987 C215.558607,79.3232377 214.923141,78.8700443 214.605407,78.6887669 C214.333064,78.5528089 214.151502,78.5528089 214.060721,78.5981282 C213.788379,78.7340863 213.470645,79.7764312 214.333064,81.5438855 C216.511808,86.1211392 214.923141,89.8373253 212.245102,91.1062669 C209.567064,92.3752085 205.708873,91.2875443 203.530129,86.6649713 C202.894663,85.3507103 202.259196,84.8975169 201.941463,84.7162395 C201.66912,84.5802815 201.487558,84.5802815 201.396777,84.6256009 C201.124434,84.7615589 200.8067,85.8039038 201.66912,87.5713582 C202.259196,88.7949804 201.71451,90.2905187 200.488967,90.8796702 C199.898891,91.0609476 199.218034,91.0609476 198.582567,90.8343508 Z" id="Shape"></path>
                <path d="M60.565253,206.336069 C60.0205672,206.653304 59.33971,206.743943 58.7042432,206.562666 C56.616281,206.018834 54.9368331,204.976489 53.8474616,203.616908 C52.7126995,202.166689 52.3041851,200.399235 52.75809,198.767739 C53.5297282,195.91262 56.8886239,193.691972 61.7907961,195.006233 C63.6971963,195.504746 64.6503965,195.051553 64.7411774,194.734317 C64.8319584,194.462401 64.2418821,193.556014 62.3354819,193.012182 C60.2475196,192.46835 58.5680718,191.426005 57.4787002,190.066425 C56.3439381,188.616206 55.9354238,186.848751 56.3893286,185.217255 C57.1609668,182.362137 60.5198625,180.141489 65.4220347,181.45575 C66.8291397,181.818304 67.6007779,181.637027 67.9639017,181.501069 C68.2362446,181.365111 68.3724161,181.274472 68.3724161,181.183834 C68.463197,180.911918 67.8731208,180.005531 65.9667205,179.461699 C64.6503965,179.099144 63.8787583,177.739564 64.1964916,176.425303 C64.5596155,175.111042 65.92133,174.340613 67.237654,174.657848 C72.1398261,175.972109 73.9554455,179.552337 73.1838073,182.452775 C72.412169,185.307894 69.0532733,187.528542 64.1511012,186.214281 C62.7439962,185.851726 61.972358,186.033003 61.6092341,186.168961 C61.3368912,186.304919 61.2007198,186.395558 61.2007198,186.486197 C61.1099388,186.758113 61.7000151,187.6645 63.6064154,188.208332 C68.5085875,189.522593 70.3242068,193.102821 69.5525686,196.003259 C68.7809304,198.858377 65.4220347,201.079025 60.5198625,199.764764 C59.1127576,199.402209 58.3411194,199.583487 57.9779955,199.719445 C57.7056526,199.855403 57.5694812,199.946042 57.5694812,200.03668 C57.4787002,200.308596 58.0687765,201.214983 59.9751767,201.758815 C61.2915007,202.12137 62.063139,203.48095 61.7454056,204.795211 C61.5638436,205.475001 61.1099388,206.018834 60.565253,206.336069 Z" id="Shape"></path>
                <path d="M160.251293,169.100919 C165.652761,165.701968 170.509542,167.106868 172.506724,170.279222 C174.503905,173.451576 173.686876,178.391385 168.285409,181.790335 C166.197447,183.104596 165.834323,184.418857 166.015885,184.736093 C166.242837,185.053328 167.559161,185.279925 169.647123,183.965664 C175.048591,180.566713 179.905372,181.971613 181.902554,185.143967 C183.899735,188.316321 183.082706,193.256129 177.681239,196.65508 C175.593277,197.969341 175.230153,199.283602 175.411715,199.600837 C175.593277,199.918072 176.954991,200.144669 179.042953,198.830408 C180.495449,197.924021 182.401849,198.331895 183.355049,199.782114 C184.262859,201.232333 183.854344,203.135746 182.356458,204.087452 C176.954991,207.486403 172.098209,206.081503 170.101028,202.909149 C168.103847,199.736795 168.920876,194.796987 174.322343,191.398036 C176.410305,190.083775 176.773429,188.769514 176.591867,188.452279 C176.410305,188.135043 175.048591,187.908447 172.960629,189.222707 C167.559161,192.621658 162.702379,191.216759 160.705198,188.044405 C158.708017,184.872051 159.525046,179.932242 164.926513,176.533291 C167.014475,175.219031 167.377599,173.90477 167.196037,173.587534 C166.969085,173.270299 165.652761,173.043702 163.564799,174.357963 C162.112303,175.26435 160.205903,174.856476 159.252703,173.406257 C158.344893,171.910718 158.753407,170.007306 160.251293,169.100919 Z" id="Shape"></path>
                <path d="M111.208821,1.52643187 C115.399221,-1.11043738 119.16706,-0.0205314259 120.716451,2.44054654 C122.265843,4.9016245 121.632001,8.73387448 117.441601,11.3707437 C115.821782,12.3903332 115.540075,13.4099226 115.680928,13.6560304 C115.856996,13.9021382 116.878186,14.0779295 118.498004,13.05834 C122.688404,10.4214708 126.456243,11.5113767 128.005635,13.9724547 C129.555026,16.4335327 128.921184,20.2657827 124.730784,22.9026519 C123.110966,23.9222413 122.829258,24.9418308 122.970112,25.1879386 C123.110966,25.4340464 124.167369,25.6098377 125.787188,24.5902482 C126.914018,23.8870831 128.392983,24.2035074 129.132465,25.3285716 C129.836734,26.4536358 129.519813,27.9302826 128.357769,28.668606 C124.167369,31.3054752 120.39953,30.2155693 118.850139,27.7544913 C117.300747,25.2934133 117.934589,21.4611634 122.124989,18.8242941 C123.744808,17.8047047 124.026515,16.7851152 123.885661,16.5390074 C123.744808,16.2928997 122.688404,16.1171084 121.068586,17.1366978 C116.878186,19.7735671 113.110347,18.6836611 111.560955,16.2225831 C110.011564,13.7615052 110.645406,9.9292552 114.835806,7.29238595 C116.455624,6.27279651 116.737332,5.25320707 116.596478,5.00709927 C116.420411,4.76099148 115.399221,4.58520019 113.779402,5.60478964 C112.652572,6.30795477 111.173607,5.99153046 110.434125,4.86646625 C109.729856,3.70624378 110.046777,2.229597 111.208821,1.52643187 Z" id="Shape-Copy-2"></path>
                <path d="M186.373838,160.163966 C185.239076,160.028008 184.195095,159.393537 183.514237,158.351192 C182.379475,156.538419 182.924161,154.136493 184.73978,153.00351 C185.64759,152.414358 207.571193,139.045152 235.44095,146.386886 C237.528912,146.930718 238.754455,149.060727 238.209769,151.145417 C237.665083,153.230107 235.531731,154.453729 233.443769,153.909897 C208.842127,147.429231 189.051876,159.484176 188.870314,159.620134 C188.098676,160.073327 187.190866,160.254605 186.373838,160.163966 Z" id="Shape" transform="translate(210.630681, 152.188661) rotate(23.000000) translate(-210.630681, -152.188661) "></path>
                <path d="M36.3019981,50.813363 C35.5069883,50.7181113 34.7755792,50.2736036 34.2985733,49.5433408 C33.5035635,48.2733187 33.8851682,46.5905394 35.1571839,45.7967756 C35.7931918,45.3840184 51.152782,36.0176051 70.6782236,41.1611948 C72.1410418,41.5422014 72.9996524,43.0344774 72.6180477,44.4950029 C72.2364429,45.9555283 70.7418244,46.8127933 69.2790063,46.4317866 C52.043193,41.8914575 38.1782213,50.3371047 38.0510198,50.4323563 C37.5104131,50.7498619 36.8744052,50.8768641 36.3019981,50.813363 Z" id="Shape-Copy-3" transform="translate(53.296247, 45.225896) rotate(45.000000) translate(-53.296247, -45.225896) "></path>
                <ellipse id="Oval" cx="205.448266" cy="116.8491" rx="5.08373408" ry="5.07576641"></ellipse>
                <ellipse id="Oval-Copy-2" cx="171.349744" cy="33.0357664" rx="5.08373408" ry="5.07576641"></ellipse>
                <ellipse id="Oval" cx="121.322296" cy="185.995347" rx="6.44544856" ry="6.4353467"></ellipse>
                <ellipse id="Oval" cx="41.8198328" cy="154.855347" rx="6.44544856" ry="6.4353467"></ellipse>
                <ellipse id="Oval-Copy" cx="84.7163845" cy="36.3153467" rx="6.44544856" ry="6.4353467"></ellipse>
            </g>
        </g>
    </g>
</svg>