<?xml version="1.0" encoding="utf-8"?>
<!-- Generator: Adobe Illustrator 20.1.0, SVG Export Plug-In . SVG Version: 6.00 Build 0)  -->
<svg version="1.1" id="Layer_1" xmlns="http://www.w3.org/2000/svg" xmlns:xlink="http://www.w3.org/1999/xlink" x="0px" y="0px"
	 viewBox="0 0 500 500" style="enable-background:new 0 0 500 500;" xml:space="preserve">
<style type="text/css">
	.st0{fill:#4685CE;}
</style>
<g id="bounds">
</g>
<g>
	<path class="st0" d="M485,407.5h-3.9V244.7h3.9c4.3,0,7.8-3.6,7.8-7.9c0-4.4-3.5-7.9-7.8-7.9h-50.9v-51.6c0-4.4-3.5-7.9-7.8-7.9
		h-77v-15.9c0-53.7-41.7-97.7-94-100.4V38.1L287,27.4c2.1-0.7,3.5-2.8,3.5-5s-1.4-4.4-3.5-5L251.7,5.5c-0.1,0-0.4-0.1-0.5-0.1l0,0
		c-0.3,0-0.7-0.1-0.9-0.1c0,0,0,0-0.1,0l0,0c-0.3,0-0.7,0-0.9,0.1c-0.1,0-0.1,0-0.1,0c-0.3,0-0.5,0.1-0.8,0.3h-0.1
		c-0.3,0.1-0.5,0.3-0.7,0.4c0,0-0.1,0-0.1,0.1c0,0,0,0-0.1,0c-0.3,0.1-0.4,0.3-0.5,0.5l-0.1,0.1c-0.3,0.3-0.4,0.4-0.5,0.7l0,0
		c-0.1,0.3-0.3,0.5-0.4,0.8c0,0,0,0.1-0.1,0.1c-0.1,0.3-0.1,0.5-0.3,0.8v0.1c0,0.3-0.1,0.7-0.1,0.9V34v18.7
		c-52.4,2.8-94,46.7-94,100.4V169h-77c-4.3,0-7.8,3.6-7.8,7.9v51.6H15c-4.3,0-7.8,3.6-7.8,7.9c0,4.4,3.5,7.9,7.8,7.9h3.9v162.8H15
		c-4.3,0-7.8,3.6-7.8,7.9c0,4.4,3.5,7.9,7.8,7.9h11.8h47H109h47h188h47h35.3h47H485c4.3,0,7.8-3.6,7.8-7.9
		C492.9,410.8,489.3,407.5,485,407.5z M65.9,407.5H34.5V244.7h31.3V407.5z M166.4,153.4c0-46.7,37.5-84.7,83.6-84.7
		s83.6,38,83.6,84.7v36.8L252,169.5c-1.3-0.3-2.6-0.3-3.8,0l-81.7,20.6V153.4z M101.1,407.5H81.6V244.7h19.6V407.5z M107,205.3
		c-3.5,0.9-5.9,4.1-5.9,7.7v15.9H81.6v-43.7h69.2v9L107,205.3z M148.1,407.5h-31.3V244.7h31.3V407.5z M336.2,407.5h-43.1V344
		c0-24.1-19.3-43.7-43.1-43.7s-43.1,19.6-43.1,43.7v63.5h-43.1V244.7h172.4V407.5z M383.2,407.5h-31.3V244.7h31.3V407.5z
		 M383.2,228.8H116.8v-9.7L250,185.4l133.2,33.7V228.8z M418.4,407.5h-19.6V244.7h19.6V407.5z M418.4,228.8h-19.6v-15.9
		c0-3.7-2.5-6.9-5.9-7.7l-43.7-11.1v-9h69.2V228.8z M465.5,407.5h-31.3V244.7h31.3V407.5z"/>
	<path class="st0" d="M308.8,459.1c4.3,0,7.8-3.6,7.8-7.9c0-4.4-3.5-7.9-7.8-7.9H191.2c-4.3,0-7.8,3.6-7.8,7.9
		c0,4.4,3.5,7.9,7.8,7.9H308.8z"/>
	<path class="st0" d="M332.3,478.9H167.7c-4.3,0-7.8,3.6-7.8,7.9c0,4.4,3.5,7.9,7.8,7.9h164.5c4.3,0,7.8-3.6,7.8-7.9
		C340.1,482.5,336.6,478.9,332.3,478.9z"/>
</g>
</svg>
