<?xml version="1.0" encoding="utf-8"?>
<!-- Generator: Adobe Illustrator 20.0.0, SVG Export Plug-In . SVG Version: 6.00 Build 0)  -->
<svg version="1.1" id="Layer_1" xmlns="http://www.w3.org/2000/svg" xmlns:xlink="http://www.w3.org/1999/xlink" x="0px" y="0px"
	 viewBox="0 0 500 500" style="enable-background:new 0 0 500 500;" xml:space="preserve">
<style type="text/css">
	.st0{fill:#4A90E2;}
</style>
<g id="bounds">
</g>
<path class="st0" d="M252,247.5c-54.7,0-99.2-44.5-99.2-99.2s44.5-99.2,99.2-99.2s99.2,44.5,99.2,99.2S306.7,247.5,252,247.5z
	 M252,61.1c-48.1,0-87.2,39.1-87.2,87.2s39.1,87.2,87.2,87.2s87.2-39.1,87.2-87.2S300.1,61.1,252,61.1z M365.8,450.5
	c-54.7,0-99.2-44.5-99.2-99.2s44.5-99.2,99.2-99.2s99.2,44.5,99.2,99.2S420.5,450.5,365.8,450.5z M365.8,264.1
	c-48.1,0-87.2,39.1-87.2,87.2s39.1,87.2,87.2,87.2s87.2-39.1,87.2-87.2S413.9,264.1,365.8,264.1z M138.2,450.5
	C83.5,450.5,39,406,39,351.3s44.5-99.2,99.2-99.2s99.2,44.5,99.2,99.2S192.9,450.5,138.2,450.5z M138.2,264.1
	c-48.1,0-87.2,39.1-87.2,87.2s39.1,87.2,87.2,87.2s87.2-39.1,87.2-87.2S186.3,264.1,138.2,264.1z M417,334.7h-34.5v-34.5
	c0-2.9-2.4-5.3-5.3-5.3h-22.6c-2.9,0-5.3,2.4-5.3,5.3v34.5h-34.5c-2.9,0-5.3,2.4-5.3,5.3v22.6c0,2.9,2.4,5.3,5.3,5.3h34.5v34.5
	c0,2.9,2.4,5.3,5.3,5.3h22.6c2.9,0,5.3-2.4,5.3-5.3v-34.5H417c2.9,0,5.3-2.4,5.3-5.3V340C422.3,337.1,419.9,334.7,417,334.7z
	 M286.4,137.4c-0.5-0.9-1.4-1.5-2.4-1.5h-24.7l11.3-48c0.3-1.3-0.3-2.6-1.5-3.1c-1.2-0.6-2.6-0.2-3.3,0.9l-48.1,70.5
	c-0.6,0.9-0.7,1.9-0.2,2.8c0.5,0.9,1.4,1.4,2.4,1.4h24.5l-14.2,47.9c-0.3,1.3,0.2,2.6,1.4,3.2c0.4,0.2,0.8,0.3,1.2,0.3
	c0.8,0,1.6-0.3,2.1-1.1l51.3-70.5C286.8,139.4,286.9,138.3,286.4,137.4z M186.3,309.8c-13.8-4.8-33.8-5.8-48.1-5.8s-34.3,1-48.1,5.8
	c-2.7,1-4.6,3.6-4.6,6.6v0.5c1.1,31.3,6.9,58.3,9.5,61c6,8,24.6,21.3,35.6,28.2c2.6,1.6,4.8,2,7.6,2.1c2.2-0.1,4.6-0.4,7.7-2
	c11.2-6.7,29.9-20.1,35.9-28.2c2.9-2.9,8.1-30.5,9.2-61.1v-0.5C191,313.5,189.1,310.8,186.3,309.8z"/>
</svg>
