<?xml version="1.0" encoding="UTF-8"?>
<svg width="208px" height="140px" viewBox="0 0 208 140" version="1.1" xmlns="http://www.w3.org/2000/svg" xmlns:xlink="http://www.w3.org/1999/xlink">
    <!-- Generator: Sketch 42 (36781) - http://www.bohemiancoding.com/sketch -->
    <title>development</title>
    <desc>Created with Sketch.</desc>
    <defs></defs>
    <g id="Page-1" stroke="none" stroke-width="1" fill="none" fill-rule="evenodd">
        <g id="service-overview" transform="translate(-82.000000, -320.000000)">
            <g id="comm-serv-tab" transform="translate(0.000000, 64.000000)">
                <g id="development" transform="translate(173.487575, 332.517012) rotate(-15.000000) translate(-173.487575, -332.517012) translate(72.487575, 255.517012)">
                    <g id="Layer_1" transform="translate(0.000000, -0.000000)">
                        <g id="Group" transform="translate(-0.000000, 0.000000)" stroke="#000000" stroke-linecap="round" stroke-linejoin="round">
                            <rect id="Rectangle-path" stroke-width="2.25847834" fill="#DCDCDC" fill-rule="nonzero" transform="translate(58.482283, 58.595933) rotate(45.000000) translate(-58.482283, -58.595933) " x="49.6618779" y="-15.2753432" width="17.6408099" height="147.742552"></rect>
                            <g transform="translate(3.481772, 3.490015)" id="Shape" stroke-width="1.4116">
                                <path d="M67.5463803,30.0141291 L69.6354436,32.1081381"></path>
                                <path d="M71.7245069,25.8261111 L73.8135702,27.9201201"></path>
                                <path d="M75.9026336,21.6380931 L77.9916969,23.7321021"></path>
                                <path d="M80.0807602,17.4500751 L82.1698235,19.5440841"></path>
                                <path d="M84.2588868,13.2620571 L86.3479501,15.3560661"></path>
                                <path d="M88.4370134,9.07403903 L90.5260767,11.168048"></path>
                                <path d="M92.61514,5.00235485 L94.7042033,6.98003003"></path>
                                <path d="M96.7932666,0.814336836 L98.8823299,2.90834584"></path>
                                <path d="M34.2374264,63.5182732 L36.3264898,65.6122822"></path>
                                <path d="M38.4155531,59.3302552 L40.5046164,61.4242642"></path>
                                <path d="M42.4776206,55.1422372 L44.5666839,57.2362462"></path>
                                <path d="M46.6557472,50.9542192 L48.7448105,53.0482282"></path>
                                <path d="M50.8338738,46.7662012 L52.9229372,48.8602102"></path>
                                <path d="M55.0120005,42.5781832 L57.1010638,44.6721922"></path>
                                <path d="M59.1901271,38.3901651 L61.2791904,40.4841742"></path>
                                <path d="M63.3682537,34.2021471 L65.457317,36.2961561"></path>
                                <path d="M0.812413509,96.9060835 L2.90147682,99.0000925"></path>
                                <path d="M4.99054013,92.7180655 L7.07960344,94.8120745"></path>
                                <path d="M9.16866674,88.5300475 L11.2577301,90.6240565"></path>
                                <path d="M13.3467934,84.3420295 L15.4358567,86.4360385"></path>
                                <path d="M17.52492,80.1540115 L19.6139833,82.2480205"></path>
                                <path d="M21.7030466,75.9659935 L23.7921099,78.0600025"></path>
                                <path d="M25.8811732,71.7779754 L27.9702365,73.8719844"></path>
                                <path d="M30.0592998,67.7062913 L32.1483631,69.6839664"></path>
                            </g>
                            <g transform="translate(13.927089, 13.960060)" id="Shape" stroke-width="1.4116">
                                <path d="M67.5463803,30.0141291 L69.6354436,32.1081381"></path>
                                <path d="M71.7245069,25.8261111 L73.8135702,27.9201201"></path>
                                <path d="M75.9026336,21.6380931 L77.9916969,23.7321021"></path>
                                <path d="M80.0807602,17.4500751 L82.1698235,19.5440841"></path>
                                <path d="M84.2588868,13.2620571 L86.3479501,15.3560661"></path>
                                <path d="M88.4370134,9.07403903 L90.5260767,11.168048"></path>
                                <path d="M92.61514,4.88602102 L94.5881443,6.98003003"></path>
                                <path d="M96.6772076,0.698003003 L98.7662709,2.79201201"></path>
                                <path d="M34.1213674,63.4019394 L36.2104307,65.4959484"></path>
                                <path d="M38.299494,59.2139214 L40.3885573,61.3079304"></path>
                                <path d="M42.4776206,55.1422372 L44.5666839,57.2362462"></path>
                                <path d="M46.6557472,50.9542192 L48.7448105,53.0482282"></path>
                                <path d="M50.8338738,46.7662012 L52.9229372,48.8602102"></path>
                                <path d="M55.0120005,42.5781832 L57.1010638,44.6721922"></path>
                                <path d="M59.1901271,38.3901651 L61.2791904,40.4841742"></path>
                                <path d="M63.3682537,34.2021471 L65.457317,36.2961561"></path>
                                <path d="M0.812413509,96.9060835 L2.90147682,99.0000925"></path>
                                <path d="M4.99054013,92.7180655 L7.07960344,94.8120745"></path>
                                <path d="M9.16866674,88.5300475 L11.2577301,90.6240565"></path>
                                <path d="M13.3467934,84.3420295 L15.4358567,86.4360385"></path>
                                <path d="M17.52492,80.1540115 L19.6139833,82.2480205"></path>
                                <path d="M21.7030466,75.9659935 L23.7921099,78.0600025"></path>
                                <path d="M25.8811732,71.7779754 L27.9702365,73.8719844"></path>
                                <path d="M30.0592998,67.5899574 L32.0323041,69.6839664"></path>
                            </g>
                        </g>
                        <g id="Group" transform="translate(68.474853, 38.390165)" stroke-linecap="round" stroke-linejoin="round">
                            <path d="M0.464236291,10.0047097 L0.464236291,82.597022 C0.464236291,87.9483783 4.75842198,92.2527302 10.0971393,92.2527302 L107.238583,92.2527302 L107.238583,10.0047097 L0.464236291,10.0047097 Z" id="Shape" stroke="#000000" stroke-width="1.8492" fill="#FFFFFF" fill-rule="nonzero"></path>
                            <g transform="translate(24.372405, 19.776752)" stroke="#0082E7">
                                <g transform="translate(10.445317, -0.000000)" stroke-width="1.8492">
                                    <polygon id="Shape" points="22.1672829 7.10542736e-14 0.464236291 19.3114164 0.464236291 50.8378854 43.8703295 50.8378854 43.8703295 19.3114164"></polygon>
                                    <path d="M0.464236291,19.3114164 L43.8703295,19.3114164" id="Shape"></path>
                                    <rect id="Rectangle-path" x="17.4088609" y="33.8531456" width="9.63290303" height="16.9847397"></rect>
                                    <polygon id="Shape" points="22.1672829 1.13686838e-13 36.674667 1.13686838e-13 58.3777136 19.3114164 58.3777136 50.8378854 43.8703295 50.8378854 43.8703295 19.3114164"></polygon>
                                    <path d="M43.8703295,19.3114164 L58.3777136,19.3114164" id="Shape"></path>
                                </g>
                                <g id="Shape">
                                    <polyline stroke-width="1.8492" points="0.696354436 -1.42108547e-13 0.696354436 60.4935936 68.3587938 60.4935936"></polyline>
                                    <g transform="translate(1.160591, 2.326677)" stroke-width="1.1558">
                                        <path d="M0.116059073,7.81597009e-14 L2.5532996,7.81597009e-14"></path>
                                        <path d="M0.116059073,4.88602102 L2.5532996,4.88602102"></path>
                                        <path d="M0.116059073,9.77204204 L2.5532996,9.77204204"></path>
                                        <path d="M0.116059073,14.5417292 L2.5532996,14.5417292"></path>
                                        <path d="M0.116059073,19.4277502 L2.5532996,19.4277502"></path>
                                        <path d="M0.116059073,24.3137713 L2.5532996,24.3137713"></path>
                                        <path d="M0.116059073,29.0834584 L2.5532996,29.0834584"></path>
                                        <path d="M0.116059073,33.9694795 L2.5532996,33.9694795"></path>
                                        <path d="M0.116059073,38.7391666 L2.5532996,38.7391666"></path>
                                        <path d="M0.116059073,43.6251877 L2.5532996,43.6251877"></path>
                                        <path d="M0.116059073,48.5112087 L2.5532996,48.5112087"></path>
                                        <path d="M0.116059073,53.2808959 L2.5532996,53.2808959"></path>
                                    </g>
                                    <g transform="translate(5.802954, 58.003579)" stroke-width="1.1558">
                                        <path d="M0.232118145,2.49001501 L0.232118145,0.047004504"></path>
                                        <path d="M5.1065992,2.49001501 L5.1065992,0.047004504"></path>
                                        <path d="M9.98108025,2.49001501 L9.98108025,0.047004504"></path>
                                        <path d="M14.7395022,2.49001501 L14.7395022,0.047004504"></path>
                                        <path d="M19.6139833,2.49001501 L19.6139833,0.047004504"></path>
                                        <path d="M24.3724053,2.49001501 L24.3724053,0.047004504"></path>
                                        <path d="M29.2468863,2.49001501 L29.2468863,0.047004504"></path>
                                        <path d="M34.1213674,2.49001501 L34.1213674,0.047004504"></path>
                                        <path d="M38.8797894,2.49001501 L38.8797894,0.047004504"></path>
                                        <path d="M43.7542704,2.49001501 L43.7542704,0.047004504"></path>
                                        <path d="M48.5126924,2.49001501 L48.5126924,0.047004504"></path>
                                        <path d="M53.3871734,2.49001501 L53.3871734,0.047004504"></path>
                                        <path d="M58.2616545,2.49001501 L58.2616545,0.047004504"></path>
                                    </g>
                                </g>
                            </g>
                            <path d="M0.464236291,82.7133558 L0.464236291,8.49236987 C0.464236291,4.07168418 4.06206754,0.465335335 8.47231231,0.465335335 L19.7300424,0.465335335 L19.7300424,73.0576476 L10.0971393,73.0576476 C4.75842198,72.9413138 0.464236291,77.3619995 0.464236291,82.7133558 Z" id="Shape" stroke="#000000" stroke-width="1.8492" fill="#D1FBFF" fill-rule="nonzero"></path>
                        </g>
                        <g id="Group" transform="translate(139.270887, 105.863789)">
                            <g transform="translate(0.000000, 0.000000)" id="Shape" fill-rule="nonzero">
                                <path d="M3.13359496,45.8355305 C2.5532996,45.8355305 2.08906331,45.486529 1.85694516,44.9048598 C1.62482702,44.3231907 1.85694516,43.7415215 2.32118145,43.39252 L58.3777136,1.97767517 C58.6098317,1.86134134 58.8419499,1.74500751 59.1901271,1.74500751 C59.4222452,1.74500751 59.5383043,1.74500751 59.7704224,1.86134134 C60.2346587,2.09400901 60.4667769,2.55934434 60.4667769,3.02467968 L60.4667769,44.4395245 C60.4667769,45.1375275 59.8864815,45.7191967 59.1901271,45.7191967 L3.13359496,45.7191967 L3.13359496,45.8355305 Z M48.9769287,34.318481 L48.9769287,23.3831006 L33.7731902,34.318481 L48.9769287,34.318481 Z" fill="#FFDA00"></path>
                                <path d="M59.1901271,3.14101351 L59.1901271,44.5558583 L3.13359496,44.5558583 L59.1901271,3.14101351 L59.1901271,3.14101351 Z M32.7286585,35.5981531 L49.3251059,35.5981531 C49.9054013,35.5981531 50.2535785,35.1328178 50.2535785,34.6674825 L50.2535785,22.8014314 C50.2535785,22.2197623 49.7893422,21.8707607 49.3251059,21.8707607 C49.0929878,21.8707607 48.9769287,21.8707607 48.7448105,22.1034284 L32.1483631,33.9694795 C31.3359496,34.318481 31.8001859,35.5981531 32.7286585,35.5981531 L32.7286585,35.5981531 Z M59.1901271,0.465335335 C58.6098317,0.465335335 58.1455954,0.581669169 57.6813591,0.93067067 L1.62482702,42.3455155 C0.696354436,43.0435185 0.348177218,44.2068568 0.696354436,45.2538613 C1.04453165,46.3008658 2.08906331,47.1152027 3.13359496,47.1152027 L59.1901271,47.1152027 C60.582836,47.1152027 61.8594858,45.9518643 61.8594858,44.4395245 L61.8594858,3.02467968 C61.8594858,1.97767517 61.2791904,1.16333834 60.4667769,0.698003003 C60.0025406,0.581669169 59.5383043,0.465335335 59.1901271,0.465335335 L59.1901271,0.465335335 Z M37.8352577,32.922475 L47.7002789,25.8261111 L47.7002789,32.922475 L37.8352577,32.922475 L37.8352577,32.922475 Z" fill="#000000"></path>
                            </g>
                            <g transform="translate(11.605907, 40.716842)" id="Shape" stroke="#000000" stroke-width="1.4116" stroke-linecap="round" stroke-linejoin="round">
                                <path d="M0.348177218,0.814336836 L0.348177218,3.72268268"></path>
                                <path d="M6.26718993,0.814336836 L6.26718993,3.72268268"></path>
                                <path d="M12.1862026,0.814336836 L12.1862026,3.72268268"></path>
                                <path d="M18.1052153,0.814336836 L18.1052153,3.72268268"></path>
                                <path d="M23.908169,0.814336836 L23.908169,3.72268268"></path>
                                <path d="M29.8271817,0.814336836 L29.8271817,3.72268268"></path>
                                <path d="M35.7461944,0.814336836 L35.7461944,3.72268268"></path>
                                <path d="M41.6652071,0.814336836 L41.6652071,3.72268268"></path>
                            </g>
                            <g transform="translate(55.708355, 8.143368)" id="Shape" stroke="#000000" stroke-width="1.4116" stroke-linecap="round" stroke-linejoin="round">
                                <path d="M0.464236291,30.3631306 L3.48177218,30.3631306"></path>
                                <path d="M0.464236291,24.5464389 L3.48177218,24.5464389"></path>
                                <path d="M0.464236291,18.6134134 L3.48177218,18.6134134"></path>
                                <path d="M0.464236291,12.6803879 L3.48177218,12.6803879"></path>
                                <path d="M0.464236291,6.74736236 L3.48177218,6.74736236"></path>
                                <path d="M0.464236291,0.814336836 L3.48177218,0.814336836"></path>
                            </g>
                        </g>
                    </g>
                </g>
            </g>
        </g>
    </g>
</svg>