<?xml version="1.0" encoding="utf-8"?>
<!-- Generator: Adobe Illustrator 20.0.0, SVG Export Plug-In . SVG Version: 6.00 Build 0)  -->
<svg version="1.1" id="Layer_1" xmlns="http://www.w3.org/2000/svg" xmlns:xlink="http://www.w3.org/1999/xlink" x="0px" y="0px"
	 viewBox="0 0 500 500" style="enable-background:new 0 0 500 500;" xml:space="preserve">
<style type="text/css">
	.st0{fill:#4A90E2;}
</style>
<g id="bounds">
</g>
<g>
	<path class="st0" d="M432,372h-3V249h3c3.3,0,6-2.7,6-6s-2.7-6-6-6h-39v-39c0-3.3-2.7-6-6-6h-59v-12c0-40.6-31.9-73.8-72-75.9V92.9
		l24.3-8.1c1.6-0.5,2.7-2.1,2.7-3.8s-1.1-3.3-2.7-3.8l-27-9c-0.1,0-0.3-0.1-0.4-0.1c0,0,0,0,0,0c-0.2,0-0.5-0.1-0.7-0.1
		c0,0,0,0-0.1,0c0,0,0,0,0,0c-0.2,0-0.5,0-0.7,0.1c-0.1,0-0.1,0-0.1,0c-0.2,0-0.4,0.1-0.6,0.2c0,0-0.1,0-0.1,0
		c-0.2,0.1-0.4,0.2-0.5,0.3c0,0-0.1,0-0.1,0.1c0,0,0,0-0.1,0c-0.2,0.1-0.3,0.2-0.4,0.4c0,0-0.1,0.1-0.1,0.1
		c-0.2,0.2-0.3,0.3-0.4,0.5c0,0,0,0,0,0c-0.1,0.2-0.2,0.4-0.3,0.6c0,0,0,0.1-0.1,0.1c-0.1,0.2-0.1,0.4-0.2,0.6c0,0,0,0.1,0,0.1
		c0,0.2-0.1,0.5-0.1,0.7v18v14.1c-40.1,2.1-72,35.3-72,75.9v12h-59c-3.3,0-6,2.7-6,6v39H72c-3.3,0-6,2.7-6,6s2.7,6,6,6h3v123h-3
		c-3.3,0-6,2.7-6,6s2.7,6,6,6h9h36h27h36h144h36h27h36h9c3.3,0,6-2.7,6-6S435.3,372,432,372z M111,372H87V249h24V372z M188,180
		c0-35.3,28.7-64,64-64c35.3,0,64,28.7,64,64v27.8l-62.5-15.6c-1-0.2-2-0.2-2.9,0L188,207.8V180z M138,372h-15V249h15V372z
		 M142.5,219.2c-2.7,0.7-4.5,3.1-4.5,5.8v12h-15v-33h53v6.8L142.5,219.2z M174,372h-24V249h24V372z M318,372h-33v-48
		c0-18.2-14.8-33-33-33s-33,14.8-33,33v48h-33V249h132V372z M354,372h-24V249h24V372z M354,237H150v-7.3l102-25.5l102,25.5V237z
		 M381,372h-15V249h15V372z M381,237h-15v-12c0-2.8-1.9-5.2-4.5-5.8l-33.5-8.4V204h53V237z M417,372h-24V249h24V372z"/>
	<path class="st0" d="M297,411c3.3,0,6-2.7,6-6s-2.7-6-6-6h-90c-3.3,0-6,2.7-6,6s2.7,6,6,6H297z"/>
	<path class="st0" d="M315,426H189c-3.3,0-6,2.7-6,6s2.7,6,6,6h126c3.3,0,6-2.7,6-6S318.3,426,315,426z"/>
</g>
</svg>
