<?xml version="1.0" encoding="utf-8"?>
<!-- Generator: Adobe Illustrator 20.0.0, SVG Export Plug-In . SVG Version: 6.00 Build 0)  -->
<svg version="1.1" id="Layer_1" xmlns="http://www.w3.org/2000/svg" xmlns:xlink="http://www.w3.org/1999/xlink" x="0px" y="0px"
	 viewBox="0 0 500 500" style="enable-background:new 0 0 500 500;" xml:space="preserve">
<style type="text/css">
	.st0{fill:#4A90E2;}
</style>
<path class="st0" d="M397,67v336c0,9.9-8.1,18-18,18v-12c3.3,0,6-2.7,6-6V67c0-3.3-2.7-6-6-6H151c-3.3,0-6,2.7-6,6h-12
	c0-9.9,8.1-18,18-18h228C388.9,49,397,57.1,397,67z M309.5,79l57.5,57.5V433c0,9.9-8.1,18-18,18H121c-9.9,0-18-8.1-18-18V97
	c0-9.9,8.1-18,18-18H309.5z M313,133h33.5L313,99.5V133z M312,145c-6.1,0-11-4.9-11-11V91H121c-3.3,0-6,2.7-6,6v336c0,3.3,2.7,6,6,6
	h228c3.3,0,6-2.7,6-6V145H312z M167.5,172c12.4,0,22.5-10.1,22.5-22.5S179.9,127,167.5,127S145,137.1,145,149.5S155.1,172,167.5,172
	z M139,208c0,3.3,2.7,6,6,6h180c3.3,0,6-2.7,6-6s-2.7-6-6-6H145C141.7,202,139,204.7,139,208z M325,274H145c-3.3,0-6,2.7-6,6
	s2.7,6,6,6h180c3.3,0,6-2.7,6-6S328.3,274,325,274z M325,238H145c-3.3,0-6,2.7-6,6s2.7,6,6,6h180c3.3,0,6-2.7,6-6S328.3,238,325,238
	z M325,346H145c-3.3,0-6,2.7-6,6s2.7,6,6,6h180c3.3,0,6-2.7,6-6S328.3,346,325,346z M325,310H145c-3.3,0-6,2.7-6,6s2.7,6,6,6h180
	c3.3,0,6-2.7,6-6S328.3,310,325,310z M214.4,382H145c-3.3,0-6,2.7-6,6s2.7,6,6,6h69.4c3.3,0,6-2.7,6-6S217.7,382,214.4,382z"/>
</svg>
