<?xml version="1.0" encoding="utf-8"?>
<!-- Generator: Adobe Illustrator 20.0.0, SVG Export Plug-In . SVG Version: 6.00 Build 0)  -->
<svg version="1.1" id="Layer_1" xmlns="http://www.w3.org/2000/svg" xmlns:xlink="http://www.w3.org/1999/xlink" x="0px" y="0px"
	 viewBox="0 0 500 500" style="enable-background:new 0 0 500 500;" xml:space="preserve">
<style type="text/css">
	.st0{fill:#4A90E2;}
</style>
<path class="st0" d="M432,426h-12V289c0-3.3-2.7-6-6-6h-72c-3.3,0-6,2.7-6,6v137h-24V219c0-3.3-2.7-6-6-6h-72c-3.3,0-6,2.7-6,6v207
	h-24v-30c0-3.3-2.7-6-6-6h-72c-3.3,0-6,2.7-6,6v30H72c-3.3,0-6,2.7-6,6s2.7,6,6,6h54h72h36h72h36h72h18c3.3,0,6-2.7,6-6
	S435.3,426,432,426z M240,426V225h60v201H240z M66,72c0-3.3,2.7-6,6-6h36c3.3,0,6,2.7,6,6s-2.7,6-6,6H72C68.7,78,66,75.3,66,72z
	 M66,108c0-3.3,2.7-6,6-6h18c3.3,0,6,2.7,6,6s-2.7,6-6,6H72C68.7,114,66,111.3,66,108z M66,144c0-3.3,2.7-6,6-6h18c3.3,0,6,2.7,6,6
	s-2.7,6-6,6H72C68.7,150,66,147.3,66,144z M66,180c0-3.3,2.7-6,6-6h18c3.3,0,6,2.7,6,6s-2.7,6-6,6H72C68.7,186,66,183.3,66,180z
	 M66,216c0-3.3,2.7-6,6-6h18c3.3,0,6,2.7,6,6s-2.7,6-6,6H72C68.7,222,66,219.3,66,216z M66,252c0-3.3,2.7-6,6-6h36c3.3,0,6,2.7,6,6
	s-2.7,6-6,6H72C68.7,258,66,255.3,66,252z M66,288c0-3.3,2.7-6,6-6h18c3.3,0,6,2.7,6,6s-2.7,6-6,6H72C68.7,294,66,291.3,66,288z
	 M66,324c0-3.3,2.7-6,6-6h18c3.3,0,6,2.7,6,6s-2.7,6-6,6H72C68.7,330,66,327.3,66,324z M66,360c0-3.3,2.7-6,6-6h18c3.3,0,6,2.7,6,6
	s-2.7,6-6,6H72C68.7,366,66,363.3,66,360z M66,396c0-3.3,2.7-6,6-6h18c3.3,0,6,2.7,6,6s-2.7,6-6,6H72C68.7,402,66,399.3,66,396z
	 M273.9,157.2v-25.3l3.9,2.6c4.5,2.9,6.4,6.8,6.4,12C284.2,151.9,279.7,155.8,273.9,157.2z M254.5,186.4L270,202l15.6-15.6
	c26.2-6.8,45.6-30.7,45.6-59.2c0-33.8-27.4-61.2-61.2-61.2c-33.8,0-61.2,27.4-61.2,61.2C208.8,155.6,228.2,179.5,254.5,186.4z
	 M258.3,123.1c-5.8-3.3-9.2-9.9-9.2-16.6c0-9.7,6.6-16.5,16.8-17.8v-2.6c0-1.9,1.4-4.1,3.8-4.1c2.5,0,4.1,2.2,4.1,4.1v2.6
	c9.8,1.8,17.5,9.4,17.5,18.9c0,2.2-2.1,4.1-4.1,4.1c-2.2,0-4.2-1.9-4.2-4.1c0-6.2-3.8-9.4-9.2-10.4v25.5l8.1,4.6
	c7.8,4.4,10.5,10.7,10.5,19c0,11-7.7,18-18.6,19.3v2.4c0,2.2-1.5,4.1-4,4.1c-2.4,0-3.9-1.9-3.9-4.1v-2.3h0.1
	c-11.1-1.5-17.6-9.6-17.6-20.1c0-2.2,1.7-4.1,4.1-4.1c2.2,0,4.1,1.9,4.1,4.1c0,6.3,3.8,9.8,9.4,11.2v-29.3L258.3,123.1z M266,118.2
	l-3.1-2c-3.7-2.3-5.4-5.5-5.4-9.5c0-5.6,3.5-8.5,8.5-9.5V118.2z"/>
</svg>
