<?xml version="1.0" encoding="UTF-8" standalone="no"?>
<svg width="221px" height="119px" viewBox="0 0 221 119" version="1.1" xmlns="http://www.w3.org/2000/svg" xmlns:xlink="http://www.w3.org/1999/xlink">
    <!-- Generator: Sketch 42 (36781) - http://www.bohemiancoding.com/sketch -->
    <title>intro-image-03</title>
    <desc>Created with Sketch.</desc>
    <defs>
        <rect id="path-1" x="0" y="0" width="126.495176" height="126.72"></rect>
        <rect id="path-3" x="0" y="0" width="126.495176" height="126.72"></rect>
    </defs>
    <g id="Page-1" stroke="none" stroke-width="1" fill="none" fill-rule="evenodd">
        <g id="intro-3" transform="translate(-78.000000, -105.000000)">
            <g id="intro-image-03" transform="translate(68.000000, 92.000000)">
                <g id="fireman" transform="translate(113.130492, 0.000000)">
                    <mask id="mask-2" fill="white">
                        <use xlink:href="#path-1"></use>
                    </mask>
                    <g id="Mask"></g>
                    <path d="M60.3549837,86.5384627 C46.4614219,86.5384627 40.0292173,71.0737345 40.0292173,60.5061703 C40.0292173,56.3822428 41.3156582,52.5160608 43.3739637,49.1653697 C44.1458282,47.8766423 45.6895573,47.6188969 46.9759982,48.3921333 C48.2624391,49.1653697 48.5197273,50.7118425 47.7478628,52.0005698 C46.2041337,54.5780245 45.174981,57.4132247 45.174981,60.5061703 C45.174981,69.2695163 50.5780328,81.3835533 60.3549837,81.3835533 C70.3892228,81.3835533 75.5349865,69.2695163 75.5349865,60.5061703 C75.5349865,57.4132247 74.7631219,54.5780245 72.9621047,52.2583153 C72.1902401,50.969588 72.4475283,49.4231152 73.7339692,48.6498788 C75.0204101,47.8766423 76.5641392,48.1343878 77.3360038,49.4231152 C79.3943092,52.7738063 80.6807501,56.6399883 80.6807501,60.5061703 C80.6807501,71.0737345 74.2485456,86.5384627 60.3549837,86.5384627 Z" id="Shape" fill="#00A3DE" fill-rule="nonzero" mask="url(#mask-2)"></path>
                    <path d="M75.2776983,53.2892972 C75.0204101,53.2892972 74.7631219,53.2892972 74.5058337,53.0315517 C74.5058337,53.0315517 68.5882056,50.969588 60.3549837,50.969588 C52.1217619,50.969588 46.4614219,53.0315517 46.4614219,53.0315517 C45.174981,53.5470427 43.6312519,52.7738063 43.1166755,51.4850789 C42.6020991,50.1963516 43.3739637,48.6498788 44.6604046,48.1343878 C44.9176928,48.1343878 51.0926092,45.8146786 60.3549837,45.8146786 C69.6173583,45.8146786 76.0495628,48.1343878 76.306851,48.1343878 C77.5932919,48.6498788 78.3651565,50.1963516 77.8505801,51.4850789 C77.3360038,52.7738063 76.306851,53.2892972 75.2776983,53.2892972 Z" id="Shape" fill="#00A3DE" fill-rule="nonzero" mask="url(#mask-2)"></path>
                    <path d="M77.5932919,73.9089347 C76.5641392,73.9089347 75.5349865,73.1356983 75.0204101,72.1047164 C74.5058337,70.8159891 75.2776983,69.2695162 76.8214274,68.7540253 C85.8265138,65.9188252 91.4868538,61.0216612 91.4868538,56.1244973 C91.4868538,48.1343878 77.5932919,41.1752602 61.1268483,41.1752602 C44.6604046,41.1752602 30.7668427,47.8766423 30.7668427,56.1244973 C30.7668427,60.7639158 35.6553182,65.4033342 43.6312519,68.2385344 C44.9176928,68.7540253 45.6895573,70.3004981 45.174981,71.5892255 C44.6604046,72.8779528 43.1166755,73.6511892 41.8302346,73.1356983 C31.5387073,69.5272617 25.6210791,63.083625 25.6210791,56.1244973 C25.6210791,44.7836967 41.3156582,36.0203508 61.1268483,36.0203508 C80.9380383,36.2780962 96.6326174,45.0414422 96.6326174,56.3822428 C96.6326174,63.8568614 89.9431247,70.3004981 78.3651565,73.9089347 L77.5932919,73.9089347 Z" id="Shape" fill="#00A3DE" fill-rule="nonzero" mask="url(#mask-2)"></path>
                    <path d="M80.1661738,44.0104603 C78.8797328,44.0104603 77.5932919,42.9794784 77.5932919,41.6907511 C77.0787156,34.2161325 72.1902401,27.7724958 65.5007474,25.710532 C64.2143065,25.1950411 63.4424419,23.9063137 63.9570183,22.3598409 C64.4715946,21.0711136 65.7580355,20.2978772 67.3017646,20.8133681 C76.0495628,23.6485683 82.4817674,31.8964233 82.9963438,41.4330056 C82.9963438,42.4639875 81.7099029,43.7527148 80.1661738,44.0104603 L80.1661738,44.0104603 Z" id="Shape" fill="#00A3DE" fill-rule="nonzero" mask="url(#mask-2)"></path>
                    <path d="M40.2865055,45.2991877 C38.7427764,45.2991877 37.7136237,44.2682058 37.7136237,42.721733 C37.7136237,32.4119142 44.4031164,23.1330773 53.9227792,20.2978772 C55.2092201,19.7823862 56.7529492,20.5556227 57.0102373,22.1020955 C57.5248137,23.3908228 56.7529492,24.9372956 55.2092201,25.1950411 C47.7478628,27.5147503 42.6020991,34.7316234 42.6020991,42.721733 C42.8593873,44.2682058 41.8302346,45.2991877 40.2865055,45.2991877 Z" id="Shape" fill="#00A3DE" fill-rule="nonzero" mask="url(#mask-2)"></path>
                    <path d="M64.986171,32.1541688 C63.4424419,32.1541688 62.4132892,31.1231869 62.4132892,29.5767141 L62.4132892,21.0711136 C62.4132892,19.7823863 61.3841364,19.0091498 60.3549837,19.0091498 C59.0685428,19.0091498 58.2966783,20.0401317 58.2966783,21.0711136 L58.2966783,29.5767141 C58.2966783,31.1231869 57.2675255,32.1541688 55.7237964,32.1541688 C54.1800673,32.1541688 53.1509146,31.1231869 53.1509146,29.5767141 L53.1509146,21.0711136 C53.1509146,16.9471861 56.495661,13.8542405 60.3549837,13.8542405 C64.2143065,13.8542405 67.5590528,17.2049316 67.5590528,21.0711136 L67.5590528,29.5767141 C67.5590528,30.8654414 66.5299001,32.1541688 64.986171,32.1541688 Z" id="Shape" fill="#00A3DE" fill-rule="nonzero" mask="url(#mask-2)"></path>
                    <path d="M60.0976955,203.039415 C45.4322691,203.039415 36.6844709,202.008433 32.0532837,201.235196 C28.9658255,200.719705 26.90752,198.142251 27.1648082,195.049305 L32.3105718,109.477809 C32.3105718,107.931337 33.5970128,106.900355 35.1407418,107.1581 C36.6844709,107.1581 37.7136237,108.446827 37.4563355,109.9933 L32.3105718,195.564796 C32.3105718,196.080287 32.56786,196.338032 33.0824364,196.338032 C36.6844709,196.853523 44.9176928,197.884505 60.0976955,197.884505 C75.2776983,197.884505 83.5109201,196.853523 87.1129547,196.338032 C87.627531,196.338032 87.8848192,195.822541 87.8848192,195.564796 L82.7390556,109.9933 C82.7390556,108.446827 83.7682083,107.415846 85.0546492,107.1581 C86.3410901,107.1581 87.627531,108.189082 87.8848192,109.477809 L93.0305829,195.049305 C93.2878711,198.142251 90.9722774,200.719705 88.1421074,201.235196 C83.5109201,202.008433 75.0204101,203.039415 60.0976955,203.039415 Z" id="Shape" fill="#00A3DE" fill-rule="nonzero" mask="url(#mask-2)"></path>
                    <path d="M31.0241309,173.398686 L31.0241309,173.398686 C22.0190445,172.883195 14.3003991,171.852213 14.0431109,171.594467 C13.0139582,171.336722 11.9848054,170.563485 11.9848054,169.532504 C11.9848054,169.017013 10.1837882,157.933958 12.2420936,120.303119 C14.3003991,81.1258078 46.9759982,76.4863894 47.2332864,76.4863894 C48.5197273,76.2286439 49.8061682,77.2596258 50.0634564,78.8060986 C50.3207446,80.0948259 49.2915919,81.3835533 47.7478628,81.6412988 L47.7478628,81.6412988 C46.4614219,81.8990442 19.1888745,85.7652263 17.3878573,120.81861 C15.8441282,149.428357 16.3587045,162.573376 16.8732809,167.212794 C19.7034509,167.47054 25.1065027,168.243776 31.2814191,168.501522 C32.8251482,168.501522 33.8543009,169.790249 33.5970128,171.336722 C33.5970128,172.367704 32.3105718,173.398686 31.0241309,173.398686 Z" id="Shape" fill="#00A3DE" fill-rule="nonzero" mask="url(#mask-2)"></path>
                    <path d="M90.2004129,173.398686 C88.913972,173.398686 87.627531,172.367704 87.627531,171.078976 C87.627531,169.532504 88.6566838,168.501522 89.9431247,168.243776 C95.8607529,167.986031 101.521093,167.212794 104.351263,166.955049 C104.865839,162.573376 105.380416,149.428357 103.836687,120.560865 C102.035669,85.7652262 74.5058337,81.6412987 73.476681,81.6412987 C72.1902401,81.3835533 71.1610874,80.0948259 71.1610874,78.8060986 C71.4183756,77.5173712 72.7048165,76.4863894 73.9912574,76.4863894 C74.2485456,76.4863894 106.666857,81.1258078 108.98245,120.560865 C111.040756,158.191703 109.239738,169.274758 109.239738,169.790249 C108.98245,170.821231 108.210586,171.852213 107.181433,171.852213 C106.666857,171.852213 99.2054993,172.883195 90.2004129,173.398686 L90.2004129,173.398686 Z" id="Shape" fill="#00A3DE" fill-rule="nonzero" mask="url(#mask-2)"></path>
                    <path d="M32.8251482,124.427047 L32.8251482,124.427047 C21.24718,124.427047 14.5576873,123.138319 14.3003991,122.880574 C13.0139582,122.622828 11.9848054,121.334101 12.2420936,119.787628 C12.4993818,118.498901 13.7858227,117.467919 15.3295518,117.725664 C15.3295518,117.725664 22.0190445,119.014392 32.8251482,119.014392 C34.3688773,119.014392 35.39803,120.303119 35.39803,121.591846 C35.39803,123.396065 34.3688773,124.427047 32.8251482,124.427047 Z" id="Shape" fill="#00A3DE" fill-rule="nonzero" mask="url(#mask-2)"></path>
                    <path d="M32.8251482,132.159411 L32.8251482,132.159411 C21.24718,132.159411 14.5576873,130.870683 14.3003991,130.612938 C13.0139582,130.355192 11.9848054,129.066465 12.2420936,127.519992 C12.4993818,126.231265 13.7858227,125.200283 15.3295518,125.458028 C15.3295518,125.458028 22.0190445,126.746756 32.8251482,126.746756 C34.3688773,126.746756 35.39803,128.035483 35.39803,129.32421 C35.39803,131.128429 34.3688773,132.159411 32.8251482,132.159411 Z" id="Shape" fill="#00A3DE" fill-rule="nonzero" mask="url(#mask-2)"></path>
                    <path d="M86.8556665,124.427047 C85.5692256,124.427047 84.2827847,123.396065 84.2827847,121.849592 C84.2827847,120.303119 85.3119374,119.272137 86.8556665,119.272137 C97.9190583,119.272137 104.351263,117.98341 104.351263,117.98341 C105.894992,117.725664 107.181433,118.756646 107.438721,120.045374 C107.696009,121.334101 106.924145,122.880574 105.380416,123.138319 C105.123127,123.138319 98.4336347,124.427047 86.8556665,124.427047 L86.8556665,124.427047 Z" id="Shape" fill="#00A3DE" fill-rule="nonzero" mask="url(#mask-2)"></path>
                    <path d="M86.8556665,132.159411 C85.5692256,132.159411 84.2827847,131.128429 84.2827847,129.581956 C84.2827847,128.035483 85.3119374,127.004501 86.8556665,127.004501 C97.9190583,127.004501 104.351263,125.715774 104.351263,125.715774 C105.894992,125.458028 107.181433,126.48901 107.438721,127.777738 C107.696009,129.066465 106.924145,130.612938 105.380416,130.870683 C105.123127,130.870683 98.4336347,132.159411 86.8556665,132.159411 L86.8556665,132.159411 Z" id="Shape" fill="#00A3DE" fill-rule="nonzero" mask="url(#mask-2)"></path>
                    <path d="M66.2726119,108.189082 L54.1800673,108.189082 C52.6363382,108.189082 51.6071855,107.1581 51.6071855,105.611627 C51.6071855,104.065155 52.6363382,103.034173 54.1800673,103.034173 L66.2726119,103.034173 C67.816341,103.034173 68.8454937,104.065155 68.8454937,105.611627 C68.8454937,107.1581 67.816341,108.189082 66.2726119,108.189082 Z" id="Shape" fill="#00A3DE" fill-rule="nonzero" mask="url(#mask-2)"></path>
                    <path d="M66.2726119,118.498901 L54.1800673,118.498901 C52.6363382,118.498901 51.6071855,117.467919 51.6071855,115.921446 C51.6071855,114.374973 52.6363382,113.343991 54.1800673,113.343991 L66.2726119,113.343991 C67.816341,113.343991 68.8454937,114.374973 68.8454937,115.921446 C68.8454937,117.467919 67.816341,118.498901 66.2726119,118.498901 Z" id="Shape" fill="#00A3DE" fill-rule="nonzero" mask="url(#mask-2)"></path>
                    <path d="M60.3549837,96.5905359 C58.8112546,96.5905359 57.7821019,95.5595541 57.7821019,94.0130813 L57.7821019,84.9919898 C57.7821019,83.445517 58.8112546,82.4145352 60.3549837,82.4145352 C61.8987128,82.4145352 62.9278655,83.445517 62.9278655,84.9919898 L62.9278655,94.0130813 C62.9278655,95.5595541 61.6414246,96.5905359 60.3549837,96.5905359 Z" id="Shape" fill="#00A3DE" fill-rule="nonzero" mask="url(#mask-2)"></path>
                </g>
                <g id="policeman">
                    <rect id="Rectangle-5" fill="#00A3DE" x="10.5412647" y="126.72" width="220" height="5.28" rx="2.64"></rect>
                    <mask id="mask-4" fill="white">
                        <use xlink:href="#path-3"></use>
                    </mask>
                    <g id="Mask"></g>
                    <g mask="url(#mask-4)" id="Shape" fill-rule="nonzero" fill="#00A3DE">
                        <g transform="translate(17.186229, 15.840000)">
                            <path d="M62.4003198,27.72 L61.8732565,27.72 C45.2707647,25.08 29.9859309,27.72 29.9859309,27.72 C29.195336,27.72 28.4047412,27.72 27.8776779,27.192 L15.7552236,17.16 C14.9646287,16.368 14.7010971,15.312 14.9646287,14.256 C15.4916919,13.2 16.2822868,12.408 17.5999449,12.672 C17.5999449,12.672 31.5671206,12.936 44.2166382,1.056 C44.7437014,0.264 45.5342963,0 46.3248911,0 C47.115486,0 47.6425492,0.264 48.1696124,0.792 C58.7108771,12.408 74.5227741,12.144 74.7863058,12.144 C75.8404322,12.144 76.8945587,12.672 77.4216219,13.728 C77.6851535,14.784 77.4216219,15.84 76.6310271,16.632 L64.5085727,26.664 C63.7179778,27.456 63.1909146,27.72 62.4003198,27.72 Z M46.3248911,21.12 C51.0684602,21.12 56.3390926,21.384 61.8732565,22.176 L68.1980153,16.896 C62.1367881,15.84 53.4402448,13.2 46.0613595,6.072 C37.8918794,12.936 29.7223993,15.576 24.1882353,16.632 L30.7765257,21.912 C32.8847787,21.912 38.6824742,21.12 46.3248911,21.12 Z"></path>
                            <path d="M46.0613595,37.752 C30.5129941,37.752 22.6070456,34.584 22.343514,34.584 C21.5529191,34.32 21.0258559,33.528 20.7623243,32.736 C20.4987927,31.944 20.7623243,30.888 21.2893875,30.36 L27.6141463,23.232 C28.6682728,22.176 30.2494625,22.176 31.303589,22.968 C32.3577154,24.024 32.3577154,25.608 31.5671206,26.664 L28.1412095,30.624 C31.8306522,31.416 37.6283478,32.472 46.0613595,32.472 C47.6425492,32.472 48.6966757,33.528 48.6966757,35.112 C48.6966757,36.696 47.3790176,37.752 46.0613595,37.752 Z"></path>
                            <path d="M46.0613595,37.752 C44.4801698,37.752 43.4260433,36.696 43.4260433,35.112 C43.4260433,33.528 44.4801698,32.472 46.0613595,32.472 C54.4943712,32.472 60.5555984,31.416 63.9815095,30.624 L60.5555984,26.664 C59.501472,25.608 59.501472,24.024 60.8191301,22.968 C61.8732565,21.912 63.4544462,21.912 64.5085727,23.232 L71.0968631,30.096 C71.6239263,30.624 71.887458,31.68 71.6239263,32.472 C71.3603947,33.264 70.8333315,34.056 70.0427366,34.32 C69.5156734,34.584 61.6097249,37.752 46.0613595,37.752 Z"></path>
                            <path d="M77.9486852,153.912 L72.6780528,153.912 C71.0968631,153.912 70.0427366,152.856 70.0427366,151.272 C70.0427366,149.688 71.0968631,148.632 72.6780528,148.632 L77.9486852,148.632 C79.7934065,148.632 81.3745962,147.312 81.6381278,145.464 L83.2193175,134.904 C85.591102,119.856 86.6452285,104.544 85.8546337,89.232 C85.8546337,88.704 85.8546337,87.912 85.591102,87.384 C84.273444,75.768 75.313369,65.736 63.7179778,62.304 C62.927383,62.304 59.7650036,61.512 56.8661558,60.984 C55.5484977,60.72 54.4943712,59.4 54.7579029,57.816 C55.0214345,56.496 56.3390926,55.44 57.9202823,55.704 C61.0826617,56.232 65.0356359,57.024 65.0356359,57.024 L65.2991675,57.024 C79.5298749,60.984 89.5440763,72.6 91.125266,86.592 C91.125266,87.384 91.3887976,88.176 91.3887976,88.968 C92.1793925,104.544 91.3887976,120.384 88.7534814,135.696 L87.1722917,146.256 C86.1181653,150.744 82.4287226,153.912 77.9486852,153.912 Z"></path>
                            <path d="M19.4446662,153.912 L14.1740338,153.912 C9.69399636,153.912 6.00455372,150.744 5.21395887,146.256 L3.63276917,135.696 C0.997453002,120.384 0.206858151,104.544 0.997453002,88.968 C0.997453002,88.176 0.997453002,87.384 1.26098462,86.592 C2.84217432,72.6 13.1199074,60.984 27.0870831,57.024 L27.3506147,57.024 C27.3506147,57.024 31.0400573,56.496 34.4659684,55.704 C35.7836264,55.44 37.3648161,56.496 37.6283478,57.816 C37.8918794,59.136 36.8377529,60.72 35.5200948,60.984 C32.3577154,61.512 29.195336,62.04 28.4047412,62.304 C16.5458184,65.736 7.84927504,75.768 6.53161696,87.384 C6.53161696,87.912 6.53161696,88.704 6.26808534,89.232 C5.47749049,104.544 6.26808534,119.856 8.90340151,134.904 L10.4845912,145.464 C10.7481228,147.312 12.3293125,148.632 14.1740338,148.632 L19.4446662,148.632 C21.0258559,148.632 22.0799824,149.688 22.0799824,151.272 C22.0799824,152.856 21.0258559,153.912 19.4446662,153.912 Z"></path>
                            <path d="M67.1438889,242.616 L67.1438889,242.616 C65.5626992,242.616 64.5085727,241.296 64.5085727,239.976 C66.353294,191.664 69.2521418,89.76 69.2521418,88.704 C69.2521418,87.384 70.5697999,86.064 71.887458,86.064 L71.887458,86.064 C73.4686477,86.064 74.5227741,87.384 74.5227741,88.704 C74.5227741,89.76 71.887458,191.664 69.779205,240.24 C69.779205,241.56 68.4615469,242.616 67.1438889,242.616 Z"></path>
                            <path d="M24.9788301,242.616 C23.6611721,242.616 22.343514,241.56 22.343514,239.976 C20.4987927,191.664 17.5999449,89.496 17.5999449,88.44 C17.5999449,86.856 18.6540713,85.8 20.235261,85.8 L20.235261,85.8 C21.5529191,85.8 22.8705772,86.856 22.8705772,88.44 C22.8705772,89.496 25.5058934,191.4 27.6141463,239.712 C27.6141463,241.296 26.5600198,242.616 24.9788301,242.616 L24.9788301,242.616 Z"></path>
                            <path d="M46.0613595,64.944 C31.8306522,64.944 25.2423618,49.104 25.2423618,38.28 C25.2423618,36.96 25.2423618,35.64 25.5058934,34.32 C25.769425,33 27.0870831,31.944 28.6682728,32.208 C29.9859309,32.472 31.0400573,33.792 30.7765257,35.376 C30.5129941,36.432 30.5129941,37.224 30.5129941,38.28 C30.5129941,47.256 36.0471581,59.664 46.0613595,59.664 C56.0755609,59.664 61.6097249,47.256 61.6097249,38.28 C61.6097249,37.224 61.6097249,36.168 61.3461933,35.112 C61.0826617,33.792 61.8732565,32.208 63.4544462,31.944 C64.7721043,31.68 66.353294,32.472 66.6168256,34.056 C66.8803572,35.376 67.1438889,36.96 67.1438889,38.28 C66.8803572,49.104 60.2920668,64.944 46.0613595,64.944 Z"></path>
                            <path d="M87.1722917,101.376 L71.6239263,101.376 C70.0427366,101.376 68.9886102,100.32 68.9886102,98.736 C68.9886102,97.152 70.0427366,96.096 71.6239263,96.096 L87.1722917,96.096 C88.7534814,96.096 89.8076079,97.152 89.8076079,98.736 C89.8076079,100.32 88.7534814,101.376 87.1722917,101.376 Z"></path>
                            <path d="M20.235261,101.376 L4.68689564,101.376 C3.10570594,101.376 2.05157947,100.32 2.05157947,98.736 C2.05157947,97.152 3.10570594,96.096 4.68689564,96.096 L20.235261,96.096 C21.8164507,96.096 22.8705772,97.152 22.8705772,98.736 C22.8705772,100.32 21.8164507,101.376 20.235261,101.376 Z"></path>
                            <path d="M58.7108771,102.696 C58.1838139,102.696 57.6567506,102.696 57.393219,102.432 L53.967308,100.32 C52.6496499,99.792 51.8590551,98.208 51.8590551,96.624 L51.8590551,88.704 C51.8590551,86.328 53.7037764,84.48 56.0755609,84.48 L62.6638514,84.48 C65.0356359,84.48 66.8803572,86.328 66.8803572,88.704 L66.8803572,96.36 C66.8803572,97.944 65.8262308,99.528 64.5085727,100.056 L60.5555984,102.168 C59.501472,102.432 58.9744087,102.696 58.7108771,102.696 Z M56.8661558,95.832 L58.7108771,96.888 L61.0826617,95.568 L61.0826617,89.76 L56.8661558,89.76 L56.8661558,95.832 Z M56.0755609,95.568 L56.0755609,95.568 L56.0755609,95.568 Z"></path>
                            <path d="M46.0613595,77.88 C45.2707647,77.88 44.4801698,77.616 43.9531066,76.824 L31.303589,60.984 C30.5129941,59.928 30.5129941,58.08 31.8306522,57.288 C32.8847787,56.496 34.7295,56.496 35.5200948,57.816 L45.7978279,71.016 L55.0214345,58.08 C55.8120293,57.024 57.393219,56.496 58.7108771,57.552 C59.7650036,58.344 60.2920668,59.928 59.2379403,61.248 L47.9060808,77.088 C47.6425492,77.616 46.8519544,77.88 46.0613595,77.88 L46.0613595,77.88 Z"></path>
                            <path d="M46.0613595,135.168 C44.4801698,135.168 43.4260433,134.112 43.4260433,132.528 L43.4260433,75.24 C43.4260433,73.656 44.4801698,72.6 46.0613595,72.6 C47.6425492,72.6 48.6966757,73.656 48.6966757,75.24 L48.6966757,132.264 C48.6966757,133.848 47.6425492,135.168 46.0613595,135.168 Z"></path>
                            <path d="M60.2920668,79.2 L59.7650036,79.2 L47.6425492,77.088 C46.3248911,76.824 45.2707647,75.504 45.5342963,74.184 C45.7978279,72.864 47.115486,71.808 48.4331441,72.072 L57.393219,73.656 L56.8661558,59.664 C56.8661558,58.08 57.9202823,57.024 59.501472,57.024 C60.8191301,57.024 62.1367881,58.08 62.1367881,59.664 L62.6638514,76.824 C62.6638514,77.616 62.4003198,78.408 61.8732565,78.936 C61.3461933,79.2 60.8191301,79.2 60.2920668,79.2 Z"></path>
                            <path d="M31.0400573,79.2 C30.5129941,79.2 29.7223993,78.936 29.195336,78.672 C28.6682728,78.144 28.4047412,77.352 28.4047412,76.56 L28.9318044,59.4 C28.9318044,57.816 30.2494625,56.76 31.5671206,56.76 C33.1483103,56.76 34.2024367,58.08 34.2024367,59.4 L33.6753735,73.392 L42.6354485,71.808 C43.9531066,71.544 45.5342963,72.6 45.5342963,73.92 C45.7978279,75.24 44.7437014,76.824 43.4260433,76.824 L31.5671206,79.2 L31.0400573,79.2 Z"></path>
                            <path d="M37.1012845,92.136 L28.4047412,92.136 C26.8235515,92.136 25.769425,91.08 25.769425,89.496 C25.769425,87.912 26.8235515,86.856 28.4047412,86.856 L37.1012845,86.856 C38.6824742,86.856 39.7366007,87.912 39.7366007,89.496 C39.7366007,91.08 38.6824742,92.136 37.1012845,92.136 Z"></path>
                        </g>
                    </g>
                </g>
            </g>
        </g>
    </g>
</svg>