<?xml version="1.0" encoding="UTF-8" standalone="no"?>
<svg width="320px" height="235px" viewBox="0 0 320 235" version="1.1" xmlns="http://www.w3.org/2000/svg" xmlns:xlink="http://www.w3.org/1999/xlink">
    <!-- Generator: Sketch 42 (36781) - http://www.bohemiancoding.com/sketch -->
    <title>intro-confetti-03</title>
    <desc>Created with Sketch.</desc>
    <defs></defs>
    <g id="Page-1" stroke="none" stroke-width="1" fill="none" fill-rule="evenodd">
        <g id="intro-3" transform="translate(-28.000000, -57.000000)" fill-rule="nonzero" fill="#89D3E7">
            <g id="intro-confetti-03" transform="translate(26.000000, 57.000000)">
                <path d="M43.8343349,178.45958 C43.8343349,178.731496 43.743554,179.003412 43.652773,179.275329 C43.1080872,180.725548 41.4740298,181.450657 40.0215344,180.861506 C29.7178948,176.828084 13.0595876,172.613385 8.38436784,175.785739 C7.83968205,176.148294 7.29499625,176.692126 7.29499625,178.051706 C7.29499625,180.680228 12.8326352,180.906825 12.9234161,180.906825 C14.4666925,180.906825 15.7376261,182.175766 15.7376261,183.716624 C15.6922356,185.302801 14.4666925,186.526423 12.9234161,186.526423 C9.0198346,186.526423 1.66657638,184.71365 1.71196686,178.051706 C1.71196686,175.06063 2.9375099,172.704024 5.25242452,171.163166 C14.0581782,165.181013 37.4796673,173.837007 42.1094966,175.649781 C43.2442587,176.102975 43.9251159,177.281277 43.8343349,178.45958 Z" id="Shape" transform="translate(22.777084, 177.805989) rotate(-25.000000) translate(-22.777084, -177.805989) "></path>
                <path d="M201.713885,215.36599 C201.713885,215.58076 201.642183,215.79553 201.57048,216.0103 C201.140266,217.155741 199.849622,217.728461 198.702384,217.263126 C190.564159,214.077369 177.406765,210.748432 173.714091,213.254083 C173.283876,213.540444 172.853662,213.969984 172.853662,215.043834 C172.853662,217.119946 177.227509,217.298921 177.299212,217.298921 C178.518153,217.298921 179.521987,218.301181 179.521987,219.518212 C179.486136,220.771038 178.518153,221.737503 177.299212,221.737503 C174.216008,221.737503 168.408112,220.305702 168.443963,215.043834 C168.443963,212.681363 169.411946,210.820022 171.240358,209.602991 C178.195492,204.878049 196.694716,211.714898 200.351539,213.146698 C201.247819,213.504649 201.785587,214.435319 201.713885,215.36599 Z" id="Shape-Copy-4" transform="translate(185.082031, 214.849757) rotate(-117.000000) translate(-185.082031, -214.849757) "></path>
                <path d="M268.097947,23.3206921 C268.097947,23.5926082 268.007166,23.8645242 267.916385,24.1364403 C267.371699,25.5866593 265.737642,26.3117687 264.285146,25.7226173 C253.981507,21.6891958 237.323199,17.4744969 232.64798,20.6468509 C232.103294,21.0094056 231.558608,21.5532377 231.558608,22.912818 C231.558608,25.5413399 237.096247,25.7679366 237.187028,25.7679366 C238.730304,25.7679366 240.001238,27.0368782 240.001238,28.5777359 C239.955847,30.1639129 238.730304,31.3875352 237.187028,31.3875352 C233.283446,31.3875352 225.930188,29.5747614 225.975579,22.912818 C225.975579,19.9217414 227.201122,17.5651356 229.516036,16.0242779 C238.32179,10.0421246 261.743279,18.6981191 266.373108,20.5108928 C267.50787,20.9640863 268.188728,22.1423892 268.097947,23.3206921 Z" id="Shape-Copy" transform="translate(247.040696, 22.667101) rotate(144.000000) translate(-247.040696, -22.667101) "></path>
                <path d="M56.8067722,51.0815482 C57.0403051,51.8476682 57.0069433,52.7137169 56.606601,53.4798369 C55.3388506,55.9114352 53.6373961,57.7434613 51.6356849,58.7094387 C49.5338882,59.7420352 47.2319203,59.7420352 45.3302947,58.7760578 C41.9607475,57.0439604 40.0924838,52.2806926 43.0616887,46.5514473 C44.1959917,44.3197064 43.8623732,42.9873238 43.5287546,42.8207759 C43.1951361,42.6542281 41.8940238,43.120562 40.7597208,45.3523029 C39.4919704,47.7839012 37.7905159,49.6159273 35.7888047,50.5819047 C33.687008,51.6145012 31.3850401,51.6145012 29.4834145,50.6485238 C26.1138673,48.9164264 24.2456035,44.1531586 27.2148085,38.4239133 C28.0488548,36.7917446 28.0488548,35.7591481 27.9487692,35.2928141 C27.8820455,34.9264089 27.7485981,34.7265515 27.6485125,34.693242 C27.314894,34.5266941 26.0137817,34.993028 24.8794787,37.2247689 C24.0787943,38.757009 22.1771686,39.3898907 20.6425234,38.5904611 C19.1078782,37.7910316 18.4740029,35.8923863 19.2746874,34.3601463 C22.2105305,28.5975915 27.1814466,27.3651375 30.5509938,29.0972349 C33.9205409,30.8293324 35.7888047,35.5926002 32.8195998,41.3218455 C31.9855535,42.9540142 31.9855535,43.9866107 32.085639,44.4529447 C32.1523627,44.8193499 32.2858101,45.0192073 32.3858957,45.0525168 C32.7195142,45.2190647 34.0206265,44.7527307 35.1549295,42.4876803 C38.1241344,36.758435 43.0616887,35.4926715 46.4312358,37.2247689 C49.800783,38.9568663 51.6690468,43.7201342 48.6998419,49.4493795 C47.8657955,51.0815482 47.8657955,52.1141447 47.9658811,52.5804786 C48.0326048,52.9468839 48.1660522,53.1467413 48.2661378,53.1800508 C48.5997563,53.3465987 49.9008686,52.8802647 51.0351716,50.6485238 C51.8358561,49.1162838 53.7374817,48.4834021 55.2721269,49.2828317 C56.0060877,49.6159273 56.5398773,50.3154282 56.8067722,51.0815482 Z" id="Shape"></path>
                <path d="M283.582567,85.8343508 C282.992491,85.6077541 282.447805,85.19988 282.175462,84.5654092 C281.267652,82.6166775 280.949919,80.6679457 281.267652,78.9911301 C281.630776,77.1783563 282.720148,75.7734567 284.263424,75.0483472 C286.941463,73.7794056 290.799654,74.8670698 292.978397,79.4896428 C293.840816,81.2570972 294.839407,81.7102906 295.111749,81.5743326 C295.384092,81.4383746 295.701826,80.3960297 294.839407,78.6285753 C293.931597,76.6798436 293.613864,74.7311118 293.931597,73.0542961 C294.294721,71.2415224 295.384092,69.7913034 296.927369,69.1115133 C299.605407,67.8425717 303.463598,68.9302359 305.642341,73.5528089 C306.277808,74.8670698 306.913275,75.3655826 307.231008,75.5015406 C307.503351,75.6374987 307.684913,75.6374987 307.775694,75.5921793 C308.048037,75.4562213 308.36577,74.4138764 307.503351,72.646422 C306.913275,71.4227998 307.457961,69.9272615 308.683504,69.33811 C309.909047,68.7489585 311.406933,69.2927907 311.997009,70.5164129 C314.175752,75.0936666 312.587085,78.8098527 309.909047,80.0787943 C307.231008,81.3477359 303.372817,80.2600717 301.194074,75.6374987 C300.558607,74.3232377 299.923141,73.8700443 299.605407,73.6887669 C299.333064,73.5528089 299.151502,73.5528089 299.060721,73.5981282 C298.788379,73.7340863 298.470645,74.7764312 299.333064,76.5438855 C301.511808,81.1211392 299.923141,84.8373253 297.245102,86.1062669 C294.567064,87.3752085 290.708873,86.2875443 288.530129,81.6649713 C287.894663,80.3507103 287.259196,79.8975169 286.941463,79.7162395 C286.66912,79.5802815 286.487558,79.5802815 286.396777,79.6256009 C286.124434,79.7615589 285.8067,80.8039038 286.66912,82.5713582 C287.259196,83.7949804 286.71451,85.2905187 285.488967,85.8796702 C284.898891,86.0609476 284.218034,86.0609476 283.582567,85.8343508 Z" id="Shape"></path>
                <path d="M83.9888983,233.749402 C83.4442125,234.066638 82.7633553,234.157276 82.1278885,233.975999 C80.0399263,233.432167 78.3604785,232.389822 77.2711069,231.030242 C76.1363448,229.580023 75.7278305,227.812568 76.1817353,226.181072 C76.9533735,223.325953 80.3122692,221.105306 85.2144414,222.419567 C87.1208417,222.918079 88.0740418,222.464886 88.1648228,222.14765 C88.2556037,221.875734 87.6655275,220.969348 85.7591272,220.425515 C83.671165,219.881683 81.9917171,218.839338 80.9023455,217.479758 C79.7675834,216.029539 79.3590691,214.262085 79.8129739,212.630588 C80.5846121,209.77547 83.9435079,207.554822 88.84568,208.869083 C90.252785,209.231638 91.0244232,209.05036 91.387547,208.914402 C91.6598899,208.778444 91.7960614,208.687806 91.7960614,208.597167 C91.8868424,208.325251 91.2967661,207.418864 89.3903658,206.875032 C88.0740418,206.512477 87.3024036,205.152897 87.620137,203.838636 C87.9832608,202.524375 89.3449753,201.753946 90.6612993,202.071182 C95.5634715,203.385442 97.3790908,206.965671 96.6074526,209.866109 C95.8358144,212.721227 92.4769186,214.941875 87.5747465,213.627614 C86.1676415,213.265059 85.3960033,213.446337 85.0328794,213.582295 C84.7605365,213.718253 84.6243651,213.808891 84.6243651,213.89953 C84.5335841,214.171446 85.1236604,215.077833 87.0300607,215.621665 C91.9322328,216.935926 93.7478522,220.516154 92.9762139,223.416592 C92.2045757,226.271711 88.84568,228.492358 83.9435079,227.178098 C82.5364029,226.815543 81.7647647,226.99682 81.4016408,227.132778 C81.1292979,227.268736 80.9931265,227.359375 80.9931265,227.450014 C80.9023455,227.72193 81.4924218,228.628317 83.3988221,229.172149 C84.7151461,229.534703 85.4867843,230.894284 85.1690509,232.208545 C84.987489,232.888335 84.5335841,233.432167 83.9888983,233.749402 Z" id="Shape"></path>
                <path d="M20.9888983,109.749402 C20.4442125,110.066638 19.7633553,110.157276 19.1278885,109.975999 C17.0399263,109.432167 15.3604785,108.389822 14.2711069,107.030242 C13.1363448,105.580023 12.7278305,103.812568 13.1817353,102.181072 C13.9533735,99.3259534 17.3122692,97.1053056 22.2144414,98.4195665 C24.1208417,98.9180793 25.0740418,98.4648859 25.1648228,98.1476505 C25.2556037,97.8757344 24.6655275,96.9693475 22.7591272,96.4255154 C20.671165,95.8816833 18.9917171,94.8393384 17.9023455,93.4797581 C16.7675834,92.0295392 16.3590691,90.2620848 16.8129739,88.6305884 C17.5846121,85.7754698 20.9435079,83.554822 25.84568,84.869083 C27.252785,85.2316377 28.0244232,85.0503603 28.387547,84.9144023 C28.6598899,84.7784443 28.7960614,84.6878056 28.7960614,84.5971669 C28.8868424,84.3252509 28.2967661,83.418864 26.3903658,82.8750319 C25.0740418,82.5124771 24.3024036,81.1528969 24.620137,79.8386359 C24.9832608,78.524375 26.3449753,77.7539461 27.6612993,78.0711815 C32.5634715,79.3854425 34.3790908,82.9656706 33.6074526,85.8661085 C32.8358144,88.7212271 29.4769186,90.9418749 24.5747465,89.627614 C23.1676415,89.2650592 22.3960033,89.4463366 22.0328794,89.5822946 C21.7605365,89.7182527 21.6243651,89.8088914 21.6243651,89.89953 C21.5335841,90.1714461 22.1236604,91.077833 24.0300607,91.6216651 C28.9322328,92.935926 30.7478522,96.5161541 29.9762139,99.4165921 C29.2045757,102.271711 25.84568,104.492358 20.9435079,103.178098 C19.5364029,102.815543 18.7647647,102.99682 18.4016408,103.132778 C18.1292979,103.268736 17.9931265,103.359375 17.9931265,103.450014 C17.9023455,103.72193 18.4924218,104.628317 20.3988221,105.172149 C21.7151461,105.534703 22.4867843,106.894284 22.1690509,108.208545 C21.987489,108.888335 21.5335841,109.432167 20.9888983,109.749402 Z" id="Shape-Copy-3"></path>
                <path d="M268.477894,188.967586 C273.879362,185.568635 278.736143,186.973535 280.733325,190.145889 C282.730506,193.318243 281.913477,198.258051 276.51201,201.657002 C274.424048,202.971263 274.060924,204.285524 274.242486,204.602759 C274.469438,204.919995 275.785762,205.146591 277.873724,203.83233 C283.275192,200.43338 288.131973,201.838279 290.129155,205.010633 C292.126336,208.182987 291.309307,213.122796 285.90784,216.521746 C283.819878,217.836007 283.456754,219.150268 283.638316,219.467504 C283.819878,219.784739 285.181592,220.011336 287.269554,218.697075 C288.72205,217.790688 290.62845,218.198562 291.58165,219.648781 C292.48946,221.099 292.080945,223.002412 290.583059,223.954119 C285.181592,227.353069 280.32481,225.94817 278.327629,222.775816 C276.330448,219.603462 277.147477,214.663653 282.548944,211.264703 C284.636906,209.950442 285.00003,208.636181 284.818468,208.318945 C284.636906,208.00171 283.275192,207.775113 281.18723,209.089374 C275.785762,212.488325 270.92898,211.083425 268.931799,207.911071 C266.934618,204.738717 267.751647,199.798909 273.153114,196.399958 C275.241076,195.085697 275.6042,193.771436 275.422638,193.454201 C275.195686,193.136965 273.879362,192.910369 271.7914,194.22463 C270.338904,195.131017 268.432504,194.723142 267.479304,193.272923 C266.571494,191.777385 266.980008,189.873973 268.477894,188.967586 Z" id="Shape"></path>
                <path d="M137.208821,1.52643187 C141.399221,-1.11043738 145.16706,-0.0205314259 146.716451,2.44054654 C148.265843,4.9016245 147.632001,8.73387448 143.441601,11.3707437 C141.821782,12.3903332 141.540075,13.4099226 141.680928,13.6560304 C141.856996,13.9021382 142.878186,14.0779295 144.498004,13.05834 C148.688404,10.4214708 152.456243,11.5113767 154.005635,13.9724547 C155.555026,16.4335327 154.921184,20.2657827 150.730784,22.9026519 C149.110966,23.9222413 148.829258,24.9418308 148.970112,25.1879386 C149.110966,25.4340464 150.167369,25.6098377 151.787188,24.5902482 C152.914018,23.8870831 154.392983,24.2035074 155.132465,25.3285716 C155.836734,26.4536358 155.519813,27.9302826 154.357769,28.668606 C150.167369,31.3054752 146.39953,30.2155693 144.850139,27.7544913 C143.300747,25.2934133 143.934589,21.4611634 148.124989,18.8242941 C149.744808,17.8047047 150.026515,16.7851152 149.885661,16.5390074 C149.744808,16.2928997 148.688404,16.1171084 147.068586,17.1366978 C142.878186,19.7735671 139.110347,18.6836611 137.560955,16.2225831 C136.011564,13.7615052 136.645406,9.9292552 140.835806,7.29238595 C142.455624,6.27279651 142.737332,5.25320707 142.596478,5.00709927 C142.420411,4.76099148 141.399221,4.58520019 139.779402,5.60478964 C138.652572,6.30795477 137.173607,5.99153046 136.434125,4.86646625 C135.729856,3.70624378 136.046777,2.229597 137.208821,1.52643187 Z" id="Shape-Copy-2"></path>
                <path d="M284.182323,162.036416 C283.356691,161.937496 282.59711,161.475866 282.101731,160.717476 C281.276099,159.398535 281.672402,157.650939 282.993413,156.826601 C283.653919,156.397945 299.605126,146.670759 319.882643,152.012468 C321.401806,152.40815 322.293488,153.957905 321.897185,155.474687 C321.500881,156.991469 319.948694,157.881753 318.429531,157.486071 C300.529833,152.770859 286.130814,161.541813 285.998713,161.640734 C285.437284,161.970469 284.776778,162.102363 284.182323,162.036416 Z" id="Shape" transform="translate(301.831152, 156.233732) rotate(23.000000) translate(-301.831152, -156.233732) "></path>
                <ellipse id="Oval" cx="278.448266" cy="42.8490997" rx="5.08373408" ry="5.07576641"></ellipse>
                <ellipse id="Oval-Copy-2" cx="196.083734" cy="26.0757664" rx="5.08373408" ry="5.07576641"></ellipse>
                <ellipse id="Oval-Copy-4" cx="222.872746" cy="205.075766" rx="5.08373408" ry="5.07576641"></ellipse>
                <ellipse id="Oval" cx="143.445449" cy="208.435347" rx="6.44544856" ry="6.4353467"></ellipse>
                <ellipse id="Oval-Copy-3" cx="297.445449" cy="116.435347" rx="6.44544856" ry="6.4353467"></ellipse>
                <ellipse id="Oval" cx="40.4454486" cy="136.435347" rx="6.44544856" ry="6.4353467"></ellipse>
                <ellipse id="Oval-Copy" cx="100.716385" cy="21.3153467" rx="6.44544856" ry="6.4353467"></ellipse>
            </g>
        </g>
    </g>
</svg>