<svg xmlns="http://www.w3.org/2000/svg" xmlns:xlink="http://www.w3.org/1999/xlink" viewBox="-3188 4223.526 1078.893 475.545"><defs><style>.a{fill:none;}.b{clip-path:url(#a);}.c{clip-path:url(#b);}.d{fill:#00a3dd;}.e{clip-path:url(#c);}.f{clip-path:url(#d);}.g{clip-path:url(#e);}.h{clip-path:url(#f);}.i{clip-path:url(#g);}.j{clip-path:url(#h);}.k{clip-path:url(#i);}.l{clip-path:url(#j);}.m{clip-path:url(#k);}.n{clip-path:url(#l);}.o{clip-path:url(#m);}.p{clip-path:url(#n);}.q{clip-path:url(#o);}.r{clip-path:url(#p);}.s{clip-path:url(#q);}.t{clip-path:url(#r);}.u{clip-path:url(#s);}.v{clip-path:url(#t);}.w{clip-path:url(#u);}.x{clip-path:url(#v);}</style><clipPath id="a"><path class="a" d="M201.762,44.9a12.661,12.661,0,0,1-.87,3.907,13.236,13.236,0,0,1-17.393,7.6C134.146,37.086,54.355,16.9,31.961,32.093c-2.609,1.737-5.218,4.341-5.218,10.854,0,12.59,26.525,13.676,26.959,13.676a13.459,13.459,0,1,1,0,26.917C35,83.539-.216,74.856,0,42.947c0-14.327,5.87-25.615,16.958-33C59.138-18.7,171.324,22.759,193.5,31.442A13.468,13.468,0,0,1,201.762,44.9Z" transform="translate(0 0)"/></clipPath><clipPath id="b"><path class="a" d="M0,3194.844H1796.2V0H0Z" transform="translate(0 0)"/></clipPath><clipPath id="c"><path class="a" d="M1.84,117.062A11.225,11.225,0,0,1,.426,113.8,11.749,11.749,0,0,1,8.953,99.27C54.478,87.393,122.317,60.257,130.471,37.66c.968-2.609,1.482-5.841-1.916-10.518-6.569-9.043-26.185,4.019-26.5,4.245A11.948,11.948,0,1,1,88.012,12.056c13.429-9.756,43.254-21.9,59.749,1.132,7.476,10.29,9.15,21.459,5.037,32.545-15.341,42.587-117.545,71.348-138,76.683A11.955,11.955,0,0,1,1.84,117.062Z" transform="translate(0 0)"/></clipPath><clipPath id="d"><path class="a" d="M0,2836.142H1594.533V0H0Z"/></clipPath><clipPath id="e"><path class="a" d="M115.261,69.1a9.658,9.658,0,0,1-.609,7.3c-3.857,7.4-9.035,12.974-15.125,15.913a21.329,21.329,0,0,1-19.186.2c-10.253-5.27-15.938-19.764-6.9-37.2,3.451-6.791,2.436-10.845,1.421-11.351s-4.974.912-8.426,7.7c-3.858,7.4-9.035,12.973-15.125,15.913a21.328,21.328,0,0,1-19.186.2c-10.253-5.27-15.938-19.764-6.9-37.2,2.538-4.966,2.538-8.108,2.233-9.527-.2-1.115-.609-1.723-.914-1.824-1.015-.507-4.974.912-8.426,7.7A9.576,9.576,0,0,1,1.058,18.217C9.991.682,25.117-3.068,35.37,2.2s15.938,19.764,6.9,37.2c-2.538,4.966-2.538,8.108-2.233,9.527.2,1.115.609,1.723.914,1.824,1.015.507,4.974-.912,8.426-7.8C58.413,25.514,73.437,21.663,83.69,26.933s15.938,19.764,6.9,37.2c-2.538,4.966-2.538,8.108-2.233,9.527.2,1.115.609,1.723.914,1.824,1.015.507,4.974-.912,8.426-7.7a9.617,9.617,0,0,1,12.892-4.156A9.273,9.273,0,0,1,115.261,69.1Z" transform="translate(0 0)"/></clipPath><clipPath id="f"><path class="a" d="M0,2029.542H1141.047V0H0Z"/></clipPath><clipPath id="g"><path class="a" d="M7.939,56.129a7.88,7.88,0,0,1-4.588-4.138c-2.96-6.354-4-12.708-2.96-18.176A17.649,17.649,0,0,1,10.159,20.96c8.732-4.137,21.312-.591,28.416,14.481,2.812,5.763,6.068,7.241,6.956,6.8s1.924-3.842-.888-9.6c-2.96-6.354-4-12.708-2.96-18.176C42.867,8.548,46.419,3.819,51.451,1.6c8.732-4.137,21.312-.591,28.416,14.481,2.072,4.285,4.144,5.911,5.18,6.354a2.151,2.151,0,0,0,1.776.3c.888-.443,1.924-3.842-.888-9.605a8.107,8.107,0,0,1,14.652-6.945c7.1,14.925,1.924,27.042-6.808,31.179s-21.312.591-28.416-14.481c-2.072-4.285-4.144-5.763-5.18-6.354a2.151,2.151,0,0,0-1.776-.3c-.888.443-1.924,3.842.888,9.605,7.1,14.924,1.924,27.042-6.808,31.179s-21.312.591-28.416-14.481c-2.072-4.285-4.144-5.763-5.18-6.354a2.152,2.152,0,0,0-1.776-.3c-.888.443-1.924,3.842.888,9.605a8.148,8.148,0,0,1-3.848,10.787A9.967,9.967,0,0,1,7.939,56.129Z" transform="translate(0 0)"/></clipPath><clipPath id="h"><path class="a" d="M0,2174.825H1222.728V0H0Z"/></clipPath><clipPath id="i"><path class="a" d="M33.038,131.3a9.969,9.969,0,0,1-7.7.937c-8.635-2.249-15.58-6.56-20.085-12.182C.564,114.057-1.126,106.748.752,100,3.943,88.194,17.833,79.01,38.106,84.445c7.884,2.062,11.826.187,12.2-1.124.375-1.125-2.065-4.873-9.949-7.122-8.635-2.249-15.58-6.56-20.085-12.182-4.693-6-6.382-13.307-4.505-20.054C18.96,32.156,32.85,22.972,53.123,28.407c5.819,1.5,9.01.75,10.512.187,1.126-.562,1.689-.937,1.689-1.312.375-1.124-2.065-4.873-9.949-7.122A10.472,10.472,0,0,1,48.055,7.6,10.492,10.492,0,0,1,60.632.294C80.9,5.73,88.413,20.536,85.222,32.53,82.031,44.338,68.14,53.521,47.867,48.086c-5.819-1.5-9.01-.75-10.512-.187-1.126.562-1.689.937-1.689,1.312-.375,1.124,2.065,4.873,9.949,7.122C65.888,61.768,73.4,76.574,70.205,88.568c-3.191,11.807-17.082,20.991-37.355,15.556-5.819-1.5-9.01-.75-10.512-.187-1.126.562-1.689.937-1.689,1.312-.375,1.125,2.065,4.873,9.949,7.122a10.472,10.472,0,0,1,7.321,12.557A10.6,10.6,0,0,1,33.038,131.3Z" transform="translate(0 0)"/></clipPath><clipPath id="j"><path class="a" d="M0,2758.382H1550.814V0H0Z"/></clipPath><clipPath id="k"><path class="a" d="M5.424,7.221C25.247-5.253,43.071-.1,50.4,11.545S54.732,41.316,34.909,53.79c-7.663,4.823-9,9.647-8.329,10.811.833,1.164,5.664,2,13.326-2.827C59.729,49.3,77.553,54.456,84.883,66.1s4.331,29.771-15.492,42.245c-7.662,4.823-9,9.647-8.329,10.811s5.664,2,13.327-2.827a11.56,11.56,0,0,1,15.825,3.493,11.418,11.418,0,0,1-3.664,15.8C66.726,148.094,48.9,142.938,41.572,131.3S37.241,101.524,57.064,89.05c7.663-4.823,9-9.647,8.329-10.811s-5.664-2-13.327,2.827C32.243,93.541,14.419,88.385,7.09,76.743S2.758,46.971,22.582,34.5c7.663-4.823,9-9.647,8.329-10.811-.833-1.164-5.663-2-13.326,2.827A11.56,11.56,0,0,1,1.759,23.021,11.352,11.352,0,0,1,5.424,7.221Z" transform="translate(0 0)"/></clipPath><clipPath id="l"><path class="a" d="M0,2447.856H1376.231V0H0Z" transform="translate(0 0)"/></clipPath><clipPath id="m"><path class="a" d="M7.33,28.556A14.775,14.775,0,0,1,.181,18.2,14.423,14.423,0,0,1,12.136,1.693C16.1,1,110.491-12.9,195.155,52.672A14.461,14.461,0,1,1,177.4,75.5C102.666,17.62,17.476,30.119,16.658,30.321A15.315,15.315,0,0,1,7.33,28.556Z" transform="translate(0 0)"/></clipPath><clipPath id="n"><path class="a" d="M0,2478.341H1393.37V0H0Z"/></clipPath><clipPath id="o"><path class="a" d="M234.543-61.934A20.162,20.162,0,0,0,254.72-82.08a20.162,20.162,0,0,0-20.178-20.146A20.162,20.162,0,0,0,214.365-82.08,20.162,20.162,0,0,0,234.543-61.934Z" transform="translate(-214.365 102.227)"/></clipPath><clipPath id="p"><path class="a" d="M-60,2383.4H1428.415V-264H-60Z" transform="translate(60 264)"/></clipPath><clipPath id="q"><path class="a" d="M177.437-143.742a14.16,14.16,0,0,0,14.171-14.149,14.16,14.16,0,0,0-14.171-14.149,14.16,14.16,0,0,0-14.171,14.149A14.16,14.16,0,0,0,177.437-143.742Z" transform="translate(-163.266 172.04)"/></clipPath><clipPath id="r"><path class="a" d="M-60,1595.279H985.321V-264H-60Z" transform="translate(60 264)"/></clipPath><clipPath id="s"><path class="a" d="M60.373-27.64a17.984,17.984,0,0,0,18-17.97,17.984,17.984,0,0,0-18-17.97,17.984,17.984,0,0,0-18,17.97A17.984,17.984,0,0,0,60.373-27.64Z" transform="translate(-42.374 63.58)"/></clipPath><clipPath id="t"><path class="a" d="M-60,1598.546H987.159V-264H-60Z" transform="translate(60 264)"/></clipPath><clipPath id="u"><path class="a" d="M94.972-106.773a17.687,17.687,0,0,0,17.7-17.674,17.687,17.687,0,0,0-17.7-17.673,17.687,17.687,0,0,0-17.7,17.673A17.687,17.687,0,0,0,94.972-106.773Z" transform="translate(-77.271 142.12)"/></clipPath><clipPath id="v"><path class="a" d="M-60,1567.795H969.87V-264H-60Z" transform="translate(60 264)"/></clipPath></defs><g class="b" transform="matrix(0.94, 0.342, -0.342, 0.94, -3159.428, 4551.551)"><g class="c" transform="translate(-287.392 -798.759)"><path class="d" d="M0,0H249.7V131.438H0Z" transform="translate(263.443 774.81)"/></g></g><g class="e" transform="translate(-2550.598 4268.841) rotate(-17)"><g class="f" transform="translate(-1021.301 -382.624)"><path class="d" d="M247.914,94.4,68.584,224.688,0,130.291,179.33,0Z" transform="translate(973.255 336.962)"/></g></g><g class="g" transform="translate(-3134.061 4399.956) rotate(-7)"><g class="h" transform="translate(-258.415 -378.442)"><path class="d" d="M0,0H146.132V125.117H0Z" transform="translate(243.201 363.228)"/></g></g><g class="i" transform="matrix(0.94, -0.342, 0.342, 0.94, -2388.878, 4400.071)"><g class="j" transform="translate(-858.022 -409.597)"><path class="d" d="M0,0H136.527V91.225H0Z" transform="translate(841.719 393.294)"/></g></g><g class="k" transform="matrix(-0.788, 0.616, -0.616, -0.788, -2761.992, 4354.468)"><g class="l" transform="translate(-490.373 -957.728)"><path class="d" d="M0,0H127.284V173.974H0Z" transform="translate(469.696 937.05)"/></g></g><g class="m" transform="translate(-2185.045 4571.986) rotate(83)"><g class="n" transform="translate(-810.227 -785.859)"><path class="d" d="M0,0H128.672V179.54H0Z" transform="translate(791.878 767.509)"/></g></g><g class="o" transform="matrix(0.819, -0.574, 0.574, 0.819, -2318.62, 4522.573)"><g class="p" transform="translate(-954.486 -715.572)"><path class="d" d="M37.741,0,261.484,94.973l-37.741,88.913L0,88.913Z" transform="translate(925.617 660.124)"/></g></g><g class="q" transform="translate(-3027.789 4531.497)"><g class="r" transform="translate(-1088.982 -642.096)"><path class="d" d="M209.365-107.227h80.047v79.984H209.365Z" transform="translate(859.772 729.477)"/></g></g><g class="s" transform="translate(-3021.417 4341.497)"><g class="t" transform="translate(-622.359 -256.341)"><path class="d" d="M158.266-177.04h56.217v56.173H158.266Z" transform="translate(450.156 419.443)"/></g></g><g class="u" transform="translate(-2250.25 4373.494)"><g class="v" transform="translate(-285.873 -559.657)"><path class="d" d="M37.374-68.58H101.3V-4.715H37.374Z" transform="translate(234.536 614.275)"/></g></g><g class="w" transform="translate(-3160.42 4290.186)"><g class="x" transform="translate(-376.99 -334.721)"><path class="d" d="M72.271-147.12h62.866v62.81H72.271Z" transform="translate(290.987 468.11)"/></g></g></svg>